<svg width="55" height="55" viewBox="0 0 55 55" fill="none" xmlns="http://www.w3.org/2000/svg">
<g clip-path="url(#clip0_226_671)">
<path d="M27.5 54.3984C13.8789 54.3984 0.0429688 51.4766 0.0429688 45.8906C0.0429688 40.9062 10.6992 38.8437 15.2539 38.1992H15.4258C16.0703 38.1992 16.6289 38.6719 16.7148 39.3164C16.7578 39.6602 16.6719 40.0039 16.457 40.2617C16.2422 40.5195 15.9414 40.7344 15.5977 40.7773C6.10156 42.1523 2.57812 44.6445 2.57812 45.9336C2.57812 48.3398 12.2891 51.8633 27.457 51.8633C42.625 51.8633 52.3359 48.3398 52.3359 45.9336C52.3359 44.6445 48.7695 42.1523 39.1875 40.7773C38.8437 40.7344 38.543 40.5625 38.3281 40.2617C38.1133 40.0039 38.0273 39.6602 38.0703 39.3164C38.1562 38.6719 38.7148 38.1992 39.3594 38.1992H39.5312C44.1289 38.8437 54.8711 40.9062 54.8711 45.8906C54.9141 51.4336 41.1211 54.3984 27.5 54.3984ZM26.5977 45.2891C25.9531 44.6875 11.0859 30.6367 11.0859 16.8437C11.0859 7.82031 18.4336 0.472656 27.457 0.472656C36.4805 0.472656 43.8281 7.82031 43.8281 16.8437C43.8281 30.25 28.9609 44.6445 28.3164 45.2461L27.457 46.1055L26.5977 45.2891ZM27.5 3.05078C19.8945 3.05078 13.707 9.23828 13.707 16.8437C13.707 27.6289 24.2344 39.1875 27.5 42.4961C30.8086 39.1016 41.3359 27.3281 41.3359 16.8437C41.293 9.28125 35.1055 3.05078 27.5 3.05078ZM27.5 24.1484C23.2031 24.1484 19.7227 20.668 19.7227 16.3711C19.7227 12.0742 23.2031 8.59375 27.5 8.59375C31.7969 8.59375 35.2773 12.0742 35.2773 16.3711C35.2773 20.668 31.7969 24.1484 27.5 24.1484ZM27.5 11.1719C24.6211 11.1719 22.3008 13.4922 22.3008 16.3711C22.3008 19.25 24.6211 21.5703 27.5 21.5703C30.3789 21.5703 32.6992 19.25 32.6992 16.3711C32.6992 13.4922 30.3359 11.1719 27.5 11.1719Z" fill="#3A86FF"/>
</g>
<defs>
<clipPath id="clip0_226_671">
<rect width="55" height="55" fill="white"/>
</clipPath>
</defs>
</svg>
