<svg width="58" height="57" viewBox="0 0 58 57" fill="none" xmlns="http://www.w3.org/2000/svg">
<g clip-path="url(#clip0_226_683)">
<path fill-rule="evenodd" clip-rule="evenodd" d="M42.7297 23.5391L41.8174 30.198H30.8603V53.5039H24.2015V30.198H14.2132V23.5391H24.2015V17.4363C24.2015 8.96965 29.402 3.49606 37.4559 3.49606C40.9051 3.49606 43.0559 3.67919 44.2978 3.84565L44.2013 10.1516L39.0806 10.1616C38.9408 10.1483 35.6047 9.88856 33.1975 12.0993C31.646 13.521 30.8603 15.5652 30.8603 18.1688V23.5392H42.7297V23.5391ZM35.4316 14.5664C36.7434 13.3445 38.7876 13.4777 38.9375 13.4843L47.4807 13.481L47.6638 1.15882L46.3787 0.842525C45.553 0.639469 43.026 0.166656 37.4559 0.166656C27.5375 0.166656 20.872 7.1085 20.872 17.4363V20.2097H10.8838V33.5274H20.872V56.8333H34.1897V33.5274H44.7173L46.5452 20.2097H34.1897V18.1688C34.1897 16.5474 34.6092 15.3355 35.4316 14.5664Z" fill="#3A86FF"/>
</g>
<defs>
<clipPath id="clip0_226_683">
<rect width="56.6667" height="56.6667" fill="white" transform="translate(0.9375 0.166656)"/>
</clipPath>
</defs>
</svg>
