<svg width="55" height="55" viewBox="0 0 55 55" fill="none" xmlns="http://www.w3.org/2000/svg">
<path d="M30.9375 4.58331C30.9375 4.58331 36.2851 5.06944 43.0909 11.8753C49.8967 18.6813 50.383 24.0288 50.383 24.0288" stroke="#3A86FF" stroke-width="1.75" stroke-linecap="round"/>
<path d="M32.5576 12.6859C32.5576 12.6859 34.8264 13.3341 38.2293 16.737C41.6322 20.14 42.2805 22.4086 42.2805 22.4086" stroke="#3A86FF" stroke-width="1.75" stroke-linecap="round"/>
<path d="M5.70589 14.0982C5.64725 13.0057 4.71392 12.1676 3.62125 12.2262C2.52857 12.2848 1.69035 13.218 1.74899 14.3105L5.70589 14.0982ZM8.25742 3.97236C7.50384 4.76563 7.53609 6.01949 8.32948 6.77299C9.12288 7.52645 10.3769 7.4942 11.1305 6.70093L8.25742 3.97236ZM23.9663 48.1358C24.8927 48.718 26.1158 48.4391 26.6981 47.5127C27.2803 46.5864 27.0011 45.3635 26.0746 44.7813L23.9663 48.1358ZM35.7191 48.7859C34.6481 48.5616 33.598 49.2481 33.3737 50.3189C33.1495 51.3897 33.8358 52.4396 34.907 52.6639L35.7191 48.7859ZM37.1234 36.8611L38.3265 35.5945L35.4533 32.866L34.2503 34.1326L37.1234 36.8611ZM42.2856 35.0613L47.3327 37.9659L49.3095 34.5322L44.2625 31.6275L42.2856 35.0613ZM48.3067 43.9879L44.5541 47.9383L47.4273 50.6668L51.1799 46.7166L48.3067 43.9879ZM17.8773 37.9572C7.63758 27.1782 5.91998 18.0861 5.70589 14.0982L1.74899 14.3105C2.01119 19.1949 4.08542 29.1922 15.0042 40.6857L17.8773 37.9572ZM21.5106 20.4264L22.2684 19.6288L19.3952 16.9003L18.6375 17.6978L21.5106 20.4264ZM22.8636 9.69873L19.5323 4.98795L16.2968 7.27526L19.628 11.986L22.8636 9.69873ZM20.074 19.0621C18.6375 17.6978 18.6356 17.6998 18.6338 17.7017C18.6332 17.7024 18.6313 17.7043 18.6301 17.7057C18.6276 17.7084 18.625 17.7111 18.6224 17.7139C18.6172 17.7195 18.6118 17.7253 18.6063 17.7314C18.5952 17.7436 18.5834 17.7568 18.5711 17.771C18.5464 17.7994 18.5192 17.8319 18.4902 17.8686C18.4321 17.942 18.3664 18.0321 18.2975 18.1398C18.1593 18.3557 18.0094 18.6401 17.8825 18.9968C17.6244 19.722 17.4837 20.6824 17.6595 21.8817C18.0048 24.2381 19.5491 27.4069 23.584 31.6542L26.4571 28.9257C22.6855 24.9555 21.7566 22.5105 21.5802 21.3074C21.4952 20.7269 21.5816 20.4211 21.6158 20.325C21.635 20.2711 21.6476 20.256 21.6353 20.2753C21.6293 20.2846 21.6174 20.3021 21.5975 20.3273C21.5874 20.3399 21.5754 20.3545 21.5611 20.3711C21.5539 20.3793 21.5461 20.388 21.5377 20.3973C21.5335 20.4019 21.5291 20.4066 21.5246 20.4115C21.5224 20.4139 21.5201 20.4164 21.5177 20.4189C21.5166 20.4201 21.5148 20.422 21.5142 20.4226C21.5124 20.4245 21.5106 20.4264 20.074 19.0621ZM23.584 31.6542C27.6068 35.889 30.6454 37.5539 32.9635 37.9303C34.1528 38.1233 35.1157 37.9691 35.8448 37.6817C36.2012 37.5412 36.4833 37.3761 36.6949 37.2261C36.8003 37.1511 36.8883 37.08 36.9594 37.0179C36.9948 36.9868 37.0262 36.9577 37.0534 36.9313C37.0672 36.9184 37.0796 36.9057 37.0912 36.8941C37.097 36.8883 37.1028 36.8824 37.1081 36.8769C37.1107 36.8743 37.1134 36.8716 37.1158 36.869C37.1171 36.8677 37.1189 36.8655 37.1197 36.865C37.1216 36.8629 37.1234 36.8611 35.6869 35.4968C34.2503 34.1326 34.2521 34.1307 34.2537 34.1289C34.2545 34.1281 34.2561 34.1262 34.2574 34.1249C34.2598 34.1225 34.2622 34.1201 34.2643 34.1178C34.269 34.113 34.2735 34.1083 34.278 34.1038C34.2867 34.0951 34.2952 34.0866 34.3031 34.0789C34.3192 34.0636 34.3335 34.0504 34.3462 34.0393C34.3715 34.0171 34.3903 34.0029 34.4024 33.9944C34.427 33.9767 34.4246 33.9828 34.3908 33.996C34.3398 34.0161 34.1 34.1009 33.5986 34.0195C32.5353 33.8468 30.2404 32.9083 26.4571 28.9257L23.584 31.6542ZM19.5323 4.98795C16.8547 1.20139 11.4967 0.562561 8.25742 3.97236L11.1305 6.70093C12.5117 5.24701 14.9433 5.36122 16.2968 7.27526L19.5323 4.98795ZM44.5541 47.9383C43.8168 48.7143 43.0457 49.13 42.296 49.204L42.6853 53.147C44.6587 52.952 46.2559 51.8997 47.4273 50.6668L44.5541 47.9383ZM22.2684 19.6288C24.8243 16.9382 25.0052 12.7274 22.8636 9.69873L19.628 11.986C20.7432 13.5631 20.5721 15.6613 19.3952 16.9003L22.2684 19.6288ZM47.3327 37.9659C49.5013 39.214 49.9256 42.284 48.3067 43.9879L51.1799 46.7166C54.6273 43.0877 53.6232 37.0148 49.3095 34.5322L47.3327 37.9659ZM38.3265 35.5945C39.3446 34.5227 40.9312 34.2818 42.2856 35.0613L44.2625 31.6275C41.3605 29.9574 37.7617 30.4363 35.4533 32.866L38.3265 35.5945ZM26.0746 44.7813C23.4759 43.1485 20.71 40.939 17.8773 37.9572L15.0042 40.6857C18.0528 43.8949 21.0732 46.3181 23.9663 48.1358L26.0746 44.7813ZM42.296 49.204C40.8522 49.3466 38.5674 49.3823 35.7191 48.7859L34.907 52.6639C38.2052 53.3543 40.9001 53.3231 42.6853 53.147L42.296 49.204Z" fill="#3A86FF"/>
</svg>
