<svg width="57" height="57" viewBox="0 0 57 57" fill="none" xmlns="http://www.w3.org/2000/svg">
<path fill-rule="evenodd" clip-rule="evenodd" d="M46.9843 9.30584C47.812 9.10966 48.3891 8.91679 48.862 8.71423C49.5246 8.43032 50.074 8.09022 50.942 7.51744C51.6714 7.03605 52.6062 6.99413 53.3757 7.40829C54.1452 7.82244 54.6252 8.62576 54.6252 9.49966C54.6252 12.0669 54.3053 14.171 53.5647 16.0227C52.9415 17.5802 52.0661 18.8453 51.019 19.9967C50.5768 27.9841 48.2647 34.2568 44.73 39.0089C41.0663 43.9344 36.1919 47.0887 31.0535 48.8552C25.9302 50.6162 20.5169 51.0098 15.6673 50.4134C10.8496 49.8211 6.39615 48.226 3.29205 45.8118C2.44199 45.1506 2.14317 44.0002 2.56402 43.0089C2.98487 42.0175 4.02001 41.4335 5.0861 41.586C8.14028 42.0223 11.0803 41.3278 13.4978 40.3351C13.0219 40.0762 12.5732 39.796 12.1561 39.5072C9.95321 37.9822 8.17588 35.9119 7.37591 34.3119C7.04486 33.6499 7.04144 32.8712 7.36667 32.2064C7.53444 31.8632 7.77978 31.5709 8.07765 31.3479C4.86126 28.6933 3.56266 25.0218 3.56266 22.5622C3.56266 21.8308 3.89962 21.1402 4.47608 20.6902C4.71848 20.5009 4.99184 20.3631 5.28 20.28C5.03931 19.5753 4.85254 18.8632 4.71019 18.1739C4.07898 15.1176 4.13501 11.668 4.82108 8.92365C5.05584 7.98453 5.83708 7.28189 6.79575 7.14761C7.75439 7.01335 8.69862 7.47433 9.18236 8.31283C11.7414 12.7486 16.4617 15.4599 20.8547 17.066C22.9201 17.8211 24.8329 18.3023 26.2667 18.5981C26.5762 15.6992 27.3856 13.3085 28.628 11.4098C30.2669 8.90463 32.5529 7.42246 35.0077 6.76157C39.2416 5.62181 43.9396 6.92032 46.9843 9.30584ZM25.5276 23.2951C23.9005 22.9683 21.6642 22.4194 19.2237 21.5272C16.0003 20.3487 12.2573 18.5112 9.12189 15.6648C9.17801 16.1886 9.25767 16.7079 9.36203 17.2132C9.8875 19.7576 10.8639 21.1826 11.7498 21.6255C12.8333 22.1673 13.3354 23.4377 12.9151 24.5739C12.3461 26.1122 10.8494 26.2383 9.48952 25.8984C10.5833 27.5381 12.5491 29.1731 15.8281 29.7196C16.959 29.9081 17.7939 30.8776 17.8123 32.024C17.8308 33.1704 17.0277 34.1663 15.9034 34.3912L13.8361 34.8047C14.1524 35.0795 14.4948 35.349 14.8598 35.6017C16.515 36.7477 18.1769 37.2419 19.6116 36.8833C20.6862 36.6147 21.8038 37.1243 22.3053 38.1121C22.8068 39.0996 22.559 40.3028 21.7081 41.0117C20.1788 42.2847 18.3928 43.3062 16.6028 44.1539C15.7625 44.5519 14.8234 44.9447 13.8034 45.2905C14.5879 45.458 15.4041 45.5952 16.247 45.699C20.4522 46.2161 25.1327 45.8674 29.5093 44.3631C33.871 42.8638 37.9026 40.2289 40.9188 36.1741C43.9306 32.1247 46.0324 26.5209 46.3143 18.9119C46.3364 18.3128 46.5844 17.7443 47.0083 17.3204C48.0761 16.2525 48.9587 15.0284 49.3928 13.5715C48.6331 13.8083 47.7776 14.0133 46.7587 14.2081C45.9856 14.3559 45.1898 14.1112 44.6333 13.5548C42.8176 11.739 39.2266 10.5449 36.2424 11.3483C34.8381 11.7263 33.5615 12.5448 32.6028 14.0103C31.624 15.5065 30.8752 17.8373 30.8752 21.3748C30.8752 22.0468 30.5904 22.6874 30.0917 23.1377C28.9089 24.2053 26.9184 23.5743 25.5276 23.2951Z" fill="#3A86FF"/>
</svg>
