<svg width="75" height="75" viewBox="0 0 75 75" fill="none" xmlns="http://www.w3.org/2000/svg">
<path d="M3.125 68.75H71.875" stroke="#4CAF50" stroke-width="3.75" stroke-miterlimit="10" stroke-linecap="round" stroke-linejoin="round"/>
<path opacity="0.4" d="M61.8135 68.7806V54.8431" stroke="#4CAF50" stroke-width="3.75" stroke-miterlimit="10" stroke-linecap="round" stroke-linejoin="round"/>
<path d="M61.8738 34.0316C58.0613 34.0316 54.9988 37.0941 54.9988 40.9066V48.0004C54.9988 51.8129 58.0613 54.8754 61.8738 54.8754C65.6863 54.8754 68.7488 51.8129 68.7488 48.0004V40.9066C68.7488 37.0941 65.6863 34.0316 61.8738 34.0316Z" stroke="#4CAF50" stroke-width="3.75" stroke-miterlimit="10" stroke-linecap="round" stroke-linejoin="round"/>
<path d="M6.56128 68.7494V18.8431C6.56128 12.5618 9.68644 9.40552 15.9052 9.40552H35.3737C41.5925 9.40552 44.6862 12.5618 44.6862 18.8431V68.7494" stroke="#4CAF50" stroke-width="3.75" stroke-miterlimit="10" stroke-linecap="round" stroke-linejoin="round"/>
<path opacity="0.4" d="M18.1243 25.7812H33.593" stroke="#4CAF50" stroke-width="3.75" stroke-miterlimit="10" stroke-linecap="round" stroke-linejoin="round"/>
<path opacity="0.4" d="M18.1243 37.5H33.593" stroke="#4CAF50" stroke-width="3.75" stroke-miterlimit="10" stroke-linecap="round" stroke-linejoin="round"/>
<path opacity="0.4" d="M25.7812 68.75V57.0312" stroke="#4CAF50" stroke-width="3.75" stroke-miterlimit="10" stroke-linecap="round" stroke-linejoin="round"/>
<path opacity="0.5" d="M58.5 26.25C63.3325 26.25 67.25 22.3325 67.25 17.5C67.25 12.6675 63.3325 8.75 58.5 8.75C53.6675 8.75 49.75 12.6675 49.75 17.5C49.75 22.3325 53.6675 26.25 58.5 26.25Z" stroke="#4CAF50"/>
<path d="M55.4375 17.9375L57.1875 19.6875L61.5625 15.3125" stroke="#4CAF50" stroke-linecap="round" stroke-linejoin="round"/>
</svg>
