<svg width="73" height="92" viewBox="0 0 73 92" fill="none" xmlns="http://www.w3.org/2000/svg">
<path fill-rule="evenodd" clip-rule="evenodd" d="M22.8893 38.9605L32.5156 32.3704L58.1857 49.9398V54.7315H51.7682V83.4815H13.263V54.7315H6.84546V49.9398L16.4718 43.3497V35.5648H22.8893V38.9605ZM35.7243 77.0926H45.3506V51.537L32.5156 41.9537L19.6805 51.537V77.0926H29.3068V67.5093H35.7243V77.0926ZM22.8893 57.9259H29.3068V64.3148H22.8893V57.9259ZM35.7243 57.9259H42.1419V64.3148H35.7243V57.9259Z" fill="#76D7D7"/>
<path fill-rule="evenodd" clip-rule="evenodd" d="M49.2474 16.3564C49.0802 15.7398 48.4426 15.3749 47.8232 15.5414L37.2497 18.3834C36.6303 18.5499 36.2639 19.1846 36.4311 19.8012L39.2858 30.3275C39.453 30.9441 40.0906 31.309 40.71 31.1425C41.3293 30.976 41.6958 30.3413 41.5286 29.7247L39.405 21.8938L50.4017 28.1867C51.3596 28.7349 52.6488 29.8643 53.3468 31.3993C54.0147 32.868 54.1833 34.7872 52.8282 37.1341C52.5085 37.6878 52.7002 38.3947 53.2564 38.713C53.8126 39.0313 54.5227 38.8404 54.8424 38.2867C56.5749 35.2864 56.4352 32.5828 55.4634 30.4453C54.5216 28.3742 52.8397 26.9141 51.5596 26.1815L40.5628 19.8886L48.4287 17.7743C49.0481 17.6078 49.4147 16.973 49.2474 16.3564Z" fill="#76D7D7"/>
<path d="M23.9587 27.2593C29.6296 27.2593 34.2268 22.6826 34.2268 17.037C34.2268 11.3915 29.6296 6.81482 23.9587 6.81482C18.2878 6.81482 13.6907 11.3915 13.6907 17.037C13.6907 22.6826 18.2878 27.2593 23.9587 27.2593Z" stroke="#76D7D7" stroke-width="2" stroke-linecap="round" stroke-linejoin="round"/>
<path d="M19.3953 12.4939H23.9588C25.2191 12.4939 26.2406 13.5109 26.2406 14.7655V16.0636C26.2406 17.3181 25.2191 18.3352 23.9588 18.3352H20.9165L25.48 22.7161" stroke="#76D7D7" stroke-width="2" stroke-linecap="round" stroke-linejoin="round"/>
<path d="M19.3953 12.4939H28.5224" stroke="#76D7D7" stroke-width="2" stroke-linecap="round" stroke-linejoin="round"/>
<path d="M21.677 15.4149H28.5224" stroke="#76D7D7" stroke-width="2" stroke-linecap="round" stroke-linejoin="round"/>
</svg>
