<svg width="70" height="96" viewBox="0 0 70 96" fill="none" xmlns="http://www.w3.org/2000/svg">
<path d="M8.75 86.1253H61.25M11.6667 76.2503H58.3333M17.5 76.2503V59.792M29.1667 76.2503V59.792M40.8333 76.2503V59.792M52.5 76.2503V59.792M35 40.0645L35.0216 40.0424M61.25 49.917L41.2008 29.8041C39.0066 27.6031 37.9097 26.5026 36.6718 26.0847C35.581 25.7165 34.419 25.7165 33.3282 26.0847C32.0903 26.5026 30.9934 27.6031 28.7993 29.8041L8.75 49.917H61.25Z" stroke="#FFC16A" stroke-width="3" stroke-linecap="round" stroke-linejoin="round"/>
<path d="M35 19.25C39.5563 19.25 43.25 15.5563 43.25 11C43.25 6.44365 39.5563 2.75 35 2.75C30.4437 2.75 26.75 6.44365 26.75 11C26.75 15.5563 30.4437 19.25 35 19.25Z" stroke="#FFC16A" stroke-width="2" stroke-linecap="round" stroke-linejoin="round"/>
<path d="M31.3334 7.33333H35C36.0126 7.33333 36.8334 8.15414 36.8334 9.16667V10.2143C36.8334 11.2268 36.0126 12.0477 35 12.0477H32.5556L36.2222 15.5833" stroke="#FFC16A" stroke-width="2" stroke-linecap="round" stroke-linejoin="round"/>
<path d="M31.3334 7.33333H38.6667" stroke="#FFC16A" stroke-width="2" stroke-linecap="round" stroke-linejoin="round"/>
<path d="M33.1666 9.69082H38.6666" stroke="#FFC16A" stroke-width="2" stroke-linecap="round" stroke-linejoin="round"/>
</svg>
