<svg width="70" height="70" viewBox="0 0 70 70" fill="none" xmlns="http://www.w3.org/2000/svg">
<path d="M7.10938 9.29688C7.10938 9.29688 7.10938 60.0157 7.10938 60.4297C7.10938 65.316 11.0512 69.2322 15.8823 69.4255V69.4531H62.8414V66.9134C59.2249 66.9134 56.2986 63.9871 56.2986 60.3706C56.2986 56.7541 59.2249 53.8278 62.8414 53.8278V53.7726V0.546875H16.3516C11.3548 0.546875 7.10938 4.30008 7.10938 9.29688ZM53.7586 60.343C53.7586 62.9103 54.8628 65.2293 56.5745 66.8858H16.2414C12.6249 66.9134 9.67094 63.9595 9.67094 60.343C9.67094 56.9198 12.3487 54.104 15.7169 53.8554L56.6576 53.7726C54.8907 55.4291 53.7586 57.7478 53.7586 60.343ZM22.1711 18.6077L25.6154 17.7242L24.6419 14.3101C24.3723 13.3219 25.3009 12.4083 26.2741 12.6779L29.6882 13.6514L30.5717 10.2071C30.8112 9.21894 32.0991 8.88945 32.7879 9.62309L35.2587 12.1688L37.7295 9.62309C38.4333 8.87441 39.7061 9.23371 39.9457 10.2071L40.8291 13.6514L44.2433 12.6779C45.2315 12.4083 46.145 13.3369 45.8754 14.3101L44.902 17.7242L48.3462 18.6077C49.3344 18.8472 49.6789 20.105 48.9303 20.8239L46.3996 23.2947L48.9152 25.7655C49.6639 26.4843 49.3196 27.7421 48.3312 27.9817L44.887 28.8652L45.8604 32.2793C46.13 33.2675 45.2014 34.1811 44.2282 33.9114L40.874 32.953L45.6657 42.4916L41.6675 41.3536L40.5595 45.0521L35.2587 34.4805L29.9578 45.0521L28.8498 41.3536L24.8516 42.4916L29.6434 32.953L26.2891 33.9114C25.3009 34.1811 24.3873 33.2525 24.657 32.2793L25.6304 28.8652L22.1862 27.9817C21.198 27.7421 20.8534 26.4843 21.6021 25.7655L24.1177 23.2947L21.5871 20.8239C20.8384 20.105 21.1829 18.8472 22.1711 18.6077ZM35.5581 31.5902C40.1404 31.5902 43.8389 27.8767 43.8389 23.2944C43.8389 18.7124 40.1103 15.0136 35.5581 15.0136C30.9758 15.0136 27.2773 18.7272 27.2773 23.3095C27.2773 27.8917 30.9758 31.5902 35.5581 31.5902ZM30.9758 22.5758C31.4251 22.1714 32.0988 22.1864 32.5333 22.6207L34.3752 24.6121L38.4781 18.952C38.8374 18.4726 39.5114 18.3381 40.0203 18.6974C40.4996 19.0416 40.6191 19.7455 40.2598 20.2248L34.5696 28.0864L30.931 24.1333C30.5268 23.6841 30.5416 23.01 30.9758 22.5758Z" fill="#9195F6"/>
</svg>
