<svg width="77" height="77" viewBox="0 0 77 77" fill="none" xmlns="http://www.w3.org/2000/svg">
<g clip-path="url(#clip0_306_751)">
<path d="M38.5 12.4089C41.9266 12.4089 44.7045 9.63111 44.7045 6.20447C44.7045 2.77784 41.9266 0 38.5 0C35.0734 0 32.2955 2.77784 32.2955 6.20447C32.2955 9.63111 35.0734 12.4089 38.5 12.4089Z" fill="#1A73E9"/>
<path d="M25.9232 19.7033C25.9232 25.4887 25.9232 26.8302 25.9232 26.8302C25.9232 26.8302 38.1643 26.8302 38.2064 26.8302L32.2114 13.8344C32.2114 13.8344 25.9232 13.9181 25.9232 19.7033Z" fill="#1A73E9"/>
<path d="M44.7884 13.8344L38.7936 26.8302H51.0768C51.0768 26.8302 51.0768 25.4887 51.0768 19.7033C51.0768 13.9181 44.7884 13.8344 44.7884 13.8344Z" fill="#1A73E9"/>
<path d="M38.5 13.8344H34.182L38.5 23.3924L42.8179 13.8344H38.5Z" fill="#1A73E9"/>
<path d="M64.4232 62.5789C67.8499 62.5789 70.6277 59.801 70.6277 56.3744C70.6277 52.9478 67.8499 50.1699 64.4232 50.1699C60.9966 50.1699 58.2188 52.9478 58.2188 56.3744C58.2188 59.801 60.9966 62.5789 64.4232 62.5789Z" fill="#1A73E9"/>
<path d="M51.8468 69.8733C51.8468 75.6587 51.8468 77 51.8468 77C51.8468 77 64.0878 77 64.1299 77L58.135 64.0042C58.135 64.0042 51.8468 64.0881 51.8468 69.8733Z" fill="#1A73E9"/>
<path d="M70.7116 64.0042L64.7169 77H77C77 77 77 75.6585 77 69.8733C77 64.0881 70.7116 64.0042 70.7116 64.0042Z" fill="#1A73E9"/>
<path d="M68.7414 64.0042H64.4233H60.1055L64.4233 73.5624L68.7414 64.0042Z" fill="#1A73E9"/>
<path d="M12.5768 62.5789C16.0034 62.5789 18.7813 59.801 18.7813 56.3744C18.7813 52.9478 16.0034 50.1699 12.5768 50.1699C9.15015 50.1699 6.37231 52.9478 6.37231 56.3744C6.37231 59.801 9.15015 62.5789 12.5768 62.5789Z" fill="#1A73E9"/>
<path d="M6.28839 64.0042C6.28839 64.0042 0 64.0881 0 69.8733C0 75.6585 0 77 0 77C0 77 12.241 77 12.2832 77L6.28839 64.0042Z" fill="#1A73E9"/>
<path d="M25.1532 69.8733C25.1532 64.0881 18.8648 64.0042 18.8648 64.0042L12.8701 77H25.1532C25.1532 77 25.1532 75.6585 25.1532 69.8733Z" fill="#1A73E9"/>
<path d="M12.5768 64.0042H8.25867L12.5768 73.5624L16.8948 64.0042H12.5768Z" fill="#1A73E9"/>
<path d="M27.6741 55.0591L37.7787 62.5787V57.4658H48.7383V52.6533H37.7787V47.5397L27.6741 55.0591Z" fill="#1A73E9"/>
<path d="M47.6542 30.6704L49.4822 43.1325L53.0979 39.5166L60.8471 47.2674L64.2497 43.8648L56.5005 36.1142L60.1164 32.4985L47.6542 30.6704Z" fill="#1A73E9"/>
<path d="M16.1529 47.2674L23.9019 39.5168L27.5176 43.1325L29.3456 30.6704L16.8836 32.4985L20.4994 36.1142L12.7502 43.8648L16.1529 47.2674Z" fill="#1A73E9"/>
</g>
<defs>
<clipPath id="clip0_306_751">
<rect width="77" height="77" fill="white"/>
</clipPath>
</defs>
</svg>
