<svg width="70" height="70" viewBox="0 0 70 70" fill="none" xmlns="http://www.w3.org/2000/svg">
<path d="M69.4615 34.6449L68.4274 38.223L64.2977 36.0236L68.1447 33.383L69.4615 34.6449ZM67.4967 19.5257L67.3381 15.2648L61.3055 16.2645L57.2102 13.8858L49.9434 14.4442L40.6705 10.2938L33.2177 9.92142L31.0735 8.79065L25.9786 9.59726L16.947 8.02522L12.5553 8.69399L9.19772 6.74988L5.88834 7.79099L0.538452 11.2178L3.30991 14.0514L2.42738 15.4027L3.61307 18.7121L5.83988 18.0848L6.66022 20.5805L14.7336 20.1118L15.0508 24.6483L13.1479 26.3994L11.5828 36.2584L8.6528 36.2102L11.7484 41.1743L9.39749 45.2073L11.6658 47.0965L8.14961 51.5504L8.70126 54.2944L11.721 54.6046L15.5128 56.6453L14.3064 57.7139L15.8162 61.0093L18.9945 63.2501L21.1456 61.1819L26.1786 58.1414L39.8227 57.7002L42.2288 53.2463L46.3448 51.8606L48.5442 46.1039L52.6325 43.0565L51.1156 42.0431L49.2886 37.5135L56.0864 26.131L61.8571 24.0835L67.4967 19.5257Z" fill="#C6DCBA"/>
</svg>
