<svg width="62" height="62" viewBox="0 0 62 62" fill="none" xmlns="http://www.w3.org/2000/svg">
<path d="M59.8687 10.85C59.675 10.075 58.9 9.68754 58.125 9.68754H52.3125V3.87504C52.3125 3.10004 51.925 2.32504 51.15 2.13129C50.375 1.74379 49.6 1.93754 49.0187 2.51879L41.2687 10.2688C40.8812 10.6563 40.6875 11.0438 40.6875 11.625V18.6L29.6437 29.6438C28.8688 30.4188 28.8688 31.5813 29.6437 32.3563C30.0312 32.7438 30.6125 32.9375 31 32.9375C31.3875 32.9375 31.9688 32.7438 32.3563 32.3563L43.4 21.3125H50.375C50.9562 21.3125 51.3438 21.1188 51.7313 20.7313L59.4812 12.9813C60.0625 12.4 60.2562 11.625 59.8687 10.85Z" fill="white"/>
<path d="M35.0688 35.0688C34.1 36.2313 32.55 36.8125 31 36.8125C29.45 36.8125 27.9 36.2313 26.9312 35.0688C24.6062 32.7438 24.6062 29.0625 26.9312 26.9312L32.3563 21.5063C31.9688 21.3125 31.3875 21.3125 31 21.3125C25.575 21.3125 21.3125 25.575 21.3125 31C21.3125 36.425 25.575 40.6875 31 40.6875C36.425 40.6875 40.6875 36.425 40.6875 31C40.6875 30.6125 40.6875 30.0313 40.4937 29.6438L35.0688 35.0688Z" fill="white"/>
<path d="M54.4438 23.4438C53.475 24.6063 51.925 25.1875 50.375 25.1875H44.95L43.5938 26.5437C44.175 27.9 44.3687 29.45 44.3687 31C44.3687 38.5563 38.3625 44.5625 30.8062 44.5625C23.25 44.5625 17.2437 38.5563 17.2437 31C17.2437 23.4437 23.25 17.4375 30.8062 17.4375C32.3562 17.4375 33.9063 17.825 35.2625 18.2125L36.8125 17.05V11.625C36.8125 10.075 37.3937 8.525 38.5562 7.55625L40.4937 5.61875C37.3937 4.45625 34.2938 3.875 31 3.875C16.0813 3.875 3.875 16.0813 3.875 31C3.875 45.9187 16.0813 58.125 31 58.125C45.9187 58.125 58.125 45.9187 58.125 31C58.125 27.7062 57.5438 24.6063 56.3813 21.5063L54.4438 23.4438Z" fill="white"/>
</svg>
