<svg width="58" height="58" viewBox="0 0 58 58" fill="none" xmlns="http://www.w3.org/2000/svg">
<g clip-path="url(#clip0_1_446)">
<path d="M55.9609 54.6468V32.9875H38.0625V29.4531H36.7937V26.1453H35.7516V21.2515H36.9297V18.8953H35.7516V17.8531C35.7516 14.0921 33.2141 10.9203 29.9062 10.3312V6.57026H29.3172V1.90308H28.0937V6.61558H27.5047V10.3765C24.1516 10.9656 21.6594 14.1375 21.6594 17.8984V18.9406H20.4812V21.2968H21.6594V26.1906H20.6172V29.4531H19.3484V32.9875H1.99374V54.6921H-0.0453186V58.2265H58V54.6921L55.9609 54.6468ZM33.9391 21.2515V26.1453H32.7609V21.2515H33.9391ZM31.6281 21.2515V26.1453H30.45V21.2515H31.6281ZM29.2719 21.2515V26.1453H28.0937V21.2515H29.2719ZM26.9156 21.2515V26.1453H25.7375V21.2515H26.9156ZM23.3812 21.2515H24.5594V26.1453H23.3812V21.2515ZM9.60624 54.6468H6.66093V43.5453H9.60624V54.6468ZM9.60624 41.189H6.66093V36.4765H9.60624V41.189ZM14.9078 54.6468H11.9625V43.5453H14.9078V54.6468ZM14.9078 41.189H11.9625V36.4765H14.9078V41.189ZM19.575 54.6468H16.6297V43.5453H19.575V54.6468ZM19.575 41.189H16.6297V36.4765H19.575V41.189ZM24.8766 54.6468H21.9312V43.5453H24.8766V54.6468ZM24.8766 41.189H21.9312V36.4765H24.8766V41.189ZM30.1328 54.6468H27.1875V43.5453H30.1328V54.6468ZM30.1328 41.189H27.1875V36.4765H30.1328V41.189ZM35.4344 54.6468H32.4891V43.5453H35.4344V54.6468ZM35.4344 41.189H32.4891V36.4765H35.4344V41.189ZM40.6906 54.6468H37.7453V43.5453H40.6906V54.6468ZM40.6906 41.189H37.7453V36.4765H40.6906V41.189ZM45.9922 54.6468H43.0469V43.5453H45.9922V54.6468ZM45.9922 41.189H43.0469V36.4765H45.9922V41.189ZM51.2484 54.6468H48.3031V43.5453H51.2484V54.6468ZM51.2484 41.189H48.3031V36.4765H51.2484V41.189Z" fill="white"/>
</g>
<defs>
<clipPath id="clip0_1_446">
<rect width="58" height="58" fill="white"/>
</clipPath>
</defs>
</svg>
