<svg width="54" height="54" viewBox="0 0 54 54" fill="none" xmlns="http://www.w3.org/2000/svg">
<g clip-path="url(#clip0_1_432)">
<path d="M9.26077 17.6696C8.67764 17.6696 8.11201 17.8782 7.66799 18.2572C6.63872 19.136 6.51637 20.6884 7.39503 21.7175C7.86215 22.2644 8.54264 22.5782 9.26235 22.5782C9.84559 22.5782 10.4112 22.3694 10.8551 21.9905C11.8843 21.1121 12.0069 19.5598 11.1281 18.5303C10.6611 17.9832 9.98038 17.6696 9.26077 17.6696ZM9.7551 20.7018C9.57876 20.8521 9.38987 20.8837 9.26235 20.8837C9.03918 20.8837 8.82814 20.7866 8.68354 20.6172C8.41143 20.2986 8.4494 19.8177 8.76802 19.5456C8.94437 19.3953 9.13305 19.3638 9.26067 19.3638C9.48384 19.3638 9.69488 19.4609 9.83948 19.6302C10.1115 19.9492 10.0736 20.4298 9.7551 20.7018Z" fill="white"/>
<path d="M24.0065 34.8595C22.6532 34.8595 21.5521 35.9605 21.5521 37.314C21.5521 38.6674 22.6532 39.7684 24.0065 39.7684C25.3598 39.7684 26.4608 38.6674 26.4608 37.314C26.4608 35.9606 25.3599 34.8595 24.0065 34.8595ZM24.0065 38.0742C23.5875 38.0742 23.2464 37.7332 23.2464 37.3141C23.2464 36.8949 23.5874 36.554 24.0065 36.554C24.4255 36.554 24.7664 36.8949 24.7664 37.3141C24.7664 37.7332 24.4256 38.0742 24.0065 38.0742Z" fill="white"/>
<path d="M17.5387 3.09448C16.1854 3.09448 15.0844 4.19547 15.0844 5.54895C15.0844 6.90242 16.1853 8.00341 17.5387 8.00341C18.8921 8.00341 19.9931 6.90242 19.9931 5.54895C19.9931 4.19547 18.8921 3.09448 17.5387 3.09448ZM17.5387 6.30895C17.1198 6.30895 16.7788 5.96797 16.7788 5.54884C16.7788 5.12971 17.1197 4.78873 17.5387 4.78873C17.9577 4.78873 18.2988 5.12971 18.2988 5.54884C18.2988 5.96797 17.9578 6.30895 17.5387 6.30895Z" fill="white"/>
<path d="M50.834 10.7023V2.20271C50.834 0.988135 49.8459 0 48.6314 0H46.7037C45.4891 0 44.501 0.988135 44.501 2.20271V2.92443H38.8486C38.6449 1.919 37.7545 1.15973 36.69 1.15973H33.8659H28.1903C27.1257 1.15973 26.2353 1.919 26.0316 2.92443H22.0296C21.1252 1.3828 19.4515 0.344882 17.5387 0.344882C14.6693 0.344882 12.335 2.67943 12.335 5.54881C12.335 6.53346 12.61 7.45504 13.0871 8.24121L9.29368 14.921C9.28229 14.9208 9.271 14.92 9.25961 14.92C8.02341 14.92 6.82403 15.3625 5.88282 16.1661C4.82561 17.0685 4.1832 18.3289 4.07383 19.7145C3.96446 21.1001 4.40131 22.4456 5.3038 23.5029C5.63487 23.8907 6.01751 24.2217 6.43601 24.4924C6.54327 25.4694 6.91853 27.8653 8.17466 30.6893C9.62105 33.9415 12.5551 38.38 18.3492 41.2998V45.9468H12.6742C12.3695 45.9468 12.0882 46.1104 11.9376 46.3754L10.3739 49.1263H5.42878C4.18109 49.1263 3.16585 50.1414 3.16585 51.3892V51.7372C3.16585 52.9849 4.18098 54.0001 5.42878 54.0001H35.8135C36.2815 54.0001 36.6608 53.6209 36.6608 53.1529C36.6608 52.6848 36.2816 52.3056 35.8135 52.3056H5.42878C5.11533 52.3056 4.86031 52.0506 4.86031 51.7372V51.3892C4.86031 51.0758 5.11533 50.8208 5.42878 50.8208H10.8493C10.85 50.8208 10.8507 50.8208 10.8513 50.8208H37.1452C37.1457 50.8208 37.1463 50.8209 37.1469 50.8209C37.1474 50.8209 37.148 50.8208 37.1486 50.8208H42.5843C42.8977 50.8208 43.1528 51.0758 43.1528 51.3892V51.7372C43.1528 52.0506 42.8977 52.3056 42.5843 52.3056H38.6749C38.2069 52.3056 37.8277 52.6848 37.8277 53.1529C37.8277 53.6209 38.2068 54.0001 38.6749 54.0001H42.5843C43.832 54.0001 44.8472 52.985 44.8472 51.7372V51.3892C44.8472 50.1415 43.8321 49.1263 42.5843 49.1263H37.6389L36.0752 46.3755C35.9246 46.1104 35.6434 45.9469 35.3386 45.9469H29.664V37.1887C29.664 34.0694 27.1261 31.5316 24.0065 31.5316C23.5218 31.5316 23.0514 31.5931 22.6021 31.7082L18.8506 27.3141C18.547 26.9585 18.0122 26.9161 17.6562 27.22C17.3003 27.5237 17.2582 28.0585 17.562 28.4144L20.9744 32.4113C20.4464 32.7458 19.9789 33.165 19.5889 33.6532L11.8791 24.6227C12.1468 24.4667 12.4011 24.2862 12.6405 24.0819C12.7032 24.0283 12.7643 23.9734 12.8241 23.9172C12.848 23.8948 12.8706 23.8716 12.8941 23.849C12.929 23.815 12.964 23.7812 12.9977 23.7465C13.0272 23.7163 13.0553 23.6852 13.0838 23.6545C13.1092 23.6271 13.1348 23.5997 13.1597 23.5717C13.194 23.5332 13.227 23.4938 13.26 23.4543C13.2711 23.4411 13.2827 23.4284 13.2937 23.415L15.7423 26.2833C16.046 26.6389 16.5807 26.6813 16.9368 26.3775C17.2925 26.0737 17.3347 25.5389 17.031 25.183L14.1759 21.8389C14.3205 21.4223 14.4135 20.9849 14.4492 20.5336C14.5361 19.4322 14.2767 18.3566 13.7139 17.4307L17.5065 10.7522C17.5173 10.7523 17.5277 10.753 17.5385 10.753C19.4511 10.753 21.1251 9.71502 22.0294 8.1735H26.0313C26.2349 9.17903 27.1253 9.93851 28.1901 9.93851H33.8657H36.6897C37.7543 9.93851 38.6447 9.17914 38.8484 8.1735H44.5008V10.7027C44.5008 11.4159 44.8431 12.0494 45.3705 12.4521V15.4548C44.843 15.8576 44.5008 16.491 44.5008 17.2042V18.7005C44.5008 19.9151 45.4889 20.9032 46.7035 20.9032H46.8201V23.9844C46.8201 24.4524 47.1993 24.8316 47.6674 24.8316C48.1353 24.8316 48.5146 24.4525 48.5146 23.9844V20.9032H48.6312C49.8458 20.9032 50.8339 19.9151 50.8339 18.7005V17.204C50.8339 16.5594 50.5538 15.9804 50.1111 15.5772V12.3294C50.554 11.926 50.834 11.3469 50.834 10.7023ZM20.0436 37.1886C20.0436 35.0034 21.8213 33.2259 24.0065 33.2259C26.1917 33.2259 27.9695 35.0034 27.9695 37.1886V45.9468H20.0435L20.0436 37.1886ZM28.8169 47.6412H34.846L35.69 49.1262H12.3229L13.1671 47.6412H19.1964H28.8169ZM18.7017 35.2233C18.4741 35.8358 18.3491 36.4977 18.3491 37.1884V39.3855C14.4532 37.2351 11.564 34.1045 9.75036 30.0629C8.87191 28.1049 8.45278 26.3515 8.25576 25.2278C8.58482 25.2925 8.9218 25.3276 9.2633 25.3276C9.57338 25.3276 9.88114 25.2997 10.1831 25.2453L18.7017 35.2233ZM12.7603 20.3998C12.7266 20.8279 12.6165 21.238 12.4394 21.6155C12.4366 21.6209 12.4332 21.626 12.4304 21.6315C12.3253 21.853 12.1986 22.0604 12.052 22.2527C12.0498 22.2557 12.0476 22.2587 12.0452 22.2617C12.0133 22.3033 11.98 22.344 11.9461 22.3842C11.9399 22.3916 11.9339 22.3992 11.9275 22.4066C11.8963 22.443 11.8639 22.4784 11.831 22.5136C11.8221 22.5232 11.8135 22.5331 11.8045 22.5426C11.7706 22.5781 11.7356 22.6127 11.7002 22.6467C11.692 22.6546 11.6842 22.6628 11.6761 22.6706C11.632 22.7122 11.5869 22.7529 11.5405 22.7926C11.4966 22.8299 11.452 22.8659 11.4067 22.9008C11.3902 22.9137 11.3731 22.9259 11.3562 22.9385C11.3286 22.9591 11.3007 22.9796 11.2725 22.9993C11.2491 23.0157 11.2253 23.0316 11.2015 23.0473C11.1799 23.0616 11.1584 23.0757 11.1364 23.0896C11.1088 23.1071 11.0808 23.1244 11.0526 23.1411C11.0349 23.1516 11.017 23.1617 10.999 23.1719C10.9677 23.1897 10.9363 23.2075 10.9045 23.2244C10.8915 23.2312 10.8783 23.2376 10.8652 23.2444C10.7954 23.2802 10.7247 23.3136 10.6529 23.3447C10.6411 23.3498 10.6294 23.3554 10.6176 23.3603C10.5922 23.371 10.5664 23.3806 10.5406 23.3907C10.5118 23.402 10.4832 23.4133 10.454 23.4238C10.4321 23.4317 10.4101 23.4391 10.3881 23.4465C10.3534 23.4582 10.3186 23.4696 10.2835 23.4803C9.95486 23.5803 9.61135 23.6332 9.26341 23.6332C8.23372 23.6332 7.26014 23.1846 6.59242 22.4025C5.98365 21.6896 5.68908 20.7822 5.7628 19.8477C5.83652 18.9133 6.26979 18.0632 6.98286 17.4546C7.61757 16.9126 8.42609 16.6142 9.2594 16.6142C9.3964 16.6142 9.53235 16.6227 9.66672 16.6384C9.6682 16.6386 9.66967 16.639 9.67115 16.6392C9.82229 16.657 9.97079 16.6849 10.1165 16.7214C10.1339 16.7258 10.1516 16.7297 10.1689 16.7344C10.202 16.7432 10.2346 16.753 10.2674 16.7627C10.2925 16.7702 10.3177 16.7777 10.3426 16.7858C10.3708 16.795 10.3989 16.8046 10.4268 16.8144C10.4565 16.825 10.486 16.8356 10.5154 16.8468C10.5396 16.8561 10.5636 16.8654 10.5876 16.8752C10.6216 16.8891 10.6555 16.9037 10.689 16.9186C10.7083 16.9272 10.7278 16.9357 10.747 16.9446C10.7893 16.9643 10.8311 16.9852 10.8724 17.0065C10.883 17.0119 10.8936 17.017 10.9042 17.0225C10.958 17.051 11.011 17.0808 11.0633 17.112C11.0634 17.112 11.0634 17.1121 11.0635 17.1121C11.1142 17.1423 11.1638 17.1742 11.213 17.2071C11.226 17.2157 11.2386 17.2249 11.2515 17.2339C11.2873 17.2586 11.3229 17.2838 11.3579 17.3098C11.374 17.3218 11.3899 17.3342 11.4058 17.3465C11.4369 17.3706 11.4677 17.3951 11.498 17.4201C11.515 17.4342 11.5317 17.4484 11.5485 17.4627C11.5774 17.4876 11.6059 17.5133 11.6341 17.5391C11.6505 17.5541 11.6669 17.5691 11.6831 17.5843C11.7124 17.6124 11.741 17.6412 11.7694 17.6703C11.7831 17.6842 11.7968 17.6976 11.8102 17.7116C11.8513 17.7551 11.8915 17.7994 11.9306 17.8452C11.9671 17.888 12.0023 17.9314 12.0367 17.9756C12.0382 17.9775 12.0398 17.9792 12.0412 17.9811C12.5749 18.6716 12.8295 19.5238 12.7603 20.3998ZM12.534 16.077C12.4944 16.045 12.454 16.0145 12.4136 15.9835C12.4062 15.9779 12.399 15.9719 12.3914 15.9663C12.3191 15.9118 12.2455 15.8592 12.1706 15.8086C12.1686 15.8072 12.1665 15.8059 12.1645 15.8047C12.095 15.7579 12.0244 15.7133 11.9528 15.67C11.9384 15.6612 11.924 15.6528 11.9095 15.6443C11.8454 15.6064 11.7805 15.5698 11.7149 15.5348C11.7029 15.5283 11.6911 15.5217 11.679 15.5154C11.6008 15.4743 11.5218 15.4351 11.4417 15.3982C11.4388 15.3968 11.436 15.3957 11.4332 15.3945C11.3603 15.3611 11.2866 15.3297 11.2123 15.2997C11.1882 15.29 11.1641 15.2808 11.14 15.2714C11.1135 15.2612 11.0874 15.2502 11.0607 15.2405L14.2679 9.593C14.2856 9.60723 14.304 9.62063 14.3219 9.63476C14.7466 9.96984 15.2236 10.2411 15.7398 10.4319L12.534 16.077ZM21.0435 5.73084C21.042 5.76016 21.0391 5.78927 21.0369 5.81849C21.0345 5.84918 21.0327 5.88008 21.0296 5.91067C21.0262 5.94357 21.0215 5.97585 21.0171 6.00833C21.0137 6.03523 21.0107 6.06212 21.0065 6.08891C21.0016 6.12066 20.9953 6.15187 20.9895 6.1832C20.9844 6.21062 20.9799 6.23825 20.9742 6.26557C20.9682 6.29447 20.961 6.32305 20.9542 6.35163C20.9472 6.38159 20.9404 6.41154 20.9326 6.44107C20.9259 6.46649 20.9183 6.49148 20.9111 6.51648C20.9016 6.54949 20.8922 6.5824 20.8816 6.6153C20.8745 6.63745 20.8667 6.65939 20.8593 6.68122C20.8471 6.71634 20.835 6.75146 20.8217 6.78627C20.8138 6.80705 20.8056 6.82761 20.7973 6.84818C20.7834 6.88288 20.7692 6.91726 20.7542 6.95164C20.2118 8.19048 18.9748 9.05806 17.5385 9.05806C17.3978 9.05806 17.2591 9.04878 17.1226 9.03254C17.0668 9.02589 17.0111 9.01809 16.9559 9.0087C16.9541 9.00838 16.9522 9.00807 16.9504 9.00765C16.4326 8.91958 15.9404 8.7136 15.5133 8.41175C15.5132 8.41175 15.5131 8.41164 15.5129 8.41154C15.4693 8.38064 15.4264 8.34836 15.384 8.31556C15.376 8.30934 15.3682 8.30322 15.3603 8.297C15.3266 8.27021 15.2934 8.24279 15.2605 8.21473C15.2455 8.20187 15.2305 8.18911 15.2157 8.17603C15.1911 8.15419 15.1668 8.13194 15.1428 8.10948C15.1218 8.08986 15.1008 8.07003 15.0802 8.04989C15.0632 8.03333 15.0467 8.01635 15.0302 7.99937C15.0047 7.97332 14.9793 7.94695 14.9545 7.91995C14.9435 7.90793 14.9328 7.8958 14.922 7.88367C14.8936 7.85192 14.8657 7.81996 14.8384 7.78716C14.8311 7.77862 14.8242 7.76966 14.8172 7.76101C14.3251 7.15678 14.0292 6.38654 14.0292 5.54838C14.0292 3.61314 15.6037 2.03881 17.5386 2.03881C18.9755 2.03881 20.2129 2.90724 20.7552 4.1466C20.7696 4.17961 20.7833 4.21284 20.7966 4.24616C20.8053 4.268 20.8142 4.28972 20.8224 4.31176C20.8351 4.3453 20.8468 4.37905 20.8585 4.41301C20.8665 4.43622 20.8747 4.45932 20.8821 4.48273C20.8922 4.51426 20.9013 4.54612 20.9105 4.57786C20.9181 4.60423 20.926 4.63028 20.933 4.65675C20.9406 4.68533 20.947 4.71413 20.9538 4.74282C20.9607 4.77256 20.9682 4.80209 20.9744 4.83215C20.9798 4.85851 20.9842 4.88499 20.9891 4.91135C20.9951 4.94373 21.0014 4.97601 21.0065 5.0086C21.0106 5.03444 21.0133 5.0607 21.0167 5.08664C21.0211 5.11997 21.026 5.15309 21.0295 5.18663C21.0325 5.21679 21.0342 5.24706 21.0366 5.27733C21.0389 5.30707 21.0419 5.3365 21.0434 5.36634C21.0465 5.42678 21.0481 5.48753 21.0481 5.54859C21.0481 5.60966 21.0466 5.67031 21.0435 5.73084ZM25.9873 6.47862H22.6594C22.6647 6.45014 22.6686 6.42124 22.6732 6.39255C22.6781 6.36323 22.6828 6.33381 22.6871 6.30438C22.6951 6.24964 22.7019 6.19459 22.7081 6.13932C22.7113 6.11106 22.7149 6.083 22.7176 6.05463C22.7234 5.99557 22.7274 5.9363 22.7312 5.87681C22.7328 5.85192 22.7349 5.82735 22.7362 5.80225C22.7403 5.71808 22.7426 5.6336 22.7426 5.54881C22.7426 5.46401 22.7403 5.37953 22.7362 5.29526C22.7349 5.27037 22.7328 5.2459 22.7312 5.22111C22.7275 5.16153 22.7233 5.10194 22.7176 5.04266C22.7149 5.01461 22.7114 4.98697 22.7082 4.95924C22.7019 4.90355 22.6951 4.84797 22.687 4.79249C22.6828 4.7637 22.6781 4.73501 22.6733 4.70632C22.6686 4.67721 22.6648 4.64768 22.6594 4.61868H25.9873V6.47862ZM33.0187 8.24363H28.1903C27.91 8.24363 27.6819 8.01571 27.6819 7.73527V7.32584V3.77155V3.36234C27.6819 3.08211 27.9099 2.85398 28.1903 2.85398H33.0187V8.24363ZM37.1982 3.77155V7.32595V7.73527C37.1982 8.0155 36.9702 8.24363 36.6899 8.24363H34.7131V2.85398H36.6899C36.9701 2.85398 37.1982 3.082 37.1982 3.36234V3.77155ZM44.501 6.47883H38.8926V4.61878H44.501V6.47883ZM49.1397 18.7001C49.1397 18.9803 48.9117 19.2085 48.6313 19.2085H46.7036C46.4233 19.2085 46.1952 18.9804 46.1952 18.7001V17.2038C46.1952 16.9841 46.3361 16.7984 46.5317 16.7275C46.5576 16.718 46.5839 16.7101 46.6101 16.705C46.6405 16.6993 46.6716 16.6956 46.7036 16.6956H48.6313C48.663 16.6956 48.6937 16.6993 48.7237 16.705C48.7291 16.706 48.7347 16.7067 48.7401 16.708C48.7681 16.7141 48.7952 16.7227 48.8213 16.7332C48.8281 16.7361 48.8349 16.7393 48.8416 16.7425C49.0169 16.8228 49.1396 16.9988 49.1396 17.2039V18.7001H49.1397ZM47.065 15.0011V12.9049H48.4168V15.0011H47.065ZM49.1397 10.7023C49.1397 10.9075 49.0169 11.0836 48.8416 11.1637C48.8349 11.1668 48.8282 11.1702 48.8214 11.173C48.7953 11.1837 48.7682 11.1921 48.7402 11.1983C48.7348 11.1995 48.7292 11.2003 48.7238 11.2014C48.6938 11.2069 48.6631 11.2108 48.6314 11.2108H46.7037C46.6718 11.2108 46.6408 11.2071 46.6106 11.2014C46.5821 11.1957 46.5536 11.1875 46.5252 11.1767C46.333 11.104 46.1953 10.9197 46.1953 10.7024V7.32584V3.77155V2.20271C46.1953 1.92248 46.4234 1.69435 46.7037 1.69435H48.6314C48.9117 1.69435 49.1398 1.92238 49.1398 2.20271V10.7023H49.1397Z" fill="white"/>
</g>
<defs>
<clipPath id="clip0_1_432">
<rect width="54" height="54" fill="white"/>
</clipPath>
</defs>
</svg>
