<svg width="60" height="60" viewBox="0 0 60 60" fill="none" xmlns="http://www.w3.org/2000/svg">
<path d="M15.625 53.125H51.875" stroke="white" stroke-width="1.25" stroke-linecap="round" stroke-linejoin="round"/>
<path d="M43.125 59.375H55.625" stroke="white" stroke-width="1.25" stroke-linecap="round" stroke-linejoin="round"/>
<path d="M10.5275 46.875H53.125V59.375H10.4887C8.86728 59.375 7.31223 58.7309 6.16568 57.5843C5.01913 56.4378 4.375 54.8827 4.375 53.2613V53.0275C4.375 51.3958 5.02321 49.8308 6.17703 48.677C7.33084 47.5232 8.89576 46.875 10.5275 46.875Z" stroke="white" stroke-width="1.25" stroke-linecap="round" stroke-linejoin="round"/>
<path d="M10.625 46.875H54.375C54.7066 46.875 55.0245 46.7433 55.2589 46.5089C55.4933 46.2745 55.625 45.9565 55.625 45.625V2.26875C55.625 1.57875 55.065 0.625 54.375 0.625H12.79C10.5121 0.716225 8.35943 1.69123 6.78844 3.3432C5.21744 4.99517 4.35175 7.19417 4.37503 9.47375V53.125" stroke="white" stroke-width="1.25" stroke-linecap="round" stroke-linejoin="round"/>
<path d="M13.125 1.875V46.875" stroke="white" stroke-width="1.25" stroke-linecap="round" stroke-linejoin="round"/>
<path d="M43.3325 16.9788C43.3325 18.0388 40.7175 18.5701 40.3325 19.4913C39.9362 20.4463 41.395 22.6676 40.6762 23.3876C39.9575 24.1076 37.7337 22.6488 36.78 23.0438C35.8587 23.4263 35.3275 26.0438 34.2675 26.0438C33.2075 26.0438 32.6775 23.4288 31.7563 23.0438C30.8013 22.6488 28.5788 24.1063 27.86 23.3876C27.1413 22.6688 28.5987 20.4463 28.2025 19.4913C27.8275 18.5701 25.2025 18.0388 25.2025 16.9788C25.2025 15.9188 27.8187 15.3888 28.2025 14.4676C28.5987 13.5126 27.14 11.2901 27.86 10.5713C28.58 9.85257 30.8013 11.3101 31.7563 10.9138C32.6775 10.5326 33.2087 7.91382 34.2675 7.91382C35.3262 7.91382 35.8587 10.5301 36.78 10.9138C37.735 11.3101 39.9562 9.85132 40.6762 10.5713C41.3962 11.2913 39.9362 13.5126 40.3325 14.4676C40.7175 15.3888 43.3325 15.9251 43.3325 16.9788Z" stroke="white" stroke-width="1.25" stroke-linecap="round" stroke-linejoin="round"/>
<path d="M26.875 31.875H43.125" stroke="white" stroke-width="1.25" stroke-linecap="round" stroke-linejoin="round"/>
<path d="M26.875 36.875H43.125" stroke="white" stroke-width="1.25" stroke-linecap="round" stroke-linejoin="round"/>
</svg>
