<svg width="64" height="64" viewBox="0 0 64 64" fill="none" xmlns="http://www.w3.org/2000/svg">
<g clip-path="url(#clip0_1_470)">
<path d="M33.4887 4.59216C30.8892 4.59216 28.7803 6.70115 28.7803 9.30059V18.3349L35.7841 29.949C36.0293 29.7921 36.3138 29.7038 36.6276 29.7038H39.7666C40.6298 29.7038 41.3361 30.41 41.3361 31.2733V34.4122C41.3361 35.2754 40.6298 35.9817 39.7666 35.9817H39.4233L46.6625 47.9882C47.8788 50.0089 47.9279 52.5298 46.7802 54.5898C46.741 54.6683 46.6919 54.7467 46.6429 54.8154H58.6003C61.1998 54.8154 63.3088 52.7064 63.3088 50.107V28.1343C63.3088 25.5349 61.1998 23.4259 58.6003 23.4259H56.2461V16.3632C56.2461 15.0586 55.1965 14.009 53.8919 14.009C52.5873 14.009 51.5377 15.0586 51.5377 16.3632V23.4259H47.614V9.30059C47.614 6.70115 45.505 4.59216 42.9056 4.59216H33.4887ZM36.6276 10.8701H39.7666C40.6298 10.8701 41.3361 11.5763 41.3361 12.4395V15.5785C41.3361 16.4417 40.6298 17.148 39.7666 17.148H36.6276C35.7644 17.148 35.0582 16.4417 35.0582 15.5785V12.4395C35.0582 11.5763 35.7644 10.8701 36.6276 10.8701ZM35.0582 21.8564C35.0582 20.9932 35.7644 20.2869 36.6276 20.2869H39.7666C40.6298 20.2869 41.3361 20.9932 41.3361 21.8564V24.9953C41.3361 25.8586 40.6298 26.5648 39.7666 26.5648H36.6276C35.7644 26.5648 35.0582 25.8586 35.0582 24.9953V21.8564ZM50.7529 31.2733C50.7529 30.41 51.4592 29.7038 52.3224 29.7038H55.4614C56.3246 29.7038 57.0308 30.41 57.0308 31.2733V34.4122C57.0308 35.2754 56.3246 35.9817 55.4614 35.9817H52.3224C51.4592 35.9817 50.7529 35.2754 50.7529 34.4122V31.2733ZM52.3224 39.1206H55.4614C56.3246 39.1206 57.0308 39.8269 57.0308 40.6901V43.8291C57.0308 44.6923 56.3246 45.3985 55.4614 45.3985H52.3224C51.4592 45.3985 50.7529 44.6923 50.7529 43.8291V40.6901C50.7529 39.8269 51.4592 39.1206 52.3224 39.1206ZM22.5024 23.1218L28.3683 32.8427H22.4043L17.6958 39.1206L15.2828 35.0792L22.5024 23.1218ZM25.3863 18.7861C24.7683 17.766 23.6795 17.148 22.5024 17.148C21.3252 17.148 20.2364 17.766 19.6184 18.7861L1.02995 49.6067C0.392353 50.6661 0.372735 51.9903 0.961289 53.0694C1.54984 54.1484 2.68771 54.8154 3.91387 54.8154H41.0908C42.317 54.8154 43.4451 54.1484 44.0434 53.0694C44.6418 51.9903 44.6124 50.6661 43.9748 49.6067L25.3863 18.7861Z" fill="white"/>
</g>
<defs>
<clipPath id="clip0_1_470">
<rect width="62.7791" height="62.7791" fill="white" transform="translate(0.53125 0.339233)"/>
</clipPath>
</defs>
</svg>
