<svg width="50" height="50" viewBox="0 0 50 50" fill="none" xmlns="http://www.w3.org/2000/svg">
<g clip-path="url(#clip0_1_513)">
<path d="M48.5112 45.9405H47.0223V6.53509C47.0223 3.52869 44.796 1.08203 42.0595 1.08203H28.4119C25.6754 1.08203 23.4491 3.52869 23.4491 6.53509V13.7718C23.05 13.6785 22.6391 13.6129 22.2083 13.6129H8.5608C5.82438 13.6129 3.598 15.6189 3.598 18.0863V45.9404H1.48885C0.666948 45.9405 0 46.6075 0 47.4293C0 48.2511 0.666948 48.9182 1.48885 48.9182H48.5112C49.3329 48.9182 50 48.2512 50 47.4293C50 46.6074 49.3331 45.9405 48.5112 45.9405ZM7.56819 18.0864C7.56819 17.9405 7.91656 17.5832 8.5608 17.5832H22.2085C22.8526 17.5832 23.2011 17.9395 23.2011 18.0864V45.9405H7.56819V18.0864ZM27.4194 6.53509C27.4194 5.66068 27.9425 5.05222 28.412 5.05222H42.0596C42.5291 5.05222 43.0522 5.66068 43.0522 6.53509V45.9406H27.4194V6.53509Z" fill="white"/>
<path d="M32.8238 6.73059H30.3692C29.5761 6.73059 28.932 7.37373 28.932 8.16779V10.6224C28.932 11.4155 29.5751 12.0596 30.3692 12.0596H32.8238C33.6169 12.0596 34.261 11.4164 34.261 10.6224V8.16779C34.261 7.37373 33.6169 6.73059 32.8238 6.73059Z" fill="white"/>
<path d="M32.8238 13.6785H30.3692C29.5761 13.6785 28.932 14.3216 28.932 15.1157V17.5703C28.932 18.3633 29.5751 19.0075 30.3692 19.0075H32.8238C33.6169 19.0075 34.261 18.3643 34.261 17.5703V15.1157C34.261 14.3216 33.6169 13.6785 32.8238 13.6785Z" fill="white"/>
<path d="M32.8238 20.6263H30.3692C29.5761 20.6263 28.932 21.2695 28.932 22.0635V24.5181C28.932 25.3112 29.5751 25.9553 30.3692 25.9553H32.8238C33.6169 25.9553 34.261 25.3122 34.261 24.5181V22.0635C34.261 21.2695 33.6169 20.6263 32.8238 20.6263Z" fill="white"/>
<path d="M40.1022 6.73059H37.6476C36.8546 6.73059 36.2104 7.37373 36.2104 8.16779V10.6224C36.2104 11.4155 36.8536 12.0596 37.6476 12.0596H40.1022C40.8953 12.0596 41.5394 11.4164 41.5394 10.6224V8.16779C41.5394 7.37373 40.8963 6.73059 40.1022 6.73059Z" fill="white"/>
<path d="M40.1022 13.6785H37.6476C36.8546 13.6785 36.2104 14.3216 36.2104 15.1157V17.5703C36.2104 18.3633 36.8536 19.0075 37.6476 19.0075H40.1022C40.8953 19.0075 41.5394 18.3643 41.5394 17.5703V15.1157C41.5394 14.3216 40.8963 13.6785 40.1022 13.6785Z" fill="white"/>
<path d="M40.1022 20.6263H37.6476C36.8546 20.6263 36.2104 21.2695 36.2104 22.0635V24.5181C36.2104 25.3112 36.8536 25.9553 37.6476 25.9553H40.1022C40.8953 25.9553 41.5394 25.3122 41.5394 24.5181V22.0635C41.5394 21.2695 40.8963 20.6263 40.1022 20.6263Z" fill="white"/>
<path d="M32.8238 27.5742H30.3692C29.5761 27.5742 28.932 28.2174 28.932 29.0114V31.466C28.932 32.2591 29.5751 32.9032 30.3692 32.9032H32.8238C33.6169 32.9032 34.261 32.2601 34.261 31.466V29.0114C34.261 28.2174 33.6169 27.5742 32.8238 27.5742Z" fill="white"/>
<path d="M32.8238 34.5221H30.3692C29.5761 34.5221 28.932 35.1652 28.932 35.9593V38.4139C28.932 39.207 29.5751 39.8511 30.3692 39.8511H32.8238C33.6169 39.8511 34.261 39.208 34.261 38.4139V35.9593C34.261 35.1652 33.6169 34.5221 32.8238 34.5221Z" fill="white"/>
<path d="M40.1022 27.5742H37.6476C36.8546 27.5742 36.2104 28.2174 36.2104 29.0114V31.466C36.2104 32.2591 36.8536 32.9032 37.6476 32.9032H40.1022C40.8953 32.9032 41.5394 32.2601 41.5394 31.466V29.0114C41.5394 28.2174 40.8963 27.5742 40.1022 27.5742Z" fill="white"/>
<path d="M40.1022 34.5221H37.6476C36.8546 34.5221 36.2104 35.1652 36.2104 35.9593V38.4139C36.2104 39.207 36.8536 39.8511 37.6476 39.8511H40.1022C40.8953 39.8511 41.5394 39.208 41.5394 38.4139V35.9593C41.5394 35.1652 40.8963 34.5221 40.1022 34.5221Z" fill="white"/>
<path d="M12.9727 20.6263H10.5182C9.72511 20.6263 9.08099 21.2695 9.08099 22.0635V24.5181C9.08099 25.3112 9.72413 25.9553 10.5182 25.9553H12.9728C13.7659 25.9553 14.41 25.3122 14.41 24.5181V22.0635C14.41 21.2695 13.7657 20.6263 12.9727 20.6263Z" fill="white"/>
<path d="M20.251 20.6263H17.7965C17.0034 20.6263 16.3593 21.2695 16.3593 22.0635V24.5181C16.3593 25.3112 17.0024 25.9553 17.7965 25.9553H20.251C21.0441 25.9553 21.6882 25.3122 21.6882 24.5181V22.0635C21.6882 21.2695 21.0451 20.6263 20.251 20.6263Z" fill="white"/>
<path d="M12.9727 27.5742H10.5182C9.72511 27.5742 9.08099 28.2174 9.08099 29.0114V31.466C9.08099 32.2591 9.72413 32.9032 10.5182 32.9032H12.9728C13.7659 32.9032 14.41 32.2601 14.41 31.466V29.0114C14.41 28.2174 13.7657 27.5742 12.9727 27.5742Z" fill="white"/>
<path d="M12.9727 34.5221H10.5182C9.72511 34.5221 9.08099 35.1652 9.08099 35.9593V38.4139C9.08099 39.207 9.72413 39.8511 10.5182 39.8511H12.9728C13.7659 39.8511 14.41 39.208 14.41 38.4139V35.9593C14.41 35.1652 13.7657 34.5221 12.9727 34.5221Z" fill="white"/>
<path d="M20.251 27.5742H17.7965C17.0034 27.5742 16.3593 28.2174 16.3593 29.0114V31.466C16.3593 32.2591 17.0024 32.9032 17.7965 32.9032H20.251C21.0441 32.9032 21.6882 32.2601 21.6882 31.466V29.0114C21.6882 28.2174 21.0451 27.5742 20.251 27.5742Z" fill="white"/>
<path d="M20.251 34.5221H17.7965C17.0034 34.5221 16.3593 35.1652 16.3593 35.9593V38.4139C16.3593 39.207 17.0024 39.8511 17.7965 39.8511H20.251C21.0441 39.8511 21.6882 39.208 21.6882 38.4139V35.9593C21.6882 35.1652 21.0451 34.5221 20.251 34.5221Z" fill="white"/>
</g>
<defs>
<clipPath id="clip0_1_513">
<rect width="50" height="50" fill="white"/>
</clipPath>
</defs>
</svg>
