<svg width="60" height="60" viewBox="0 0 60 60" fill="none" xmlns="http://www.w3.org/2000/svg">
<g clip-path="url(#clip0_1_506)">
<path d="M17.3682 54.458H12.7246V47.2607C12.7246 47.1312 12.6732 47.007 12.5816 46.9154C12.49 46.8239 12.3658 46.7724 12.2363 46.7724H6.3916C6.25926 46.7722 6.13186 46.8227 6.0356 46.9135C5.93933 47.0043 5.88151 47.1286 5.87402 47.2607V54.458H5.04883V55.9668H54.9512V54.458H54.126V47.2607C54.1185 47.1286 54.0607 47.0043 53.9644 46.9135C53.8681 46.8227 53.7407 46.7722 53.6084 46.7724H47.7881C47.7219 46.7691 47.6558 46.7793 47.5937 46.8023C47.5316 46.8254 47.4749 46.8608 47.4269 46.9065C47.379 46.9522 47.3408 47.0071 47.3147 47.068C47.2887 47.1289 47.2753 47.1945 47.2754 47.2607V54.458H36.3477V44.2822C36.3483 44.1901 36.3305 44.0988 36.2953 44.0138C36.2601 43.9287 36.2082 43.8516 36.1426 43.7869C36.0771 43.7223 35.9992 43.6714 35.9136 43.6374C35.8281 43.6034 35.7366 43.5869 35.6445 43.5888H24.292C24.1094 43.5888 23.9343 43.6614 23.8052 43.7905C23.676 43.9196 23.6035 44.0947 23.6035 44.2773V54.4531H15.8643V20.0878H1.46484V54.458H5.07324V55.9668H0.688474C0.505879 55.9668 0.330762 55.8942 0.201647 55.7651C0.072533 55.636 -2.66896e-06 55.4609 -2.66896e-06 55.2783V19.663C-0.00145501 19.5302 0.0242109 19.3985 0.0754248 19.2759C0.126639 19.1533 0.202324 19.0425 0.297849 18.9502C0.390015 18.8561 0.500248 18.7817 0.621919 18.7313C0.743591 18.681 0.874188 18.6558 1.00586 18.6572H15.8643V5.13668C15.891 4.85577 16.0154 4.59314 16.2158 4.39449C16.3297 4.2789 16.4659 4.18769 16.6162 4.12642C16.7664 4.06514 16.9276 4.03507 17.0898 4.03804H42.8857C43.0437 4.03689 43.2002 4.06741 43.3461 4.1278C43.4921 4.18818 43.6244 4.2772 43.7354 4.3896L43.7891 4.4482C43.9859 4.66667 44.0955 4.95 44.0967 5.2441V18.6474H58.9893C59.1209 18.646 59.2515 18.6712 59.3732 18.7216C59.4949 18.7719 59.6051 18.8463 59.6973 18.9404C59.7928 19.0327 59.8685 19.1435 59.9197 19.2661C59.9709 19.3887 59.9966 19.5204 59.9951 19.6533V55.2978C59.9951 55.4804 59.9226 55.6555 59.7935 55.7846C59.6644 55.9137 59.4892 55.9863 59.3066 55.9863H54.9463V54.4775H58.5547V20.0878H44.0918V54.458H42.583V5.54195H17.3682V54.458ZM8.02246 23.081H4.30175C4.27246 23.081 4.24316 23.1201 4.24316 23.1689V25.581C4.24316 25.6298 4.27246 25.6738 4.30175 25.6738H8.02246C8.05176 25.6738 8.08105 25.6347 8.08105 25.581V23.1445C8.08105 23.0957 8.05176 23.0566 8.02246 23.0566V23.081ZM8.02246 39.8144H4.30175C4.27246 39.8144 4.24316 39.8584 4.24316 39.9023V42.3144C4.24316 42.3584 4.27246 42.4072 4.30175 42.4072H8.02246C8.05176 42.4072 8.08105 42.3632 8.08105 42.3144V39.8779C8.08105 39.8339 8.05176 39.79 8.02246 39.79V39.8144ZM14.3018 39.8144H10.5811C10.5469 39.8144 10.5225 39.8584 10.5225 39.9023V42.3144C10.5225 42.3584 10.5469 42.4072 10.5811 42.4072H14.3018C14.3311 42.4072 14.3555 42.3632 14.3555 42.3144V39.8779C14.3555 39.8339 14.3555 39.79 14.3018 39.79V39.8144ZM8.02246 34.2089H4.30175C4.27246 34.2089 4.24316 34.2529 4.24316 34.3017V36.7138C4.24316 36.7627 4.27246 36.8066 4.30175 36.8066H8.02246C8.05176 36.8066 8.08105 36.7675 8.08105 36.7138V34.3115C8.08105 34.2578 8.05176 34.2187 8.02246 34.2187V34.2089ZM8.02246 28.6328H4.30175C4.27246 28.6328 4.24316 28.6718 4.24316 28.7255V31.1377C4.24316 31.1816 4.27246 31.2304 4.30175 31.2304H8.02246C8.05176 31.2304 8.08105 31.1865 8.08105 31.1377V28.7255C8.08105 28.6718 8.05176 28.6328 8.02246 28.6328ZM14.3018 23.081H10.5811C10.5469 23.081 10.5225 23.1201 10.5225 23.1689V25.581C10.5225 25.6298 10.5469 25.6738 10.5811 25.6738H14.3018C14.3311 25.6738 14.3555 25.6347 14.3555 25.581V23.1445C14.3555 23.0957 14.3555 23.0566 14.3018 23.0566V23.081ZM14.3018 34.2334H10.5811C10.5469 34.2334 10.5225 34.2773 10.5225 34.3261V36.7382C10.5225 36.7871 10.5469 36.831 10.5811 36.831H14.3018C14.3311 36.831 14.3555 36.792 14.3555 36.7382V34.3115C14.3555 34.2578 14.3555 34.2187 14.3018 34.2187V34.2334ZM14.3018 28.6572H10.5811C10.5469 28.6572 10.5225 28.6962 10.5225 28.75V31.1377C10.5225 31.1816 10.5469 31.2304 10.5811 31.2304H14.3018C14.3311 31.2304 14.3555 31.1865 14.3555 31.1377V28.7255C14.3555 28.6718 14.3555 28.6328 14.3018 28.6328V28.6572ZM51.9775 23.081H55.6982C55.7275 23.081 55.7568 23.1201 55.7568 23.1689V25.581C55.7568 25.6298 55.7275 25.6738 55.6982 25.6738H51.9775C51.9482 25.6738 51.9189 25.6347 51.9189 25.581V23.1445C51.9189 23.0957 51.9482 23.0566 51.9775 23.0566V23.081ZM51.9775 39.8144H55.6982C55.7275 39.8144 55.7568 39.8584 55.7568 39.9023V42.3144C55.7568 42.3584 55.7275 42.4072 55.6982 42.4072H51.9775C51.9482 42.4072 51.9189 42.3632 51.9189 42.3144V39.8779C51.9189 39.8339 51.9482 39.79 51.9775 39.79V39.8144ZM45.6982 39.8144H49.4189C49.4531 39.8144 49.4775 39.8584 49.4775 39.9023V42.3144C49.4775 42.3584 49.4775 42.4072 49.4189 42.4072H45.6982C45.6689 42.4072 45.6445 42.3632 45.6445 42.3144V39.8779C45.6445 39.8339 45.6445 39.79 45.6982 39.79V39.8144ZM51.9775 34.2334H55.6982C55.7275 34.2334 55.7568 34.2773 55.7568 34.3261V36.7382C55.7568 36.7871 55.7275 36.831 55.6982 36.831H51.9775C51.9482 36.831 51.9189 36.792 51.9189 36.7382V34.3115C51.9189 34.2578 51.9482 34.2187 51.9775 34.2187V34.2334ZM51.9775 28.6572H55.6982C55.7275 28.6572 55.7568 28.6962 55.7568 28.75V31.1377C55.7568 31.1816 55.7275 31.2304 55.6982 31.2304H51.9775C51.9482 31.2304 51.9189 31.1865 51.9189 31.1377V28.7255C51.9189 28.6718 51.9482 28.6328 51.9775 28.6328V28.6572ZM45.6982 23.081H49.4189C49.4531 23.081 49.4775 23.1201 49.4775 23.1689V25.581C49.4775 25.6298 49.4775 25.6738 49.4189 25.6738H45.6982C45.6689 25.6738 45.6445 25.6347 45.6445 25.581V23.1445C45.6445 23.0957 45.6445 23.0566 45.6982 23.0566V23.081ZM45.6982 34.2334H49.4189C49.4531 34.2334 49.4775 34.2773 49.4775 34.3261V36.7382C49.4775 36.7871 49.4775 36.831 49.4189 36.831H45.6982C45.6689 36.831 45.6445 36.792 45.6445 36.7382V34.3115C45.6445 34.2578 45.6445 34.2187 45.6982 34.2187V34.2334ZM45.6982 28.6572H49.4189C49.4531 28.6572 49.4775 28.6962 49.4775 28.75V31.1377C49.4775 31.1816 49.4775 31.2304 49.4189 31.2304H45.6982C45.6689 31.2304 45.6445 31.1865 45.6445 31.1377V28.7255C45.6445 28.6718 45.6445 28.6328 45.6982 28.6328V28.6572ZM20.9961 9.33101H25.0439C25.0742 9.33099 25.1033 9.34266 25.1251 9.36359C25.147 9.38452 25.1599 9.41309 25.1611 9.44332V13.496C25.1599 13.5263 25.147 13.5548 25.1251 13.5758C25.1033 13.5967 25.0742 13.6084 25.0439 13.6084H20.9961C20.9663 13.6084 20.9377 13.5965 20.9167 13.5755C20.8956 13.5544 20.8838 13.5258 20.8838 13.496V9.44332C20.8838 9.41353 20.8956 9.38497 20.9167 9.3639C20.9377 9.34284 20.9663 9.33101 20.9961 9.33101ZM34.917 9.33101H38.9648C38.9951 9.33099 39.0242 9.34266 39.046 9.36359C39.0679 9.38452 39.0808 9.41309 39.082 9.44332V13.496C39.0808 13.5263 39.0679 13.5548 39.046 13.5758C39.0242 13.5967 38.9951 13.6084 38.9648 13.6084H34.9121C34.8819 13.6084 34.8528 13.5967 34.8309 13.5758C34.8091 13.5548 34.7962 13.5263 34.7949 13.496V9.44332C34.7962 9.41309 34.8091 9.38452 34.8309 9.36359C34.8528 9.34266 34.8819 9.33099 34.9121 9.33101H34.917ZM27.9541 9.33101H32.0068C32.0366 9.33101 32.0652 9.34284 32.0862 9.3639C32.1073 9.38497 32.1191 9.41353 32.1191 9.44332V13.496C32.1191 13.5258 32.1073 13.5544 32.0862 13.5755C32.0652 13.5965 32.0366 13.6084 32.0068 13.6084H27.9541C27.9247 13.6072 27.8968 13.5949 27.876 13.5741C27.8552 13.5533 27.843 13.5255 27.8418 13.496V9.44332C27.843 9.41392 27.8552 9.38604 27.876 9.36524C27.8968 9.34443 27.9247 9.33221 27.9541 9.33101ZM20.9961 18.1005H25.0439C25.075 18.1005 25.1048 18.1129 25.1268 18.1349C25.1488 18.1568 25.1611 18.1867 25.1611 18.2177V22.2656C25.1611 22.281 25.1581 22.2962 25.1522 22.3104C25.1463 22.3246 25.1377 22.3376 25.1268 22.3484C25.1159 22.3593 25.103 22.368 25.0888 22.3738C25.0746 22.3797 25.0593 22.3828 25.0439 22.3828H20.9961C20.9809 22.3828 20.9659 22.3797 20.952 22.3738C20.938 22.3678 20.9254 22.3591 20.9149 22.3482C20.9044 22.3372 20.8962 22.3243 20.8909 22.3101C20.8855 22.2959 20.8831 22.2807 20.8838 22.2656V18.1982C20.8874 18.171 20.9008 18.1461 20.9214 18.1281C20.9421 18.1101 20.9687 18.1003 20.9961 18.1005ZM34.917 18.1005H38.9648C38.9894 18.1044 39.012 18.1159 39.0296 18.1335C39.0471 18.151 39.0587 18.1737 39.0625 18.1982V22.2461C39.0625 22.2771 39.0502 22.3069 39.0282 22.3289C39.0062 22.3509 38.9764 22.3632 38.9453 22.3632H34.9121C34.881 22.3632 34.8512 22.3509 34.8292 22.3289C34.8073 22.3069 34.7949 22.2771 34.7949 22.2461V18.1982C34.7949 18.1671 34.8073 18.1373 34.8292 18.1153C34.8512 18.0934 34.881 18.081 34.9121 18.081L34.917 18.1005ZM27.9541 18.1005H32.0068C32.022 18.1005 32.037 18.1036 32.051 18.1095C32.0649 18.1155 32.0775 18.1242 32.088 18.1351C32.0985 18.1461 32.1067 18.1591 32.112 18.1733C32.1174 18.1874 32.1198 18.2026 32.1191 18.2177V22.2656C32.1198 22.2807 32.1174 22.2959 32.112 22.3101C32.1067 22.3243 32.0985 22.3372 32.088 22.3482C32.0775 22.3591 32.0649 22.3678 32.051 22.3738C32.037 22.3797 32.022 22.3828 32.0068 22.3828H27.9541C27.9239 22.3815 27.8953 22.3686 27.8744 22.3468C27.8534 22.3249 27.8418 22.2958 27.8418 22.2656V18.1982C27.8418 18.1679 27.8534 18.1389 27.8744 18.117C27.8953 18.0952 27.9239 18.0823 27.9541 18.081V18.1005ZM20.9961 35.6445H25.0439C25.075 35.6445 25.1048 35.6568 25.1268 35.6788C25.1488 35.7008 25.1611 35.7306 25.1611 35.7617V39.8095C25.1611 39.8406 25.1488 39.8704 25.1268 39.8924C25.1048 39.9144 25.075 39.9267 25.0439 39.9267H20.9961C20.9809 39.9267 20.9659 39.9237 20.952 39.9177C20.938 39.9118 20.9254 39.9031 20.9149 39.8921C20.9044 39.8812 20.8962 39.8682 20.8909 39.854C20.8855 39.8398 20.8831 39.8247 20.8838 39.8095V35.7763C20.8831 35.7612 20.8855 35.746 20.8909 35.7318C20.8962 35.7176 20.9044 35.7047 20.9149 35.6937C20.9254 35.6828 20.938 35.6741 20.952 35.6681C20.9659 35.6622 20.9809 35.6591 20.9961 35.6591V35.6445ZM34.917 35.6445H38.9648C38.9951 35.6493 39.0223 35.6658 39.0406 35.6905C39.0588 35.7151 39.0667 35.7459 39.0625 35.7763V39.8242C39.0625 39.8553 39.0502 39.8851 39.0282 39.907C39.0062 39.929 38.9764 39.9414 38.9453 39.9414H34.9121C34.881 39.9414 34.8512 39.929 34.8292 39.907C34.8073 39.8851 34.7949 39.8553 34.7949 39.8242V35.7763C34.7949 35.7452 34.8073 35.7154 34.8292 35.6935C34.8512 35.6715 34.881 35.6591 34.9121 35.6591L34.917 35.6445ZM27.9541 35.6445H32.0068C32.022 35.6445 32.037 35.6475 32.051 35.6535C32.0649 35.6594 32.0775 35.6681 32.088 35.6791C32.0985 35.69 32.1067 35.703 32.112 35.7172C32.1174 35.7314 32.1198 35.7465 32.1191 35.7617V39.8095C32.1198 39.8247 32.1174 39.8398 32.112 39.854C32.1067 39.8682 32.0985 39.8812 32.088 39.8921C32.0775 39.9031 32.0649 39.9118 32.051 39.9177C32.037 39.9237 32.022 39.9267 32.0068 39.9267H27.9541C27.9239 39.9255 27.8953 39.9126 27.8744 39.8907C27.8534 39.8689 27.8418 39.8398 27.8418 39.8095V35.7763C27.8418 35.7461 27.8534 35.717 27.8744 35.6951C27.8953 35.6733 27.9239 35.6604 27.9541 35.6591V35.6445ZM20.9961 26.875H25.0439C25.0742 26.8749 25.1033 26.8866 25.1251 26.9075C25.147 26.9285 25.1599 26.957 25.1611 26.9873V31.04C25.1611 31.0552 25.1581 31.0702 25.1521 31.0841C25.1462 31.0981 25.1375 31.1107 25.1265 31.1212C25.1156 31.1317 25.1026 31.1398 25.0884 31.1452C25.0742 31.1505 25.0591 31.153 25.0439 31.1523H20.9961C20.9663 31.1523 20.9377 31.1405 20.9167 31.1194C20.8956 31.0983 20.8838 31.0698 20.8838 31.04V26.9873C20.8838 26.9575 20.8956 26.9289 20.9167 26.9079C20.9377 26.8868 20.9663 26.875 20.9961 26.875ZM34.917 26.875H38.9648C38.9916 26.8795 39.016 26.8931 39.0338 26.9136C39.0516 26.9341 39.0617 26.9601 39.0625 26.9873V31.04C39.0625 31.0552 39.0595 31.0702 39.0535 31.0841C39.0476 31.0981 39.0388 31.1107 39.0279 31.1212C39.0169 31.1317 39.004 31.1398 38.9898 31.1452C38.9756 31.1505 38.9605 31.153 38.9453 31.1523H34.9121C34.897 31.153 34.8818 31.1505 34.8676 31.1452C34.8534 31.1398 34.8405 31.1317 34.8295 31.1212C34.8186 31.1107 34.8099 31.0981 34.8039 31.0841C34.798 31.0702 34.7949 31.0552 34.7949 31.04V26.9873C34.7962 26.957 34.8091 26.9285 34.8309 26.9075C34.8528 26.8866 34.8819 26.8749 34.9121 26.875H34.917ZM27.9541 26.875H32.0068C32.0366 26.875 32.0652 26.8868 32.0862 26.9079C32.1073 26.9289 32.1191 26.9575 32.1191 26.9873V31.04C32.1191 31.0698 32.1073 31.0983 32.0862 31.1194C32.0652 31.1405 32.0366 31.1523 32.0068 31.1523H27.9541C27.9386 31.1537 27.9229 31.1518 27.9081 31.1467C27.8933 31.1417 27.8798 31.1336 27.8683 31.1231C27.8568 31.1125 27.8477 31.0997 27.8414 31.0854C27.8352 31.0711 27.832 31.0556 27.832 31.04V26.9873C27.8332 26.9579 27.8454 26.93 27.8663 26.9092C27.8871 26.8884 27.9149 26.8762 27.9443 26.875H27.9541Z" fill="white"/>
</g>
<defs>
<clipPath id="clip0_1_506">
<rect width="60" height="60" fill="white"/>
</clipPath>
</defs>
</svg>
