<svg width="58" height="58" viewBox="0 0 58 58" fill="none" xmlns="http://www.w3.org/2000/svg">
<path d="M53.1667 53.1666H4.83334" stroke="white" stroke-width="3.75" stroke-linecap="round"/>
<path d="M4.83334 26.5834L14.6522 18.7284M53.1667 26.5834L33.5291 10.8734C30.8811 8.7551 27.1189 8.7551 24.4709 10.8734L22.5813 12.3851" stroke="white" stroke-width="3.75" stroke-linecap="round"/>
<path d="M37.4583 13.2917V8.45833C37.4583 7.791 37.9994 7.25 38.6667 7.25H44.7083C45.3756 7.25 45.9167 7.791 45.9167 8.45833V20.5417" stroke="white" stroke-width="3.75" stroke-linecap="round"/>
<path d="M9.66666 53.1667V22.9584" stroke="white" stroke-width="3.75" stroke-linecap="round"/>
<path d="M48.3333 22.9584V32.625M48.3333 53.1667V42.2917" stroke="white" stroke-width="3.75" stroke-linecap="round"/>
<path d="M36.25 53.1667V41.0834C36.25 37.6657 36.25 35.9569 35.1884 34.895C34.1265 33.8334 32.4177 33.8334 29 33.8334C25.5824 33.8334 23.8735 33.8334 22.8117 34.895M21.75 53.1667V41.0834" stroke="white" stroke-width="3.75" stroke-linecap="round" stroke-linejoin="round"/>
<path d="M33.8333 22.9583C33.8333 25.6278 31.6694 27.7917 29 27.7917C26.3305 27.7917 24.1667 25.6278 24.1667 22.9583C24.1667 20.289 26.3305 18.125 29 18.125C31.6694 18.125 33.8333 20.289 33.8333 22.9583Z" stroke="white" stroke-width="3.75"/>
</svg>
