<svg width="69" height="64" viewBox="0 0 69 64" fill="none" xmlns="http://www.w3.org/2000/svg">
<g clip-path="url(#clip0_1_479)">
<path d="M64.0461 15.1542L61.2912 15.496L56.6598 19.1867L56.97 20.8425L52.8586 21.5154L51.1613 20.7375L50.8509 18.9642L49.1845 19.0046L49.5782 22.0623L45.3464 22.1622L39.5843 20.3851L34.6112 17.6567L36.0252 14.8808L32.445 12.4468L32.151 10.1002L33.1138 10.6865L34.1474 10.0358L32.9605 7.81508L35.1812 5.78592L35.6499 4.14446L33.8825 3.52762L30.6252 4.10131L27.2557 1L23.5389 1.25985L22.3514 2.77462L25.0242 4.76985L24.3621 5.45315L23.7018 5.59554L23.6596 8.71554L26.0158 10.1546L19.4125 19.1235L16.6105 18.8553L14.8389 21.2632L17.5779 25.8105L15.4696 26.7885L13.1301 26.3888L12 27.4351L13.9135 29.4328L13.7296 31.1992L16.9996 34.0065L17.0679 33.9538L20.2064 33.0077L20.6061 34.6688L20.6691 39.5895L24.9062 52.1858L25.9368 54.1678L27.3351 58.7941L28.455 60.0769L30.4422 59.9244L30.8206 58.6891L34.1589 54.8671V54.5147L34.0906 52.7484L34.1695 52.4962L35.0947 49.4205L35.0003 49.3628L35.037 49.2735L35.0947 49.4205L35.058 49.2418L34.5849 46.1768L35.0003 44.8152L42.4865 39.3739L43.8164 37.6076L44.6418 36.304L46.9128 35.7204L48.8739 32.2875L50.1249 31.5197L51.9598 32.014L50.3564 24.8643L50.2828 22.2095L52.5485 22.6457L52.9165 24.1757L53.9945 24.7171L57.8162 24.7697L57.4378 25.7578L57.7689 27.472L58.5944 30.5842L59.9718 28.4968L59.6931 26.6412L61.0283 26.7832L62.001 23.5288L62.9054 20.9477L65.5758 19.2603L66.5589 17.7986L64.0461 15.1542Z" fill="white"/>
</g>
<path d="M6.78125 33C5.17676 33 3.875 34.3018 3.875 35.9062V61.0938C3.875 62.6982 5.17676 64 6.78125 64H12.5937V59.1562C12.5937 57.5518 13.8955 56.25 15.5 56.25C17.1045 56.25 18.4062 57.5518 18.4062 59.1562V64H24.2187C25.8232 64 27.125 62.6982 27.125 61.0938V35.9062C27.125 34.3018 25.8232 33 24.2187 33H6.78125ZM7.75 47.5312C7.75 46.9984 8.18594 46.5625 8.71875 46.5625H10.6562C11.1891 46.5625 11.625 46.9984 11.625 47.5312V49.4688C11.625 50.0016 11.1891 50.4375 10.6562 50.4375H8.71875C8.18594 50.4375 7.75 50.0016 7.75 49.4688V47.5312ZM14.5312 46.5625H16.4687C17.0016 46.5625 17.4375 46.9984 17.4375 47.5312V49.4688C17.4375 50.0016 17.0016 50.4375 16.4687 50.4375H14.5312C13.9984 50.4375 13.5625 50.0016 13.5625 49.4688V47.5312C13.5625 46.9984 13.9984 46.5625 14.5312 46.5625ZM19.375 47.5312C19.375 46.9984 19.8109 46.5625 20.3437 46.5625H22.2812C22.8141 46.5625 23.25 46.9984 23.25 47.5312V49.4688C23.25 50.0016 22.8141 50.4375 22.2812 50.4375H20.3437C19.8109 50.4375 19.375 50.0016 19.375 49.4688V47.5312ZM8.71875 38.8125H10.6562C11.1891 38.8125 11.625 39.2484 11.625 39.7812V41.7188C11.625 42.2516 11.1891 42.6875 10.6562 42.6875H8.71875C8.18594 42.6875 7.75 42.2516 7.75 41.7188V39.7812C7.75 39.2484 8.18594 38.8125 8.71875 38.8125ZM13.5625 39.7812C13.5625 39.2484 13.9984 38.8125 14.5312 38.8125H16.4687C17.0016 38.8125 17.4375 39.2484 17.4375 39.7812V41.7188C17.4375 42.2516 17.0016 42.6875 16.4687 42.6875H14.5312C13.9984 42.6875 13.5625 42.2516 13.5625 41.7188V39.7812ZM20.3437 38.8125H22.2812C22.8141 38.8125 23.25 39.2484 23.25 39.7812V41.7188C23.25 42.2516 22.8141 42.6875 22.2812 42.6875H20.3437C19.8109 42.6875 19.375 42.2516 19.375 41.7188V39.7812C19.375 39.2484 19.8109 38.8125 20.3437 38.8125Z" fill="white"/>
<defs>
<clipPath id="clip0_1_479">
<rect width="60" height="60" fill="white" transform="translate(9)"/>
</clipPath>
</defs>
</svg>
