<svg width="54" height="54" viewBox="0 0 54 54" fill="none" xmlns="http://www.w3.org/2000/svg">
<g clip-path="url(#clip0_487_609)">
<path d="M45.9791 30.3249C49.4079 30.3249 52.188 27.5465 52.188 24.1177C52.188 20.689 49.4078 17.9087 45.9791 17.9087C42.5511 17.9087 39.7709 20.689 39.7709 24.1177C39.771 27.5465 42.5511 30.3249 45.9791 30.3249Z" fill="white"/>
<path d="M53.929 36.3077C53.6524 34.6453 52.2782 32.3187 51.2381 31.2793C51.1011 31.1415 50.4887 31.1097 50.3234 31.2122C49.0588 31.9899 47.5734 32.4477 45.9791 32.4477C44.3866 32.4477 42.9011 31.9899 41.6364 31.2122C41.4703 31.1097 40.8588 31.1415 40.7218 31.2793C40.431 31.5701 40.1138 31.9571 39.8044 32.406C40.6413 33.9817 41.3051 35.6555 41.5446 37.0968C41.784 38.5418 41.7063 39.9097 41.3191 41.1567C42.6942 41.6542 44.3432 41.8726 45.979 41.8726C50.2457 41.8726 54.6122 40.3932 53.929 36.3077Z" fill="white"/>
<path d="M26.8404 27.7057C32.3972 27.7057 36.9024 23.2005 36.9024 17.6437C36.9024 12.0887 32.3972 7.5835 26.8404 7.5835C21.2845 7.5835 16.781 12.0887 16.781 17.6437C16.781 23.2005 21.2844 27.7057 26.8404 27.7057Z" fill="white"/>
<path d="M35.3604 29.2468C35.1421 29.0295 34.1506 28.9739 33.881 29.1407C31.8298 30.4028 29.4227 31.1416 26.8404 31.1416C24.26 31.1416 21.8518 30.4028 19.8017 29.1407C19.5322 28.9738 18.5407 29.0295 18.3224 29.2468C16.6326 30.9347 14.4057 34.7082 13.9576 37.3983C12.853 44.0245 19.9308 46.4167 26.8404 46.4167C33.752 46.4167 40.8297 44.0245 39.725 37.3983C39.277 34.7082 37.05 30.9347 35.3604 29.2468Z" fill="white"/>
<path d="M8.02076 30.3249C11.4487 30.3249 14.2289 27.5465 14.2289 24.1177C14.2289 20.689 11.4487 17.9087 8.02076 17.9087C4.59186 17.9087 1.81171 20.689 1.81171 24.1177C1.81171 27.5465 4.59186 30.3249 8.02076 30.3249Z" fill="white"/>
<path d="M12.1388 37.0968C12.3934 35.583 13.1118 33.8006 14.0124 32.1525C13.7613 31.8096 13.5104 31.5109 13.2788 31.2793C13.1418 31.1415 12.5303 31.1097 12.3642 31.2122C11.0995 31.9899 9.61399 32.4477 8.02078 32.4477C6.42736 32.4477 4.94088 31.9899 3.67726 31.2122C3.51189 31.1097 2.89869 31.1415 2.76169 31.2793C1.71892 32.3186 0.348352 34.6453 0.0707587 36.3077C-0.611413 40.3932 3.75415 41.8725 8.02078 41.8725C9.54343 41.8725 11.0811 41.685 12.3934 41.2565C11.9799 39.984 11.8923 38.5842 12.1388 37.0968Z" fill="white"/>
</g>
<defs>
<clipPath id="clip0_487_609">
<rect width="54" height="54" fill="white"/>
</clipPath>
</defs>
</svg>
