<svg width="43" height="42" viewBox="0 0 43 42" fill="none" xmlns="http://www.w3.org/2000/svg">
<g clip-path="url(#clip0_1_563)">
<path d="M14.9375 31.5L9.68748 35.4375V27.5625H4.4375C3.7413 27.5625 3.07362 27.2858 2.58135 26.7936C2.08906 26.3013 1.8125 25.6337 1.8125 24.9375V3.9375C1.8125 3.2413 2.08906 2.57362 2.58135 2.08135C3.07362 1.58906 3.7413 1.3125 4.4375 1.3125H33.3125C34.0087 1.3125 34.6763 1.58906 35.1686 2.08135C35.6608 2.57362 35.9375 3.2413 35.9375 3.9375V11.751" stroke="#55CCC9" stroke-width="3.75" stroke-linecap="round" stroke-linejoin="round"/>
<path d="M9.6875 9.18748H28.0625" stroke="#55CCC9" stroke-width="3.75" stroke-linecap="round" stroke-linejoin="round"/>
<path d="M9.6875 17.0625H14.9375" stroke="#55CCC9" stroke-width="3.75" stroke-linecap="round" stroke-linejoin="round"/>
<path d="M41.1875 32.8125H35.9375V40.6875L28.0625 32.8125H20.1875V17.0625H41.1875V32.8125Z" stroke="#55CCC9" stroke-width="3.75" stroke-linecap="round" stroke-linejoin="round"/>
<path d="M34.625 26.25H26.75" stroke="#55CCC9" stroke-width="3.75" stroke-linecap="round" stroke-linejoin="round"/>
</g>
<defs>
<clipPath id="clip0_1_563">
<rect width="42" height="42" fill="white" transform="translate(0.5)"/>
</clipPath>
</defs>
</svg>
