<svg width="68" height="68" viewBox="0 0 68 68" fill="none" xmlns="http://www.w3.org/2000/svg">
<path d="M54.3246 3.1875H8.5C7.09104 3.1875 5.73978 3.74721 4.7435 4.7435C3.74721 5.73978 3.1875 7.09104 3.1875 8.5V13.8125H13.8125V62.6875H60.5625V9.42544C60.5626 8.60622 60.4014 7.795 60.0879 7.03812C59.7745 6.28123 59.315 5.59351 58.7358 5.01424C58.1565 4.43496 57.4688 3.97549 56.7119 3.66205C55.955 3.34861 55.1438 3.18736 54.3246 3.1875Z" fill="#D9DAE2"/>
<path d="M54.3246 3.1875H8.5C7.09104 3.1875 5.73978 3.74721 4.7435 4.7435C3.74721 5.73978 3.1875 7.09104 3.1875 8.5V13.8125H13.8125V62.6875C26.2114 62.6875 38.1024 57.7621 46.8697 48.9947C55.6371 40.2274 60.5625 28.3364 60.5625 15.9375V9.42544C60.5626 8.60622 60.4014 7.795 60.0879 7.03812C59.7745 6.28123 59.315 5.59351 58.7358 5.01424C58.1565 4.43496 57.4688 3.97549 56.7119 3.66205C55.955 3.34861 55.1438 3.18736 54.3246 3.1875Z" fill="white"/>
<path d="M52.0625 46.75L39.3125 59.5H43.5625V64.8125L52.0625 56.3125L60.5625 64.8125V58.4375H64.8125L52.0625 46.75Z" fill="#0468AD"/>
<path d="M53.125 20.1875H21.25V22.3125H53.125V20.1875Z" fill="#FFAAC3"/>
<path d="M53.125 26.5625H21.25V28.6875H53.125V26.5625Z" fill="#FFAAC3"/>
<path d="M53.125 32.9375H21.25V35.0625H53.125V32.9375Z" fill="#FFAAC3"/>
<path d="M53.125 39.3125H21.25V41.4375H53.125V39.3125Z" fill="#FFAAC3"/>
<path d="M37.1875 15.9375C38.9479 15.9375 40.375 14.5104 40.375 12.75C40.375 10.9896 38.9479 9.5625 37.1875 9.5625C35.4271 9.5625 34 10.9896 34 12.75C34 14.5104 35.4271 15.9375 37.1875 15.9375Z" fill="white"/>
<path d="M8.5 3.1875C9.90896 3.1875 11.2602 3.74721 12.2565 4.7435C13.2528 5.73978 13.8125 7.09104 13.8125 8.5V13.8125H3.1875V8.5C3.1875 7.09104 3.74721 5.73978 4.7435 4.7435C5.73978 3.74721 7.09104 3.1875 8.5 3.1875Z" fill="#CFCFD9"/>
<path d="M52.0625 58.4375C55.5833 58.4375 58.4375 55.5833 58.4375 52.0625C58.4375 48.5417 55.5833 45.6875 52.0625 45.6875C48.5417 45.6875 45.6875 48.5417 45.6875 52.0625C45.6875 55.5833 48.5417 58.4375 52.0625 58.4375Z" fill="#027DE5"/>
<path d="M52.0625 56.3125C54.4097 56.3125 56.3125 54.4097 56.3125 52.0625C56.3125 49.7153 54.4097 47.8125 52.0625 47.8125C49.7153 47.8125 47.8125 49.7153 47.8125 52.0625C47.8125 54.4097 49.7153 56.3125 52.0625 56.3125Z" fill="#CCEAFF"/>
<path d="M46.75 61.625L44.625 63.75H59.5L57.375 61.625H46.75Z" fill="#FFAAC3"/>
<path d="M54.3246 2.125H8.5C6.80976 2.12669 5.18924 2.79888 3.99406 3.99406C2.79888 5.18924 2.12669 6.80976 2.125 8.5V13.8125C2.125 14.0943 2.23694 14.3645 2.4362 14.5638C2.63546 14.7631 2.90571 14.875 3.1875 14.875H12.75V62.6875C12.75 62.9693 12.8619 63.2395 13.0612 63.4388C13.2605 63.6381 13.5307 63.75 13.8125 63.75H43.5625V61.625H14.875V8.5C14.8746 6.92961 14.2915 5.41523 13.2388 4.25H54.3246C55.6967 4.25169 57.0121 4.7975 57.9823 5.76771C58.9525 6.73793 59.4983 8.05334 59.5 9.42544V53.5681L61.625 55.5156V9.42544C61.623 7.48985 60.8532 5.63409 59.4846 4.26542C58.1159 2.89675 56.2602 2.12697 54.3246 2.125ZM12.75 12.75H4.25V8.5C4.25 7.37283 4.69777 6.29183 5.4948 5.4948C6.29183 4.69777 7.37283 4.25 8.5 4.25C9.62717 4.25 10.7082 4.69777 11.5052 5.4948C12.3022 6.29183 12.75 7.37283 12.75 8.5V12.75Z" fill="#FFAAC3"/>
<path d="M53.125 20.1875H21.25V22.3125H53.125V20.1875Z" fill="#FFAAC3"/>
<path d="M53.125 26.5625H21.25V28.6875H53.125V26.5625Z" fill="#FFAAC3"/>
<path d="M53.125 32.9375H21.25V35.0625H53.125V32.9375Z" fill="#FFAAC3"/>
<path d="M53.125 39.3125H21.25V41.4375H53.125V39.3125Z" fill="#FFAAC3"/>
<path d="M41.4375 12.75C41.4375 11.9094 41.1882 11.0877 40.7212 10.3888C40.2543 9.68992 39.5905 9.14518 38.8139 8.82351C38.0373 8.50184 37.1828 8.41767 36.3584 8.58166C35.5339 8.74565 34.7767 9.15042 34.1823 9.7448C33.5879 10.3392 33.1832 11.0964 33.0192 11.9209C32.8552 12.7453 32.9393 13.5998 33.261 14.3764C33.5827 15.153 34.1274 15.8167 34.8263 16.2837C35.5252 16.7507 36.3469 17 37.1875 17C38.3147 17 39.3957 16.5522 40.1927 15.7552C40.9897 14.9582 41.4375 13.8772 41.4375 12.75ZM35.0625 12.75C35.0625 12.3297 35.1871 11.9189 35.4206 11.5694C35.6541 11.22 35.986 10.9476 36.3743 10.7868C36.7626 10.6259 37.1899 10.5838 37.6021 10.6658C38.0143 10.7478 38.3929 10.9502 38.6901 11.2474C38.9873 11.5446 39.1897 11.9232 39.2717 12.3354C39.3537 12.7476 39.3116 13.1749 39.1507 13.5632C38.9899 13.9515 38.7175 14.2834 38.3681 14.5169C38.0186 14.7504 37.6078 14.875 37.1875 14.875C36.6239 14.875 36.0834 14.6511 35.6849 14.2526C35.2864 13.8541 35.0625 13.3136 35.0625 12.75Z" fill="#FFAAC3"/>
</svg>
