<svg width="70" height="70" viewBox="0 0 70 70" fill="none" xmlns="http://www.w3.org/2000/svg">
<g clip-path="url(#clip0_298_1173)">
<path d="M21.329 64.5295C21.0267 64.5295 20.7821 64.2849 20.7821 63.9828V62.889C20.7821 62.8172 20.7962 62.7461 20.8236 62.6797C20.8511 62.6133 20.8914 62.553 20.9422 62.5023C20.993 62.4515 21.0533 62.4112 21.1197 62.3838C21.186 62.3563 21.2571 62.3422 21.329 62.3423C21.6311 62.3423 21.8758 62.5869 21.8758 62.889V63.9828C21.8758 64.0546 21.8617 64.1257 21.8342 64.192C21.8067 64.2584 21.7664 64.3186 21.7157 64.3694C21.6649 64.4202 21.6046 64.4604 21.5382 64.4879C21.4719 64.5154 21.4008 64.5295 21.329 64.5295ZM24.6099 64.2614C24.3078 64.2614 24.0631 64.0169 24.0631 63.7146V62.6358C24.063 62.564 24.0772 62.4929 24.1046 62.4265C24.1321 62.3601 24.1724 62.2998 24.2232 62.2491C24.274 62.1983 24.3343 62.158 24.4006 62.1306C24.467 62.1031 24.5381 62.089 24.6099 62.0891C24.9122 62.0891 25.1568 62.3336 25.1568 62.6358V63.7146C25.1569 63.7865 25.1427 63.8576 25.1153 63.9239C25.0878 63.9903 25.0475 64.0506 24.9967 64.1014C24.9459 64.1522 24.8856 64.1924 24.8193 64.2199C24.7529 64.2473 24.6818 64.2614 24.6099 64.2614ZM18.0479 64.2509C17.7457 64.2509 17.501 64.0063 17.501 63.704V62.6209C17.5009 62.5491 17.5151 62.4779 17.5425 62.4116C17.57 62.3452 17.6103 62.2849 17.6611 62.2342C17.7119 62.1834 17.7722 62.1431 17.8385 62.1157C17.9049 62.0882 17.976 62.0741 18.0479 62.0742C18.3501 62.0742 18.5947 62.3187 18.5947 62.6209V63.704C18.5947 64.0063 18.3501 64.2509 18.0479 64.2509Z" fill="#84D9BA"/>
<path d="M21.329 62.3423C16.8571 62.3423 15.602 61.2165 15.4739 61.0883C15.3714 60.9857 15.3138 60.8467 15.3138 60.7016C15.3138 60.5566 15.3714 60.4176 15.4739 60.315C15.6843 60.1046 16.0239 60.1014 16.2365 60.3054C16.2792 60.3407 17.4039 61.2485 21.329 61.2485C25.3138 61.2485 26.4118 60.3128 26.4225 60.3043C26.6435 60.1077 26.9853 60.1142 27.1893 60.3321C27.3922 60.5467 27.3933 60.879 27.184 61.0883C27.0559 61.2165 25.8009 62.3423 21.329 62.3423ZM21.329 65.6232C16.8571 65.6232 15.602 64.4975 15.4739 64.3693C15.4231 64.3185 15.3828 64.2582 15.3553 64.1919C15.3279 64.1256 15.3137 64.0545 15.3137 63.9827C15.3137 63.9109 15.3279 63.8398 15.3553 63.7735C15.3828 63.7071 15.4231 63.6469 15.4739 63.5961C15.6843 63.3857 16.0239 63.3826 16.2365 63.5865C16.2792 63.6218 17.4039 64.5295 21.329 64.5295C25.3138 64.5295 26.4118 63.5939 26.4225 63.5855C26.6435 63.3889 26.9853 63.3964 27.1893 63.6132C27.3922 63.8279 27.3933 64.1601 27.184 64.3693C27.0559 64.4975 25.8009 65.6232 21.329 65.6232Z" fill="#84D9BA"/>
<path d="M26.7972 61.2485C26.6571 61.2488 26.5224 61.1948 26.4213 61.0979C26.3786 61.0626 25.2538 60.1548 21.3288 60.1548C17.3438 60.1548 16.2458 61.0905 16.2352 61.0989C16.0152 61.2956 15.6712 61.2891 15.4683 61.0712C15.2654 60.8565 15.2643 60.5243 15.4737 60.315C15.6018 60.1868 16.8568 59.0612 21.3288 59.0612C25.8007 59.0612 27.0556 60.1868 27.1838 60.315C27.2602 60.3915 27.3123 60.4889 27.3334 60.595C27.3545 60.701 27.3436 60.8109 27.3023 60.9108C27.2609 61.0108 27.1909 61.0962 27.101 61.1563C27.0111 61.2164 26.9054 61.2485 26.7972 61.2485Z" fill="#84D9BA"/>
<path d="M15.8605 64.5294C15.5584 64.5294 15.3136 64.2849 15.3136 63.9827V60.7016C15.3136 60.3993 15.5582 60.1547 15.8605 60.1547C16.1628 60.1547 16.4074 60.3993 16.4074 60.7016V63.9827C16.4074 64.0545 16.3933 64.1257 16.3658 64.192C16.3384 64.2584 16.2981 64.3187 16.2473 64.3694C16.1965 64.4202 16.1362 64.4605 16.0698 64.4879C16.0035 64.5154 15.9323 64.5295 15.8605 64.5294ZM26.7973 64.5294C26.4952 64.5294 26.2505 64.2849 26.2505 63.9827V60.7016C26.2505 60.3993 26.495 60.1547 26.7973 60.1547C27.0996 60.1547 27.3442 60.3993 27.3442 60.7016V63.9827C27.3442 64.0545 27.3301 64.1257 27.3026 64.192C27.2752 64.2584 27.2349 64.3187 27.1841 64.3694C27.1333 64.4202 27.073 64.4605 27.0066 64.4879C26.9403 64.5154 26.8691 64.5295 26.7973 64.5294ZM7.11105 64.5294C6.80891 64.5294 6.56418 64.2849 6.56418 63.9827V62.889C6.56414 62.8171 6.57827 62.746 6.60574 62.6797C6.63321 62.6133 6.67349 62.553 6.72428 62.5022C6.77507 62.4515 6.83538 62.4112 6.90174 62.3837C6.96811 62.3563 7.03923 62.3422 7.11105 62.3422C7.41334 62.3422 7.65793 62.5868 7.65793 62.889V63.9827C7.65797 64.0545 7.64384 64.1257 7.61637 64.192C7.5889 64.2584 7.54862 64.3187 7.49783 64.3694C7.44703 64.4202 7.38673 64.4605 7.32037 64.4879C7.254 64.5154 7.18288 64.5295 7.11105 64.5294ZM10.3922 64.2613C10.0899 64.2613 9.84529 64.0169 9.84529 63.7146V62.6358C9.84526 62.5639 9.85938 62.4928 9.88685 62.4265C9.91432 62.3601 9.95461 62.2998 10.0054 62.249C10.0562 62.1982 10.1165 62.158 10.1829 62.1305C10.2492 62.1031 10.3203 62.089 10.3922 62.089C10.6943 62.089 10.939 62.3336 10.939 62.6358V63.7146C10.9391 63.7864 10.9249 63.8575 10.8974 63.9239C10.87 63.9902 10.8297 64.0505 10.7789 64.1013C10.7281 64.1521 10.6678 64.1923 10.6015 64.2198C10.5351 64.2473 10.464 64.2614 10.3922 64.2613ZM3.83008 64.2508C3.52779 64.2508 3.2832 64.0062 3.2832 63.7039V62.6209C3.28317 62.549 3.29729 62.4779 3.32476 62.4116C3.35223 62.3452 3.39252 62.2849 3.44331 62.2341C3.4941 62.1833 3.5544 62.1431 3.62077 62.1156C3.68713 62.0882 3.75826 62.0741 3.83008 62.0741C4.13223 62.0741 4.37695 62.3187 4.37695 62.6209V63.7039C4.37697 63.7758 4.36284 63.8469 4.33536 63.9132C4.30788 63.9796 4.2676 64.0399 4.21682 64.0907C4.16603 64.1415 4.10574 64.1817 4.03938 64.2092C3.97302 64.2367 3.9019 64.2508 3.83008 64.2508Z" fill="#84D9BA"/>
<path d="M7.11109 62.3423C2.63916 62.3423 1.38422 61.2165 1.25611 61.0883C1.15359 60.9857 1.09599 60.8467 1.09599 60.7016C1.09599 60.5566 1.15359 60.4176 1.25611 60.315C1.46652 60.1046 1.80613 60.1014 2.01873 60.3054C2.06138 60.3407 3.18617 61.2485 7.11123 61.2485C11.0962 61.2485 12.1942 60.3128 12.2048 60.3043C12.4259 60.1077 12.7688 60.1142 12.9717 60.3321C13.1746 60.5467 13.1757 60.879 12.9663 61.0883C12.838 61.2165 11.583 62.3423 7.11109 62.3423ZM7.11109 65.6232C2.63916 65.6232 1.38422 64.4975 1.25611 64.3693C1.20533 64.3185 1.16505 64.2582 1.13757 64.1919C1.11009 64.1256 1.09595 64.0545 1.09595 63.9827C1.09595 63.9109 1.11009 63.8398 1.13757 63.7735C1.16505 63.7071 1.20533 63.6469 1.25611 63.5961C1.46652 63.3857 1.80613 63.3826 2.01873 63.5865C2.06138 63.6218 3.18617 64.5295 7.11123 64.5295C11.0962 64.5295 12.1942 63.5939 12.2048 63.5855C12.4259 63.3889 12.7688 63.3964 12.9717 63.6132C13.1746 63.8279 13.1757 64.1601 12.9663 64.3693C12.838 64.4975 11.583 65.6232 7.11109 65.6232Z" fill="#84D9BA"/>
<path d="M12.5796 61.2485C12.4395 61.2488 12.3047 61.1948 12.2036 61.0979C12.1609 61.0626 11.0362 60.1548 7.1111 60.1548C3.1263 60.1548 2.02831 61.0905 2.01765 61.0989C1.79767 61.2956 1.45368 61.2891 1.25079 61.0712C1.0479 60.8565 1.04681 60.5243 1.25612 60.315C1.38437 60.1868 2.63917 59.0612 7.1111 59.0612C11.583 59.0612 12.8381 60.1868 12.9662 60.315C13.0427 60.3915 13.0947 60.4889 13.1158 60.595C13.1369 60.7011 13.1261 60.811 13.0847 60.9109C13.0433 61.0108 12.9733 61.0962 12.8833 61.1563C12.7934 61.2164 12.6877 61.2485 12.5796 61.2485Z" fill="#84D9BA"/>
<path d="M1.64258 64.5294C1.34029 64.5294 1.0957 64.2849 1.0957 63.9827V60.7016C1.0957 60.3993 1.34029 60.1547 1.64258 60.1547C1.94473 60.1547 2.18945 60.3993 2.18945 60.7016V63.9827C2.18945 64.0545 2.17531 64.1256 2.14782 64.192C2.12034 64.2583 2.08005 64.3186 2.02927 64.3694C1.97848 64.4201 1.9182 64.4604 1.85185 64.4879C1.7855 64.5153 1.71439 64.5295 1.64258 64.5294ZM12.5794 64.5294C12.2771 64.5294 12.0325 64.2849 12.0325 63.9827V60.7016C12.0325 60.3993 12.2771 60.1547 12.5794 60.1547C12.8815 60.1547 13.1263 60.3993 13.1263 60.7016V63.9827C13.1263 64.0545 13.1121 64.1256 13.0846 64.192C13.0572 64.2583 13.0169 64.3186 12.9661 64.3694C12.9153 64.4201 12.855 64.4604 12.7887 64.4879C12.7223 64.5153 12.6512 64.5295 12.5794 64.5294Z" fill="#84D9BA"/>
<path d="M21.329 56.8737C21.0267 56.8737 20.7821 56.6292 20.7821 56.3269V55.2333C20.7821 54.931 21.0267 54.6864 21.329 54.6864C21.6311 54.6864 21.8758 54.931 21.8758 55.2333V56.3269C21.8759 56.3987 21.8617 56.4698 21.8342 56.5362C21.8068 56.6025 21.7665 56.6628 21.7157 56.7136C21.6649 56.7644 21.6046 56.8047 21.5383 56.8322C21.4719 56.8596 21.4008 56.8738 21.329 56.8737ZM24.6099 56.6056C24.3078 56.6056 24.0631 56.361 24.0631 56.0588V54.9801C24.0631 54.6778 24.3077 54.4332 24.6099 54.4332C24.9122 54.4332 25.1568 54.6778 25.1568 54.9801V56.0588C25.1568 56.361 24.9122 56.6056 24.6099 56.6056ZM18.0479 56.595C17.7457 56.595 17.501 56.3504 17.501 56.0481V54.9651C17.501 54.6629 17.7456 54.4183 18.0479 54.4183C18.3501 54.4183 18.5947 54.6629 18.5947 54.9651V56.0481C18.5947 56.3504 18.3501 56.595 18.0479 56.595Z" fill="#84D9BA"/>
<path d="M21.329 54.6864C16.857 54.6864 15.6019 53.5608 15.4738 53.4326C15.3713 53.33 15.3137 53.191 15.3137 53.0459C15.3137 52.9009 15.3713 52.7619 15.4738 52.6593C15.6842 52.4489 16.0239 52.4457 16.2365 52.6497C16.2791 52.685 17.4039 53.5928 21.329 53.5928C25.3138 53.5928 26.4117 52.6571 26.4224 52.6486C26.6435 52.452 26.9853 52.4585 27.1893 52.6764C27.3922 52.891 27.3933 53.2233 27.1839 53.4326C27.0558 53.5608 25.8009 54.6864 21.329 54.6864ZM21.329 57.9675C16.857 57.9675 15.6019 56.8418 15.4738 56.7136C15.3713 56.611 15.3137 56.4719 15.3137 56.3269C15.3137 56.1819 15.3713 56.0428 15.4738 55.9403C15.6842 55.7299 16.0239 55.7267 16.2365 55.9307C16.2791 55.966 17.4039 56.8738 21.329 56.8738C25.3138 56.8738 26.4117 55.9381 26.4224 55.9296C26.6435 55.7341 26.9853 55.7405 27.1893 55.9574C27.3922 56.172 27.3933 56.5042 27.1839 56.7136C27.0558 56.8418 25.8009 57.9675 21.329 57.9675Z" fill="#84D9BA"/>
<path d="M26.7972 53.5928C26.6571 53.5931 26.5224 53.5391 26.4213 53.4421C26.3786 53.4068 25.2538 52.499 21.3288 52.499C17.3438 52.499 16.2458 53.4347 16.2352 53.4432C16.0152 53.6398 15.6712 53.6334 15.4683 53.4154C15.2654 53.2008 15.2643 52.8686 15.4737 52.6593C15.6018 52.531 16.8568 51.4053 21.3288 51.4053C25.8007 51.4053 27.0556 52.531 27.1838 52.6593C27.2602 52.7357 27.3123 52.8331 27.3334 52.9392C27.3545 53.0453 27.3436 53.1552 27.3023 53.2551C27.2609 53.355 27.1909 53.4404 27.101 53.5005C27.0111 53.5606 26.9054 53.5927 26.7972 53.5928Z" fill="#84D9BA"/>
<path d="M15.8604 56.8737C15.5582 56.8737 15.3135 56.6292 15.3135 56.3269V53.0459C15.3135 52.7436 15.5581 52.499 15.8604 52.499C16.1626 52.499 16.4072 52.7436 16.4072 53.0459V56.3269C16.4072 56.6292 16.1626 56.8737 15.8604 56.8737ZM26.7972 56.8737C26.495 56.8737 26.2503 56.6292 26.2503 56.3269V53.0459C26.2503 52.7436 26.4949 52.499 26.7972 52.499C27.0995 52.499 27.344 52.7436 27.344 53.0459V56.3269C27.344 56.6292 27.0995 56.8737 26.7972 56.8737Z" fill="#84D9BA"/>
<path d="M35.5468 64.5295C35.2446 64.5295 35 64.2849 35 63.9828V62.889C35 62.5869 35.2446 62.3423 35.5468 62.3423C35.8491 62.3423 36.0937 62.5869 36.0937 62.889V63.9828C36.0938 64.0546 36.0796 64.1257 36.0522 64.1921C36.0247 64.2584 35.9844 64.3187 35.9336 64.3695C35.8828 64.4203 35.8225 64.4605 35.7562 64.488C35.6898 64.5154 35.6187 64.5295 35.5468 64.5295ZM38.828 64.2614C38.5257 64.2614 38.2811 64.0169 38.2811 63.7146V62.6358C38.281 62.564 38.2952 62.4929 38.3226 62.4265C38.3501 62.3601 38.3904 62.2998 38.4412 62.2491C38.492 62.1983 38.5523 62.158 38.6186 62.1306C38.685 62.1031 38.7561 62.089 38.828 62.0891C38.8998 62.089 38.9709 62.1031 39.0372 62.1306C39.1036 62.1581 39.1639 62.1983 39.2146 62.2491C39.2654 62.2999 39.3057 62.3602 39.3331 62.4265C39.3606 62.4929 39.3747 62.564 39.3747 62.6358V63.7146C39.3747 63.7865 39.3606 63.8576 39.3331 63.9239C39.3057 63.9903 39.2654 64.0506 39.2146 64.1013C39.1639 64.1521 39.1036 64.1924 39.0372 64.2198C38.9709 64.2473 38.8998 64.2614 38.828 64.2614ZM32.2659 64.2509C31.9636 64.2509 31.719 64.0063 31.719 63.704V62.6209C31.719 62.5491 31.7331 62.4779 31.7606 62.4116C31.788 62.3452 31.8283 62.2849 31.8791 62.2342C31.9299 62.1834 31.9902 62.1431 32.0566 62.1157C32.1229 62.0882 32.194 62.0741 32.2659 62.0742C32.568 62.0742 32.8127 62.3187 32.8127 62.6209V63.704C32.8128 63.7758 32.7986 63.8469 32.7712 63.9133C32.7437 63.9796 32.7034 64.0399 32.6526 64.0907C32.6018 64.1415 32.5415 64.1818 32.4752 64.2093C32.4088 64.2367 32.3377 64.2509 32.2659 64.2509Z" fill="#84D9BA"/>
<path d="M35.5466 62.3423C31.0747 62.3423 29.8198 61.2165 29.6917 61.0883C29.5891 60.9857 29.5315 60.8467 29.5315 60.7016C29.5315 60.5566 29.5891 60.4176 29.6917 60.315C29.9021 60.1046 30.2417 60.1014 30.4543 60.3054C30.4969 60.3407 31.6217 61.2485 35.5468 61.2485C39.5316 61.2485 40.6297 60.3128 40.6404 60.3043C40.8603 60.1077 41.2043 60.1142 41.4072 60.3321C41.6101 60.5467 41.6112 60.879 41.4019 61.0883C41.2736 61.2165 40.0186 62.3423 35.5466 62.3423ZM35.5466 65.6232C31.0747 65.6232 29.8198 64.4975 29.6917 64.3693C29.6409 64.3185 29.6006 64.2582 29.5731 64.1919C29.5456 64.1256 29.5315 64.0545 29.5315 63.9827C29.5315 63.9109 29.5456 63.8398 29.5731 63.7735C29.6006 63.7071 29.6409 63.6469 29.6917 63.5961C29.9021 63.3857 30.2417 63.3826 30.4543 63.5865C30.4969 63.6218 31.6217 64.5295 35.5468 64.5295C39.5316 64.5295 40.6297 63.5939 40.6404 63.5855C40.8603 63.3889 41.2043 63.3964 41.4072 63.6132C41.6101 63.8279 41.6112 64.1601 41.4019 64.3693C41.2736 64.4975 40.0186 65.6232 35.5466 65.6232Z" fill="#84D9BA"/>
<path d="M41.0151 61.2485C40.875 61.2488 40.7403 61.1948 40.6392 61.0979C40.5965 61.0626 39.4717 60.1548 35.5467 60.1548C31.5618 60.1548 30.4639 61.0905 30.4532 61.0989C30.2321 61.2956 29.8903 61.2891 29.6863 61.0712C29.4834 60.8565 29.4824 60.5243 29.6917 60.315C29.8199 60.1868 31.0747 59.0612 35.5467 59.0612C40.0186 59.0612 41.2737 60.1868 41.4018 60.315C41.4782 60.3915 41.5303 60.4889 41.5514 60.595C41.5725 60.7011 41.5616 60.811 41.5203 60.9109C41.4789 61.0108 41.4088 61.0962 41.3189 61.1563C41.229 61.2164 41.1233 61.2485 41.0151 61.2485Z" fill="#84D9BA"/>
<path d="M30.0784 64.5294C29.7761 64.5294 29.5315 64.2849 29.5315 63.9827V60.7016C29.5315 60.3993 29.7761 60.1547 30.0784 60.1547C30.3805 60.1547 30.6252 60.3993 30.6252 60.7016V63.9827C30.6252 64.0545 30.6111 64.1256 30.5836 64.192C30.5561 64.2583 30.5158 64.3186 30.4651 64.3694C30.4143 64.4201 30.354 64.4604 30.2876 64.4879C30.2213 64.5153 30.1502 64.5295 30.0784 64.5294ZM41.0152 64.5294C40.7129 64.5294 40.4683 64.2849 40.4683 63.9827V60.7016C40.4683 60.3993 40.7129 60.1547 41.0152 60.1547C41.3175 60.1547 41.5621 60.3993 41.5621 60.7016V63.9827C41.5621 64.0545 41.548 64.1257 41.5205 64.192C41.493 64.2584 41.4527 64.3187 41.402 64.3694C41.3512 64.4202 41.2909 64.4605 41.2245 64.4879C41.1581 64.5154 41.087 64.5295 41.0152 64.5294Z" fill="#84D9BA"/>
<path d="M35.5468 56.8737C35.2446 56.8737 35 56.6292 35 56.3269V55.2333C35 54.931 35.2446 54.6864 35.5468 54.6864C35.8491 54.6864 36.0937 54.931 36.0937 55.2333V56.3269C36.0937 56.6292 35.8491 56.8737 35.5468 56.8737ZM38.828 56.6056C38.5257 56.6056 38.2811 56.361 38.2811 56.0588V54.9801C38.2811 54.6778 38.5257 54.4332 38.828 54.4332C38.8998 54.4331 38.9709 54.4473 39.0373 54.4747C39.1036 54.5022 39.1639 54.5425 39.2147 54.5933C39.2655 54.6441 39.3057 54.7044 39.3332 54.7707C39.3606 54.8371 39.3748 54.9082 39.3747 54.9801V56.0588C39.3747 56.361 39.1301 56.6056 38.828 56.6056ZM32.2659 56.595C31.9636 56.595 31.719 56.3504 31.719 56.0481V54.9651C31.719 54.6629 31.9636 54.4183 32.2659 54.4183C32.568 54.4183 32.8127 54.6629 32.8127 54.9651V56.0481C32.8128 56.1199 32.7986 56.191 32.7712 56.2574C32.7437 56.3238 32.7034 56.3841 32.6526 56.4348C32.6018 56.4856 32.5415 56.5259 32.4752 56.5534C32.4088 56.5809 32.3377 56.595 32.2659 56.595Z" fill="#84D9BA"/>
<path d="M35.5468 54.6864C31.0749 54.6864 29.82 53.5608 29.6919 53.4326C29.5893 53.33 29.5317 53.191 29.5317 53.0459C29.5317 52.9009 29.5893 52.7619 29.6919 52.6593C29.9023 52.4489 30.2419 52.4457 30.4545 52.6497C30.4971 52.685 31.6219 53.5928 35.547 53.5928C39.5318 53.5928 40.6299 52.6571 40.6406 52.6486C40.8605 52.452 41.2045 52.4585 41.4074 52.6764C41.6103 52.891 41.6114 53.2233 41.4021 53.4326C41.2738 53.5608 40.0188 54.6864 35.5468 54.6864ZM35.5468 57.9675C31.0749 57.9675 29.82 56.8418 29.6919 56.7136C29.5893 56.611 29.5317 56.4719 29.5317 56.3269C29.5317 56.1819 29.5893 56.0428 29.6919 55.9403C29.9023 55.7299 30.2419 55.7267 30.4545 55.9307C30.4971 55.966 31.6219 56.8738 35.547 56.8738C39.5318 56.8738 40.6299 55.9381 40.6406 55.9296C40.8605 55.7341 41.2045 55.7405 41.4074 55.9574C41.6103 56.172 41.6114 56.5042 41.4021 56.7136C41.2738 56.8418 40.0188 57.9675 35.5468 57.9675Z" fill="#84D9BA"/>
<path d="M41.0151 53.5928C40.875 53.5931 40.7403 53.5391 40.6392 53.4421C40.5965 53.4068 39.4717 52.499 35.5467 52.499C31.5618 52.499 30.4639 53.4347 30.4532 53.4432C30.2321 53.6398 29.8903 53.6334 29.6863 53.4154C29.4834 53.2008 29.4824 52.8686 29.6917 52.6593C29.8199 52.531 31.0747 51.4053 35.5467 51.4053C40.0186 51.4053 41.2737 52.531 41.4018 52.6593C41.4782 52.7357 41.5303 52.8332 41.5514 52.9392C41.5725 53.0453 41.5616 53.1552 41.5203 53.2552C41.4789 53.3551 41.4088 53.4405 41.3189 53.5006C41.229 53.5607 41.1233 53.5928 41.0151 53.5928Z" fill="#84D9BA"/>
<path d="M30.0784 56.8737C29.7761 56.8737 29.5315 56.6292 29.5315 56.3269V53.0459C29.5315 52.7436 29.7761 52.499 30.0784 52.499C30.3805 52.499 30.6252 52.7436 30.6252 53.0459V56.3269C30.6253 56.3987 30.6111 56.4698 30.5837 56.5362C30.5562 56.6025 30.5159 56.6628 30.4651 56.7136C30.4143 56.7644 30.354 56.8047 30.2877 56.8322C30.2213 56.8596 30.1502 56.8738 30.0784 56.8737ZM41.0152 56.8737C40.7129 56.8737 40.4683 56.6292 40.4683 56.3269V53.0459C40.4683 52.7436 40.7129 52.499 41.0152 52.499C41.3175 52.499 41.5621 52.7436 41.5621 53.0459V56.3269C41.5621 56.6292 41.3175 56.8737 41.0152 56.8737Z" fill="#84D9BA"/>
<path d="M35.5468 49.2181C35.2446 49.2181 35 48.9735 35 48.6712V47.5774C35 47.2751 35.2446 47.0306 35.5468 47.0306C35.8491 47.0306 36.0937 47.2751 36.0937 47.5774V48.6712C36.0937 48.9735 35.8491 49.2181 35.5468 49.2181ZM38.828 48.95C38.5257 48.95 38.2811 48.7054 38.2811 48.4031V47.3242C38.2811 47.0219 38.5257 46.7774 38.828 46.7774C38.8998 46.7773 38.9709 46.7914 39.0373 46.8189C39.1036 46.8464 39.1639 46.8867 39.2147 46.9375C39.2655 46.9883 39.3057 47.0486 39.3332 47.1149C39.3606 47.1813 39.3748 47.2524 39.3747 47.3242V48.4031C39.3747 48.7054 39.1301 48.95 38.828 48.95ZM32.2659 48.9393C31.9636 48.9393 31.719 48.6947 31.719 48.3924V47.3093C31.719 47.007 31.9636 46.7625 32.2659 46.7625C32.568 46.7625 32.8127 47.007 32.8127 47.3093V48.3924C32.8128 48.4642 32.7986 48.5354 32.7712 48.6017C32.7437 48.6681 32.7034 48.7284 32.6526 48.7792C32.6018 48.8299 32.5415 48.8702 32.4752 48.8977C32.4088 48.9252 32.3377 48.9393 32.2659 48.9393Z" fill="#84D9BA"/>
<path d="M35.5466 47.0306C31.0747 47.0306 29.8198 45.905 29.6917 45.7767C29.6409 45.726 29.6006 45.6657 29.5731 45.5994C29.5456 45.5331 29.5315 45.462 29.5315 45.3902C29.5315 45.3184 29.5456 45.2473 29.5731 45.181C29.6006 45.1146 29.6409 45.0544 29.6917 45.0036C29.9021 44.7932 30.2417 44.79 30.4543 44.994C30.4969 45.0293 31.6217 45.937 35.5468 45.937C39.5316 45.937 40.6297 45.0014 40.6404 44.9929C40.8603 44.7963 41.2043 44.8039 41.4072 45.0207C41.6101 45.2352 41.6112 45.5674 41.4019 45.7767C41.2736 45.905 40.0186 47.0306 35.5466 47.0306ZM35.5466 50.3117C31.0747 50.3117 29.8198 49.1861 29.6917 49.0579C29.5891 48.9553 29.5315 48.8162 29.5315 48.6712C29.5315 48.5262 29.5891 48.3871 29.6917 48.2846C29.9021 48.0742 30.2417 48.071 30.4543 48.275C30.4969 48.3103 31.6217 49.2181 35.5468 49.2181C39.5316 49.2181 40.6297 48.2824 40.6404 48.2739C40.8603 48.0784 41.2043 48.0848 41.4072 48.3017C41.6101 48.5163 41.6112 48.8485 41.4019 49.0579C41.2736 49.1861 40.0186 50.3117 35.5466 50.3117Z" fill="#84D9BA"/>
<path d="M41.0151 45.9369C40.875 45.9373 40.7403 45.8832 40.6392 45.7863C40.5965 45.751 39.4717 44.8433 35.5467 44.8433C31.5618 44.8433 30.4639 45.7789 30.4532 45.7874C30.2321 45.984 29.8903 45.9764 29.6863 45.7596C29.4834 45.545 29.4824 45.2127 29.6917 45.0036C29.8199 44.8753 31.0747 43.7496 35.5467 43.7496C40.0186 43.7496 41.2737 44.8753 41.4018 45.0036C41.4783 45.08 41.5305 45.1774 41.5516 45.2835C41.5727 45.3896 41.5619 45.4996 41.5205 45.5995C41.4791 45.6995 41.409 45.7849 41.319 45.8449C41.2291 45.905 41.1233 45.937 41.0151 45.9369Z" fill="#84D9BA"/>
<path d="M30.0784 49.218C29.7761 49.218 29.5315 48.9735 29.5315 48.6712V45.3901C29.5315 45.3182 29.5456 45.2471 29.5731 45.1808C29.6005 45.1144 29.6408 45.0541 29.6916 45.0033C29.7424 44.9525 29.8027 44.9123 29.8691 44.8848C29.9354 44.8574 30.0065 44.8433 30.0784 44.8433C30.3805 44.8433 30.6252 45.0879 30.6252 45.3901V48.6712C30.6253 48.743 30.6111 48.8141 30.5837 48.8805C30.5562 48.9468 30.5159 49.0071 30.4651 49.0579C30.4143 49.1087 30.354 49.149 30.2877 49.1765C30.2213 49.2039 30.1502 49.2181 30.0784 49.218ZM41.0152 49.218C40.7129 49.218 40.4683 48.9735 40.4683 48.6712V45.3901C40.4683 45.0879 40.7129 44.8433 41.0152 44.8433C41.3175 44.8433 41.5621 45.0879 41.5621 45.3901V48.6712C41.5621 48.9735 41.3175 49.218 41.0152 49.218Z" fill="#84D9BA"/>
<path d="M49.7646 64.5295C49.4623 64.5295 49.2177 64.2849 49.2177 63.9828V62.889C49.2177 62.5869 49.4623 62.3423 49.7646 62.3423C50.0669 62.3423 50.3115 62.5869 50.3115 62.889V63.9828C50.3115 64.0546 50.2974 64.1257 50.2699 64.1921C50.2425 64.2584 50.2022 64.3187 50.1514 64.3695C50.1006 64.4203 50.0403 64.4605 49.9739 64.488C49.9076 64.5154 49.8364 64.5295 49.7646 64.5295ZM53.0456 64.2614C52.7433 64.2614 52.4987 64.0169 52.4987 63.7146V62.6358C52.4987 62.3336 52.7433 62.0891 53.0456 62.0891C53.3479 62.0891 53.5925 62.3336 53.5925 62.6358V63.7146C53.5925 63.7865 53.5784 63.8576 53.5509 63.9239C53.5234 63.9903 53.4832 64.0506 53.4324 64.1014C53.3816 64.1522 53.3213 64.1924 53.2549 64.2199C53.1885 64.2473 53.1174 64.2614 53.0456 64.2614ZM46.4835 64.2509C46.4117 64.2509 46.3406 64.2368 46.2742 64.2093C46.2078 64.1818 46.1476 64.1415 46.0968 64.0908C46.046 64.04 46.0057 63.9797 45.9783 63.9133C45.9508 63.8469 45.9367 63.7758 45.9368 63.704V62.6209C45.9367 62.5491 45.9508 62.478 45.9783 62.4116C46.0058 62.3453 46.046 62.285 46.0968 62.2342C46.1476 62.1834 46.2079 62.1432 46.2742 62.1157C46.3406 62.0882 46.4117 62.0741 46.4835 62.0742C46.7858 62.0742 47.0304 62.3187 47.0304 62.6209V63.704C47.0304 64.0063 46.7858 64.2509 46.4835 64.2509Z" fill="#84D9BA"/>
<path d="M49.7645 62.3423C45.2926 62.3423 44.0375 61.2165 43.9094 61.0883C43.8069 60.9857 43.7493 60.8467 43.7493 60.7016C43.7493 60.5566 43.8069 60.4176 43.9094 60.315C44.1198 60.1046 44.4595 60.1014 44.672 60.3054C44.7147 60.3407 45.8395 61.2485 49.7645 61.2485C53.7494 61.2485 54.8475 60.3128 54.8581 60.3043C55.078 60.1077 55.422 60.1142 55.6249 60.3321C55.8278 60.5467 55.8288 60.879 55.6195 61.0883C55.4914 61.2165 54.2365 62.3423 49.7645 62.3423ZM49.7645 65.6232C45.2926 65.6232 44.0375 64.4975 43.9094 64.3693C43.8587 64.3185 43.8184 64.2582 43.7909 64.1919C43.7634 64.1256 43.7493 64.0545 43.7493 63.9827C43.7493 63.9109 43.7634 63.8398 43.7909 63.7735C43.8184 63.7071 43.8587 63.6469 43.9094 63.5961C44.1198 63.3857 44.4595 63.3826 44.672 63.5865C44.7147 63.6218 45.8395 64.5295 49.7645 64.5295C53.7494 64.5295 54.8475 63.5939 54.8581 63.5855C55.078 63.3889 55.422 63.3964 55.6249 63.6132C55.8278 63.8279 55.8288 64.1601 55.6195 64.3693C55.4914 64.4975 54.2365 65.6232 49.7645 65.6232Z" fill="#84D9BA"/>
<path d="M55.2329 61.2485C55.0928 61.2489 54.9581 61.1948 54.8571 61.0979C54.8144 61.0626 53.6896 60.1548 49.7646 60.1548C45.7798 60.1548 44.6816 61.0905 44.671 61.0989C44.4499 61.2956 44.107 61.2891 43.9041 61.0712C43.7012 60.8565 43.7001 60.5243 43.9094 60.315C44.0377 60.1868 45.2926 59.0612 49.7646 59.0612C54.2365 59.0612 55.4914 60.1868 55.6195 60.315C55.696 60.3915 55.7481 60.4889 55.7692 60.595C55.7902 60.7011 55.7794 60.811 55.738 60.9109C55.6967 61.0108 55.6266 61.0962 55.5367 61.1563C55.4468 61.2164 55.341 61.2485 55.2329 61.2485Z" fill="#84D9BA"/>
<path d="M44.2961 64.5294C43.9939 64.5294 43.7493 64.2849 43.7493 63.9827V60.7016C43.7493 60.3993 43.9939 60.1547 44.2961 60.1547C44.5984 60.1547 44.843 60.3993 44.843 60.7016V63.9827C44.8431 64.0545 44.8289 64.1257 44.8015 64.192C44.774 64.2584 44.7337 64.3187 44.6829 64.3694C44.6321 64.4202 44.5718 64.4605 44.5055 64.4879C44.4391 64.5154 44.368 64.5295 44.2961 64.5294ZM55.233 64.5294C55.1611 64.5295 55.09 64.5154 55.0237 64.4879C54.9573 64.4604 54.8971 64.4202 54.8463 64.3694C54.7955 64.3186 54.7552 64.2583 54.7278 64.192C54.7003 64.1256 54.6862 64.0545 54.6862 63.9827V60.7016C54.6862 60.3993 54.9308 60.1547 55.233 60.1547C55.5352 60.1547 55.7798 60.3993 55.7798 60.7016V63.9827C55.7799 64.0545 55.7657 64.1257 55.7383 64.192C55.7108 64.2584 55.6705 64.3187 55.6197 64.3694C55.5689 64.4202 55.5086 64.4605 55.4423 64.4879C55.3759 64.5154 55.3048 64.5295 55.233 64.5294Z" fill="#84D9BA"/>
<path d="M49.7646 56.8737C49.4623 56.8737 49.2177 56.6292 49.2177 56.3269V55.2333C49.2177 54.931 49.4623 54.6864 49.7646 54.6864C50.0669 54.6864 50.3115 54.931 50.3115 55.2333V56.3269C50.3115 56.6292 50.0669 56.8737 49.7646 56.8737ZM53.0456 56.6056C52.7433 56.6056 52.4987 56.361 52.4987 56.0588V54.9801C52.4987 54.6778 52.7433 54.4332 53.0456 54.4332C53.3479 54.4332 53.5925 54.6778 53.5925 54.9801V56.0588C53.5925 56.361 53.3479 56.6056 53.0456 56.6056ZM46.4835 56.595C46.4117 56.595 46.3406 56.5809 46.2742 56.5534C46.2078 56.5259 46.1476 56.4857 46.0968 56.4349C46.046 56.3841 46.0057 56.3238 45.9783 56.2574C45.9508 56.191 45.9367 56.1199 45.9368 56.0481V54.9651C45.9368 54.6629 46.1814 54.4183 46.4835 54.4183C46.7858 54.4183 47.0304 54.6629 47.0304 54.9651V56.0481C47.0304 56.3504 46.7858 56.595 46.4835 56.595Z" fill="#84D9BA"/>
<path d="M49.7647 54.6864C45.2928 54.6864 44.0377 53.5608 43.9096 53.4326C43.8071 53.33 43.7495 53.191 43.7495 53.0459C43.7495 52.9009 43.8071 52.7619 43.9096 52.6593C44.12 52.4489 44.4596 52.4457 44.6722 52.6497C44.7149 52.685 45.8397 53.5928 49.7647 53.5928C53.7496 53.5928 54.8477 52.6571 54.8583 52.6486C55.0782 52.452 55.4222 52.4585 55.6251 52.6764C55.8279 52.891 55.829 53.2233 55.6197 53.4326C55.4916 53.5608 54.2367 54.6864 49.7647 54.6864ZM49.7647 57.9675C45.2928 57.9675 44.0377 56.8418 43.9096 56.7136C43.8071 56.611 43.7495 56.4719 43.7495 56.3269C43.7495 56.1819 43.8071 56.0428 43.9096 55.9403C44.12 55.7299 44.4596 55.7267 44.6722 55.9307C44.7149 55.966 45.8397 56.8738 49.7647 56.8738C53.7496 56.8738 54.8477 55.9381 54.8583 55.9296C55.0782 55.7341 55.4222 55.7405 55.6251 55.9574C55.8279 56.172 55.829 56.5042 55.6197 56.7136C55.4916 56.8418 54.2367 57.9675 49.7647 57.9675Z" fill="#84D9BA"/>
<path d="M55.2329 53.5928C55.0928 53.5931 54.9581 53.5391 54.8571 53.4421C54.8144 53.4068 53.6896 52.499 49.7646 52.499C45.7798 52.499 44.6816 53.4347 44.671 53.4432C44.4499 53.6398 44.107 53.6334 43.9041 53.4154C43.7012 53.2008 43.7001 52.8686 43.9094 52.6593C44.0377 52.531 45.2926 51.4053 49.7646 51.4053C54.2365 51.4053 55.4914 52.531 55.6195 52.6593C55.696 52.7357 55.7481 52.8332 55.7692 52.9392C55.7902 53.0453 55.7794 53.1552 55.738 53.2552C55.6967 53.3551 55.6266 53.4405 55.5367 53.5006C55.4468 53.5607 55.341 53.5928 55.2329 53.5928Z" fill="#84D9BA"/>
<path d="M44.2961 56.8737C43.9939 56.8737 43.7493 56.6292 43.7493 56.3269V53.0459C43.7493 52.7436 43.9939 52.499 44.2961 52.499C44.5984 52.499 44.843 52.7436 44.843 53.0459V56.3269C44.843 56.6292 44.5984 56.8737 44.2961 56.8737ZM55.233 56.8737C55.1611 56.8738 55.09 56.8597 55.0237 56.8322C54.9573 56.8047 54.897 56.7644 54.8462 56.7136C54.7955 56.6629 54.7552 56.6026 54.7277 56.5362C54.7003 56.4698 54.6862 56.3987 54.6862 56.3269V53.0459C54.6862 52.7436 54.9308 52.499 55.233 52.499C55.5352 52.499 55.7798 52.7436 55.7798 53.0459V56.3269C55.7798 56.6292 55.5352 56.8737 55.233 56.8737Z" fill="#84D9BA"/>
<path d="M49.7646 49.2181C49.4623 49.2181 49.2177 48.9735 49.2177 48.6712V47.5774C49.2177 47.2751 49.4623 47.0306 49.7646 47.0306C50.0669 47.0306 50.3115 47.2751 50.3115 47.5774V48.6712C50.3115 48.9735 50.0669 49.2181 49.7646 49.2181ZM53.0456 48.95C52.7433 48.95 52.4987 48.7054 52.4987 48.4031V47.3242C52.4987 47.0219 52.7433 46.7774 53.0456 46.7774C53.3479 46.7774 53.5925 47.0219 53.5925 47.3242V48.4031C53.5925 48.7054 53.3479 48.95 53.0456 48.95ZM46.4835 48.9393C46.4117 48.9393 46.3406 48.9252 46.2742 48.8977C46.2078 48.8703 46.1476 48.83 46.0968 48.7792C46.046 48.7284 46.0057 48.6681 45.9783 48.6017C45.9508 48.5354 45.9367 48.4642 45.9368 48.3924V47.3093C45.9368 47.007 46.1814 46.7625 46.4835 46.7625C46.7858 46.7625 47.0304 47.007 47.0304 47.3093V48.3924C47.0304 48.6947 46.7858 48.9393 46.4835 48.9393Z" fill="#84D9BA"/>
<path d="M49.7645 47.0306C45.2926 47.0306 44.0375 45.905 43.9094 45.7767C43.8587 45.726 43.8184 45.6657 43.7909 45.5994C43.7634 45.5331 43.7493 45.462 43.7493 45.3902C43.7493 45.3184 43.7634 45.2473 43.7909 45.181C43.8184 45.1146 43.8587 45.0544 43.9094 45.0036C44.1198 44.7932 44.4595 44.79 44.672 44.994C44.7147 45.0293 45.8395 45.937 49.7645 45.937C53.7494 45.937 54.8475 45.0014 54.8581 44.9929C55.078 44.7963 55.422 44.8039 55.6249 45.0207C55.8278 45.2352 55.8288 45.5674 55.6195 45.7767C55.4914 45.905 54.2365 47.0306 49.7645 47.0306ZM49.7645 50.3117C45.2926 50.3117 44.0375 49.1861 43.9094 49.0579C43.8069 48.9553 43.7493 48.8162 43.7493 48.6712C43.7493 48.5262 43.8069 48.3871 43.9094 48.2846C44.1198 48.0742 44.4595 48.071 44.672 48.275C44.7147 48.3103 45.8395 49.2181 49.7645 49.2181C53.7494 49.2181 54.8475 48.2824 54.8581 48.2739C55.078 48.0784 55.422 48.0848 55.6249 48.3017C55.8278 48.5163 55.8288 48.8485 55.6195 49.0579C55.4914 49.1861 54.2365 50.3117 49.7645 50.3117Z" fill="#84D9BA"/>
<path d="M55.2329 45.9369C55.0928 45.9373 54.9581 45.8833 54.8571 45.7863C54.8144 45.751 53.6896 44.8433 49.7646 44.8433C45.7798 44.8433 44.6816 45.7789 44.671 45.7874C44.4499 45.984 44.107 45.9764 43.9041 45.7596C43.7012 45.545 43.7001 45.2127 43.9094 45.0036C44.0377 44.8753 45.2926 43.7496 49.7646 43.7496C54.2365 43.7496 55.4914 44.8753 55.6195 45.0036C55.6961 45.08 55.7482 45.1774 55.7694 45.2835C55.7905 45.3896 55.7797 45.4996 55.7383 45.5995C55.6969 45.6995 55.6268 45.7849 55.5368 45.8449C55.4468 45.905 55.3411 45.937 55.2329 45.9369Z" fill="#84D9BA"/>
<path d="M44.2961 49.218C43.9939 49.218 43.7493 48.9735 43.7493 48.6712V45.3901C43.7493 45.0879 43.9939 44.8433 44.2961 44.8433C44.5984 44.8433 44.843 45.0879 44.843 45.3901V48.6712C44.843 48.9735 44.5984 49.218 44.2961 49.218ZM55.233 49.218C55.1611 49.2181 55.09 49.204 55.0237 49.1765C54.9573 49.149 54.897 49.1087 54.8462 49.0579C54.7955 49.0072 54.7552 48.9469 54.7277 48.8805C54.7003 48.8141 54.6862 48.743 54.6862 48.6712V45.3901C54.6862 45.3183 54.7003 45.2471 54.7278 45.1808C54.7552 45.1144 54.7955 45.0542 54.8463 45.0034C54.8971 44.9526 54.9573 44.9123 55.0237 44.8849C55.09 44.8574 55.1611 44.8433 55.233 44.8433C55.5352 44.8433 55.7798 45.0879 55.7798 45.3901V48.6712C55.7798 48.9735 55.5352 49.218 55.233 49.218Z" fill="#84D9BA"/>
<path d="M49.7646 41.5622C49.4623 41.5622 49.2177 41.3176 49.2177 41.0153V39.9217C49.2177 39.6194 49.4623 39.3749 49.7646 39.3749C50.0669 39.3749 50.3115 39.6194 50.3115 39.9217V41.0153C50.3115 41.3176 50.0669 41.5622 49.7646 41.5622ZM53.0456 41.2941C52.7433 41.2941 52.4987 41.0495 52.4987 40.7472V39.6685C52.4987 39.3662 52.7433 39.1217 53.0456 39.1217C53.3479 39.1217 53.5925 39.3662 53.5925 39.6685V40.7472C53.5925 41.0495 53.3479 41.2941 53.0456 41.2941ZM46.4835 41.2835C46.4117 41.2835 46.3406 41.2694 46.2742 41.2419C46.2079 41.2144 46.1476 41.1742 46.0968 41.1234C46.046 41.0726 46.0058 41.0123 45.9783 40.946C45.9508 40.8796 45.9367 40.8085 45.9368 40.7367V39.6536C45.9368 39.3513 46.1814 39.1068 46.4835 39.1068C46.7858 39.1068 47.0304 39.3513 47.0304 39.6536V40.7367C47.0304 40.8085 47.0163 40.8797 46.9888 40.946C46.9614 41.0124 46.9211 41.0727 46.8703 41.1234C46.8195 41.1742 46.7592 41.2145 46.6928 41.2419C46.6265 41.2694 46.5553 41.2835 46.4835 41.2835Z" fill="#84D9BA"/>
<path d="M49.7645 39.3748C45.2926 39.3748 44.0375 38.2491 43.9094 38.1209C43.8587 38.0701 43.8184 38.0098 43.7909 37.9435C43.7634 37.8772 43.7493 37.8061 43.7493 37.7343C43.7493 37.6625 43.7634 37.5914 43.7909 37.5251C43.8184 37.4587 43.8587 37.3985 43.9094 37.3477C44.1198 37.1373 44.4595 37.1342 44.672 37.3381C44.7147 37.3734 45.8395 38.2811 49.7645 38.2811C53.7494 38.2811 54.8475 37.3455 54.8581 37.3371C55.078 37.1405 55.422 37.148 55.6249 37.3648C55.8278 37.5795 55.8288 37.9117 55.6195 38.1209C55.4914 38.2491 54.2365 39.3748 49.7645 39.3748ZM49.7645 42.6558C45.2926 42.6558 44.0375 41.5302 43.9094 41.402C43.8587 41.3512 43.8184 41.291 43.7909 41.2246C43.7634 41.1583 43.7493 41.0872 43.7493 41.0154C43.7493 40.9436 43.7634 40.8725 43.7909 40.8062C43.8184 40.7399 43.8587 40.6796 43.9094 40.6288C44.1198 40.4184 44.4595 40.4153 44.672 40.6193C44.7147 40.6545 45.8395 41.5622 49.7645 41.5622C53.7494 41.5622 54.8475 40.6266 54.8581 40.6182C55.078 40.4227 55.422 40.4291 55.6249 40.6459C55.8278 40.8604 55.8288 41.1927 55.6195 41.402C55.4914 41.5302 54.2365 42.6558 49.7645 42.6558Z" fill="#84D9BA"/>
<path d="M55.2329 38.2811C55.0928 38.2814 54.9581 38.2274 54.8571 38.1304C54.8144 38.0952 53.6896 37.1875 49.7646 37.1875C45.7798 37.1875 44.6816 38.1231 44.671 38.1315C44.4499 38.3281 44.107 38.3206 43.9041 38.1038C43.7012 37.8893 43.7001 37.557 43.9094 37.3477C44.0377 37.2195 45.2926 36.0939 49.7646 36.0939C54.2365 36.0939 55.4914 37.2195 55.6195 37.3477C55.6961 37.4242 55.7482 37.5216 55.7694 37.6277C55.7905 37.7338 55.7797 37.8437 55.7383 37.9437C55.6969 38.0436 55.6268 38.129 55.5368 38.1891C55.4468 38.2492 55.3411 38.2812 55.2329 38.2811Z" fill="#84D9BA"/>
<path d="M44.2961 41.5622C43.9939 41.5622 43.7493 41.3176 43.7493 41.0154V37.7344C43.7493 37.4321 43.9939 37.1875 44.2961 37.1875C44.5984 37.1875 44.843 37.4321 44.843 37.7344V41.0154C44.843 41.3176 44.5984 41.5622 44.2961 41.5622ZM55.233 41.5622C55.1611 41.5623 55.09 41.5481 55.0237 41.5207C54.9573 41.4932 54.897 41.4529 54.8462 41.4021C54.7955 41.3513 54.7552 41.291 54.7277 41.2247C54.7003 41.1583 54.6862 41.0872 54.6862 41.0154V37.7344C54.6862 37.4321 54.9308 37.1875 55.233 37.1875C55.5352 37.1875 55.7798 37.4321 55.7798 37.7344V41.0154C55.7798 41.3176 55.5352 41.5622 55.233 41.5622Z" fill="#84D9BA"/>
<path d="M63.9824 64.5295C63.9106 64.5295 63.8395 64.5154 63.7731 64.4879C63.7068 64.4605 63.6465 64.4202 63.5957 64.3694C63.5449 64.3187 63.5047 64.2584 63.4772 64.192C63.4497 64.1257 63.4356 64.0546 63.4357 63.9828V62.889C63.4356 62.8172 63.4497 62.7461 63.4772 62.6797C63.5047 62.6134 63.5449 62.5531 63.5957 62.5023C63.6465 62.4515 63.7068 62.4113 63.7731 62.3838C63.8395 62.3563 63.9106 62.3422 63.9824 62.3423C64.2847 62.3423 64.5293 62.5869 64.5293 62.889V63.9828C64.5293 64.0546 64.5152 64.1257 64.4877 64.1921C64.4602 64.2584 64.42 64.3187 64.3692 64.3695C64.3184 64.4203 64.2581 64.4605 64.1917 64.488C64.1253 64.5154 64.0542 64.5295 63.9824 64.5295ZM67.2635 64.2614C66.9612 64.2614 66.7166 64.0169 66.7166 63.7146V62.6358C66.7166 62.3336 66.9612 62.0891 67.2635 62.0891C67.5658 62.0891 67.8104 62.3336 67.8104 62.6358V63.7146C67.8104 63.7865 67.7963 63.8576 67.7688 63.9239C67.7413 63.9903 67.7011 64.0506 67.6503 64.1014C67.5995 64.1522 67.5392 64.1924 67.4728 64.2199C67.4065 64.2473 67.3353 64.2614 67.2635 64.2614ZM60.7014 64.2509C60.3991 64.2509 60.1545 64.0063 60.1545 63.704V62.6209C60.1545 62.5491 60.1686 62.4779 60.1961 62.4116C60.2236 62.3452 60.2639 62.2849 60.3146 62.2342C60.3654 62.1834 60.4257 62.1431 60.4921 62.1157C60.5585 62.0882 60.6296 62.0741 60.7014 62.0742C60.7732 62.0741 60.8443 62.0882 60.9107 62.1157C60.977 62.1432 61.0373 62.1834 61.0881 62.2342C61.1389 62.285 61.1791 62.3453 61.2066 62.4116C61.2341 62.478 61.2482 62.5491 61.2482 62.6209V63.704C61.2482 64.0063 61.0036 64.2509 60.7014 64.2509Z" fill="#84D9BA"/>
<path d="M63.9824 62.3423C59.5105 62.3423 58.2556 61.2165 58.1274 61.0883C58.0249 60.9857 57.9673 60.8467 57.9673 60.7016C57.9673 60.5566 58.0249 60.4176 58.1274 60.315C58.3379 60.1046 58.6775 60.1014 58.8901 60.3054C58.9327 60.3407 60.0574 61.2485 63.9824 61.2485C67.9674 61.2485 69.0654 60.3128 69.076 60.3043C69.296 60.1077 69.64 60.1142 69.8427 60.3321C70.0456 60.5467 70.0467 60.879 69.8374 61.0883C69.7094 61.2165 68.4544 62.3423 63.9824 62.3423ZM63.9824 65.6232C59.5105 65.6232 58.2556 64.4975 58.1274 64.3693C58.0767 64.3185 58.0364 64.2582 58.0089 64.1919C57.9814 64.1256 57.9673 64.0545 57.9673 63.9827C57.9673 63.9109 57.9814 63.8398 58.0089 63.7735C58.0364 63.7071 58.0767 63.6469 58.1274 63.5961C58.3379 63.3857 58.6775 63.3826 58.8901 63.5865C58.9327 63.6218 60.0574 64.5295 63.9824 64.5295C67.9674 64.5295 69.0654 63.5939 69.076 63.5855C69.296 63.3889 69.64 63.3964 69.8427 63.6132C70.0456 63.8279 70.0467 64.1601 69.8374 64.3693C69.7094 64.4975 68.4544 65.6232 63.9824 65.6232Z" fill="#84D9BA"/>
<path d="M69.4509 61.2485C69.3108 61.2488 69.1761 61.1948 69.0749 61.0979C69.0323 61.0626 67.9076 60.1548 63.9824 60.1548C59.9976 60.1548 58.8996 61.0905 58.889 61.0989C58.6679 61.2956 58.3261 61.2891 58.1221 61.0712C57.9192 60.8565 57.9181 60.5243 58.1275 60.315C58.2557 60.1868 59.5105 59.0612 63.9824 59.0612C68.4544 59.0612 69.7095 60.1868 69.8374 60.315C69.9139 60.3915 69.9659 60.4889 69.987 60.595C70.0081 60.701 69.9973 60.8109 69.9559 60.9108C69.9146 61.0108 69.8445 61.0962 69.7546 61.1563C69.6647 61.2164 69.5591 61.2485 69.4509 61.2485Z" fill="#84D9BA"/>
<path d="M58.5142 64.5294C58.2119 64.5294 57.9673 64.2849 57.9673 63.9827V60.7016C57.9673 60.3993 58.2119 60.1547 58.5142 60.1547C58.8164 60.1547 59.061 60.3993 59.061 60.7016V63.9827C59.0611 64.0545 59.0469 64.1257 59.0195 64.192C58.992 64.2584 58.9517 64.3187 58.9009 64.3694C58.8501 64.4202 58.7898 64.4605 58.7235 64.4879C58.6571 64.5154 58.586 64.5295 58.5142 64.5294ZM69.451 64.5294C69.1487 64.5294 68.9041 64.2849 68.9041 63.9827V60.7016C68.9041 60.3993 69.1487 60.1547 69.451 60.1547C69.5228 60.1547 69.5939 60.1688 69.6603 60.1963C69.7266 60.2238 69.7869 60.264 69.8377 60.3148C69.8885 60.3656 69.9288 60.4259 69.9562 60.4923C69.9837 60.5587 69.9978 60.6298 69.9977 60.7016V63.9827C69.9977 64.0545 69.9836 64.1256 69.9562 64.192C69.9287 64.2583 69.8884 64.3186 69.8377 64.3694C69.7869 64.4202 69.7266 64.4604 69.6602 64.4879C69.5939 64.5154 69.5228 64.5295 69.451 64.5294Z" fill="#84D9BA"/>
<path d="M63.9824 56.8737C63.9106 56.8738 63.8394 56.8597 63.7731 56.8322C63.7067 56.8047 63.6464 56.7644 63.5957 56.7136C63.5449 56.6628 63.5046 56.6025 63.4772 56.5362C63.4497 56.4698 63.4356 56.3987 63.4357 56.3269V55.2333C63.4357 54.931 63.6802 54.6864 63.9824 54.6864C64.2847 54.6864 64.5293 54.931 64.5293 55.2333V56.3269C64.5293 56.6292 64.2847 56.8737 63.9824 56.8737ZM67.2635 56.6056C66.9612 56.6056 66.7166 56.361 66.7166 56.0588V54.9801C66.7166 54.6778 66.9612 54.4332 67.2635 54.4332C67.5658 54.4332 67.8104 54.6778 67.8104 54.9801V56.0588C67.8104 56.361 67.5658 56.6056 67.2635 56.6056ZM60.7014 56.595C60.3991 56.595 60.1545 56.3504 60.1545 56.0481V54.9651C60.1545 54.6629 60.3991 54.4183 60.7014 54.4183C60.7732 54.4182 60.8444 54.4324 60.9107 54.4598C60.9771 54.4873 61.0374 54.5276 61.0881 54.5784C61.1389 54.6292 61.1792 54.6895 61.2066 54.7558C61.2341 54.8222 61.2482 54.8933 61.2482 54.9651V56.0481C61.2482 56.3504 61.0036 56.595 60.7014 56.595Z" fill="#84D9BA"/>
<path d="M63.9824 54.6864C59.5104 54.6864 58.2555 53.5608 58.1274 53.4326C58.0249 53.33 57.9673 53.191 57.9673 53.0459C57.9673 52.9009 58.0249 52.7619 58.1274 52.6593C58.3378 52.4489 58.6774 52.4457 58.89 52.6497C58.9327 52.685 60.0573 53.5928 63.9824 53.5928C67.9673 53.5928 69.0653 52.6571 69.076 52.6486C69.296 52.452 69.6399 52.4585 69.8427 52.6764C70.0456 52.891 70.0467 53.2233 69.8374 53.4326C69.7094 53.5608 68.4543 54.6864 63.9824 54.6864ZM63.9824 57.9675C59.5104 57.9675 58.2555 56.8418 58.1274 56.7136C58.0249 56.611 57.9673 56.4719 57.9673 56.3269C57.9673 56.1819 58.0249 56.0428 58.1274 55.9403C58.3378 55.7299 58.6774 55.7267 58.89 55.9307C58.9327 55.966 60.0573 56.8738 63.9824 56.8738C67.9673 56.8738 69.0653 55.9381 69.076 55.9296C69.296 55.7341 69.6399 55.7405 69.8427 55.9574C70.0456 56.172 70.0467 56.5042 69.8374 56.7136C69.7094 56.8418 68.4543 57.9675 63.9824 57.9675Z" fill="#84D9BA"/>
<path d="M69.4509 53.5928C69.3108 53.5931 69.1761 53.5391 69.0749 53.4421C69.0323 53.4068 67.9076 52.499 63.9824 52.499C59.9976 52.499 58.8996 53.4347 58.889 53.4432C58.6679 53.6398 58.3261 53.6334 58.1221 53.4154C57.9192 53.2008 57.9181 52.8686 58.1275 52.6593C58.2557 52.531 59.5105 51.4053 63.9824 51.4053C68.4544 51.4053 69.7095 52.531 69.8374 52.6593C69.9139 52.7357 69.9659 52.8331 69.987 52.9392C70.0081 53.0453 69.9973 53.1552 69.9559 53.2551C69.9146 53.355 69.8445 53.4404 69.7546 53.5005C69.6647 53.5606 69.5591 53.5927 69.4509 53.5928Z" fill="#84D9BA"/>
<path d="M58.5142 56.8737C58.2119 56.8737 57.9673 56.6292 57.9673 56.3269V53.0459C57.9673 52.7436 58.2119 52.499 58.5142 52.499C58.8164 52.499 59.061 52.7436 59.061 53.0459V56.3269C59.061 56.6292 58.8164 56.8737 58.5142 56.8737ZM69.451 56.8737C69.1487 56.8737 68.9041 56.6292 68.9041 56.3269V53.0459C68.9041 52.7436 69.1487 52.499 69.451 52.499C69.5228 52.499 69.5939 52.5131 69.6603 52.5406C69.7266 52.5681 69.7869 52.6083 69.8377 52.6591C69.8885 52.7099 69.9288 52.7702 69.9562 52.8366C69.9837 52.903 69.9978 52.9741 69.9977 53.0459V56.3269C69.9977 56.6292 69.7531 56.8737 69.451 56.8737Z" fill="#84D9BA"/>
<path d="M63.9824 49.2181C63.9106 49.2181 63.8394 49.204 63.7731 49.1765C63.7067 49.149 63.6464 49.1087 63.5957 49.058C63.5449 49.0072 63.5046 48.9469 63.4772 48.8805C63.4497 48.8141 63.4356 48.743 63.4357 48.6712V47.5774C63.4357 47.2751 63.6802 47.0306 63.9824 47.0306C64.2847 47.0306 64.5293 47.2751 64.5293 47.5774V48.6712C64.5293 48.9735 64.2847 49.2181 63.9824 49.2181ZM67.2635 48.95C66.9612 48.95 66.7166 48.7054 66.7166 48.4031V47.3242C66.7166 47.0219 66.9612 46.7774 67.2635 46.7774C67.5658 46.7774 67.8104 47.0219 67.8104 47.3242V48.4031C67.8104 48.7054 67.5658 48.95 67.2635 48.95ZM60.7014 48.9393C60.3991 48.9393 60.1545 48.6947 60.1545 48.3924V47.3093C60.1545 47.007 60.3991 46.7625 60.7014 46.7625C60.7732 46.7624 60.8444 46.7765 60.9107 46.804C60.9771 46.8315 61.0374 46.8718 61.0881 46.9226C61.1389 46.9733 61.1792 47.0336 61.2066 47.1C61.2341 47.1664 61.2482 47.2375 61.2482 47.3093V48.3924C61.2482 48.6947 61.0036 48.9393 60.7014 48.9393Z" fill="#84D9BA"/>
<path d="M63.9824 47.0306C59.5105 47.0306 58.2556 45.905 58.1274 45.7767C58.0767 45.726 58.0364 45.6657 58.0089 45.5994C57.9814 45.5331 57.9673 45.462 57.9673 45.3902C57.9673 45.3184 57.9814 45.2473 58.0089 45.181C58.0364 45.1146 58.0767 45.0544 58.1274 45.0036C58.3379 44.7932 58.6775 44.79 58.8901 44.994C58.9327 45.0293 60.0574 45.937 63.9824 45.937C67.9674 45.937 69.0654 45.0014 69.076 44.9929C69.296 44.7963 69.64 44.8039 69.8427 45.0207C70.0456 45.2352 70.0467 45.5674 69.8374 45.7767C69.7094 45.905 68.4544 47.0306 63.9824 47.0306ZM63.9824 50.3117C59.5105 50.3117 58.2556 49.1861 58.1274 49.0579C58.0249 48.9553 57.9673 48.8162 57.9673 48.6712C57.9673 48.5262 58.0249 48.3871 58.1274 48.2846C58.3379 48.0742 58.6775 48.071 58.8901 48.275C58.9327 48.3103 60.0574 49.2181 63.9824 49.2181C67.9674 49.2181 69.0654 48.2824 69.076 48.2739C69.296 48.0784 69.64 48.0848 69.8427 48.3017C70.0456 48.5163 70.0467 48.8485 69.8374 49.0579C69.7094 49.1861 68.4544 50.3117 63.9824 50.3117Z" fill="#84D9BA"/>
<path d="M69.4509 45.9369C69.3108 45.9373 69.1761 45.8832 69.0749 45.7863C69.0323 45.751 67.9076 44.8433 63.9824 44.8433C59.9976 44.8433 58.8996 45.7789 58.889 45.7874C58.6679 45.984 58.3261 45.9764 58.1221 45.7596C57.9192 45.545 57.9181 45.2127 58.1275 45.0036C58.2557 44.8753 59.5105 43.7496 63.9824 43.7496C68.4544 43.7496 69.7095 44.8753 69.8374 45.0036C69.914 45.08 69.9661 45.1774 69.9872 45.2835C70.0084 45.3896 69.9976 45.4995 69.9562 45.5995C69.9148 45.6994 69.8447 45.7848 69.7548 45.8449C69.6648 45.905 69.5591 45.937 69.4509 45.9369Z" fill="#84D9BA"/>
<path d="M58.5142 49.218C58.2119 49.218 57.9673 48.9735 57.9673 48.6712V45.3901C57.9673 45.0879 58.2119 44.8433 58.5142 44.8433C58.8164 44.8433 59.061 45.0879 59.061 45.3901V48.6712C59.061 48.9735 58.8164 49.218 58.5142 49.218ZM69.451 49.218C69.1487 49.218 68.9041 48.9735 68.9041 48.6712V45.3901C68.9041 45.3182 68.9182 45.2471 68.9457 45.1808C68.9731 45.1144 69.0134 45.0541 69.0642 45.0033C69.115 44.9525 69.1753 44.9123 69.2417 44.8848C69.308 44.8574 69.3792 44.8433 69.451 44.8433C69.5228 44.8433 69.5939 44.8574 69.6602 44.8849C69.7266 44.9123 69.7869 44.9526 69.8377 45.0034C69.8884 45.0542 69.9287 45.1144 69.9562 45.1808C69.9836 45.2471 69.9977 45.3183 69.9977 45.3901V48.6712C69.9977 48.9735 69.7531 49.218 69.451 49.218Z" fill="#84D9BA"/>
<path d="M63.9824 41.5622C63.9106 41.5623 63.8394 41.5481 63.7731 41.5207C63.7067 41.4932 63.6464 41.4529 63.5957 41.4021C63.5449 41.3513 63.5046 41.291 63.4772 41.2247C63.4497 41.1583 63.4356 41.0872 63.4357 41.0153V39.9217C63.4357 39.6194 63.6802 39.3749 63.9824 39.3749C64.2847 39.3749 64.5293 39.6194 64.5293 39.9217V41.0153C64.5293 41.3176 64.2847 41.5622 63.9824 41.5622ZM67.2635 41.2941C66.9612 41.2941 66.7166 41.0495 66.7166 40.7472V39.6685C66.7166 39.3662 66.9612 39.1217 67.2635 39.1217C67.5658 39.1217 67.8104 39.3662 67.8104 39.6685V40.7472C67.8104 41.0495 67.5658 41.2941 67.2635 41.2941ZM60.7014 41.2835C60.3991 41.2835 60.1545 41.0389 60.1545 40.7367V39.6536C60.1545 39.3513 60.3991 39.1068 60.7014 39.1068C60.7732 39.1067 60.8444 39.1208 60.9107 39.1483C60.9771 39.1758 61.0374 39.2161 61.0881 39.2669C61.1389 39.3176 61.1792 39.3779 61.2066 39.4443C61.2341 39.5107 61.2482 39.5818 61.2482 39.6536V40.7367C61.2482 40.8085 61.2341 40.8796 61.2066 40.946C61.1791 41.0123 61.1389 41.0726 61.0881 41.1234C61.0373 41.1742 60.977 41.2144 60.9107 41.2419C60.8443 41.2694 60.7732 41.2835 60.7014 41.2835Z" fill="#84D9BA"/>
<path d="M63.9824 39.3748C59.5105 39.3748 58.2556 38.2491 58.1274 38.1209C58.0767 38.0701 58.0364 38.0098 58.0089 37.9435C57.9814 37.8772 57.9673 37.8061 57.9673 37.7343C57.9673 37.6625 57.9814 37.5914 58.0089 37.5251C58.0364 37.4587 58.0767 37.3985 58.1274 37.3477C58.3379 37.1373 58.6775 37.1342 58.8901 37.3381C58.9327 37.3734 60.0574 38.2811 63.9824 38.2811C67.9674 38.2811 69.0654 37.3455 69.076 37.3371C69.296 37.1405 69.64 37.148 69.8427 37.3648C70.0456 37.5795 70.0467 37.9117 69.8374 38.1209C69.7094 38.2491 68.4544 39.3748 63.9824 39.3748ZM63.9824 42.6558C59.5105 42.6558 58.2556 41.5302 58.1274 41.402C58.0767 41.3512 58.0364 41.291 58.0089 41.2246C57.9814 41.1583 57.9673 41.0872 57.9673 41.0154C57.9673 40.9436 57.9814 40.8725 58.0089 40.8062C58.0364 40.7399 58.0767 40.6796 58.1274 40.6288C58.3379 40.4184 58.6775 40.4153 58.8901 40.6193C58.9327 40.6545 60.0574 41.5622 63.9824 41.5622C67.9674 41.5622 69.0654 40.6266 69.076 40.6182C69.296 40.4227 69.64 40.4291 69.8427 40.6459C70.0456 40.8604 70.0467 41.1927 69.8374 41.402C69.7094 41.5302 68.4544 42.6558 63.9824 42.6558Z" fill="#84D9BA"/>
<path d="M69.4509 38.2811C69.3108 38.2814 69.1761 38.2274 69.0749 38.1304C69.0323 38.0952 67.9076 37.1875 63.9824 37.1875C59.9976 37.1875 58.8996 38.1231 58.889 38.1315C58.6679 38.3281 58.3261 38.3206 58.1221 38.1038C57.9192 37.8893 57.9181 37.557 58.1275 37.3477C58.2557 37.2195 59.5105 36.0939 63.9824 36.0939C68.4544 36.0939 69.7095 37.2195 69.8374 37.3477C69.914 37.4241 69.9661 37.5216 69.9872 37.6276C70.0084 37.7337 69.9976 37.8437 69.9562 37.9436C69.9148 38.0436 69.8447 38.129 69.7548 38.189C69.6648 38.2491 69.5591 38.2812 69.4509 38.2811Z" fill="#84D9BA"/>
<path d="M58.5142 41.5622C58.2119 41.5622 57.9673 41.3176 57.9673 41.0154V37.7344C57.9673 37.4321 58.2119 37.1875 58.5142 37.1875C58.8164 37.1875 59.061 37.4321 59.061 37.7344V41.0154C59.061 41.3176 58.8164 41.5622 58.5142 41.5622ZM69.451 41.5622C69.1487 41.5622 68.9041 41.3176 68.9041 41.0154V37.7344C68.9041 37.4321 69.1487 37.1875 69.451 37.1875C69.5228 37.1875 69.5939 37.2016 69.6603 37.2291C69.7266 37.2565 69.7869 37.2968 69.8377 37.3476C69.8885 37.3984 69.9288 37.4587 69.9562 37.5251C69.9837 37.5914 69.9978 37.6626 69.9977 37.7344V41.0154C69.9977 41.3176 69.7531 41.5622 69.451 41.5622Z" fill="#84D9BA"/>
<path d="M61.7951 15.3144C61.6626 15.3145 61.5346 15.2663 61.4351 15.1788C61.381 15.1316 61.3367 15.0742 61.3048 15.0099C61.2729 14.9455 61.254 14.8755 61.2492 14.8039C61.2445 14.7322 61.2539 14.6604 61.277 14.5924C61.3001 14.5244 61.3364 14.4616 61.3838 14.4077L69.0397 5.65825C69.2383 5.42965 69.5843 5.40942 69.8108 5.60698C69.8649 5.65415 69.9092 5.71155 69.9411 5.77589C69.973 5.84022 69.9918 5.91022 69.9966 5.98187C70.0014 6.05352 69.9919 6.1254 69.9688 6.19339C69.9457 6.26138 69.9094 6.32414 69.862 6.37807L62.2063 15.1275C62.1552 15.1863 62.092 15.2334 62.021 15.2657C61.9501 15.2979 61.873 15.3146 61.7951 15.3144Z" fill="#84D9BA"/>
<path d="M69.452 6.56499C69.4338 6.56499 69.4147 6.56389 69.3965 6.56184L58.4597 5.46809C58.3882 5.46101 58.3189 5.43992 58.2557 5.40601C58.1924 5.3721 58.1364 5.32605 58.091 5.27049C58.0456 5.21493 58.0115 5.15095 57.9909 5.08222C57.9702 5.01349 57.9633 4.94135 57.9705 4.86995C58.0004 4.56985 58.275 4.34331 58.5686 4.38077L69.5054 5.47452C69.5769 5.48161 69.6462 5.50272 69.7094 5.53663C69.7727 5.57055 69.8286 5.6166 69.874 5.67216C69.9194 5.72772 69.9535 5.79169 69.9741 5.86041C69.9948 5.92914 70.0017 6.00126 69.9945 6.07266C69.9811 6.20735 69.9182 6.33227 69.818 6.42323C69.7178 6.51418 69.5873 6.5647 69.452 6.56499ZM4.92361 48.1243C4.83952 48.1245 4.75654 48.1052 4.68115 48.0679C4.60575 48.0307 4.53998 47.9765 4.48898 47.9097C4.40098 47.7944 4.36235 47.6488 4.38157 47.505C4.4008 47.3613 4.47631 47.231 4.59152 47.1428C37.7041 21.8819 60.2433 11.0978 60.4675 10.9919C60.5987 10.9303 60.749 10.9231 60.8855 10.9719C61.0219 11.0207 61.1335 11.1216 61.1958 11.2525C61.2578 11.3837 61.2652 11.5341 61.2164 11.6707C61.1676 11.8073 61.0665 11.9189 60.9354 11.981C60.7121 12.0866 38.2659 22.8281 5.2557 48.0121C5.16043 48.0851 5.04366 48.1246 4.92361 48.1243ZM0.548885 42.6559C0.460183 42.6558 0.372817 42.6342 0.294315 42.5929C0.215813 42.5516 0.14853 42.4919 0.0982603 42.4188C0.0161881 42.2992 -0.0150663 42.152 0.0113641 42.0094C0.0377945 41.8668 0.119748 41.7406 0.239217 41.6584C34.8846 17.8403 59.1593 7.7975 59.4006 7.6992C59.467 7.67199 59.5382 7.65815 59.6101 7.65845C59.6819 7.65875 59.753 7.6732 59.8192 7.70098C59.8855 7.72875 59.9456 7.7693 59.9962 7.82031C60.0468 7.87132 60.0868 7.93179 60.114 7.99828C60.1412 8.06476 60.1551 8.13595 60.1548 8.20779C60.1545 8.27962 60.14 8.3507 60.1123 8.41695C60.0845 8.4832 60.0439 8.54333 59.9929 8.59391C59.9419 8.6445 59.8814 8.68453 59.815 8.71174C59.5746 8.81004 35.3982 18.8144 0.858553 42.5597C0.767473 42.6225 0.659469 42.656 0.548885 42.6559Z" fill="#84D9BA"/>
<path d="M4.92463 48.1243C4.88826 48.1243 4.85203 48.1212 4.81676 48.1136C4.74628 48.0998 4.67923 48.0721 4.61948 48.0322C4.55972 47.9924 4.50842 47.9411 4.46853 47.8813C4.42865 47.8216 4.40095 47.7546 4.38704 47.6841C4.37313 47.6136 4.37327 47.5411 4.38746 47.4707L5.48121 42.0023C5.54109 41.7043 5.84228 41.5131 6.1242 41.5729C6.19468 41.5868 6.26172 41.6144 6.32148 41.6543C6.38124 41.6942 6.43253 41.7454 6.47242 41.8052C6.51231 41.8649 6.54001 41.932 6.55392 42.0024C6.56783 42.0729 6.56769 42.1454 6.5535 42.2159L5.45975 47.6842C5.43516 47.8081 5.36841 47.9197 5.27085 47.9999C5.17329 48.0801 5.05094 48.1241 4.92463 48.1243Z" fill="#84D9BA"/>
<path d="M6.0173 42.6559H0.548828C0.24668 42.6559 0.00195312 42.4113 0.00195312 42.1091C0.00195312 41.8068 0.246543 41.5623 0.548828 41.5623H6.0173C6.31945 41.5623 6.56418 41.8068 6.56418 42.1091C6.56418 42.1809 6.55003 42.2521 6.52255 42.3184C6.49506 42.3847 6.45478 42.445 6.404 42.4958C6.35321 42.5466 6.29292 42.5868 6.22657 42.6143C6.16023 42.6418 6.08912 42.6559 6.0173 42.6559Z" fill="#84D9BA"/>
<path d="M63.9825 32.8133C60.6662 32.8133 57.9673 30.1144 57.9673 26.7981C57.9673 23.4817 60.6662 20.7839 63.9825 20.7839C67.2989 20.7839 69.9977 23.4817 69.9977 26.7981C69.9977 30.1144 67.2989 32.8133 63.9825 32.8133ZM63.9825 21.8776C61.2685 21.8776 59.061 24.0852 59.061 26.7981C59.061 29.512 61.2685 31.7197 63.9825 31.7197C66.6965 31.7197 68.9041 29.5121 68.9041 26.7981C68.9041 24.0852 66.6965 21.8776 63.9825 21.8776Z" fill="#84D9BA"/>
<path d="M63.9825 35.0007C60.6662 35.0007 57.9673 32.3017 57.9673 28.9855C57.9673 28.6832 58.2119 28.4386 58.5142 28.4386C58.8164 28.4386 59.061 28.6832 59.061 28.9855C59.061 31.6993 61.2685 33.9071 63.9825 33.9071C66.6965 33.9071 68.9041 31.6995 68.9041 28.9855C68.9041 28.6832 69.1487 28.4386 69.451 28.4386C69.5228 28.4386 69.5939 28.4527 69.6603 28.4802C69.7266 28.5076 69.7869 28.5479 69.8377 28.5987C69.8885 28.6495 69.9288 28.7098 69.9562 28.7762C69.9837 28.8425 69.9978 28.9137 69.9977 28.9855C69.9977 32.3017 67.2989 35.0007 63.9825 35.0007Z" fill="#84D9BA"/>
<path d="M58.5142 29.5322C58.2119 29.5322 57.9673 29.2876 57.9673 28.9853V26.7979C57.9673 26.4957 58.2119 26.2511 58.5142 26.2511C58.8164 26.2511 59.061 26.4957 59.061 26.7979V28.9853C59.061 29.2876 58.8164 29.5322 58.5142 29.5322ZM69.451 29.5322C69.1487 29.5322 68.9041 29.2876 68.9041 28.9853V26.7979C68.9041 26.4957 69.1487 26.2511 69.451 26.2511C69.5228 26.251 69.5939 26.2652 69.6603 26.2926C69.7266 26.3201 69.7869 26.3604 69.8377 26.4112C69.8885 26.462 69.9288 26.5223 69.9562 26.5886C69.9837 26.655 69.9978 26.7261 69.9977 26.7979V28.9853C69.9977 29.2876 69.7531 29.5322 69.451 29.5322ZM67.2636 33.9069C66.9613 33.9069 66.7167 33.6623 66.7167 33.36V31.1738C66.7167 30.8715 66.9613 30.6269 67.2636 30.6269C67.5659 30.6269 67.8105 30.8715 67.8105 31.1738V33.36C67.8105 33.6623 67.5659 33.9069 67.2636 33.9069ZM63.9825 35.0007C63.9107 35.0007 63.8396 34.9866 63.7732 34.9591C63.7068 34.9316 63.6465 34.8913 63.5958 34.8406C63.545 34.7898 63.5047 34.7295 63.4773 34.6631C63.4498 34.5967 63.4357 34.5256 63.4358 34.4538V32.2664C63.4358 31.9643 63.6803 31.7195 63.9825 31.7195C64.2848 31.7195 64.5294 31.9641 64.5294 32.2664V34.4538C64.5294 34.7561 64.2848 35.0007 63.9825 35.0007ZM60.7026 33.9069C60.4003 33.9069 60.1557 33.6623 60.1557 33.36V31.1738C60.1557 30.8715 60.4003 30.6269 60.7026 30.6269C60.7744 30.6269 60.8456 30.641 60.9119 30.6684C60.9783 30.6959 61.0386 30.7362 61.0893 30.787C61.1401 30.8378 61.1804 30.8981 61.2078 30.9645C61.2353 31.0308 61.2494 31.1019 61.2494 31.1738V33.36C61.2494 33.6623 61.0048 33.9069 60.7026 33.9069ZM63.9825 29.5322C63.9107 29.5322 63.8396 29.5181 63.7732 29.4906C63.7068 29.4632 63.6465 29.4229 63.5958 29.3721C63.545 29.3213 63.5047 29.261 63.4773 29.1946C63.4498 29.1283 63.4357 29.0571 63.4358 28.9853V24.6107C63.4358 24.3084 63.6803 24.0638 63.9825 24.0638C64.2848 24.0638 64.5294 24.3084 64.5294 24.6107V28.9854C64.5294 29.0573 64.5153 29.1284 64.4878 29.1947C64.4603 29.2611 64.4201 29.3214 64.3693 29.3722C64.3185 29.423 64.2582 29.4632 64.1918 29.4907C64.1254 29.5181 64.0543 29.5322 63.9825 29.5322Z" fill="#84D9BA"/>
<path fill-rule="evenodd" clip-rule="evenodd" d="M6.36537 16.5401C6.2334 12.8408 9.04472 9.72938 12.6512 9.58331C16.2577 9.72938 19.069 12.8408 18.9371 16.5401C18.9371 18.0766 20.5648 19.5735 20.6125 21.1135C20.6125 21.1353 20.6125 21.157 20.6125 21.1788C20.6477 22.1655 19.8978 22.9952 18.9359 23.0338H15.305C15.3084 23.7898 15.0305 24.5187 14.5281 25.072C14.045 25.61 13.3644 25.9162 12.6512 25.9162C11.938 25.9162 11.2575 25.61 10.7744 25.072C10.2719 24.5187 9.99404 23.7898 9.99741 23.0338H6.36537C5.40347 22.9952 4.65347 22.1655 4.68869 21.1788C4.68869 21.157 4.68869 21.1353 4.68869 21.1135C4.73761 19.5781 6.36537 18.0778 6.36537 16.5401Z" stroke="#84D9BA" stroke-width="1.5" stroke-linecap="round" stroke-linejoin="round"/>
<path d="M9.99731 22.1588C9.51407 22.1588 9.12231 22.5506 9.12231 23.0338C9.12231 23.5171 9.51407 23.9088 9.99731 23.9088V22.1588ZM15.3049 23.9088C15.7881 23.9088 16.1799 23.5171 16.1799 23.0338C16.1799 22.5506 15.7881 22.1588 15.3049 22.1588V23.9088ZM13.7886 8.125C14.2718 8.125 14.6636 7.73324 14.6636 7.25C14.6636 6.76675 14.2718 6.375 13.7886 6.375V8.125ZM11.5136 6.375C11.0304 6.375 10.6386 6.76675 10.6386 7.25C10.6386 7.73324 11.0304 8.125 11.5136 8.125V6.375ZM9.99731 23.9088H15.3049V22.1588H9.99731V23.9088ZM13.7886 6.375H11.5136V8.125H13.7886V6.375Z" fill="#84D9BA"/>
</g>
<defs>
<clipPath id="clip0_298_1173">
<rect width="70" height="70" fill="white"/>
</clipPath>
</defs>
</svg>
