<svg width="97" height="98" viewBox="0 0 97 98" fill="none" xmlns="http://www.w3.org/2000/svg">
<path d="M94.3477 90.3438V53.5938H67.0664V44.4062H29.9336V53.5938H2.65234V90.3438H0V98H97V90.3438H94.3477ZM73.8867 69.6719H77.6758V87.2812H73.8867V69.6719ZM70.8555 87.2812H67.0664V69.6719H70.8555V87.2812ZM77.6758 66.6094H73.8867V62.7812H77.6758V66.6094ZM80.707 62.7812H84.4961V66.6094H80.707V62.7812ZM80.707 69.6719H84.4961V87.2812H80.707V69.6719ZM87.5273 69.6719H91.3164V87.2812H87.5273V69.6719ZM91.3164 66.6094H87.5273V62.7812H91.3164V66.6094ZM70.8555 62.7812V66.6094H67.0664V62.7812H70.8555ZM16.293 66.6094H12.5039V62.7812H16.293V66.6094ZM19.3242 62.7812H23.1133V66.6094H19.3242V62.7812ZM16.293 69.6719V87.2812H12.5039V69.6719H16.293ZM19.3242 69.6719H23.1133V87.2812H19.3242V69.6719ZM26.1445 69.6719H29.9336V87.2812H26.1445V69.6719ZM29.9336 66.6094H26.1445V62.7812H29.9336V66.6094ZM9.47266 62.7812V66.6094H5.68359V62.7812H9.47266ZM5.68359 69.6719H9.47266V87.2812H5.68359V69.6719ZM35.2383 91.875V53.5938H40.543V91.875H35.2383ZM45.8477 91.875V53.5938H51.1523V91.875H45.8477ZM56.457 91.875V53.5938H61.7617V91.875H56.457Z" fill="#8CB4FF"/>
<path d="M67.0664 42.875L49.2578 28.175V22.9688H57.5938V15.3125H49.2578V13.7812H47.7422V15.3125V22.9688V28.175L29.9336 42.875H67.0664Z" fill="#8CB4FF"/>
</svg>
