<svg width="60" height="60" viewBox="0 0 60 60" fill="none" xmlns="http://www.w3.org/2000/svg">
<g clip-path="url(#clip0_293_612)">
<path d="M19.6333 48.2264C19.0095 47.6025 18.0007 47.6025 17.3768 48.2264C16.753 48.8502 16.753 49.859 17.3768 50.4829L19.182 52.2881H11.855C7.08979 52.2881 3.22717 48.4122 3.22717 43.6602V38.311C3.22717 37.4349 2.51039 36.7181 1.63434 36.7181C0.758278 36.7181 0.0415039 37.4349 0.0415039 38.311V43.6602C0.0415039 50.1776 5.33767 55.4737 11.855 55.4737H19.182L17.3768 57.2789C16.753 57.9028 16.753 58.9116 17.3768 59.5355C17.6821 59.8408 18.0936 60 18.5051 60C18.9166 60 19.3148 59.8408 19.6333 59.5355L24.1596 55.0092C24.7835 54.3853 24.7835 53.3765 24.1596 52.7526L19.6333 48.2264Z" fill="#FFA7A5"/>
<path d="M27.916 0.0032959H1.75372C0.877663 0.0032959 0.160889 0.72007 0.160889 1.59613V27.7584C0.160889 28.6345 0.877663 29.3512 1.75372 29.3512H27.916C28.792 29.3512 29.5088 28.6345 29.5088 27.7584V1.59613C29.5088 0.72007 28.8053 0.0032959 27.916 0.0032959ZM26.3232 26.1656H3.34655V3.18896H26.3232V26.1656Z" fill="#FFA7A5"/>
<path d="M48.1318 4.52962H40.8048L42.61 2.72441C43.2339 2.10055 43.2339 1.09175 42.61 0.467894C41.9861 -0.155965 40.9773 -0.155965 40.3535 0.467894L35.8405 4.99419C35.2166 5.61805 35.2166 6.62685 35.8405 7.25071L40.3668 11.777C40.672 12.0823 41.0835 12.2416 41.495 12.2416C41.9065 12.2416 42.3047 12.0823 42.6233 11.777C43.2471 11.1531 43.2471 10.1444 42.6233 9.52049L40.8181 7.71528H48.1451C52.9103 7.71528 56.7729 11.5912 56.7729 16.3431V21.6924C56.7729 22.5684 57.4897 23.2852 58.3658 23.2852C59.2418 23.2852 59.9586 22.5684 59.9586 21.6924V16.3431C59.9586 9.82578 54.6491 4.52962 48.1318 4.52962Z" fill="#FFA7A5"/>
<path d="M58.2462 56.8143C57.8214 56.8143 57.4099 56.9869 57.1179 57.2789C56.8259 57.5709 56.6533 57.9824 56.6533 58.4072C56.6533 58.8186 56.8259 59.2434 57.1179 59.5354C57.4099 59.8274 57.8214 60 58.2462 60C58.6709 60 59.0824 59.8274 59.3744 59.5354C59.6664 59.2434 59.839 58.8319 59.839 58.4072C59.839 57.9824 59.6664 57.5709 59.3744 57.2789C59.0691 56.9869 58.6576 56.8143 58.2462 56.8143Z" fill="#FFA7A5"/>
<path d="M51.7025 56.8143C50.8264 56.8143 50.1096 57.5311 50.1096 58.4072C50.1096 59.2832 50.8264 60 51.7025 60C52.5785 60 53.2953 59.2832 53.2953 58.4072C53.2953 57.5311 52.5785 56.8143 51.7025 56.8143Z" fill="#FFA7A5"/>
<path d="M38.6146 56.8143C37.7385 56.8143 37.0217 57.5311 37.0217 58.4072C37.0217 59.2832 37.7385 60 38.6146 60C39.4906 60 40.2074 59.2832 40.2074 58.4072C40.2074 57.5311 39.5039 56.8143 38.6146 56.8143Z" fill="#FFA7A5"/>
<path d="M45.1585 56.8143C44.2824 56.8143 43.5657 57.5311 43.5657 58.4072C43.5657 59.2832 44.2824 60 45.1585 60C46.0346 60 46.7513 59.2832 46.7513 58.4072C46.7513 57.5311 46.0346 56.8143 45.1585 56.8143Z" fill="#FFA7A5"/>
<path d="M32.084 56.8143C31.6593 56.8143 31.2478 56.9869 30.9558 57.2789C30.6638 57.5709 30.4912 57.9824 30.4912 58.4072C30.4912 58.8186 30.6638 59.2434 30.9558 59.5354C31.2478 59.8274 31.6593 60 32.084 60C32.4955 60 32.9203 59.8274 33.2123 59.5354C33.5043 59.2434 33.6769 58.8319 33.6769 58.4072C33.6769 57.9824 33.5043 57.5709 33.2123 57.2789C32.9203 56.9869 32.4954 56.8143 32.084 56.8143Z" fill="#FFA7A5"/>
<path d="M32.084 50.2705C31.208 50.2705 30.4912 50.9873 30.4912 51.8633C30.4912 52.7394 31.208 53.4562 32.084 53.4562C32.9601 53.4562 33.6769 52.7394 33.6769 51.8633C33.6769 50.9873 32.96 50.2705 32.084 50.2705Z" fill="#FFA7A5"/>
<path d="M32.084 43.7266C31.208 43.7266 30.4912 44.4433 30.4912 45.3194C30.4912 46.1955 31.208 46.9122 32.084 46.9122C32.9601 46.9122 33.6769 46.1955 33.6769 45.3194C33.6769 44.4433 32.96 43.7266 32.084 43.7266Z" fill="#FFA7A5"/>
<path d="M32.084 37.1826C31.208 37.1826 30.4912 37.8994 30.4912 38.7754C30.4912 39.6515 31.208 40.3683 32.084 40.3683C32.9601 40.3683 33.6769 39.6515 33.6769 38.7754C33.6769 37.8994 32.96 37.1826 32.084 37.1826Z" fill="#FFA7A5"/>
<path d="M32.084 30.6521C31.6593 30.6521 31.2478 30.8247 30.9558 31.1167C30.6638 31.4087 30.4912 31.8202 30.4912 32.2449C30.4912 32.6697 30.6638 33.0812 30.9558 33.3732C31.2478 33.6652 31.6593 33.8378 32.084 33.8378C32.4955 33.8378 32.9203 33.6652 33.2123 33.3732C33.5043 33.0812 33.6769 32.6697 33.6769 32.2449C33.6769 31.8335 33.5043 31.4087 33.2123 31.1167C32.9069 30.8114 32.4954 30.6521 32.084 30.6521Z" fill="#FFA7A5"/>
<path d="M51.7025 30.6521C50.8264 30.6521 50.1096 31.3689 50.1096 32.2449C50.1096 33.121 50.8264 33.8378 51.7025 33.8378C52.5785 33.8378 53.2953 33.121 53.2953 32.2449C53.2953 31.3689 52.5785 30.6521 51.7025 30.6521Z" fill="#FFA7A5"/>
<path d="M45.1585 30.6521C44.2824 30.6521 43.5657 31.3689 43.5657 32.2449C43.5657 33.121 44.2824 33.8378 45.1585 33.8378C46.0346 33.8378 46.7513 33.121 46.7513 32.2449C46.7513 31.3689 46.0346 30.6521 45.1585 30.6521Z" fill="#FFA7A5"/>
<path d="M38.6146 30.6521C37.7385 30.6521 37.0217 31.3689 37.0217 32.2449C37.0217 33.121 37.7385 33.8378 38.6146 33.8378C39.4906 33.8378 40.2074 33.121 40.2074 32.2449C40.2074 31.3689 39.5039 30.6521 38.6146 30.6521Z" fill="#FFA7A5"/>
<path d="M58.2462 30.6521C57.8214 30.6521 57.4099 30.8247 57.1179 31.1167C56.8259 31.4087 56.6533 31.8202 56.6533 32.2449C56.6533 32.6697 56.8259 33.0812 57.1179 33.3732C57.4099 33.6652 57.8214 33.8378 58.2462 33.8378C58.6709 33.8378 59.0824 33.6652 59.3744 33.3732C59.6664 33.0812 59.839 32.6697 59.839 32.2449C59.839 31.8335 59.6664 31.4087 59.3744 31.1167C59.0691 30.8247 58.6576 30.6521 58.2462 30.6521Z" fill="#FFA7A5"/>
<path d="M58.2462 37.1826C57.3701 37.1826 56.6533 37.8994 56.6533 38.7754C56.6533 39.6515 57.3701 40.3683 58.2462 40.3683C59.1222 40.3683 59.839 39.6515 59.839 38.7754C59.839 37.8994 59.1222 37.1826 58.2462 37.1826Z" fill="#FFA7A5"/>
<path d="M58.2462 50.2705C57.3701 50.2705 56.6533 50.9873 56.6533 51.8633C56.6533 52.7394 57.3701 53.4562 58.2462 53.4562C59.1222 53.4562 59.839 52.7394 59.839 51.8633C59.839 50.9873 59.1222 50.2705 58.2462 50.2705Z" fill="#FFA7A5"/>
<path d="M58.2462 43.7266C57.3701 43.7266 56.6533 44.4433 56.6533 45.3194C56.6533 46.1955 57.3701 46.9122 58.2462 46.9122C59.1222 46.9122 59.839 46.1955 59.839 45.3194C59.839 44.4433 59.1222 43.7266 58.2462 43.7266Z" fill="#FFA7A5"/>
</g>
<defs>
<clipPath id="clip0_293_612">
<rect width="60" height="60" fill="white"/>
</clipPath>
</defs>
</svg>
