<svg width="49" height="48" viewBox="0 0 49 48" fill="none" xmlns="http://www.w3.org/2000/svg">
<g clip-path="url(#clip0_1_571)">
<path fill-rule="evenodd" clip-rule="evenodd" d="M20.5 2C19.9696 2 19.4609 2.21072 19.0858 2.58578L7.08578 14.5858C6.71072 14.9609 6.5 15.4696 6.5 16V40C6.5 43.3138 9.1863 46 12.5 46H16.5C17.6046 46 18.5 45.1046 18.5 44C18.5 42.8954 17.6046 42 16.5 42H12.5C11.3954 42 10.5 41.1046 10.5 40V18H20.5C21.6046 18 22.5 17.1046 22.5 16V6H36.5C37.6046 6 38.5 6.89544 38.5 8V14C38.5 15.1046 39.3954 16 40.5 16C41.6046 16 42.5 15.1046 42.5 14V8C42.5 4.6863 39.8138 2 36.5 2H20.5ZM18.5 14H13.3284L18.5 8.82842V14ZM24.5 34C24.5 28.4772 28.9772 24 34.5 24C40.0228 24 44.5 28.4772 44.5 34C44.5 39.5228 40.0228 44 34.5 44C28.9772 44 24.5 39.5228 24.5 34ZM34.5 20C26.768 20 20.5 26.268 20.5 34C20.5 41.732 26.768 48 34.5 48C42.232 48 48.5 41.732 48.5 34C48.5 26.268 42.232 20 34.5 20ZM33.6094 28.3358C32.9956 27.9268 32.2066 27.8886 31.5562 28.2366C30.906 28.5846 30.5 29.2624 30.5 30V38C30.5 38.7376 30.906 39.4154 31.5562 39.7634C32.2066 40.1114 32.9956 40.0732 33.6094 39.6642L39.6094 35.6642C40.1658 35.2932 40.5 34.6688 40.5 34C40.5 33.3312 40.1658 32.7068 39.6094 32.3358L33.6094 28.3358Z" fill="#FFA7A5"/>
</g>
<defs>
<clipPath id="clip0_1_571">
<rect width="48" height="48" fill="white" transform="translate(0.5)"/>
</clipPath>
</defs>
</svg>
