<svg width="86" height="86" viewBox="0 0 86 86" fill="none" xmlns="http://www.w3.org/2000/svg">
<path d="M37.5727 4.32016L41.1366 32.334H46.3017L49.866 4.32016H37.5727ZM40.8427 35.242V40.995H46.5956V35.242H40.8427ZM43.7244 48.6742C43.4822 48.6742 43.2399 48.6809 43.0001 48.6849C42.7942 48.6883 42.5902 48.6945 42.386 48.7007L42.2074 48.7057C41.9891 48.7133 41.7729 48.7214 41.5567 48.7321C41.3547 48.7422 41.1531 48.7506 40.953 48.7637C40.9166 48.7657 40.8795 48.7665 40.8429 48.7687C34.2115 49.1769 28.2506 50.9446 23.8411 53.1255C21.3215 54.3718 19.3109 55.7587 17.9991 57.0308C16.6876 58.3033 16.1884 59.4416 16.1884 59.939C16.1884 60.4362 16.5626 61.1663 17.8154 62.0544C19.0684 62.9423 21.0661 63.8474 23.5947 64.6053C28.6515 66.1212 35.8137 67.0986 43.7245 67.0986C51.6352 67.0986 58.8026 66.1211 63.8598 64.6051C66.3882 63.8473 68.386 62.9423 69.6389 62.054C70.892 61.1662 71.266 60.436 71.266 59.9388C71.266 59.4416 70.7668 58.3031 69.4553 57.0308C68.1438 55.7587 66.1329 54.3718 63.6134 53.1255C59.2042 50.9448 53.239 49.1771 46.6065 48.7691C46.5696 48.7665 46.5331 48.7662 46.496 48.764C46.2961 48.7509 46.0946 48.7422 45.8925 48.7321C45.6762 48.7215 45.4598 48.7136 45.2415 48.7061C45.2186 48.7051 45.1961 48.7014 45.1733 48.7005C45.1346 48.6993 45.0963 48.7017 45.0577 48.7005C44.857 48.6946 44.6566 48.6881 44.454 48.6849C44.2125 48.6809 43.9686 48.6743 43.7244 48.6743V48.6742ZM43.7244 51.8135C48.1571 51.8135 52.1656 52.5542 54.9259 53.6662C56.3059 54.2222 57.3648 54.8759 58.0019 55.4824C58.6385 56.0888 58.8259 56.5566 58.8259 56.9572C58.8259 57.358 58.6385 57.8259 58.0015 58.4323C57.7361 58.6853 57.3935 58.9451 56.9887 59.2039C56.1567 56.549 50.535 54.4953 43.7192 54.4953C36.9072 54.4953 31.2918 56.5462 30.4547 59.1984C30.0522 58.9409 29.7112 58.6837 29.4469 58.4321C28.8103 57.8258 28.6228 57.3578 28.6228 56.9574C28.6228 56.5564 28.8101 56.0886 29.4469 55.4821C30.0838 54.8757 31.1428 54.222 32.5229 53.666C35.2831 52.5541 39.2915 51.8133 43.7244 51.8133V51.8135ZM13.0597 60.1748C9.34838 62.4777 7.19116 65.2243 7.19116 68.1743C7.19116 76.3001 23.5458 82.8874 43.7193 82.8874C63.8924 82.8874 80.2472 76.3 80.2472 68.1741C80.2472 65.228 78.096 62.4861 74.3944 60.1851C74.292 61.986 73.0749 63.4672 71.455 64.6152C69.7619 65.8152 67.496 66.7914 64.7572 67.6125C59.2798 69.2547 51.8897 70.2371 43.7247 70.2371C35.5597 70.2371 28.1696 69.2545 22.6917 67.6126C19.9529 66.7918 17.6922 65.8154 15.9993 64.6157C14.3764 63.4655 13.1581 61.9803 13.0598 60.175L13.0597 60.1748Z" fill="#ACFF6A"/>
</svg>
