<svg width="82" height="82" viewBox="0 0 82 82" fill="none" xmlns="http://www.w3.org/2000/svg">
<path d="M73.9639 69.144L61.7885 56.9654C61.5288 56.722 61.2148 56.5439 60.8726 56.4458C60.5304 56.3477 60.1698 56.3324 59.8205 56.4012L55.1301 51.7092C57.5837 48.4974 58.8582 44.5395 58.74 40.4994C58.6217 36.4594 57.1179 32.5829 54.4807 29.52V11.48C54.4807 10.3926 54.0487 9.34977 53.2798 8.58087C52.5109 7.81197 51.4681 7.38 50.3807 7.38H11.4799C10.3925 7.38 9.34964 7.81197 8.58074 8.58087C7.81185 9.34977 7.37988 10.3926 7.37988 11.48V70.52C7.37988 71.6074 7.81185 72.6503 8.58074 73.4192C9.34964 74.188 10.3925 74.62 11.4799 74.62H50.3807C51.4681 74.62 52.5109 74.188 53.2798 73.4192C54.0487 72.6503 54.4807 71.6074 54.4807 70.52V57.9018L56.3864 59.8075C56.2771 60.1577 56.2739 60.5324 56.3772 60.8843C56.4806 61.2363 56.6857 61.5498 56.9669 61.7854L69.1423 73.964C69.5638 74.3847 70.1351 74.621 70.7306 74.621C71.3262 74.621 71.8974 74.3847 72.319 73.964L73.959 72.324C74.38 71.903 74.6165 71.3319 74.6165 70.7365C74.6165 70.1411 74.38 69.57 73.959 69.149L73.9639 69.144Z" fill="#52B6DF"/>
<path d="M52.8408 70.52C52.8408 71.1725 52.5816 71.7982 52.1203 72.2595C51.659 72.7208 51.0333 72.98 50.3808 72.98H11.48C10.8276 72.98 10.2019 72.7208 9.74054 72.2595C9.2792 71.7982 9.02002 71.1725 9.02002 70.52V11.48C9.02002 10.8276 9.2792 10.2019 9.74054 9.74054C10.2019 9.2792 10.8276 9.02002 11.48 9.02002H50.3808C51.0333 9.02002 51.659 9.2792 52.1203 9.74054C52.5816 10.2019 52.8408 10.8276 52.8408 11.48V27.8554C50.3413 25.6045 47.2528 24.1113 43.9362 23.5505C40.6196 22.9897 37.2119 23.3843 34.1112 24.6883C31.0106 25.9923 28.3451 28.1518 26.4262 30.9145C24.5073 33.6771 23.4143 36.9289 23.2748 40.2897C23.1354 43.6505 23.9553 46.9815 25.6388 49.8937C27.3222 52.8058 29.7997 55.1786 32.7816 56.735C35.7636 58.2914 39.1269 58.9669 42.4786 58.6828C45.8303 58.3986 49.0318 57.1664 51.7092 55.1303L52.8408 56.2619V70.52Z" fill="white"/>
<path d="M41.0262 57.1081C49.9079 57.1081 57.108 49.908 57.108 41.0262C57.108 32.1445 49.9079 24.9444 41.0262 24.9444C32.1444 24.9444 24.9443 32.1445 24.9443 41.0262C24.9443 49.908 32.1444 57.1081 41.0262 57.1081Z" fill="#F2FAFB"/>
<path d="M41.0261 54.2069C48.3056 54.2069 54.2068 48.3057 54.2068 41.0263C54.2068 33.7468 48.3056 27.8456 41.0261 27.8456C33.7467 27.8456 27.8455 33.7468 27.8455 41.0263C27.8455 48.3057 33.7467 54.2069 41.0261 54.2069Z" fill="#52B6DF"/>
<path d="M41.0263 52.5669C47.4 52.5669 52.567 47.4 52.567 41.0262C52.567 34.6525 47.4 29.4855 41.0263 29.4855C34.6525 29.4855 29.4856 34.6525 29.4856 41.0262C29.4856 47.4 34.6525 52.5669 41.0263 52.5669Z" fill="white"/>
<path d="M58.3397 57.236L57.2376 58.3381L52.9736 54.0741C53.3574 53.7215 53.7231 53.3557 54.0757 52.972L58.3397 57.236Z" fill="#F2FAFB"/>
<path d="M72.8028 71.1596L71.1628 72.7996C71.0473 72.9098 70.8937 72.9713 70.734 72.9713C70.5743 72.9713 70.4207 72.9098 70.3051 72.7996L58.1298 60.6226C58.0735 60.5664 58.0289 60.4997 57.9985 60.4262C57.9681 60.3528 57.9524 60.2741 57.9524 60.1946C57.9524 60.1151 57.9681 60.0364 57.9985 59.9629C58.0289 59.8895 58.0735 59.8227 58.1298 59.7665L59.7698 58.1265C59.8258 58.0701 59.8925 58.0253 59.966 57.9949C60.0395 57.9645 60.1183 57.949 60.1978 57.9494C60.3588 57.9494 60.5132 58.0131 60.6275 58.1265L72.8028 70.3035C72.8591 70.3597 72.9037 70.4265 72.9341 70.4999C72.9646 70.5733 72.9802 70.6521 72.9802 70.7316C72.9802 70.8111 72.9646 70.8898 72.9341 70.9632C72.9037 71.0367 72.8591 71.1034 72.8028 71.1596Z" fill="#F2FAFB"/>
<path d="M25.5841 28.3211L28.295 25.6053C28.4347 25.4656 28.5192 25.2802 28.5331 25.0831C28.5469 24.8861 28.4892 24.6906 28.3705 24.5327L27.3947 23.2355L29.0002 23.0092C29.1956 22.9812 29.3742 22.8837 29.5035 22.7345C29.6327 22.5854 29.7038 22.3947 29.7038 22.1974V18.3565C29.7038 18.1592 29.6327 17.9685 29.5035 17.8194C29.3742 17.6702 29.1956 17.5727 29.0002 17.5447L27.3881 17.3184L28.3639 16.0195C28.4822 15.8618 28.5397 15.6667 28.5258 15.47C28.512 15.2733 28.4277 15.0882 28.2885 14.9486L25.5841 12.2311C25.4443 12.091 25.2586 12.0062 25.0611 11.9923C24.8637 11.9785 24.6679 12.0365 24.5099 12.1557L23.216 13.1315L22.9913 11.5259C22.9638 11.3286 22.8654 11.148 22.7145 11.0179C22.5636 10.8879 22.3705 10.8172 22.1713 10.8191H18.3452C18.1459 10.8172 17.9528 10.8879 17.8019 11.0179C17.651 11.148 17.5526 11.3286 17.5252 11.5259L17.3005 13.1315L16.0082 12.1573C15.8503 12.0379 15.6547 11.9796 15.4572 11.9932C15.2598 12.0068 15.074 12.0913 14.934 12.2311L12.2296 14.9486C12.0904 15.0882 12.0061 15.2733 11.9923 15.47C11.9784 15.6667 12.0359 15.8618 12.1542 16.0195L13.1382 17.3184L11.5326 17.5447C11.337 17.5724 11.1579 17.6697 11.0283 17.8189C10.8988 17.968 10.8274 18.1589 10.8274 18.3565V22.1974C10.8274 22.395 10.8988 22.5859 11.0283 22.735C11.1579 22.8842 11.337 22.9815 11.5326 23.0092L13.1382 23.2355L12.1542 24.5327C12.0354 24.6906 11.9777 24.8861 11.9915 25.0831C12.0054 25.2802 12.0899 25.4656 12.2296 25.6053L14.9405 28.3211C15.0803 28.4612 15.2661 28.546 15.4635 28.5599C15.6609 28.5738 15.8567 28.5158 16.0147 28.3966L17.307 27.4224L17.5317 29.028C17.5596 29.225 17.6581 29.4052 17.809 29.5349C17.9598 29.6647 18.1527 29.7351 18.3517 29.7332H22.1844C22.3834 29.7351 22.5763 29.6647 22.7271 29.5349C22.878 29.4052 22.9765 29.225 23.0044 29.028L23.2291 27.4208L24.523 28.4048C24.6809 28.5193 24.8745 28.5739 25.069 28.5585C25.2635 28.5432 25.4461 28.459 25.5841 28.3211Z" fill="#52B6DF"/>
<path d="M23.0913 25.2724C22.9773 25.1848 22.8422 25.1288 22.6997 25.1099C22.5572 25.0911 22.4122 25.11 22.2793 25.1648C22.1464 25.2196 22.0303 25.3084 21.9425 25.4223C21.8547 25.5362 21.7985 25.6711 21.7793 25.8136L21.4513 28.0932H19.0569L18.7371 25.8136C18.7177 25.6712 18.6613 25.5365 18.5734 25.4228C18.4855 25.3092 18.3694 25.2206 18.2365 25.166C18.1036 25.1113 17.9588 25.0925 17.8164 25.1115C17.674 25.1305 17.539 25.1865 17.4251 25.274L15.59 26.6565L13.8926 24.9493L15.2751 23.1092C15.3605 22.9952 15.4148 22.8609 15.4326 22.7195C15.4504 22.5781 15.431 22.4346 15.3763 22.303C15.3217 22.1714 15.2337 22.0563 15.1211 21.969C15.0084 21.8818 14.875 21.8254 14.7339 21.8054L12.4641 21.484V19.0683L14.7388 18.7403C14.8813 18.7211 15.0162 18.6648 15.1301 18.5771C15.244 18.4893 15.3328 18.3732 15.3876 18.2403C15.4424 18.1074 15.4613 17.9624 15.4424 17.8199C15.4236 17.6774 15.3675 17.5423 15.28 17.4283L13.8926 15.6029L15.5965 13.8957L17.4317 15.2799C17.5456 15.3674 17.6805 15.4234 17.8229 15.4424C17.9653 15.4614 18.1102 15.4426 18.2431 15.3879C18.3759 15.3333 18.4921 15.2447 18.58 15.1311C18.6678 15.0174 18.7243 14.8827 18.7437 14.7403L19.0569 12.464H21.4661L21.7941 14.7452C21.8135 14.8876 21.8699 15.0223 21.9578 15.136C22.0456 15.2496 22.1618 15.3382 22.2947 15.3929C22.4275 15.4475 22.5724 15.4663 22.7148 15.4473C22.8572 15.4283 22.9921 15.3723 23.1061 15.2848L24.9429 13.9006L26.6468 15.6079L25.2561 17.443C25.1686 17.557 25.1126 17.6919 25.0936 17.8343C25.0746 17.9767 25.0934 18.1216 25.148 18.2544C25.2027 18.3873 25.2913 18.5035 25.4049 18.5913C25.5186 18.6792 25.6533 18.7356 25.7957 18.755L28.0704 19.083V21.484L25.7957 21.812C25.6533 21.8314 25.5186 21.8878 25.4049 21.9757C25.2913 22.0636 25.2027 22.1797 25.148 22.3126C25.0934 22.4455 25.0746 22.5903 25.0936 22.7327C25.1126 22.8751 25.1686 23.0101 25.2561 23.124L26.6386 24.9641L24.9281 26.6582L23.0913 25.2724Z" fill="#F2FAFB"/>
<path d="M41.0261 35.8078C39.3347 35.805 37.6724 36.247 36.2057 37.0895C34.7391 37.9321 33.5199 39.1455 32.6703 40.608C32.5953 40.7346 32.5557 40.8791 32.5557 41.0262C32.5557 41.1734 32.5953 41.3178 32.6703 41.4444C33.5228 42.9038 34.7427 44.1145 36.2086 44.9559C37.6745 45.7972 39.3351 46.2399 41.0253 46.2399C42.7155 46.2399 44.3761 45.7972 45.842 44.9559C47.3079 44.1145 48.5278 42.9038 49.3803 41.4444C49.4553 41.3178 49.4949 41.1734 49.4949 41.0262C49.4949 40.8791 49.4553 40.7346 49.3803 40.608C48.5308 39.1457 47.3119 37.9325 45.8456 37.09C44.3793 36.2474 42.7172 35.8052 41.0261 35.8078Z" fill="#52B6DF"/>
<path d="M41.0263 44.503C40.3383 44.503 39.6657 44.299 39.0936 43.9167C38.5215 43.5344 38.0757 42.991 37.8125 42.3553C37.5493 41.7196 37.4805 41.0202 37.6148 40.3454C37.7492 39.6706 38.0806 39.0508 38.5672 38.5644C39.0539 38.078 39.6738 37.7468 40.3487 37.6128C41.0235 37.4788 41.723 37.5479 42.3586 37.8114C42.9941 38.0749 43.5373 38.521 43.9193 39.0933C44.3013 39.6655 44.5051 40.3382 44.5047 41.0262C44.5034 41.9482 44.1365 42.832 43.4844 43.4838C42.8323 44.1356 41.9483 44.5022 41.0263 44.503Z" fill="#F2FAFB"/>
<path d="M34.345 41.0263C34.8868 40.2205 35.5676 39.5174 36.3556 38.95C36.06 39.602 35.9071 40.3096 35.9071 41.0254C35.9071 41.7413 36.06 42.4489 36.3556 43.1009C35.5677 42.534 34.8869 41.8315 34.345 41.0263Z" fill="white"/>
<path d="M45.6953 43.1009C45.9915 42.449 46.1447 41.7414 46.1447 41.0254C46.1447 40.3095 45.9915 39.6018 45.6953 38.95C46.4833 39.5174 47.1641 40.2205 47.706 41.0263C47.1636 41.8312 46.4829 42.5336 45.6953 43.1009Z" fill="white"/>
<path d="M20.2606 24.3901C22.5322 24.3901 24.3737 22.5486 24.3737 20.2769C24.3737 18.0053 22.5322 16.1638 20.2606 16.1638C17.989 16.1638 16.1475 18.0053 16.1475 20.2769C16.1475 22.5486 17.989 24.3901 20.2606 24.3901Z" fill="#52B6DF"/>
<path d="M20.2605 22.7501C21.6263 22.7501 22.7336 21.6428 22.7336 20.277C22.7336 18.9111 21.6263 17.8038 20.2605 17.8038C18.8946 17.8038 17.7874 18.9111 17.7874 20.277C17.7874 21.6428 18.8946 22.7501 20.2605 22.7501Z" fill="white"/>
</svg>
