<svg width="75" height="76" viewBox="0 0 75 76" fill="none" xmlns="http://www.w3.org/2000/svg">
<g clip-path="url(#clip0_293_733)">
<path d="M38.8767 39.3953H36.1229V36.6047H38.8767V39.3953Z" fill="#C2E95D"/>
<path d="M63.4988 39.3953H60.745V36.6047H63.4988V39.3953Z" fill="#C2E95D"/>
<path d="M63.4988 14.4449H60.745V11.6544H63.4988V14.4449Z" fill="#C2E95D"/>
<path d="M38.8767 14.4449H36.1229V11.6544H38.8767V14.4449Z" fill="#C2E95D"/>
<path d="M14.2548 14.4449H11.501V11.6544H14.2548V14.4449Z" fill="#C2E95D"/>
<path d="M14.2548 39.3953H11.501V36.6047H14.2548V39.3953Z" fill="#C2E95D"/>
<path d="M63.4988 64.3456H60.745V61.5551H63.4988V64.3456Z" fill="#C2E95D"/>
<path d="M38.8767 64.3456H36.1229V61.5551H38.8767V64.3456Z" fill="#C2E95D"/>
<path d="M14.2548 64.3456H11.501V61.5551H14.2548V64.3456Z" fill="#C2E95D"/>
<path d="M73.785 70.7474C74.4556 70.7474 75 70.1958 75 69.5162C75 68.8367 74.4556 68.2851 73.785 68.2851H68.6015C67.9309 68.2851 67.3866 68.8367 67.3866 69.5162V74.7689C67.3866 75.4484 67.9309 76 68.6015 76C69.2721 76 69.8165 75.4484 69.8165 74.7689V70.7472L73.785 70.7474Z" fill="#8CB4FF"/>
<path d="M73.7851 7.71484C74.4557 7.71484 75 7.16325 75 6.48371C75 5.80417 74.4557 5.25258 73.7851 5.25258H69.8163V1.23093C69.8163 0.551394 69.272 -0.000201225 68.6014 -0.000201225C67.9308 -0.000201225 67.3865 0.551394 67.3865 1.23093V6.48356C67.3865 7.1631 67.9308 7.71469 68.6014 7.71469H73.7851V7.71484Z" fill="#8CB4FF"/>
<path d="M65.9288 15.676V10.4234C65.9288 9.74385 65.3844 9.19226 64.7138 9.19226H59.5303C58.8597 9.19226 58.3154 9.74385 58.3154 10.4234V11.8236C58.2878 11.8204 58.2619 11.8187 58.2344 11.8187H55.6427C54.9721 11.8187 54.4277 12.3703 54.4277 13.0499C54.4277 13.7294 54.9721 14.281 55.6427 14.281H58.2344C58.262 14.281 58.288 14.2794 58.3154 14.2761V15.6763C58.3154 16.3559 58.8597 16.9075 59.5303 16.9075H60.9121C60.9089 16.9354 60.9073 16.9617 60.9073 16.9895V19.6158C60.9073 20.2953 61.4516 20.8469 62.1222 20.8469C62.7928 20.8469 63.3371 20.2953 63.3371 19.6158V16.9895C63.3371 16.9615 63.3355 16.9352 63.3323 16.9075H64.7141C65.3844 16.9072 65.9288 16.3557 65.9288 15.676ZM63.4989 11.6545V14.445H60.7451V11.6545H63.4989Z" fill="#8CB4FF"/>
<path d="M65.9287 40.6263V35.3737C65.9287 34.6941 65.3844 34.1426 64.7138 34.1426H63.3369V32.7474C63.3369 32.0678 62.7926 31.5162 62.122 31.5162C61.4514 31.5162 60.9071 32.0678 60.9071 32.7474V34.1426H59.5302C58.8596 34.1426 58.3153 34.6941 58.3153 35.3737V40.6263C58.3153 41.3059 58.8596 41.8574 59.5302 41.8574H60.9071V43.2526C60.9071 43.9322 61.4514 44.4838 62.122 44.4838C62.7926 44.4838 63.3369 43.9322 63.3369 43.2526V41.8574H64.7138C65.3844 41.8574 65.9287 41.306 65.9287 40.6263ZM63.4988 36.6048V39.3953H60.745V36.6048H63.4988Z" fill="#8CB4FF"/>
<path d="M65.9287 65.5766V60.3239C65.9287 59.6444 65.3843 59.0928 64.7138 59.0928H63.3319C63.3352 59.0649 63.3368 59.0386 63.3368 59.0108V56.3844C63.3368 55.7049 62.7924 55.1533 62.1218 55.1533C61.4512 55.1533 60.9069 55.7049 60.9069 56.3844V59.0108C60.9069 59.0387 60.9085 59.065 60.9118 59.0928H59.5299C58.8593 59.0928 58.315 59.6444 58.315 60.3239V61.7242C58.2874 61.7209 58.2615 61.7193 58.2341 61.7193H55.6423C54.9717 61.7193 54.4274 62.2708 54.4274 62.9504C54.4274 63.6299 54.9717 64.1815 55.6423 64.1815H58.2341C58.2616 64.1815 58.2876 64.1799 58.315 64.1766V65.5769C58.315 66.2564 58.8593 66.808 59.5299 66.808H64.7135C65.3843 66.8077 65.9287 66.2562 65.9287 65.5766ZM63.4988 61.5551V64.3456H60.745V61.5551H63.4988Z" fill="#8CB4FF"/>
<path d="M63.337 27.4946V24.8683C63.337 24.1887 62.7926 23.6371 62.122 23.6371C61.4514 23.6371 60.9071 24.1887 60.9071 24.8683V27.4946C60.9071 28.1741 61.4514 28.7257 62.122 28.7257C62.7926 28.7257 63.337 28.1743 63.337 27.4946Z" fill="#8CB4FF"/>
<path d="M63.337 51.1318V48.5055C63.337 47.8259 62.7926 47.2743 62.122 47.2743C61.4514 47.2743 60.9071 47.8259 60.9071 48.5055V51.1318C60.9071 51.8113 61.4514 52.3629 62.122 52.3629C62.7926 52.3629 63.337 51.8113 63.337 51.1318Z" fill="#8CB4FF"/>
<path d="M50.4589 64.1814C51.1295 64.1814 51.6738 63.6298 51.6738 62.9503C51.6738 62.2707 51.1295 61.7191 50.4589 61.7191H47.8672C47.1966 61.7191 46.6522 62.2707 46.6522 62.9503C46.6522 63.6298 47.1966 64.1814 47.8672 64.1814H50.4589Z" fill="#8CB4FF"/>
<path d="M50.4589 14.2809C51.1295 14.2809 51.6738 13.7293 51.6738 13.0498C51.6738 12.3702 51.1295 11.8186 50.4589 11.8186H47.8672C47.1966 11.8186 46.6522 12.3702 46.6522 13.0498C46.6522 13.7293 47.1966 14.2809 47.8672 14.2809H50.4589Z" fill="#8CB4FF"/>
<path d="M42.6835 64.1814C43.3541 64.1814 43.8985 63.6298 43.8985 62.9503C43.8985 62.2708 43.3541 61.7192 42.6835 61.7192H41.3067V60.324C41.3067 59.6444 40.7624 59.0928 40.0918 59.0928H34.9083C34.2377 59.0928 33.6933 59.6444 33.6933 60.324V61.7192H32.3165C31.6459 61.7192 31.1016 62.2708 31.1016 62.9503C31.1016 63.6298 31.6459 64.1814 32.3165 64.1814H33.6933V65.5766C33.6933 66.2561 34.2377 66.8077 34.9083 66.8077H40.0918C40.7624 66.8077 41.3067 66.2561 41.3067 65.5766V64.1814H42.6835ZM38.8768 61.5551V64.3456H36.123V61.5551H38.8768Z" fill="#8CB4FF"/>
<path d="M42.6835 14.2808C43.3541 14.2808 43.8985 13.7292 43.8985 13.0497C43.8985 12.3701 43.3541 11.8185 42.6835 11.8185H41.3067V10.4233C41.3067 9.7438 40.7624 9.19221 40.0918 9.19221H34.9083C34.2377 9.19221 33.6933 9.7438 33.6933 10.4233V11.8185H32.3165C31.6459 11.8185 31.1016 12.3701 31.1016 13.0497C31.1016 13.7292 31.6459 14.2808 32.3165 14.2808H33.6933V15.676C33.6933 16.3555 34.2377 16.9071 34.9083 16.9071H40.0918C40.7624 16.9071 41.3067 16.3555 41.3067 15.676V14.2808H42.6835ZM38.8768 11.6545V14.445H36.123V11.6545H38.8768Z" fill="#8CB4FF"/>
<path d="M41.3067 40.6263V35.3737C41.3067 34.6941 40.7624 34.1425 40.0918 34.1425H34.9083C34.2377 34.1425 33.6934 34.6941 33.6934 35.3737V40.6263C33.6934 41.3058 34.2377 41.8574 34.9083 41.8574H40.0918C40.7624 41.8574 41.3067 41.306 41.3067 40.6263ZM38.8769 36.6048V39.3953H36.1231V36.6048H38.8769Z" fill="#8CB4FF"/>
<path d="M27.1329 64.1814C27.8035 64.1814 28.3478 63.6298 28.3478 62.9503C28.3478 62.2707 27.8035 61.7191 27.1329 61.7191H24.5411C23.8705 61.7191 23.3262 62.2707 23.3262 62.9503C23.3262 63.6298 23.8705 64.1814 24.5411 64.1814H27.1329Z" fill="#8CB4FF"/>
<path d="M27.1329 14.2809C27.8035 14.2809 28.3478 13.7293 28.3478 13.0498C28.3478 12.3702 27.8035 11.8186 27.1329 11.8186H24.5411C23.8705 11.8186 23.3262 12.3702 23.3262 13.0498C23.3262 13.7293 23.8705 14.2809 24.5411 14.2809H27.1329Z" fill="#8CB4FF"/>
<path d="M19.3574 64.1814C20.028 64.1814 20.5724 63.6298 20.5724 62.9503C20.5724 62.2708 20.028 61.7192 19.3574 61.7192H16.7657C16.7381 61.7192 16.7121 61.7208 16.6847 61.7241V60.3238C16.6847 59.6443 16.1404 59.0927 15.4698 59.0927H14.088C14.0912 59.0648 14.0928 59.0385 14.0928 59.0107V56.3844C14.0928 55.7048 13.5485 55.1532 12.8779 55.1532C12.2073 55.1532 11.663 55.7048 11.663 56.3844V59.0108C11.663 59.0388 11.6646 59.0651 11.6678 59.0928H10.286C9.61538 59.0928 9.07104 59.6444 9.07104 60.324V65.5766C9.07104 66.2561 9.61538 66.8077 10.286 66.8077H15.4695C16.1401 66.8077 16.6844 66.2561 16.6844 65.5766V64.1764C16.712 64.1796 16.738 64.1813 16.7654 64.1813H19.3574V64.1814ZM14.2549 61.5551V64.3456H11.5011V61.5551H14.2549Z" fill="#8CB4FF"/>
<path d="M19.3574 14.2808C20.028 14.2808 20.5723 13.7292 20.5723 13.0497C20.5723 12.3701 20.028 11.8185 19.3574 11.8185H16.7656C16.7381 11.8185 16.7121 11.8202 16.6847 11.8234V10.4232C16.6847 9.74366 16.1403 9.19207 15.4697 9.19207H10.2862C9.61563 9.19207 9.07129 9.74366 9.07129 10.4232V15.6758C9.07129 16.3554 9.61563 16.907 10.2862 16.907H11.668C11.6648 16.9349 11.6632 16.9612 11.6632 16.989V19.6153C11.6632 20.2948 12.2075 20.8464 12.8781 20.8464C13.5487 20.8464 14.0931 20.2948 14.0931 19.6153V16.989C14.0931 16.9611 14.0914 16.9348 14.0882 16.907H15.47C16.1406 16.907 16.685 16.3554 16.685 15.6758V14.2756C16.7125 14.2789 16.7385 14.2805 16.7659 14.2805H19.3574V14.2808ZM14.2548 11.6545V14.445H11.501V11.6545H14.2548Z" fill="#8CB4FF"/>
<path d="M16.6847 40.6263V35.3737C16.6847 34.6941 16.1403 34.1426 15.4697 34.1426H14.0929V32.7474C14.0929 32.0678 13.5486 31.5162 12.878 31.5162C12.2074 31.5162 11.663 32.0678 11.663 32.7474V34.1426H10.2862C9.61563 34.1426 9.07129 34.6941 9.07129 35.3737V40.6263C9.07129 41.3059 9.61563 41.8574 10.2862 41.8574H11.663V43.2526C11.663 43.9322 12.2074 44.4838 12.878 44.4838C13.5486 44.4838 14.0929 43.9322 14.0929 43.2526V41.8574H15.4697C16.1403 41.8574 16.6847 41.306 16.6847 40.6263ZM14.2548 36.6048V39.3953H11.501V36.6048H14.2548Z" fill="#8CB4FF"/>
<path d="M14.093 27.4946V24.8683C14.093 24.1887 13.5486 23.6371 12.878 23.6371C12.2074 23.6371 11.6631 24.1887 11.6631 24.8683V27.4946C11.6631 28.1741 12.2074 28.7257 12.878 28.7257C13.5486 28.7257 14.093 28.1743 14.093 27.4946Z" fill="#8CB4FF"/>
<path d="M14.093 51.1318V48.5055C14.093 47.8259 13.5486 47.2743 12.878 47.2743C12.2074 47.2743 11.6631 47.8259 11.6631 48.5055V51.1318C11.6631 51.8113 12.2074 52.3629 12.878 52.3629C13.5486 52.3629 14.093 51.8113 14.093 51.1318Z" fill="#8CB4FF"/>
<path d="M7.61338 6.48393V1.2313C7.61338 0.551764 7.06905 0.000169277 6.39845 0.000169277C5.72786 0.000169277 5.18352 0.551764 5.18352 1.2313V5.25295H1.21493C0.544337 5.25295 0 5.80454 0 6.48408C0 7.16362 0.544337 7.71521 1.21493 7.71521H6.39845C7.06905 7.71491 7.61338 7.16347 7.61338 6.48393Z" fill="#8CB4FF"/>
<path d="M7.61338 74.7689V69.5162C7.61338 68.8367 7.06905 68.2851 6.39845 68.2851H1.21493C0.544337 68.2851 0 68.8367 0 69.5162C0 70.1958 0.544337 70.7474 1.21493 70.7474H5.18366V74.7689C5.18352 75.4484 5.72786 76 6.39845 76C7.06905 76 7.61338 75.4484 7.61338 74.7689Z" fill="#8CB4FF"/>
</g>
<defs>
<clipPath id="clip0_293_733">
<rect width="75" height="76" fill="white" transform="matrix(1 0 0 -1 0 76)"/>
</clipPath>
</defs>
</svg>
