<svg width="72" height="61" viewBox="0 0 72 61" fill="none" xmlns="http://www.w3.org/2000/svg">
<g clip-path="url(#clip0_298_1109)">
<path d="M27.1875 4.8938C27.1875 2.3063 29.2875 0.206299 31.875 0.206299H38.4375C39.1834 0.206299 39.8988 0.502615 40.4263 1.03006C40.9537 1.55751 41.25 2.27288 41.25 3.0188C41.25 3.76472 40.9537 4.48009 40.4263 5.00754C39.8988 5.53498 39.1834 5.8313 38.4375 5.8313H32.8125V9.7913C37.0618 10.437 40.9605 12.5225 43.8562 15.6987C46.7519 18.8749 48.4689 22.9493 48.72 27.24C48.7412 27.6089 48.6895 27.9783 48.5679 28.3272C48.4463 28.6761 48.2572 28.9976 48.0114 29.2734C47.7655 29.5492 47.4678 29.7738 47.1351 29.9345C46.8024 30.0953 46.4414 30.1889 46.0725 30.2101C45.7037 30.2312 45.3343 30.1795 44.9854 30.058C44.6365 29.9364 44.315 29.7472 44.0392 29.5014C43.7634 29.2556 43.5387 28.9578 43.378 28.6251C43.2173 28.2925 43.1237 27.9314 43.1025 27.5625C42.9066 24.2203 41.4408 21.0793 39.0051 18.7822C36.5694 16.4852 33.348 15.2057 30 15.2057C26.652 15.2057 23.4306 16.4852 20.9949 18.7822C18.5593 21.0793 17.0935 24.2203 16.8975 27.5625C16.8548 28.3075 16.5178 29.0049 15.9608 29.5014C15.4039 29.9979 14.6724 30.2528 13.9275 30.2101C13.1826 30.1673 12.4852 29.8303 11.9887 29.2734C11.4922 28.7164 11.2373 27.985 11.28 27.24C11.5311 22.9493 13.2482 18.8749 16.1439 15.6987C19.0396 12.5225 22.9382 10.437 27.1875 9.7913V4.8938Z" fill="#FF7F7F"/>
<path fill-rule="evenodd" clip-rule="evenodd" d="M3.75 36.7688C3.75 36.0229 4.04632 35.3075 4.57376 34.7801C5.10121 34.2526 5.81658 33.9563 6.5625 33.9563H53.4375C54.1834 33.9563 54.8988 34.2526 55.4262 34.7801C55.9537 35.3075 56.25 36.0229 56.25 36.7688C56.25 37.5147 55.9537 38.2301 55.4262 38.7575C54.8988 39.285 54.1834 39.5813 53.4375 39.5813H48.75V54.5813H57.1875C57.9334 54.5813 58.6488 54.8776 59.1762 55.4051C59.7037 55.9325 60 56.6479 60 57.3938C60 58.1397 59.7037 58.8551 59.1762 59.3825C58.6488 59.91 57.9334 60.2063 57.1875 60.2063H2.8125C2.06658 60.2063 1.35121 59.91 0.823762 59.3825C0.296316 58.8551 0 58.1397 0 57.3938C0 56.6479 0.296316 55.9325 0.823762 55.4051C1.35121 54.8776 2.06658 54.5813 2.8125 54.5813H11.25V39.5813H6.5625C5.81658 39.5813 5.10121 39.285 4.57376 38.7575C4.04632 38.2301 3.75 37.5147 3.75 36.7688ZM16.875 54.5813H27.1875V39.5813H16.875V54.5813ZM32.8125 54.5813H43.125V39.5813H32.8125V54.5813Z" fill="#FF7F7F"/>
</g>
<g clip-path="url(#clip1_298_1109)">
<path d="M70.7171 2.23326C70.9139 2.23326 71.0735 2.07371 71.0735 1.87688V0.356383C71.0735 0.159543 70.9139 0 70.7171 0H69.1966C68.9998 0 68.8402 0.159543 68.8402 0.356383V0.760289H61.1901V0.356383C61.1901 0.159586 61.0306 0 60.8337 0H59.3132C59.1164 0 58.9568 0.159543 58.9568 0.356383V0.760289H51.3067V0.356383C51.3067 0.159543 51.1472 0 50.9504 0H49.4299C49.233 0 49.0735 0.159543 49.0735 0.356383V1.87688C49.0735 2.07367 49.233 2.23326 49.4299 2.23326H49.8338V9.88337H49.4299C49.2331 9.88337 49.0735 10.0429 49.0735 10.2398V11.7603C49.0735 11.9571 49.233 12.1167 49.4299 12.1167H49.8338V19.7668H49.4299C49.2331 19.7668 49.0735 19.9263 49.0735 20.1232V21.6437C49.0735 21.8405 49.233 22 49.4299 22H50.9504C51.1472 22 51.3067 21.8405 51.3067 21.6436V21.2397H58.9569V21.6436C58.9569 21.8404 59.1164 22 59.3132 22H60.8338C61.0306 22 61.1902 21.8405 61.1902 21.6436V21.2397H68.8403V21.6436C68.8403 21.8404 68.9998 22 69.1967 22H70.7172C70.914 22 71.0736 21.8405 71.0736 21.6436V20.1231C71.0736 19.9263 70.914 19.7667 70.7172 19.7667H70.3133V12.1166H70.7172C70.914 12.1166 71.0736 11.9571 71.0736 11.7602V10.2397C71.0736 10.0429 70.914 9.88333 70.7172 9.88333H70.3133V2.23326H70.7171ZM59.6696 0.712723H60.4774V1.52049H59.6696V0.712723ZM49.7862 1.52054V0.712723H50.594V1.52049L49.7862 1.52054ZM49.7862 11.4039V10.5961H50.594V11.4039H49.7862ZM50.594 21.2873H49.7862V20.4795H50.594L50.594 21.2873ZM60.4774 21.2873H59.6696V20.4795H60.4774V21.2873ZM68.8402 20.1231V20.527H61.1901V20.1231C61.1901 19.9263 61.0306 19.7667 60.8337 19.7667H59.3132C59.1164 19.7667 58.9568 19.9263 58.9568 20.1231V20.527H51.3067V20.1231C51.3067 19.9263 51.1472 19.7667 50.9504 19.7667H50.5465V12.1166H50.9504C51.1472 12.1166 51.3067 11.9571 51.3067 11.7602V10.2397C51.3067 10.0429 51.1472 9.88333 50.9504 9.88333H50.5465V2.23326H50.9504C51.1472 2.23326 51.3067 2.07371 51.3067 1.87688V1.47297H58.9569V1.87688C58.9569 2.07367 59.1164 2.23326 59.3132 2.23326H60.8338C61.0306 2.23326 61.1902 2.07371 61.1902 1.87688V1.47297H68.8403V1.87688C68.8403 2.07367 68.9998 2.23326 69.1967 2.23326H69.6006V9.88337H69.1967C68.9999 9.88337 68.8403 10.0429 68.8403 10.2398V11.7603C68.8403 11.9571 68.9998 12.1167 69.1967 12.1167H69.6006V19.7668H69.1967C68.9998 19.7667 68.8402 19.9263 68.8402 20.1231ZM70.3608 20.4795V21.2872H69.553V20.4795H70.3608ZM70.3608 10.5961V11.4039H69.553V10.5961H70.3608ZM69.553 1.52054V0.712723H70.3607V1.52049L69.553 1.52054Z" fill="#FF7F7F"/>
<path d="M60.8337 9.88336H59.3132C59.1164 9.88336 58.9568 10.0429 58.9568 10.2397V11.7603C58.9568 11.9571 59.1163 12.1167 59.3132 12.1167H60.8337C61.0305 12.1167 61.1901 11.9571 61.1901 11.7603V10.2397C61.1901 10.0429 61.0305 9.88336 60.8337 9.88336ZM60.4774 11.4039H59.6696V10.5961H60.4774V11.4039Z" fill="#FF7F7F"/>
</g>
<defs>
<clipPath id="clip0_298_1109">
<rect width="60" height="60" fill="white" transform="translate(0 0.206299)"/>
</clipPath>
<clipPath id="clip1_298_1109">
<rect width="22" height="22" fill="white" transform="translate(49.0735)"/>
</clipPath>
</defs>
</svg>
