<svg width="96" height="87" viewBox="0 0 96 87" fill="none" xmlns="http://www.w3.org/2000/svg">
<g clip-path="url(#clip0_306_672)">
<path d="M18.75 59.25C20.7391 59.25 22.6468 58.4598 24.0533 57.0533C25.4598 55.6468 26.25 53.7391 26.25 51.75C26.25 49.7609 25.4598 47.8532 24.0533 46.4467C22.6468 45.0402 20.7391 44.25 18.75 44.25C16.7609 44.25 14.8532 45.0402 13.4467 46.4467C12.0402 47.8532 11.25 49.7609 11.25 51.75C11.25 53.7391 12.0402 55.6468 13.4467 57.0533C14.8532 58.4598 16.7609 59.25 18.75 59.25ZM18.75 48C19.7446 48 20.6984 48.3951 21.4017 49.0984C22.1049 49.8016 22.5 50.7554 22.5 51.75C22.5 52.7446 22.1049 53.6984 21.4017 54.4016C20.6984 55.1049 19.7446 55.5 18.75 55.5C17.7554 55.5 16.8016 55.1049 16.0983 54.4016C15.3951 53.6984 15 52.7446 15 51.75C15 50.7554 15.3951 49.8016 16.0983 49.0984C16.8016 48.3951 17.7554 48 18.75 48ZM28.125 63H9.375C8.14386 63 6.92477 63.2425 5.78734 63.7136C4.64991 64.1848 3.61642 64.8753 2.74587 65.7459C1.87532 66.6164 1.18477 67.6499 0.713632 68.7873C0.242494 69.9248 0 71.1439 0 72.375C0 73.8668 0.592635 75.2976 1.64753 76.3525C2.70242 77.4074 4.13316 78 5.625 78H31.875C33.3668 78 34.7976 77.4074 35.8525 76.3525C36.9074 75.2976 37.5 73.8668 37.5 72.375C37.5 69.8886 36.5123 67.504 34.7541 65.7459C32.996 63.9877 30.6114 63 28.125 63ZM31.875 74.25H5.625C5.12772 74.25 4.6508 74.0525 4.29917 73.7008C3.94754 73.3492 3.75 72.8723 3.75 72.375C3.75 70.8832 4.34264 69.4524 5.39753 68.3975C6.45242 67.3426 7.88316 66.75 9.375 66.75H28.125C29.6168 66.75 31.0476 67.3426 32.1025 68.3975C33.1574 69.4524 33.75 70.8832 33.75 72.375C33.75 72.8723 33.5525 73.3492 33.2008 73.7008C32.8492 74.0525 32.3723 74.25 31.875 74.25ZM60 27.375V46.125C60 48.6114 59.0123 50.996 57.2541 52.7541C55.496 54.5123 53.1114 55.5 50.625 55.5H40.1512L33.2025 62.4525C33.0281 62.6265 32.821 62.7644 32.5932 62.8584C32.3655 62.9523 32.1214 63.0004 31.875 63C31.6291 63.001 31.3855 62.9525 31.1588 62.8575C30.8159 62.7158 30.5227 62.4755 30.3165 62.1671C30.1102 61.8587 30.0001 61.496 30 61.125V53.625C30 53.1277 30.1975 52.6508 30.5492 52.2992C30.9008 51.9475 31.3777 51.75 31.875 51.75C32.3723 51.75 32.8492 51.9475 33.2008 52.2992C33.5525 52.6508 33.75 53.1277 33.75 53.625V56.5988L38.0475 52.2975C38.2219 52.1235 38.429 51.9856 38.6568 51.8916C38.8845 51.7977 39.1286 51.7496 39.375 51.75H50.625C52.1168 51.75 53.5476 51.1574 54.6025 50.1025C55.6574 49.0476 56.25 47.6168 56.25 46.125V27.375C56.25 25.8832 55.6574 24.4524 54.6025 23.3975C53.5476 22.3426 52.1168 21.75 50.625 21.75H24.375C22.8832 21.75 21.4524 22.3426 20.3975 23.3975C19.3426 24.4524 18.75 25.8832 18.75 27.375V38.625C18.75 39.1223 18.5525 39.5992 18.2008 39.9508C17.8492 40.3025 17.3723 40.5 16.875 40.5C16.3777 40.5 15.9008 40.3025 15.5492 39.9508C15.1975 39.5992 15 39.1223 15 38.625V27.375C15 24.8886 15.9877 22.504 17.7459 20.7459C19.504 18.9877 21.8886 18 24.375 18H50.625C53.1114 18 55.496 18.9877 57.2541 20.7459C59.0123 22.504 60 24.8886 60 27.375ZM34.2975 43.7025L26.7975 36.2025C26.6229 36.0283 26.4844 35.8214 26.3898 35.5936C26.2953 35.3658 26.2466 35.1216 26.2466 34.875C26.2466 34.6284 26.2953 34.3842 26.3898 34.1564C26.4844 33.9286 26.6229 33.7217 26.7975 33.5475C26.9717 33.3729 27.1786 33.2344 27.4064 33.1398C27.6342 33.0453 27.8784 32.9966 28.125 32.9966C28.3716 32.9966 28.6158 33.0453 28.8436 33.1398C29.0714 33.2344 29.2783 33.3729 29.4525 33.5475L35.625 39.7238L45.5475 29.7975C45.7217 29.6229 45.9286 29.4844 46.1564 29.3898C46.3842 29.2953 46.6284 29.2466 46.875 29.2466C47.1216 29.2466 47.3658 29.2953 47.5936 29.3898C47.8214 29.4844 48.0283 29.6229 48.2025 29.7975C48.3771 29.9717 48.5156 30.1786 48.6102 30.4064C48.7047 30.6342 48.7533 30.8784 48.7533 31.125C48.7533 31.3716 48.7047 31.6158 48.6102 31.8436C48.5156 32.0714 48.3771 32.2783 48.2025 32.4525L36.9525 43.7025C36.7781 43.8765 36.571 44.0144 36.3432 44.1084C36.1155 44.2023 35.8714 44.2504 35.625 44.25C35.3786 44.2504 35.1345 44.2023 34.9068 44.1084C34.679 44.0144 34.4719 43.8765 34.2975 43.7025Z" fill="#E6E27C"/>
</g>
<g clip-path="url(#clip1_306_672)">
<path fill-rule="evenodd" clip-rule="evenodd" d="M67.0833 12.5C67.0833 6.74703 71.747 2.08333 77.4999 2.08333C83.2528 2.08333 87.9166 6.74703 87.9166 12.5C87.9166 18.2529 83.2528 22.9167 77.4999 22.9167C71.7469 22.9167 67.0833 18.2529 67.0833 12.5ZM74.3749 6.25C73.7996 6.25 73.3333 6.71638 73.3333 7.29167C73.3333 7.86696 73.7996 8.33333 74.3749 8.33333C75.4066 8.33333 76.0971 8.68264 76.5342 9.13259C76.7485 9.35326 76.9162 9.61291 77.0342 9.89583L74.3749 9.89583C73.7996 9.89583 73.3333 10.3622 73.3333 10.9375C73.3333 11.5128 73.7996 11.9792 74.3749 11.9792L77.0342 11.9792C76.928 12.2335 76.7818 12.4693 76.5976 12.6745C76.1805 13.1391 75.5172 13.5058 74.5229 13.5392C74.0449 13.5552 73.6877 13.8591 73.5337 14.2097C73.3757 14.5694 73.3946 15.0761 73.7653 15.4469L76.7634 18.4449C77.1701 18.8517 77.8297 18.8517 78.2365 18.4449C78.6433 18.0381 78.6433 17.3785 78.2365 16.9718L76.4928 15.2281C77.1486 14.9579 77.7046 14.56 78.1479 14.066C78.6922 13.4598 79.0434 12.7348 79.2097 11.9792L80.6249 11.9792C81.2002 11.9792 81.6666 11.5128 81.6666 10.9375C81.6666 10.3622 81.2002 9.89583 80.6249 9.89583L79.2097 9.89583C79.089 9.34782 78.8712 8.81566 78.5528 8.33333L80.6249 8.33333C81.2002 8.33333 81.6666 7.86696 81.6666 7.29167C81.6666 6.71638 81.2002 6.25 80.6249 6.25L74.3749 6.25Z" fill="#E6E27C"/>
</g>
<path fill-rule="evenodd" clip-rule="evenodd" d="M81.9995 37.5732C82.5599 37.2664 82.7655 36.5612 82.4588 35.9979L77.2228 26.3823C76.9161 25.819 76.2133 25.6111 75.6528 25.9179L66.0861 31.1552C65.5257 31.462 65.32 32.1672 65.6268 32.7305C65.9335 33.2938 66.6363 33.5017 67.1967 33.1949L74.3138 29.2988L70.7672 41.4623C70.4582 42.5218 69.6617 44.0394 68.3325 45.077C67.0607 46.0698 65.2342 46.6826 62.6354 45.914C62.0223 45.7326 61.3798 46.0844 61.2004 46.6996C61.021 47.3148 61.3727 47.9606 61.9858 48.1419C65.3081 49.1246 67.9041 48.3565 69.755 46.9118C71.5484 45.5117 72.5747 43.535 72.9876 42.119L76.5342 29.9556L80.4294 37.1088C80.7361 37.6721 81.4391 37.88 81.9995 37.5732Z" fill="#E6E27C"/>
<defs>
<clipPath id="clip0_306_672">
<rect width="60" height="60" fill="white" transform="translate(0 18)"/>
</clipPath>
<clipPath id="clip1_306_672">
<rect width="25" height="25" fill="white" transform="translate(65)"/>
</clipPath>
</defs>
</svg>
