<svg width="75" height="76" viewBox="0 0 75 76" fill="none" xmlns="http://www.w3.org/2000/svg">
<g clip-path="url(#clip0_306_695)">
<path d="M38.8768 39.3953H36.123V36.6048H38.8768V39.3953Z" fill="white"/>
<path d="M63.4987 39.3953H60.7449V36.6048H63.4987V39.3953Z" fill="white"/>
<path d="M63.4987 14.4451H60.7449V11.6546H63.4987V14.4451Z" fill="white"/>
<path d="M38.8768 14.4451H36.123V11.6546H38.8768V14.4451Z" fill="white"/>
<path d="M14.2548 14.4451H11.501V11.6546H14.2548V14.4451Z" fill="white"/>
<path d="M14.2548 39.3953H11.501V36.6048H14.2548V39.3953Z" fill="white"/>
<path d="M63.4987 64.3456H60.7449V61.5551H63.4987V64.3456Z" fill="white"/>
<path d="M38.8768 64.3456H36.123V61.5551H38.8768V64.3456Z" fill="white"/>
<path d="M14.2548 64.3456H11.501V61.5551H14.2548V64.3456Z" fill="white"/>
<path d="M73.7852 70.7474C74.4558 70.7474 75.0001 70.1958 75.0001 69.5162C75.0001 68.8367 74.4558 68.2851 73.7852 68.2851H68.6017C67.9311 68.2851 67.3867 68.8367 67.3867 69.5162V74.7689C67.3867 75.4484 67.9311 76 68.6017 76C69.2722 76 69.8166 75.4484 69.8166 74.7689V70.7472L73.7852 70.7474Z" fill="#FFC16A"/>
<path d="M73.7851 7.7149C74.4557 7.7149 75 7.16331 75 6.48377C75 5.80423 74.4557 5.25264 73.7851 5.25264H69.8163V1.23099C69.8163 0.551455 69.272 -0.00014019 68.6014 -0.00014019C67.9308 -0.00014019 67.3865 0.551455 67.3865 1.23099V6.48362C67.3865 7.16316 67.9308 7.71476 68.6014 7.71476H73.7851V7.7149Z" fill="#FFC16A"/>
<path d="M65.9288 15.676V10.4234C65.9288 9.74385 65.3844 9.19226 64.7138 9.19226H59.5303C58.8597 9.19226 58.3154 9.74385 58.3154 10.4234V11.8236C58.2878 11.8204 58.2619 11.8187 58.2344 11.8187H55.6427C54.9721 11.8187 54.4277 12.3703 54.4277 13.0499C54.4277 13.7294 54.9721 14.281 55.6427 14.281H58.2344C58.262 14.281 58.288 14.2794 58.3154 14.2761V15.6763C58.3154 16.3559 58.8597 16.9075 59.5303 16.9075H60.9121C60.9089 16.9354 60.9073 16.9617 60.9073 16.9895V19.6158C60.9073 20.2953 61.4516 20.8469 62.1222 20.8469C62.7928 20.8469 63.3371 20.2953 63.3371 19.6158V16.9895C63.3371 16.9615 63.3355 16.9352 63.3323 16.9075H64.7141C65.3844 16.9072 65.9288 16.3557 65.9288 15.676ZM63.4989 11.6545V14.445H60.7451V11.6545H63.4989Z" fill="#FFC16A"/>
<path d="M65.9288 40.6263V35.3737C65.9288 34.6941 65.3845 34.1426 64.7139 34.1426H63.3371V32.7474C63.3371 32.0678 62.7927 31.5162 62.1221 31.5162C61.4515 31.5162 60.9072 32.0678 60.9072 32.7474V34.1426H59.5304C58.8598 34.1426 58.3154 34.6941 58.3154 35.3737V40.6263C58.3154 41.3059 58.8598 41.8574 59.5304 41.8574H60.9072V43.2526C60.9072 43.9322 61.4515 44.4838 62.1221 44.4838C62.7927 44.4838 63.3371 43.9322 63.3371 43.2526V41.8574H64.7139C65.3845 41.8574 65.9288 41.306 65.9288 40.6263ZM63.4989 36.6048V39.3953H60.7451V36.6048H63.4989Z" fill="#FFC16A"/>
<path d="M65.9288 65.5766V60.324C65.9288 59.6444 65.3845 59.0929 64.7139 59.0929H63.3321C63.3353 59.0649 63.3369 59.0386 63.3369 59.0108V56.3845C63.3369 55.705 62.7926 55.1534 62.122 55.1534C61.4514 55.1534 60.907 55.705 60.907 56.3845V59.0108C60.907 59.0388 60.9086 59.0651 60.9119 59.0929H59.5301C58.8595 59.0929 58.3151 59.6444 58.3151 60.324V61.7242C58.2876 61.721 58.2616 61.7193 58.2342 61.7193H55.6424C54.9718 61.7193 54.4275 62.2709 54.4275 62.9504C54.4275 63.63 54.9718 64.1816 55.6424 64.1816H58.2342C58.2617 64.1816 58.2877 64.1799 58.3151 64.1767V65.5769C58.3151 66.2565 58.8595 66.808 59.5301 66.808H64.7136C65.3845 66.8077 65.9288 66.2563 65.9288 65.5766ZM63.4989 61.5551V64.3456H60.7451V61.5551H63.4989Z" fill="#FFC16A"/>
<path d="M63.3368 27.4946V24.8683C63.3368 24.1887 62.7925 23.6371 62.1219 23.6371C61.4513 23.6371 60.907 24.1887 60.907 24.8683V27.4946C60.907 28.1741 61.4513 28.7257 62.1219 28.7257C62.7925 28.7257 63.3368 28.1743 63.3368 27.4946Z" fill="#FFC16A"/>
<path d="M63.3368 51.1317V48.5054C63.3368 47.8259 62.7925 47.2743 62.1219 47.2743C61.4513 47.2743 60.907 47.8259 60.907 48.5054V51.1317C60.907 51.8113 61.4513 52.3629 62.1219 52.3629C62.7925 52.3629 63.3368 51.8113 63.3368 51.1317Z" fill="#FFC16A"/>
<path d="M50.459 64.1814C51.1296 64.1814 51.674 63.6298 51.674 62.9503C51.674 62.2708 51.1296 61.7192 50.459 61.7192H47.8673C47.1967 61.7192 46.6523 62.2708 46.6523 62.9503C46.6523 63.6298 47.1967 64.1814 47.8673 64.1814H50.459Z" fill="#FFC16A"/>
<path d="M50.459 14.2808C51.1296 14.2808 51.674 13.7292 51.674 13.0497C51.674 12.3702 51.1296 11.8186 50.459 11.8186H47.8673C47.1967 11.8186 46.6523 12.3702 46.6523 13.0497C46.6523 13.7292 47.1967 14.2808 47.8673 14.2808H50.459Z" fill="#FFC16A"/>
<path d="M42.6835 64.1814C43.3541 64.1814 43.8985 63.6298 43.8985 62.9503C43.8985 62.2708 43.3541 61.7192 42.6835 61.7192H41.3067V60.324C41.3067 59.6444 40.7624 59.0928 40.0918 59.0928H34.9083C34.2377 59.0928 33.6933 59.6444 33.6933 60.324V61.7192H32.3165C31.6459 61.7192 31.1016 62.2708 31.1016 62.9503C31.1016 63.6298 31.6459 64.1814 32.3165 64.1814H33.6933V65.5766C33.6933 66.2561 34.2377 66.8077 34.9083 66.8077H40.0918C40.7624 66.8077 41.3067 66.2561 41.3067 65.5766V64.1814H42.6835ZM38.8768 61.5551V64.3456H36.123V61.5551H38.8768Z" fill="#FFC16A"/>
<path d="M42.6835 14.2809C43.3541 14.2809 43.8985 13.7293 43.8985 13.0497C43.8985 12.3702 43.3541 11.8186 42.6835 11.8186H41.3067V10.4234C41.3067 9.74387 40.7624 9.19227 40.0918 9.19227H34.9083C34.2377 9.19227 33.6933 9.74387 33.6933 10.4234V11.8186H32.3165C31.6459 11.8186 31.1016 12.3702 31.1016 13.0497C31.1016 13.7293 31.6459 14.2809 32.3165 14.2809H33.6933V15.676C33.6933 16.3556 34.2377 16.9072 34.9083 16.9072H40.0918C40.7624 16.9072 41.3067 16.3556 41.3067 15.676V14.2809H42.6835ZM38.8768 11.6545V14.4451H36.123V11.6545H38.8768Z" fill="#FFC16A"/>
<path d="M41.3067 40.6263V35.3737C41.3067 34.6941 40.7624 34.1425 40.0918 34.1425H34.9083C34.2377 34.1425 33.6934 34.6941 33.6934 35.3737V40.6263C33.6934 41.3058 34.2377 41.8574 34.9083 41.8574H40.0918C40.7624 41.8574 41.3067 41.306 41.3067 40.6263ZM38.8769 36.6048V39.3953H36.1231V36.6048H38.8769Z" fill="#FFC16A"/>
<path d="M27.1329 64.1814C27.8035 64.1814 28.3478 63.6298 28.3478 62.9503C28.3478 62.2708 27.8035 61.7192 27.1329 61.7192H24.5411C23.8705 61.7192 23.3262 62.2708 23.3262 62.9503C23.3262 63.6298 23.8705 64.1814 24.5411 64.1814H27.1329Z" fill="#FFC16A"/>
<path d="M27.1329 14.2808C27.8035 14.2808 28.3478 13.7292 28.3478 13.0497C28.3478 12.3702 27.8035 11.8186 27.1329 11.8186H24.5411C23.8705 11.8186 23.3262 12.3702 23.3262 13.0497C23.3262 13.7292 23.8705 14.2808 24.5411 14.2808H27.1329Z" fill="#FFC16A"/>
<path d="M19.3574 64.1814C20.028 64.1814 20.5724 63.6298 20.5724 62.9503C20.5724 62.2708 20.028 61.7192 19.3574 61.7192H16.7657C16.7381 61.7192 16.7121 61.7208 16.6847 61.7241V60.3238C16.6847 59.6443 16.1404 59.0927 15.4698 59.0927H14.088C14.0912 59.0648 14.0928 59.0385 14.0928 59.0107V56.3844C14.0928 55.7048 13.5485 55.1532 12.8779 55.1532C12.2073 55.1532 11.663 55.7048 11.663 56.3844V59.0108C11.663 59.0388 11.6646 59.0651 11.6678 59.0928H10.286C9.61538 59.0928 9.07104 59.6444 9.07104 60.324V65.5766C9.07104 66.2561 9.61538 66.8077 10.286 66.8077H15.4695C16.1401 66.8077 16.6844 66.2561 16.6844 65.5766V64.1764C16.712 64.1796 16.738 64.1813 16.7654 64.1813H19.3574V64.1814ZM14.2549 61.5551V64.3456H11.5011V61.5551H14.2549Z" fill="#FFC16A"/>
<path d="M19.3574 14.2809C20.028 14.2809 20.5723 13.7293 20.5723 13.0497C20.5723 12.3702 20.028 11.8186 19.3574 11.8186H16.7656C16.7381 11.8186 16.7121 11.8202 16.6847 11.8235V10.4233C16.6847 9.74372 16.1403 9.19213 15.4697 9.19213H10.2862C9.61563 9.19213 9.07129 9.74372 9.07129 10.4233V15.6759C9.07129 16.3554 9.61563 16.907 10.2862 16.907H11.668C11.6648 16.935 11.6632 16.9613 11.6632 16.9891V19.6154C11.6632 20.2949 12.2075 20.8465 12.8781 20.8465C13.5487 20.8465 14.0931 20.2949 14.0931 19.6154V16.9891C14.0931 16.9611 14.0914 16.9348 14.0882 16.907H15.47C16.1406 16.907 16.685 16.3554 16.685 15.6759V14.2757C16.7125 14.2789 16.7385 14.2806 16.7659 14.2806H19.3574V14.2809ZM14.2548 11.6545V14.4451H11.501V11.6545H14.2548Z" fill="#FFC16A"/>
<path d="M16.6847 40.6263V35.3737C16.6847 34.6941 16.1403 34.1426 15.4697 34.1426H14.0929V32.7474C14.0929 32.0678 13.5486 31.5162 12.878 31.5162C12.2074 31.5162 11.663 32.0678 11.663 32.7474V34.1426H10.2862C9.61563 34.1426 9.07129 34.6941 9.07129 35.3737V40.6263C9.07129 41.3059 9.61563 41.8574 10.2862 41.8574H11.663V43.2526C11.663 43.9322 12.2074 44.4838 12.878 44.4838C13.5486 44.4838 14.0929 43.9322 14.0929 43.2526V41.8574H15.4697C16.1403 41.8574 16.6847 41.306 16.6847 40.6263ZM14.2548 36.6048V39.3953H11.501V36.6048H14.2548Z" fill="#FFC16A"/>
<path d="M14.093 27.4946V24.8683C14.093 24.1887 13.5486 23.6371 12.878 23.6371C12.2074 23.6371 11.6631 24.1887 11.6631 24.8683V27.4946C11.6631 28.1741 12.2074 28.7257 12.878 28.7257C13.5486 28.7257 14.093 28.1743 14.093 27.4946Z" fill="#FFC16A"/>
<path d="M14.093 51.1317V48.5054C14.093 47.8259 13.5486 47.2743 12.878 47.2743C12.2074 47.2743 11.6631 47.8259 11.6631 48.5054V51.1317C11.6631 51.8113 12.2074 52.3629 12.878 52.3629C13.5486 52.3629 14.093 51.8113 14.093 51.1317Z" fill="#FFC16A"/>
<path d="M7.61338 6.48393V1.2313C7.61338 0.551764 7.06905 0.000169277 6.39845 0.000169277C5.72786 0.000169277 5.18352 0.551764 5.18352 1.2313V5.25295H1.21493C0.544337 5.25295 0 5.80454 0 6.48408C0 7.16362 0.544337 7.71521 1.21493 7.71521H6.39845C7.06905 7.71491 7.61338 7.16347 7.61338 6.48393Z" fill="#FFC16A"/>
<path d="M7.61338 74.7689V69.5162C7.61338 68.8367 7.06905 68.2851 6.39845 68.2851H1.21493C0.544337 68.2851 0 68.8367 0 69.5162C0 70.1958 0.544337 70.7474 1.21493 70.7474H5.18366V74.7689C5.18352 75.4484 5.72786 76 6.39845 76C7.06905 76 7.61338 75.4484 7.61338 74.7689Z" fill="#FFC16A"/>
</g>
<defs>
<clipPath id="clip0_306_695">
<rect width="75" height="76" fill="white" transform="matrix(1 0 0 -1 0 76)"/>
</clipPath>
</defs>
</svg>
