<svg width="89" height="89" viewBox="0 0 89 89" fill="none" xmlns="http://www.w3.org/2000/svg">
<path d="M25.9583 25.9583H29.6666M25.9583 37.0833H29.6666M44.4999 37.0833H48.2083M44.4999 48.2083H48.2083M25.9583 48.2083H29.6666M44.4999 25.9583H48.2083M29.6666 77.875V66.75C29.6666 62.6538 32.9871 59.3333 37.0833 59.3333C39.2982 59.3333 41.2866 60.3045 42.6458 61.8442M59.3333 55.625V17.0583C59.3333 14.9815 59.3333 13.943 58.929 13.1498C58.5734 12.452 58.0064 11.8847 57.3085 11.5292C56.5153 11.125 55.477 11.125 53.3999 11.125H20.7666C18.6897 11.125 17.6513 11.125 16.858 11.5292C16.1603 11.8847 15.593 12.452 15.2374 13.1498C14.8333 13.943 14.8333 14.9815 14.8333 17.0583V77.875H42.6458M55.6249 70.4583L63.0416 77.875L77.8749 63.0417" stroke="#A1EEBD" stroke-width="5" stroke-linecap="round" stroke-linejoin="round"/>
</svg>
