<svg width="50" height="50" viewBox="0 0 50 50" fill="none" xmlns="http://www.w3.org/2000/svg">
<g clip-path="url(#clip0_938_652)">
<path d="M9.34041 43.6298L9.35568 43.5948C9.61513 43.0328 10.0883 42.6055 10.7628 42.3228L12.9017 41.3379L13.0151 41.2425C12.9336 41.1488 12.854 41.0526 12.777 40.953C11.81 39.6969 11.2788 38.028 11.2341 36.1228L10.9378 35.9875L9.83528 35.0565L8.06361 36.8193H8.06238L7.85884 36.8192H7.8576L6.08605 35.0565L4.98326 35.9875L2.68832 37.0438C2.34871 37.1836 2.01506 37.395 1.8452 37.7624C1.8452 37.7624 -0.649348 43.7015 0.703794 43.7015H9.31044C9.32728 43.6618 9.33761 43.637 9.34041 43.6298Z" fill="#FFC16A"/>
<path d="M3.82187 29.675C3.86161 33.3431 5.9117 35.5289 7.96066 35.5289C9.71123 35.5289 12.0595 33.3431 12.0996 29.675C12.1249 27.1304 10.9129 25.6067 7.96066 25.6067C5.00829 25.6066 3.79605 27.1304 3.82187 29.675Z" fill="#FFC16A"/>
<path d="M22.1982 42.3227C22.8925 42.6132 23.3841 43.0647 23.6212 43.6322C23.6238 43.6379 23.6336 43.662 23.6505 43.7014H26.3496C26.3664 43.6617 26.3769 43.637 26.3798 43.6297L26.3956 43.5947C26.6545 43.0327 27.1279 42.6054 27.8019 42.3227L29.9413 41.3378L30.0547 41.2424C29.9729 41.1487 29.8933 41.0525 29.8163 40.9529C28.8494 39.6968 28.3181 38.0278 28.2741 36.1227L27.9779 35.9874L26.8753 35.0564L25.103 36.8192H25.1023L24.8982 36.8191H24.8976L23.1254 35.0564L22.0229 35.9874L21.7263 36.1229C21.6789 37.9746 21.0894 39.6922 20.0569 40.9734C19.9983 41.0458 19.9387 41.1155 19.8779 41.185L20.0596 41.3378L22.1982 42.3227Z" fill="#FFC16A"/>
<path d="M24.9999 35.5289C26.7504 35.5289 29.0992 33.343 29.1387 29.6749C29.1645 27.1303 27.9521 25.6066 24.9999 25.6066C22.0477 25.6066 20.8358 27.1303 20.8614 29.6749C20.9008 33.343 22.9511 35.5289 24.9999 35.5289Z" fill="#FFC16A"/>
<path d="M48.1549 37.7623C48.0069 37.4099 47.6514 37.1835 47.3118 37.0437L45.0167 35.9874L43.9141 35.0564L42.1426 36.8192H42.1412L41.9377 36.8191H41.9364L40.1649 35.0564L39.0623 35.9874L38.7658 36.1229C38.7181 37.9746 38.1285 39.6922 37.0955 40.9734C37.0371 41.0458 36.9774 41.1155 36.9167 41.185L37.0984 41.3378L39.2375 42.3227C39.9319 42.6132 40.4235 43.0647 40.6605 43.6322C40.6629 43.6379 40.6733 43.662 40.6898 43.7014H49.2965C50.6493 43.7015 48.1549 37.7623 48.1549 37.7623Z" fill="#FFC16A"/>
<path d="M37.9005 29.675C37.9403 33.3431 39.9905 35.5289 42.0393 35.5289C43.7899 35.5289 46.1384 33.3431 46.178 29.675C46.2037 27.1304 44.9915 25.6067 42.0393 25.6067C39.0868 25.6066 37.8745 27.1304 37.9005 29.675Z" fill="#FFC16A"/>
<path d="M21.7525 43.3415L19.4578 42.2844L18.355 41.3554L16.5835 43.117H16.582H16.3785H16.3774L14.6057 41.3554L13.5031 42.2844L11.2078 43.3415C10.8684 43.4803 10.5346 43.6914 10.365 44.0607C10.365 44.0607 7.87029 50 9.22343 50H23.7374C25.0904 50 22.596 44.0607 22.596 44.0607C22.4479 43.7065 22.0925 43.4803 21.7525 43.3415Z" fill="#FFC16A"/>
<path d="M16.4801 31.9052C13.5278 31.9052 12.3158 33.4277 12.3414 35.9726C12.3814 39.6395 14.4316 41.8273 16.4801 41.8273C18.2308 41.8273 20.5795 39.6395 20.6189 35.9726C20.645 33.4276 19.4323 31.9052 16.4801 31.9052Z" fill="#FFC16A"/>
<path d="M38.7922 43.3415L36.4969 42.2844L35.3944 41.3554L33.6226 43.117H33.6216H33.4179H33.4167L31.6453 41.3554L30.5424 42.2844L28.2478 43.3415C27.9081 43.4803 27.5747 43.6914 27.4042 44.0607C27.4042 44.0607 24.9099 50 26.2629 50H40.7769C42.13 50 39.6353 44.0607 39.6353 44.0607C39.4872 43.7065 39.1315 43.4803 38.7922 43.3415Z" fill="#FFC16A"/>
<path d="M33.5198 41.8276C35.2703 41.8276 37.6186 39.6398 37.6586 35.9729C37.684 33.4277 36.4722 31.9055 33.5198 31.9055C30.5676 31.9055 29.3549 33.428 29.3812 35.9729C29.4205 39.6396 31.4705 41.8276 33.5198 41.8276Z" fill="#FFC16A"/>
<g clip-path="url(#clip1_938_652)">
<path d="M41.1223 20.4753H10.5444C10.2443 20.4753 10 20.7196 10 21.0197V22.3668C10 22.6669 10.2443 22.9112 10.5444 22.9112H41.1223C41.4224 22.9112 41.6667 22.6669 41.6667 22.3668V21.0197C41.6667 20.7196 41.4224 20.4753 41.1223 20.4753Z" fill="#FFC16A"/>
<path d="M40.1166 1.19715C40.1166 0.769067 39.7696 0.422119 39.3416 0.422119H12.3252C11.8971 0.422119 11.5502 0.769067 11.5502 1.19715V2.67152H40.1166V1.19715ZM26.4209 2.18394C26.266 2.33897 26.0522 2.42757 25.833 2.42757C25.6148 2.42757 25.4 2.33897 25.2462 2.18394C25.0911 2.03008 25.0025 1.81524 25.0025 1.59709C25.0025 1.37777 25.0911 1.1641 25.2462 1.01025C25.4 0.855217 25.6148 0.766614 25.833 0.766614C26.0522 0.766614 26.266 0.855217 26.4209 1.01025C26.5749 1.1641 26.6635 1.37777 26.6635 1.59709C26.6634 1.81524 26.5749 2.03008 26.4209 2.18394Z" fill="#FFC16A"/>
<path d="M28.1875 14.5654L26.186 15.6386C25.966 15.7567 25.7008 15.7567 25.4807 15.6386L23.4792 14.5654L22.9599 14.7247C22.3236 14.9404 21.8968 15.5354 21.8968 16.2077V19.2574H29.7701V16.2077C29.7701 15.5353 29.3433 14.9404 28.707 14.7247L28.1875 14.5654Z" fill="#FFC16A"/>
<path d="M25.8333 11.063C26.7129 11.063 27.4285 10.3473 27.4285 9.4678C27.4285 8.58828 26.7129 7.87263 25.8333 7.87263C24.9538 7.87263 24.2382 8.58828 24.2382 9.4678C24.2382 10.3473 24.9538 11.063 25.8333 11.063Z" fill="#FFC16A"/>
<path d="M20.4039 16.2077C20.4039 14.8891 21.2444 13.723 22.4953 13.306C22.5011 13.3041 22.5067 13.3022 22.5125 13.3004L23.3387 13.047C23.5288 12.9886 23.7348 13.0087 23.9102 13.1028L25.8332 14.1339L27.7563 13.1028C27.9318 13.0086 28.1376 12.9886 28.3277 13.047L29.154 13.3004C29.1597 13.3022 29.1654 13.3041 29.1711 13.306C30.422 13.723 31.2625 14.8891 31.2625 16.2077V19.2574H40.1068V3.88946H11.5501V19.2574H20.4039V16.2077ZM25.8333 6.37993C27.536 6.37993 28.9212 7.76516 28.9212 9.4678C28.9212 11.1704 27.536 12.5557 25.8333 12.5557C24.1307 12.5557 22.7455 11.1704 22.7455 9.4678C22.7455 7.76516 24.1307 6.37993 25.8333 6.37993Z" fill="#FFC16A"/>
</g>
</g>
<defs>
<clipPath id="clip0_938_652">
<rect width="50" height="50" fill="white"/>
</clipPath>
<clipPath id="clip1_938_652">
<rect width="31.6667" height="31.6667" fill="white" transform="translate(10 -4.16667)"/>
</clipPath>
</defs>
</svg>
