<svg width="89" height="89" viewBox="0 0 89 89" fill="none" xmlns="http://www.w3.org/2000/svg">
<path d="M69.7167 12.6084V76.3917C69.7167 78.1717 68.3075 79.5809 66.5275 79.5809H22.4725C20.6925 79.5809 19.2833 78.1717 19.2833 76.3917V12.6084C19.2833 10.8284 20.6925 9.41919 22.4725 9.41919H66.4533C68.3075 9.41919 69.7167 10.9025 69.7167 12.6084Z" fill="#916AFF" fill-opacity="0.49"/>
<path d="M66.1567 67.3434L60.075 70.3842L53.9192 67.3434L46.4283 82.4734L51.1008 81.9542L53.5483 86.0334L60.075 73.0542L66.6017 86.0334L69.0492 81.9542L73.7217 82.4734L66.1567 67.3434Z" fill="#916AFF"/>
<path d="M60.0751 77.5784C65.5638 77.5784 70.0134 73.1288 70.0134 67.64C70.0134 62.1513 65.5638 57.7017 60.0751 57.7017C54.5863 57.7017 50.1367 62.1513 50.1367 67.64C50.1367 73.1288 54.5863 77.5784 60.0751 77.5784Z" fill="#FFC54D"/>
<path d="M60.075 75.5017C64.4169 75.5017 67.9367 71.9819 67.9367 67.64C67.9367 63.2982 64.4169 59.7784 60.075 59.7784C55.7332 59.7784 52.2134 63.2982 52.2134 67.64C52.2134 71.9819 55.7332 75.5017 60.075 75.5017Z" fill="#E8B04B"/>
<path d="M35.155 33.3008H27.8125C27.2192 33.3008 26.7742 33.7458 26.7742 34.3392C26.7742 34.9325 27.2192 35.3775 27.8125 35.3775H35.155C35.7483 35.3775 36.1933 34.9325 36.1933 34.3392C36.1933 33.7458 35.8225 33.3008 35.155 33.3008Z" fill="white"/>
<path d="M49.9884 28.2575H27.8867C27.2934 28.2575 26.8484 28.7025 26.8484 29.2958C26.8484 29.8892 27.2934 30.3342 27.8867 30.3342H50.0626C50.6559 30.3342 51.1009 29.8892 51.1009 29.2958C51.1009 28.7025 50.6559 28.2575 49.9884 28.2575Z" fill="white"/>
<path d="M49.9884 23.9559H27.8867C27.2934 23.9559 26.8484 24.4009 26.8484 24.9942C26.8484 25.5875 27.2934 26.0325 27.8867 26.0325H50.0626C50.6559 26.0325 51.1009 25.5875 51.1009 24.9942C51.1009 24.4009 50.6559 23.9559 49.9884 23.9559Z" fill="white"/>
<path d="M27.8867 21.0634H50.0626C50.6559 21.0634 51.1009 20.6184 51.1009 20.025C51.1009 19.4317 50.6559 18.9867 50.0626 18.9867H27.8867C27.2934 18.9867 26.8484 19.4317 26.8484 20.025C26.8484 20.6184 27.2934 21.0634 27.8867 21.0634Z" fill="white"/>
<path d="M35.155 56.6633H27.8125C27.2192 56.6633 26.7742 57.1083 26.7742 57.7017C26.7742 58.295 27.2192 58.74 27.8125 58.74H35.155C35.7483 58.74 36.1933 58.295 36.1933 57.7017C36.1933 57.1083 35.8225 56.6633 35.155 56.6633Z" fill="white"/>
<path d="M49.9884 51.62H27.8867C27.2934 51.62 26.8484 52.065 26.8484 52.6583C26.8484 53.2517 27.2934 53.6967 27.8867 53.6967H50.0626C50.6559 53.6967 51.1009 53.2517 51.1009 52.6583C51.1009 52.065 50.6559 51.62 49.9884 51.62Z" fill="white"/>
<path d="M49.9884 47.3184H27.8867C27.2934 47.3184 26.8484 47.7634 26.8484 48.3567C26.8484 48.95 27.2934 49.395 27.8867 49.395H50.0626C50.6559 49.395 51.1009 48.95 51.1009 48.3567C51.1009 47.7634 50.6559 47.3184 49.9884 47.3184Z" fill="white"/>
<path d="M27.8867 44.4259H50.0626C50.6559 44.4259 51.1009 43.9808 51.1009 43.3875C51.1009 42.7942 50.6559 42.3492 50.0626 42.3492H27.8867C27.2934 42.3492 26.8484 42.7942 26.8484 43.3875C26.8484 43.9808 27.2934 44.4259 27.8867 44.4259Z" fill="white"/>
</svg>
