<svg width="86" height="86" viewBox="0 0 86 86" fill="none" xmlns="http://www.w3.org/2000/svg">
<path d="M61.7729 25.9505C61.7729 28.9723 64.2225 31.4219 67.2443 31.4219C70.266 31.4219 72.7157 28.9723 72.7157 25.9505C72.7157 22.9288 70.266 20.4791 67.2443 20.4791C64.2225 20.4791 61.7729 22.9288 61.7729 25.9505ZM56.1664 44.2678V39.9947C56.1664 36.2393 59.2322 33.1587 63.0024 33.1587H71.9524C75.7079 33.1587 78.7884 36.2245 78.7884 39.9947V44.2678H56.1664ZM32.1563 13.9132V21.8222C31.1918 21.8222 29.3895 22.0288 28.0914 22.4215C24.6239 23.4706 21.6982 25.8178 19.905 29.7402L0.671875 72.0868H27.127L28.8298 66.4118C36.2853 64.6025 41.8672 58.8714 44.1183 51.6662L44.1466 51.6665C44.2027 51.4153 44.2772 51.1683 44.3572 50.9228H85.3281V13.9132H32.1563ZM82.6826 48.2773H38.7699C37.7765 53.358 34.0177 57.9805 28.9524 60.0495C28.7888 60.1164 28.6192 60.1479 28.4526 60.1479C27.9312 60.1479 27.437 59.8375 27.2274 59.3252C26.9513 58.649 27.2754 57.877 27.9517 57.6005C32.9128 55.5742 36.3787 50.6601 36.3854 45.6469V44.3095H49.9526C51.9568 44.3092 53.5817 42.6846 53.5817 40.6804C53.5817 38.6775 51.9591 37.0533 49.9559 37.0516L26.1346 37.0338C25.4043 37.0338 24.8117 36.4415 24.8117 35.7108C24.8117 34.9802 25.4039 34.3879 26.1346 34.3879H34.8014V16.5587H82.6823V48.2773H82.6826ZM38.7699 21.8222H53.582V24.4677H38.7699V21.8222ZM38.7699 28.4361H53.582V31.0816H38.7699V28.4361Z" fill="#55CCC9"/>
</svg>
