<svg width="51" height="50" viewBox="0 0 51 50" fill="none" xmlns="http://www.w3.org/2000/svg">
<path d="M41.125 13.125H31.75C31.5842 13.125 31.4253 13.0592 31.3081 12.9419C31.1908 12.8247 31.125 12.6658 31.125 12.5V3.125C31.125 2.95924 31.1908 2.80027 31.3081 2.68306C31.4253 2.56585 31.5842 2.5 31.75 2.5C31.9158 2.5 32.0747 2.56585 32.1919 2.68306C32.3092 2.80027 32.375 2.95924 32.375 3.125V11.875H41.125C41.2908 11.875 41.4497 11.9408 41.5669 12.0581C41.6842 12.1753 41.75 12.3342 41.75 12.5C41.75 12.6658 41.6842 12.8247 41.5669 12.9419C41.4497 13.0592 41.2908 13.125 41.125 13.125Z" fill="#C68EED"/>
<path d="M41.125 19.3538C40.9592 19.3538 40.8003 19.2879 40.6831 19.1707C40.5658 19.0535 40.5 18.8945 40.5 18.7288V12.7588L31.4912 3.75H13C12.337 3.75 11.7011 4.01339 11.2322 4.48223C10.7634 4.95108 10.5 5.58696 10.5 6.25V18.5213C10.5 18.687 10.4342 18.846 10.3169 18.9632C10.1997 19.0804 10.0408 19.1463 9.875 19.1463C9.70924 19.1463 9.55027 19.0804 9.43306 18.9632C9.31585 18.846 9.25 18.687 9.25 18.5213V6.25C9.25 5.25544 9.64509 4.30161 10.3483 3.59835C11.0516 2.89509 12.0054 2.5 13 2.5H31.75C31.8321 2.49985 31.9135 2.5159 31.9894 2.54721C32.0653 2.57853 32.1343 2.6245 32.1925 2.6825L41.5675 12.0575C41.6255 12.1156 41.6715 12.1847 41.7028 12.2606C41.7341 12.3365 41.7501 12.4179 41.75 12.5V18.7288C41.75 18.8108 41.7338 18.8921 41.7024 18.9679C41.671 19.0438 41.625 19.1127 41.5669 19.1707C41.5089 19.2287 41.44 19.2748 41.3642 19.3062C41.2883 19.3376 41.2071 19.3538 41.125 19.3538Z" fill="#C68EED"/>
<path d="M38 47.5H13C12.0054 47.5 11.0516 47.1049 10.3483 46.4016C9.64509 45.6984 9.25 44.7446 9.25 43.75V34.375C9.25 34.2092 9.31585 34.0503 9.43306 33.9331C9.55027 33.8158 9.70924 33.75 9.875 33.75C10.0408 33.75 10.1997 33.8158 10.3169 33.9331C10.4342 34.0503 10.5 34.2092 10.5 34.375V43.75C10.5 44.413 10.7634 45.0489 11.2322 45.5178C11.7011 45.9866 12.337 46.25 13 46.25H38C38.663 46.25 39.2989 45.9866 39.7678 45.5178C40.2366 45.0489 40.5 44.413 40.5 43.75V34.375C40.5 34.2092 40.5658 34.0503 40.6831 33.9331C40.8003 33.8158 40.9592 33.75 41.125 33.75C41.2908 33.75 41.4497 33.8158 41.5669 33.9331C41.6842 34.0503 41.75 34.2092 41.75 34.375V43.75C41.75 44.7446 41.3549 45.6984 40.6516 46.4016C39.9484 47.1049 38.9946 47.5 38 47.5Z" fill="#C68EED"/>
<path d="M34.875 35H16.125C15.9592 35 15.8003 34.9342 15.6831 34.8169C15.5658 34.6997 15.5 34.5408 15.5 34.375C15.5 34.2092 15.5658 34.0503 15.6831 33.9331C15.8003 33.8158 15.9592 33.75 16.125 33.75H34.875C35.0408 33.75 35.1997 33.8158 35.3169 33.9331C35.4342 34.0503 35.5 34.2092 35.5 34.375C35.5 34.5408 35.4342 34.6997 35.3169 34.8169C35.1997 34.9342 35.0408 35 34.875 35Z" fill="#C68EED"/>
<path d="M25.5 41.25H16.125C15.9592 41.25 15.8003 41.1842 15.6831 41.0669C15.5658 40.9497 15.5 40.7908 15.5 40.625C15.5 40.4592 15.5658 40.3003 15.6831 40.1831C15.8003 40.0658 15.9592 40 16.125 40H25.5C25.6658 40 25.8247 40.0658 25.9419 40.1831C26.0592 40.3003 26.125 40.4592 26.125 40.625C26.125 40.7908 26.0592 40.9497 25.9419 41.0669C25.8247 41.1842 25.6658 41.25 25.5 41.25Z" fill="#C68EED"/>
<path d="M41.125 35H9.875C8.88044 35 7.92661 34.6049 7.22335 33.9017C6.52009 33.1984 6.125 32.2446 6.125 31.25V21.6463C6.125 20.6517 6.52009 19.6979 7.22335 18.9946C7.92661 18.2913 8.88044 17.8963 9.875 17.8963H9.9L41.15 18.1038C42.1395 18.113 43.0856 18.5118 43.7831 19.2137C44.4806 19.9156 44.8733 20.8642 44.8763 21.8538V31.25C44.8763 31.7426 44.7792 32.2303 44.5907 32.6854C44.4021 33.1404 44.1258 33.5539 43.7775 33.9021C43.4291 34.2503 43.0156 34.5265 42.5604 34.7149C42.1053 34.9033 41.6176 35.0002 41.125 35ZM9.875 19.1463C9.21196 19.1463 8.57607 19.4096 8.10723 19.8785C7.63839 20.3473 7.375 20.9832 7.375 21.6463V31.25C7.375 31.913 7.63839 32.5489 8.10723 33.0178C8.57607 33.4866 9.21196 33.75 9.875 33.75H41.125C41.788 33.75 42.4239 33.4866 42.8928 33.0178C43.3616 32.5489 43.625 31.913 43.625 31.25V21.8538C43.6231 21.1939 43.3611 20.5614 42.8959 20.0934C42.4307 19.6254 41.7998 19.3597 41.14 19.3538L9.89 19.1463H9.875Z" fill="#C68EED"/>
<path d="M25.9225 27.5862H24.97V26.9275C24.9596 26.7437 25.0064 26.5612 25.1038 26.405C25.2759 26.1997 25.4738 26.0173 25.6925 25.8625C26.155 25.5075 26.3863 25.1325 26.3863 24.7375C26.3928 24.6064 26.372 24.4754 26.3253 24.3528C26.2787 24.2302 26.207 24.1185 26.115 24.025C26.021 23.9362 25.9102 23.8671 25.7892 23.8218C25.6681 23.7766 25.5392 23.7559 25.41 23.7612C24.7433 23.7612 24.3479 24.225 24.2238 25.1525L23.1588 24.9625C23.2238 24.2692 23.48 23.7246 23.9275 23.3287C24.3697 22.935 24.9443 22.723 25.5363 22.735C26.1024 22.7149 26.6546 22.9132 27.0788 23.2887C27.2742 23.4598 27.4301 23.6715 27.5354 23.909C27.6408 24.1464 27.6931 24.404 27.6888 24.6637C27.6897 24.9325 27.6321 25.1982 27.52 25.4425C27.4298 25.6557 27.2995 25.8496 27.1363 26.0137C26.8454 26.2655 26.5421 26.5024 26.2275 26.7237C26.1204 26.7912 26.0339 26.8867 25.9775 27C25.9303 27.1916 25.9118 27.3892 25.9225 27.5862ZM26.1175 28.28V29.5H24.97V28.2787L26.1175 28.28Z" fill="#C68EED"/>
</svg>
