<svg width="55" height="54" viewBox="0 0 55 54" fill="none" xmlns="http://www.w3.org/2000/svg">
<g clip-path="url(#clip0_1_596)">
<path d="M48.3945 20.4054C48.013 20.7439 47.614 21.0647 47.1931 21.3646C46.219 22.055 45.6891 22.4344 45.3575 22.7216C46.3295 24.8921 46.9264 27.2666 47.0446 29.7729H40.0396H38.1823H28.4318V17.9702H26.5681H19.1529C19.4449 17.2735 19.7574 16.6111 20.0931 15.9947C21.0974 14.1422 22.2819 12.6741 23.5445 11.693C23.6395 11.6192 23.7346 11.5537 23.8296 11.4847C24.4074 11.3763 24.9965 11.3002 25.5905 11.2425C25.556 10.8484 25.5321 10.4529 25.5321 10.0553C25.5321 9.17483 25.6179 8.31474 25.777 7.48006C20.0353 7.89951 14.8575 10.4008 11.0274 14.2324C6.81505 18.4426 4.20332 24.2785 4.20469 30.7049C4.20322 37.1313 6.81505 42.9672 11.0274 47.1774C15.2368 51.3898 21.0727 54.0016 27.4999 54.0001C33.9271 54.0016 39.7623 51.3898 43.9724 47.1774C48.1846 42.9673 50.7957 37.1314 50.7951 30.7049C50.7958 27.0105 49.9288 23.5127 48.3945 20.4054ZM13.6639 16.8688C15.4853 15.048 17.6615 13.5898 20.0776 12.5981C18.9261 14.0887 17.9458 15.9103 17.1498 17.9703H12.6504C12.9756 17.5916 13.3105 17.2214 13.6639 16.8688ZM11.2294 19.8338H16.4981C15.5797 22.8011 15.0363 26.1793 14.9547 29.773H7.95537C8.12771 26.1012 9.30875 22.7019 11.2294 19.8338ZM10.4672 40.3336C8.99909 37.7443 8.10387 34.7925 7.95537 31.6366H14.961C15.0321 34.7411 15.4487 37.6773 16.1546 40.3336H10.4672ZM13.6639 44.5409C12.9376 43.8146 12.2717 43.0291 11.6665 42.1973H16.7114C17.2061 43.6795 17.784 45.0653 18.4547 46.3033C18.9515 47.2183 19.4963 48.0558 20.0812 48.8138C17.6637 47.8221 15.4868 46.3624 13.6639 44.5409ZM26.5681 50.2488C25.6363 50.2051 24.7228 50.0932 23.8303 49.925C23.7346 49.856 23.6396 49.7906 23.5445 49.7174C21.6491 48.2464 19.9368 45.672 18.7284 42.3662C18.7088 42.3113 18.6911 42.2522 18.6707 42.1972H26.5681V50.2488ZM26.5681 40.3336H18.0795C17.3412 37.7224 16.8929 34.7727 16.8176 31.6366H26.5681V40.3336ZM26.5681 29.773H16.8113C16.8971 26.1301 17.4919 22.7336 18.4532 19.8338H26.568V29.773H26.5681ZM28.4318 31.6367H38.1886C38.1147 34.7722 37.6629 37.7225 36.9246 40.3337H28.4318V31.6367ZM31.4554 49.7174C31.3611 49.7906 31.2653 49.856 31.1696 49.925C30.2771 50.0932 29.3636 50.2051 28.4318 50.2488V42.1973H36.3312C35.9131 43.3621 35.436 44.4417 34.9067 45.4151C33.9025 47.2674 32.718 48.7349 31.4554 49.7174ZM41.3368 44.5409C39.5139 46.3617 37.3384 47.8207 34.9216 48.813C36.1547 47.2168 37.197 45.2491 38.0211 43.008C38.1183 42.7448 38.2056 42.4689 38.2957 42.1972H43.3335C42.7281 43.0291 42.0624 43.8146 41.3368 44.5409ZM44.5327 40.3336H38.8579C39.5617 37.6795 39.9742 34.7383 40.0452 31.6366H47.0446C46.8961 34.7926 46.0002 37.7443 44.5327 40.3336Z" fill="#76D7D7"/>
<path d="M33.5921 18.3242C35.9618 20.0064 36.4855 20.4068 37.3195 21.998C37.979 23.2579 39.0481 25.4664 39.0481 25.4664C39.0987 25.567 39.2008 25.6311 39.3141 25.6311C39.426 25.6311 39.5302 25.567 39.5801 25.4664C39.5801 25.4664 40.6498 23.2579 41.3093 21.998C42.1419 20.4067 42.6663 20.0064 45.0367 18.3242C47.6344 16.4817 49.37 13.4821 49.37 10.0553C49.3699 4.50225 44.867 0 39.314 0C33.7602 0 29.2594 4.50225 29.2594 10.0553C29.2594 13.4821 30.9937 16.4816 33.5921 18.3242ZM39.314 5.80215C41.6633 5.80215 43.5677 7.70671 43.5677 10.0553C43.5677 12.4045 41.6633 14.3091 39.314 14.3091C36.9647 14.3091 35.0608 12.4045 35.0608 10.0553C35.0609 7.70671 36.9647 5.80215 39.314 5.80215Z" fill="#76D7D7"/>
</g>
<defs>
<clipPath id="clip0_1_596">
<rect width="54" height="54" fill="white" transform="translate(0.5)"/>
</clipPath>
</defs>
</svg>
