<svg width="51" height="50" viewBox="0 0 51 50" fill="none" xmlns="http://www.w3.org/2000/svg">
<g clip-path="url(#clip0_1_604)">
<path d="M30.8206 0.555015C29.3027 0.279015 27.9912 0.140766 27.0537 0.07129C26.5415 0.0333293 26.0281 0.00614327 25.5144 0.000480923C22.8527 -0.00759944 22.7317 4.16711 25.5 4.16711C25.5 4.16711 26.3315 4.19586 26.7458 4.22656C27.566 4.28734 28.7285 4.40956 30.0752 4.65446C32.7979 5.14954 36.1333 6.12117 38.9277 7.98404C41.629 9.78481 43.509 12.5518 44.7304 14.9946C45.3329 16.1996 45.755 17.2852 46.0248 18.0645C46.1602 18.4557 46.2877 18.8503 46.3942 19.2504C46.6783 20.3403 47.8192 21.047 48.9219 20.7713C50.026 20.4953 50.7079 19.2929 50.4269 18.2019C50.2923 17.6958 50.1335 17.1963 49.9623 16.7016C49.646 15.7883 49.1567 14.5301 48.4571 13.1311C47.0744 10.3657 44.7877 6.88288 41.239 4.51713C37.7833 2.21348 33.8271 1.10169 30.8206 0.555015Z" fill="#FFC16A"/>
<path d="M24.4596 8.26317C24.4977 7.12585 25.4796 6.21202 26.6158 6.25121C27.6206 6.28746 28.6275 6.42512 29.6165 6.59777C31.3262 6.89621 33.6258 7.46321 35.8067 8.55369C38.2171 9.75885 40.0246 11.9339 41.171 13.6136C41.7627 14.4805 42.22 15.2784 42.5308 15.8615C42.7008 16.1807 42.8644 16.5037 43.0152 16.8325C43.4787 17.861 43.0108 19.1502 41.9717 19.6123C40.9104 20.0843 39.6812 19.5571 39.2069 18.5237C39.1106 18.3157 38.5808 17.2099 37.7294 15.9624C36.7175 14.4796 35.4002 13.0089 33.9433 12.2805C32.2571 11.4374 30.39 10.9625 28.9 10.7024C28.0985 10.5625 27.2852 10.4517 26.4717 10.4154C25.3221 10.3763 24.4208 9.41285 24.4596 8.26317Z" fill="#FFC16A"/>
<path d="M15.0833 27.0838C13.9466 27.0838 12.9994 26.1346 13 24.9983C13.0016 24.3404 13.0831 23.6781 13.1911 23.0304C13.3766 21.9175 13.7515 20.4016 14.522 18.8605C15.2966 17.3113 16.4913 15.6986 18.3222 14.478C20.1662 13.2487 22.5312 12.5005 25.5 12.5005C28.4687 12.5005 30.8337 13.2487 32.6777 14.478C34.5087 15.6986 35.7033 17.3113 36.4779 18.8605C37.2485 20.4016 37.6233 21.9175 37.809 23.0304C37.9167 23.6775 37.9979 24.3388 38 24.996C38.0012 26.4538 37.7981 27.9506 37.104 29.2523C36.6519 30.1 36.0275 30.7729 35.6131 31.2198C35.5292 31.3102 35.454 31.3913 35.3904 31.4627C34.9794 31.9252 34.64 32.3758 34.3687 33.1556C34.08 33.986 33.8333 35.2979 33.8333 37.5004V39.5838C33.8333 40.8985 33.5171 42.9244 32.2848 44.6848C30.9683 46.5656 28.7569 47.9171 25.5 47.9171C22.2535 47.9171 20.1328 46.584 18.854 45.1223C18.1248 44.289 17.5028 43.2596 17.2295 42.1748C16.9534 41.0725 17.6416 39.9219 18.7447 39.646C19.8515 39.3694 20.9729 40.0342 21.2639 41.1338C21.2801 41.1879 21.4887 41.806 21.9898 42.3785C22.534 43.0004 23.5381 43.7504 25.5 43.7504C27.4515 43.7504 28.365 43.0188 28.8715 42.2954C29.4621 41.4517 29.6667 40.3525 29.6667 39.5838V37.5004C29.6667 35.0156 29.9408 33.2025 30.4333 31.7869C30.9433 30.3204 31.6456 29.404 32.2762 28.6946C32.4433 28.5067 32.5842 28.3527 32.705 28.2204C33.0648 27.8271 33.2496 27.6252 33.4273 27.2917C33.6146 26.9406 33.8325 26.3258 33.8333 25.0073C33.8269 24.575 33.7698 24.1408 33.699 23.7154C33.559 22.8752 33.2827 21.7869 32.7512 20.7239C32.2237 19.6689 31.4652 18.6774 30.3665 17.9449C29.2808 17.2211 27.7396 16.6672 25.5 16.6672C23.2604 16.6672 21.7192 17.2211 20.6335 17.9449C19.5348 18.6774 18.7763 19.6689 18.2488 20.7239C17.7173 21.7869 17.4411 22.8752 17.3011 23.7154C17.1974 24.3375 17.1732 24.7975 17.1681 24.9529C17.1361 26.0938 16.2674 27.0838 15.0833 27.0838Z" fill="#FFC16A"/>
<path d="M24.0379 23.2473C23.7077 23.4702 23.4279 23.7225 23.2287 23.9237C22.3662 24.7956 21.203 25.4596 20.0504 24.5587C19.0298 23.761 19.0688 22.3433 19.8673 21.4233C20.1535 21.0935 20.7779 20.4208 21.7071 19.7937C22.901 18.9879 24.8979 18.0898 27.2006 18.8576C29.3402 19.571 30.4829 21.1479 31.0606 22.3992C31.3496 23.025 31.5154 23.6033 31.6104 24.0262C31.9102 25.3615 31.4573 26.9335 29.8504 27.0758C28.711 27.1767 27.7046 26.3402 27.5933 25.2042C27.5883 25.1629 27.5117 24.6523 27.2777 24.1456C27.0027 23.5502 26.5829 23.0437 25.8827 22.8102C25.3456 22.6312 24.7381 22.7748 24.0379 23.2473Z" fill="#FFC16A"/>
<path d="M6.13981 44.3606C6.9534 45.1744 6.9534 46.4933 6.13981 47.3071L4.05648 49.3904C3.24288 50.204 1.92379 50.204 1.11019 49.3904C0.296602 48.5767 0.296602 47.2577 1.11019 46.444L3.19352 44.3606C4.00712 43.5471 5.32621 43.5471 6.13981 44.3606Z" fill="#FFC16A"/>
<path d="M13.4315 37.069C14.2451 37.8827 14.2451 39.2017 13.4315 40.0154L11.3481 42.0987C10.5345 42.9123 9.21546 42.9123 8.40185 42.0987C7.58827 41.285 7.58827 39.966 8.40185 39.1523L10.4852 37.069C11.2988 36.2554 12.6179 36.2554 13.4315 37.069Z" fill="#FFC16A"/>
<path d="M20.7231 29.7773C21.5367 30.591 21.5367 31.91 20.7231 32.7238L18.6398 34.8071C17.8262 35.6206 16.5071 35.6206 15.6935 34.8071C14.8799 33.9933 14.8799 32.6744 15.6935 31.8606L17.7769 29.7773C18.5905 28.9638 19.9095 28.9638 20.7231 29.7773Z" fill="#FFC16A"/>
</g>
<defs>
<clipPath id="clip0_1_604">
<rect width="50" height="50" fill="white" transform="translate(0.5)"/>
</clipPath>
</defs>
</svg>
