<svg width="84" height="84" viewBox="0 0 84 84" fill="none" xmlns="http://www.w3.org/2000/svg">
<path d="M19.8251 36.0458C22.5557 35.3142 24.1762 32.5075 23.4446 29.7769C22.713 27.0463 19.9063 25.4258 17.1756 26.1574C14.445 26.8891 12.8245 29.6958 13.5562 32.4264C14.2878 35.157 17.0945 36.7775 19.8251 36.0458Z" fill="#FFC16A"/>
<path d="M24.5439 63.9844H18.3095C18.3095 63.9844 17.9814 63.9844 17.7189 63.9844C14.897 63.7219 12.4689 61.6875 11.747 58.8657L7.48136 42.9844C7.21886 42.0657 6.30011 41.6063 5.51261 41.8032C4.59386 42.0657 4.13449 42.9844 4.33136 43.7719L8.53136 59.6532C9.64699 63.7875 13.1251 66.8063 17.3907 67.1344C17.7845 67.2 18.2439 67.2 18.2439 67.2H24.4782C25.397 67.2 26.0532 66.4782 26.1189 65.5594C26.1189 64.6407 25.4626 63.9844 24.5439 63.9844Z" fill="#FFC16A"/>
<path d="M31.8938 55.0594H23.3625C23.1657 51.8438 22.6407 48.6281 21.8532 45.4125C21.7875 45.15 21.5907 44.4938 21.5907 44.4281C20.475 40.2938 16.5375 37.6688 12.4032 38.0625C12.4032 38.0625 11.8782 38.1281 11.7469 38.1281C10.2375 38.5219 9.31878 40.0969 9.71253 41.6719L14.1094 58.0125C14.5688 59.85 16.1438 61.2281 18.1125 61.3594H18.5063H28.6782V73.0406C28.6782 74.8125 30.0563 76.2563 31.8938 76.2563C33.6657 76.2563 35.1094 74.8781 35.1094 73.0406V58.275C35.1094 57.4219 34.7813 56.6344 34.125 56.0438C33.5344 55.3875 32.6813 55.0594 31.8938 55.0594Z" fill="#FFC16A"/>
<path d="M71.4851 32.4672C72.2167 29.7366 70.5962 26.9299 67.8656 26.1983C65.135 25.4667 62.3283 27.0872 61.5967 29.8178C60.8651 32.5484 62.4856 35.3551 65.2162 36.0867C67.9468 36.8183 70.7535 35.1978 71.4851 32.4672Z" fill="#FFC16A"/>
<path d="M59.1939 63.9844H65.4283C65.4283 63.9844 65.7564 63.9844 66.0189 63.9844C68.8408 63.7219 71.2689 61.6875 71.9908 58.8657L76.2564 42.9844C76.5189 42.0657 77.4376 41.6063 78.2251 41.8032C79.1439 42.0657 79.6033 42.9844 79.4064 43.7719L75.2064 59.6532C74.0908 63.7875 70.6126 66.8063 66.347 67.1344C65.9533 67.2 65.4939 67.2 65.4939 67.2H59.2595C58.3408 67.2 57.6845 66.4782 57.6189 65.5594C57.6189 64.6407 58.3408 63.9844 59.1939 63.9844Z" fill="#FFC16A"/>
<path d="M51.8438 55.0594H60.375C60.5719 51.8438 61.0969 48.6281 61.8844 45.4125C61.9501 45.15 62.1469 44.4938 62.1469 44.4281C63.2625 40.2938 67.2 37.6688 71.3344 38.0625C71.3344 38.0625 71.8594 38.1281 71.9907 38.1281C73.5 38.5219 74.4188 40.0969 74.0251 41.6719L69.5625 58.0125C69.1032 59.85 67.5282 61.2281 65.5594 61.3594H65.1657H55.0594V73.0406C55.0594 74.8125 53.6813 76.2563 51.8438 76.2563C50.0063 76.2563 48.6282 74.8781 48.6282 73.0406V58.275C48.6282 57.4219 48.9563 56.6344 49.6125 56.0438C50.2032 55.3875 51.0563 55.0594 51.8438 55.0594Z" fill="#FFC16A"/>
<path d="M58.6687 46.4625H25.4624V50.4H58.6687V46.4625Z" fill="#FFC16A"/>
<g clip-path="url(#clip0_298_1258)">
<path fill-rule="evenodd" clip-rule="evenodd" d="M31.0833 33.5C31.0833 27.7471 35.747 23.0834 41.4999 23.0834C47.2528 23.0834 51.9166 27.7471 51.9166 33.5C51.9166 39.253 47.2528 43.9167 41.4999 43.9167C35.747 43.9167 31.0833 39.253 31.0833 33.5ZM38.3749 27.25C37.7996 27.25 37.3333 27.7164 37.3333 28.2917C37.3333 28.867 37.7996 29.3334 38.3749 29.3334C39.4066 29.3334 40.0971 29.6827 40.5342 30.1326C40.7485 30.3533 40.9162 30.6129 41.0342 30.8959H38.3749C37.7996 30.8959 37.3333 31.3622 37.3333 31.9375C37.3333 32.5129 37.7996 32.9792 38.3749 32.9792H41.0342C40.928 33.2336 40.7818 33.4693 40.5976 33.6745C40.1805 34.1391 39.5172 34.5059 38.5229 34.5392C38.0449 34.5552 37.6877 34.8591 37.5337 35.2097C37.3757 35.5694 37.3946 36.0762 37.7653 36.4469L40.7634 39.4449C41.1701 39.8517 41.8297 39.8517 42.2365 39.4449C42.6433 39.0382 42.6433 38.3786 42.2365 37.9718L40.4928 36.2282C41.1486 35.958 41.7046 35.56 42.1479 35.0661C42.6922 34.4598 43.0434 33.7348 43.2097 32.9792H44.6249C45.2002 32.9792 45.6666 32.5129 45.6666 31.9375C45.6666 31.3622 45.2002 30.8959 44.6249 30.8959H43.2097C43.089 30.3479 42.8712 29.8157 42.5528 29.3334H44.6249C45.2002 29.3334 45.6666 28.867 45.6666 28.2917C45.6666 27.7164 45.2002 27.25 44.6249 27.25H38.3749Z" fill="#FFC16A"/>
</g>
<defs>
<clipPath id="clip0_298_1258">
<rect width="25" height="25" fill="white" transform="translate(29 21)"/>
</clipPath>
</defs>
</svg>
