<svg width="61" height="61" viewBox="0 0 61 61" fill="none" xmlns="http://www.w3.org/2000/svg">
<g clip-path="url(#clip0_293_792)">
<path d="M45.2853 58.9228H7.10345C5.59672 58.9228 4.37622 57.7023 4.37622 56.1954V4.37726C4.37622 2.87039 5.59672 1.65002 7.10345 1.65002H42.558C44.0648 1.65002 45.2853 2.87039 45.2853 4.37726V58.9228Z" fill="white"/>
<path d="M45.2854 58.9229V24.8319H56.1945V48.0137C56.1945 54.0383 51.3099 58.9229 45.2854 58.9229Z" fill="#F2F2F2"/>
<path d="M56.1945 23.4682H46.649V4.37729C46.649 2.12179 44.8136 0.286377 42.5581 0.286377H7.10361C4.84811 0.286377 3.0127 2.12179 3.0127 4.37729V56.1955C3.0127 58.451 4.84811 60.2864 7.10361 60.2864H45.2855C52.0519 60.2864 57.5582 54.78 57.5582 48.0136V24.8318C57.5582 24.0791 56.9473 23.4682 56.1945 23.4682ZM5.74006 56.1955V4.37729C5.74006 3.62597 6.35229 3.01361 7.10373 3.01361H42.5583C43.3096 3.01361 43.9219 3.62584 43.9219 4.37729V24.8318V57.5591H7.10373C6.35229 57.5591 5.74006 56.9469 5.74006 56.1955ZM54.831 48.0136C54.831 52.815 51.2692 56.7982 46.6492 57.4622V26.1955H54.831V48.0136Z" fill="#C68EED"/>
<path d="M38.4673 53.4683L33.0127 50.7411L27.5581 53.4683V41.1956H38.4673V53.4683Z" fill="white"/>
<path d="M33.0126 42.5592C37.5313 42.5592 41.1945 38.8961 41.1945 34.3774C41.1945 29.8587 37.5313 26.1956 33.0126 26.1956C28.4939 26.1956 24.8308 29.8587 24.8308 34.3774C24.8308 38.8961 28.4939 42.5592 33.0126 42.5592Z" fill="white"/>
<path d="M42.5583 34.3774C42.5583 29.1137 38.2764 24.8319 33.0128 24.8319C27.7492 24.8319 23.4673 29.1137 23.4673 34.3774C23.4673 36.9847 24.5201 39.3479 26.2191 41.0728C26.215 41.1151 26.1945 41.152 26.1945 41.1956V53.4683C26.1945 53.9414 26.44 54.3792 26.8409 54.6287C27.2432 54.8768 27.7464 54.8987 28.1677 54.6887L33.0128 52.2656L37.8578 54.6874C38.0501 54.7842 38.2587 54.832 38.4674 54.832C38.7169 54.832 38.9651 54.7638 39.1847 54.6288C39.5856 54.3793 39.8311 53.9416 39.8311 53.4684V41.1957C39.8311 41.1521 39.8106 41.1153 39.8065 41.073C41.5055 39.3479 42.5583 36.9846 42.5583 34.3774ZM33.0128 27.5591C36.7723 27.5591 39.8309 30.6177 39.8309 34.3773C39.8309 38.137 36.7723 41.1956 33.0128 41.1956C29.2532 41.1956 26.1946 38.137 26.1946 34.3774C26.1946 30.6179 29.2532 27.5591 33.0128 27.5591ZM37.1037 51.2619L33.6223 49.5218C33.4315 49.4251 33.2214 49.3774 33.0128 49.3774C32.8042 49.3774 32.5941 49.4251 32.4032 49.5206L28.9219 51.2619V43.9228V42.9887C30.1641 43.5818 31.5468 43.9228 33.0128 43.9228C34.4787 43.9228 35.8615 43.5818 37.1037 42.9887V43.9228V51.2619Z" fill="#C68EED"/>
<path d="M33.0126 39.8318C32.2599 39.8318 31.6489 39.2208 31.6489 38.4681C31.6489 37.7154 32.2599 37.1046 33.0126 37.1046C34.5167 37.1046 35.7398 35.8814 35.7398 34.3773C35.7398 32.8733 34.5167 31.6501 33.0126 31.6501C32.2599 31.6501 31.6489 31.0391 31.6489 30.2864C31.6489 29.5337 32.2599 28.9227 33.0126 28.9227C36.0208 28.9227 38.4672 31.3691 38.4672 34.3773C38.4672 37.3854 36.0208 39.8318 33.0126 39.8318Z" fill="#C68EED"/>
<path d="M38.4673 11.1955H11.1945C10.4418 11.1955 9.83081 10.5845 9.83081 9.83181C9.83081 9.07909 10.4418 8.46826 11.1945 8.46826H38.4672C39.2199 8.46826 39.8309 9.07921 39.8309 9.83194C39.8309 10.5847 39.22 11.1955 38.4673 11.1955Z" fill="#C68EED"/>
<path d="M34.3764 16.6501H11.1945C10.4418 16.6501 9.83081 16.0391 9.83081 15.2864C9.83081 14.5337 10.4418 13.9227 11.1945 13.9227H34.3763C35.129 13.9227 35.74 14.5337 35.74 15.2864C35.74 16.0391 35.1291 16.6501 34.3764 16.6501Z" fill="#C68EED"/>
<path d="M19.3763 22.1047H11.1945C10.4418 22.1047 9.83081 21.4937 9.83081 20.741C9.83081 19.9883 10.4418 19.3773 11.1945 19.3773H19.3763C20.129 19.3773 20.74 19.9883 20.74 20.741C20.74 21.4937 20.129 22.1047 19.3763 22.1047Z" fill="#C68EED"/>
<path d="M38.4674 22.1047H24.831C24.0782 22.1047 23.4673 21.4937 23.4673 20.741C23.4673 19.9883 24.0782 19.3773 24.831 19.3773H38.4674C39.2201 19.3773 39.8311 19.9883 39.8311 20.741C39.8311 21.4937 39.2201 22.1047 38.4674 22.1047Z" fill="#C68EED"/>
<path d="M20.74 27.5591H11.1945C10.4418 27.5591 9.83081 26.9482 9.83081 26.1955C9.83081 25.4427 10.4418 24.8319 11.1945 24.8319H20.74C21.4927 24.8319 22.1037 25.4429 22.1037 26.1956C22.1037 26.9483 21.4927 27.5591 20.74 27.5591Z" fill="#C68EED"/>
<path d="M19.3763 33.0137H11.1945C10.4418 33.0137 9.83081 32.4028 9.83081 31.6501C9.83081 30.8973 10.4418 30.2864 11.1945 30.2864H19.3763C20.129 30.2864 20.74 30.8973 20.74 31.6501C20.74 32.4028 20.129 33.0137 19.3763 33.0137Z" fill="#C68EED"/>
<path d="M19.3763 38.4683H11.1945C10.4418 38.4683 9.83081 37.8574 9.83081 37.1046C9.83081 36.3519 10.4418 35.741 11.1945 35.741H19.3763C20.129 35.741 20.74 36.3519 20.74 37.1046C20.74 37.8574 20.129 38.4683 19.3763 38.4683Z" fill="#C68EED"/>
<path d="M20.74 43.9228H11.1945C10.4418 43.9228 9.83081 43.3118 9.83081 42.5591C9.83081 41.8064 10.4418 41.1954 11.1945 41.1954H20.74C21.4927 41.1954 22.1037 41.8064 22.1037 42.5591C22.1037 43.312 21.4927 43.9228 20.74 43.9228Z" fill="#C68EED"/>
<path d="M22.1037 49.3774H11.1945C10.4418 49.3774 9.83081 48.7664 9.83081 48.0137C9.83081 47.261 10.4418 46.65 11.1945 46.65H22.1035C22.8563 46.65 23.4672 47.261 23.4672 48.0137C23.4672 48.7664 22.8564 49.3774 22.1037 49.3774Z" fill="#C68EED"/>
</g>
<defs>
<clipPath id="clip0_293_792">
<rect width="60" height="60" fill="white" transform="translate(0.2854 0.286377)"/>
</clipPath>
</defs>
</svg>
