<svg width="50" height="50" viewBox="0 0 50 50" fill="none" xmlns="http://www.w3.org/2000/svg">
<g clip-path="url(#clip0_1_616)">
<path d="M22.5009 49.875C22.4969 49.8742 22.4925 49.8742 22.4883 49.8733C22.4876 49.8733 22.4876 49.8733 22.4876 49.8733L22.5009 49.875Z" fill="#1A73E9"/>
<path d="M42.6772 7.32353C38.1607 2.80078 31.8988 -0.000683378 25 2.15682e-07C19.7533 -0.000683378 14.8666 1.62363 10.8443 4.39082C8.9332 5.70459 7.21924 7.27695 5.7457 9.05L5.74531 9.05078C2.15605 13.3736 -0.000781038 18.9453 2.12166e-07 24.9993C-0.000781038 31.1646 2.23926 36.8264 5.94482 41.1835C9.64893 45.5422 14.8277 48.6168 20.7138 49.6338C21.2979 49.7345 21.8895 49.8153 22.4884 49.8733C23.3192 49.9596 24.1577 50 25 50C31.8988 50.0008 38.1607 47.1978 42.6772 42.6766C47.1992 38.1569 50.0008 31.8963 50 24.9993C50.0008 18.1022 47.1992 11.8416 42.6772 7.32353ZM20.3136 46.0808C15.6437 45.0478 11.5387 42.5011 8.54228 38.9755C5.33906 35.2043 3.40996 30.3352 3.40918 24.9992C3.40957 22.1504 3.9627 19.4358 4.96211 16.9486V17.4201C4.96211 17.6444 5.29551 17.7535 5.57598 17.9198C5.77656 18.0411 5.68584 18.92 5.74268 19.5297C5.79561 20.1431 6.62881 21.5873 6.90918 21.5301C7.18574 21.4768 6.24238 19.3107 6.24238 19.3107C6.24238 19.3107 6.18555 18.5303 6.51895 18.5303C6.85234 18.5303 6.79551 19.3107 6.90918 19.8105C7.01875 20.3103 7.85254 21.1968 8.07227 21.4203C8.29541 21.64 8.07227 22.6433 8.1291 22.8111C8.18555 22.9774 10.1855 24.1402 10.3523 24.1966C10.5186 24.253 11.0191 24.0867 11.2953 24.1401C11.5719 24.1966 11.6291 24.8062 11.8522 24.9198C12.072 25.0305 13.0718 25.0876 13.2953 25.1395C13.515 25.1968 13.515 26.03 13.7955 26.1971C14.0721 26.3634 14.962 27.2537 14.962 27.2537C14.962 27.2537 15.6285 26.8631 15.7955 26.7502C15.9618 26.6402 16.2957 26.9737 16.2957 26.9737C16.2957 26.9737 16.3483 28.4203 16.3483 28.6965C16.3483 28.9734 15.2954 29.8638 15.2954 29.8638C15.2954 29.8638 15.2386 31.3073 15.2954 31.8635C15.3484 32.4166 16.5153 33.7502 16.5153 33.7502C16.5153 33.7502 16.9052 34.8031 17.0151 34.9732C17.1288 35.1396 19.0151 36.5258 19.0151 36.5258C19.0151 36.5258 19.0151 39.4158 19.0151 39.9697C19.0151 40.5267 19.4054 40.7502 19.4054 41.0836V43.4136C19.4054 44.136 20.0153 44.5267 20.2389 44.9127C20.3896 45.1813 20.3083 45.607 20.3136 46.0808ZM40.2687 40.2665C36.3556 44.1758 30.9685 46.5905 25 46.5913C24.2664 46.5913 23.5447 46.5555 22.8382 46.4829L22.8172 46.4799L22.8252 46.4807C22.6463 46.4646 22.467 46.441 22.2885 46.4188C22.2571 46.3639 22.2347 46.2944 22.2347 46.1899C22.2347 45.6887 22.4586 45.6887 22.515 45.3026C22.5685 44.9128 21.9581 44.8037 22.4052 44.6931C22.8484 44.5801 22.7916 43.9698 22.7348 43.8026C22.6817 43.6363 23.4016 43.8599 23.7914 43.5783C24.1816 43.3029 24.068 42.5255 23.9581 42.2462C23.8482 41.9692 24.2347 42.2462 24.4014 42.3026C24.568 42.3591 24.9579 41.8602 25.0678 41.4123C25.1818 40.9697 25.9581 39.469 25.9013 39.1356C25.8486 38.8038 26.6817 38.2499 27.2345 38.1362C27.791 38.0264 27.9585 37.8601 28.1782 37.136C28.4015 36.4166 28.5112 35.1929 28.4582 34.6932C28.4014 34.1926 29.7346 32.8598 29.7346 32.3601C29.7346 31.8634 29.3447 31.4735 28.8446 31.1394C28.3448 30.8067 27.2344 30.8067 26.9578 30.7495C26.6816 30.6969 26.5111 30.1972 26.0679 30.1399C25.625 30.0835 25.2348 30.4741 24.7342 30.3636C24.2345 30.2506 24.458 29.8638 24.7914 29.6403C25.1248 29.4168 24.7342 28.5837 24.4012 28.0824C24.0678 27.5873 23.4014 27.6398 22.8482 27.6963C22.2917 27.7535 22.1817 27.0867 21.6245 26.4207C21.0717 25.7531 20.1249 25.9729 19.6816 25.9194C19.2381 25.8638 18.5716 25.3633 18.1813 25.306C17.7915 25.2541 16.8485 26.587 16.6288 26.6403C16.4053 26.6968 16.3481 26.3069 16.0146 26.1972C15.6816 26.0872 15.5149 26.7503 14.9054 26.4207C14.2954 26.0873 14.7387 24.8635 14.7387 24.2532C14.7387 23.6397 14.2386 24.3639 13.5721 24.1403C12.9049 23.9206 13.3481 23.4734 13.682 22.9203C14.015 22.3642 14.0719 22.0872 13.4623 22.1963C12.852 22.3107 12.7383 21.9766 12.6856 22.4206C12.6284 22.8631 12.3522 23.3636 11.519 23.3109C10.6855 23.2537 10.5719 22.4771 10.5719 21.8629C10.5719 21.2541 10.7382 21.2541 11.1288 20.4774C11.519 19.697 11.8521 19.697 12.2385 19.4772C12.6283 19.2544 12.6855 19.5299 13.0148 19.4772C13.3482 19.4208 13.3482 19.2544 13.4623 18.9768C13.5722 18.7006 13.7389 19.0348 14.6815 19.0348C15.6283 19.0348 15.3105 19.14 15.3105 19.14C15.3105 19.14 14.9771 19.8068 15.7538 20.6934C16.5302 21.5799 16.5302 19.9167 16.5302 19.14C16.5302 18.3641 16.8636 18.1398 17.6398 17.5867C18.4169 17.0343 18.5268 16.2576 19.4129 15.7053C20.299 15.1476 22.1819 14.4846 22.7385 14.0421C23.2917 13.5988 22.4051 12.488 23.1817 12.2683C23.9581 12.0454 24.8442 12.0454 25.7312 11.712C26.6173 11.3825 26.2843 10.8263 25.841 10.6065C25.3975 10.3822 25.7312 9.38662 25.3975 9.054C25.0641 8.71904 24.5113 9.16318 23.735 9.38662C22.9583 9.60635 23.4016 7.8333 22.2953 8.05674C21.1856 8.27646 21.5186 10.2731 20.9658 10.2731C20.4089 10.2731 20.5226 10.8263 19.9656 11.3786C19.4129 11.9348 19.0795 11.3786 19.5228 10.4959C19.9656 9.60625 19.0796 9.8291 18.1934 9.71924C17.3064 9.60625 17.1966 9.16309 18.6366 8.27646C20.0755 7.38994 21.8524 7.28008 22.6248 6.39346C23.4016 5.50772 21.6284 6.16992 21.4087 5.83731C21.1855 5.50772 20.7423 5.39404 19.9655 5.83731C19.1893 6.28438 18.3031 6.28438 17.3063 6.39346C16.6521 6.46592 15.7106 6.20352 14.8261 5.95254C17.8581 4.32969 21.3181 3.40957 25 3.40879C30.9685 3.40957 36.3556 5.82344 40.2687 9.73438C44.1765 13.6459 46.5896 19.033 46.5911 24.9993C46.5896 30.967 44.1765 36.3525 40.2687 40.2665Z" fill="#1A73E9"/>
</g>
<defs>
<clipPath id="clip0_1_616">
<rect width="50" height="50" fill="white"/>
</clipPath>
</defs>
</svg>
