<svg width="61" height="60" viewBox="0 0 61 60" fill="none" xmlns="http://www.w3.org/2000/svg">
<path d="M37.8419 12.9743L38 13.027L38.1581 12.9743L52.5 8.19371V47.1396L38 51.973L23.1581 47.0257L23 46.973L22.8419 47.0257L8.5 51.8063V12.8604L23 8.02705L37.8419 12.9743Z" fill="white" stroke="#8CB4FF"/>
<path d="M37.5 51.8063L23.5 47.1396V8.19371L37.5 12.8604V51.8063Z" fill="white" stroke="#8CB4FF"/>
<path d="M12.5287 41.2887C12.5287 41.6991 12.6096 42.1055 12.7666 42.4846C12.9237 42.8638 13.1539 43.2083 13.444 43.4985C13.7342 43.7886 14.0787 44.0188 14.4579 44.1759C14.837 44.3329 15.2434 44.4138 15.6537 44.4138C16.0641 44.4138 16.4705 44.3329 16.8496 44.1759C17.2288 44.0188 17.5733 43.7886 17.8635 43.4985C18.1536 43.2083 18.3838 42.8638 18.5409 42.4846C18.6979 42.1055 18.7787 41.6991 18.7787 41.2887C18.7787 40.8784 18.6979 40.472 18.5409 40.0929C18.3838 39.7137 18.1536 39.3692 17.8635 39.079C17.5733 38.7889 17.2288 38.5587 16.8496 38.4016C16.4705 38.2446 16.0641 38.1637 15.6537 38.1637C15.2434 38.1637 14.837 38.2446 14.4579 38.4016C14.0787 38.5587 13.7342 38.7889 13.444 39.079C13.1539 39.3692 12.9237 39.7137 12.7666 40.0929C12.6096 40.472 12.5287 40.8784 12.5287 41.2887Z" fill="#8CB4FF"/>
<path d="M42.2213 37.5775C42.2213 37.9879 42.3021 38.3942 42.4591 38.7734C42.6162 39.1525 42.8464 39.497 43.1365 39.7872C43.4267 40.0774 43.7712 40.3076 44.1504 40.4646C44.5295 40.6217 44.9359 40.7025 45.3463 40.7025C45.7566 40.7025 46.163 40.6217 46.5421 40.4646C46.9213 40.3076 47.2658 40.0774 47.556 39.7872C47.8461 39.497 48.0763 39.1525 48.2334 38.7734C48.3904 38.3942 48.4713 37.9879 48.4713 37.5775C48.4713 37.1671 48.3904 36.7608 48.2334 36.3816C48.0763 36.0025 47.8461 35.658 47.556 35.3678C47.2658 35.0776 46.9213 34.8474 46.5421 34.6904C46.163 34.5333 45.7566 34.4525 45.3463 34.4525C44.9359 34.4525 44.5295 34.5333 44.1504 34.6904C43.7712 34.8474 43.4267 35.0776 43.1365 35.3678C42.8464 35.658 42.6162 36.0025 42.4591 36.3816C42.3021 36.7608 42.2213 37.1671 42.2213 37.5775Z" fill="#8CB4FF"/>
<path d="M21.8075 20.8737C21.8075 21.2841 21.8883 21.6905 22.0454 22.0696C22.2024 22.4488 22.4326 22.7933 22.7228 23.0835C23.013 23.3736 23.3575 23.6038 23.7366 23.7609C24.1158 23.9179 24.5221 23.9987 24.9325 23.9987C25.3429 23.9987 25.7492 23.9179 26.1284 23.7609C26.5075 23.6038 26.852 23.3736 27.1422 23.0835C27.4324 22.7933 27.6626 22.4488 27.8196 22.0696C27.9767 21.6905 28.0575 21.2841 28.0575 20.8737C28.0575 20.4634 27.9767 20.057 27.8196 19.6779C27.6626 19.2987 27.4324 18.9542 27.1422 18.664C26.852 18.3739 26.5075 18.1437 26.1284 17.9866C25.7492 17.8296 25.3429 17.7487 24.9325 17.7487C24.5221 17.7487 24.1158 17.8296 23.7366 17.9866C23.3575 18.1437 23.013 18.3739 22.7228 18.664C22.4326 18.9542 22.2024 19.2987 22.0454 19.6779C21.8883 20.057 21.8075 20.4634 21.8075 20.8737Z" fill="#8CB4FF"/>
<path d="M30.4987 19.0187C30.4987 19.5111 30.6943 19.9832 31.0424 20.3313C31.3905 20.6794 31.8627 20.875 32.355 20.875C32.8473 20.875 33.3195 20.6794 33.6676 20.3313C34.0157 19.9832 34.2112 19.5111 34.2112 19.0187C34.2112 18.5264 34.0157 18.0543 33.6676 17.7062C33.3195 17.3581 32.8473 17.1625 32.355 17.1625C31.8627 17.1625 31.3905 17.3581 31.0424 17.7062C30.6943 18.0543 30.4987 18.5264 30.4987 19.0187Z" fill="#8CB4FF"/>
<path d="M36.0663 19.0187C36.0663 19.5111 36.2618 19.9832 36.6099 20.3313C36.9581 20.6794 37.4302 20.875 37.9225 20.875C38.4148 20.875 38.887 20.6794 39.2351 20.3313C39.5832 19.9832 39.7788 19.5111 39.7788 19.0187C39.7788 18.5264 39.5832 18.0543 39.2351 17.7062C38.887 17.3581 38.4148 17.1625 37.9225 17.1625C37.4302 17.1625 36.9581 17.3581 36.6099 17.7062C36.2618 18.0543 36.0663 18.5264 36.0663 19.0187Z" fill="#8CB4FF"/>
<path d="M41.6363 20.875C41.6362 21.1186 41.6842 21.3599 41.7774 21.585C41.8706 21.8101 42.0072 22.0146 42.1795 22.1869C42.3517 22.3592 42.5562 22.4958 42.7813 22.5891C43.0064 22.6823 43.2476 22.7303 43.4913 22.7303C43.7349 22.7303 43.9761 22.6823 44.2012 22.5891C44.4263 22.4958 44.6308 22.3592 44.8031 22.1869C44.9753 22.0146 45.1119 21.8101 45.2052 21.585C45.2984 21.3599 45.3463 21.1186 45.3463 20.875C45.3463 20.6314 45.2984 20.3901 45.2052 20.165C45.1119 19.9399 44.9753 19.7354 44.8031 19.5631C44.6308 19.3908 44.4263 19.2541 44.2012 19.1609C43.9761 19.0677 43.7349 19.0197 43.4913 19.0197C43.2476 19.0197 43.0064 19.0677 42.7813 19.1609C42.5562 19.2541 42.3517 19.3908 42.1795 19.5631C42.0072 19.7354 41.8706 19.9399 41.7774 20.165C41.6842 20.3901 41.6362 20.6314 41.6363 20.875Z" fill="#8CB4FF"/>
<path d="M45.3463 24.5862C45.3462 24.8299 45.3942 25.0711 45.4874 25.2962C45.5806 25.5213 45.7172 25.7259 45.8895 25.8981C46.0617 26.0704 46.2662 26.2071 46.4913 26.3003C46.7164 26.3936 46.9576 26.4416 47.2013 26.4416C47.4449 26.4416 47.6861 26.3936 47.9112 26.3003C48.1363 26.2071 48.3408 26.0704 48.5131 25.8981C48.6853 25.7259 48.8219 25.5213 48.9151 25.2962C49.0083 25.0711 49.0563 24.8299 49.0563 24.5862C49.0563 24.3426 49.0083 24.1014 48.9151 23.8763C48.8219 23.6512 48.6853 23.4466 48.5131 23.2744C48.3408 23.1021 48.1363 22.9654 47.9112 22.8722C47.6861 22.7789 47.4449 22.7309 47.2013 22.7309C46.9576 22.7309 46.7164 22.7789 46.4913 22.8722C46.2662 22.9654 46.0617 23.1021 45.8895 23.2744C45.7172 23.4466 45.5806 23.6512 45.4874 23.8763C45.3942 24.1014 45.3462 24.3426 45.3463 24.5862Z" fill="#8CB4FF"/>
<path d="M45.345 30.1538C45.345 30.6461 45.5406 31.1182 45.8887 31.4663C46.2368 31.8144 46.7089 32.01 47.2013 32.01C47.6936 32.01 48.1657 31.8144 48.5138 31.4663C48.8619 31.1182 49.0575 30.6461 49.0575 30.1538C49.0575 29.6614 48.8619 29.1893 48.5138 28.8412C48.1657 28.4931 47.6936 28.2975 47.2013 28.2975C46.7089 28.2975 46.2368 28.4931 45.8887 28.8412C45.5406 29.1893 45.345 29.6614 45.345 30.1538Z" fill="#8CB4FF"/>
<path d="M36.0675 39.4325C36.0675 39.6761 36.1154 39.9174 36.2086 40.1425C36.3018 40.3676 36.4384 40.5721 36.6107 40.7444C36.783 40.9167 36.9875 41.0533 37.2126 41.1466C37.4376 41.2398 37.6789 41.2878 37.9225 41.2878C38.1661 41.2878 38.4074 41.2398 38.6325 41.1466C38.8575 41.0533 39.062 40.9167 39.2343 40.7444C39.4066 40.5721 39.5432 40.3676 39.6364 40.1425C39.7296 39.9174 39.7775 39.6761 39.7775 39.4325C39.7775 39.1889 39.7296 38.9476 39.6364 38.7225C39.5432 38.4974 39.4066 38.2929 39.2343 38.1206C39.062 37.9483 38.8575 37.8116 38.6325 37.7184C38.4074 37.6252 38.1661 37.5772 37.9225 37.5772C37.6789 37.5772 37.4376 37.6252 37.2126 37.7184C36.9875 37.8116 36.783 37.9483 36.6107 38.1206C36.4384 38.2929 36.3018 38.4974 36.2086 38.7225C36.1154 38.9476 36.0675 39.1889 36.0675 39.4325Z" fill="#8CB4FF"/>
<path d="M30.5 37.5775C30.5 37.8211 30.5479 38.0624 30.6411 38.2875C30.7343 38.5126 30.8709 38.7171 31.0432 38.8894C31.2155 39.0617 31.42 39.1984 31.645 39.2916C31.8701 39.3848 32.1114 39.4328 32.355 39.4328C32.5986 39.4328 32.8399 39.3848 33.065 39.2916C33.29 39.1984 33.4945 39.0617 33.6668 38.8894C33.8391 38.7171 33.9757 38.5126 34.0689 38.2875C34.1621 38.0624 34.21 37.8211 34.21 37.5775C34.21 37.3339 34.1621 37.0926 34.0689 36.8675C33.9757 36.6424 33.8391 36.4379 33.6668 36.2656C33.4945 36.0933 33.29 35.9567 33.065 35.8634C32.8399 35.7702 32.5986 35.7222 32.355 35.7222C32.1114 35.7222 31.8701 35.7702 31.645 35.8634C31.42 35.9567 31.2155 36.0933 31.0432 36.2656C30.8709 36.4379 30.7343 36.6424 30.6411 36.8675C30.5479 37.0926 30.5 37.3339 30.5 37.5775Z" fill="#8CB4FF"/>
<path d="M26.7875 33.865C26.7875 34.3573 26.9831 34.8295 27.3312 35.1776C27.6793 35.5257 28.1514 35.7213 28.6438 35.7213C29.1361 35.7213 29.6082 35.5257 29.9563 35.1776C30.3044 34.8295 30.5 34.3573 30.5 33.865C30.5 33.3727 30.3044 32.9005 29.9563 32.5524C29.6082 32.2043 29.1361 32.0088 28.6438 32.0088C28.1514 32.0088 27.6793 32.2043 27.3312 32.5524C26.9831 32.9005 26.7875 33.3727 26.7875 33.865Z" fill="#8CB4FF"/>
<path d="M21.9062 33.03C21.9062 33.522 22.1017 33.9938 22.4496 34.3417C22.7974 34.6896 23.2693 34.885 23.7612 34.885C24.2532 34.885 24.7251 34.6896 25.0729 34.3417C25.4208 33.9938 25.6162 33.522 25.6162 33.03C25.6162 32.538 25.4208 32.0662 25.0729 31.7183C24.7251 31.3704 24.2532 31.175 23.7612 31.175C23.2693 31.175 22.7974 31.3704 22.4496 31.7183C22.1017 32.0662 21.9063 32.538 21.9062 33.03Z" fill="#8CB4FF"/>
<path d="M17.51 35.7212C17.51 35.9649 17.5579 36.2061 17.6511 36.4312C17.7443 36.6563 17.881 36.8609 18.0532 37.0331C18.2255 37.2054 18.43 37.3421 18.6551 37.4353C18.8801 37.5286 19.1214 37.5766 19.365 37.5766C19.6086 37.5766 19.8499 37.5286 20.075 37.4353C20.3 37.3421 20.5046 37.2054 20.6768 37.0331C20.8491 36.8609 20.9857 36.6563 21.0789 36.4312C21.1721 36.2061 21.2201 35.9649 21.22 35.7212C21.2201 35.4776 21.1721 35.2364 21.0789 35.0113C20.9857 34.7862 20.8491 34.5816 20.6768 34.4094C20.5046 34.2371 20.3 34.1004 20.075 34.0072C19.8499 33.9139 19.6086 33.8659 19.365 33.8659C19.1214 33.8659 18.8801 33.9139 18.6551 34.0072C18.43 34.1004 18.2255 34.2371 18.0532 34.4094C17.881 34.5816 17.7443 34.7862 17.6511 35.0113C17.5579 35.2364 17.51 35.4776 17.51 35.7212Z" fill="#8CB4FF"/>
<path d="M15.6537 22.7313C15.6537 22.9749 15.7017 23.2161 15.7949 23.4412C15.8881 23.6663 16.0247 23.8709 16.1969 24.0431C16.3692 24.2154 16.5737 24.3521 16.7988 24.4453C17.0239 24.5386 17.2651 24.5866 17.5087 24.5866C17.7524 24.5866 17.9936 24.5386 18.2187 24.4453C18.4438 24.3521 18.6483 24.2154 18.8205 24.0431C18.9928 23.8709 19.1294 23.6663 19.2226 23.4412C19.3158 23.2161 19.3638 22.9749 19.3637 22.7313C19.3638 22.4876 19.3158 22.2464 19.2226 22.0213C19.1294 21.7962 18.9928 21.5916 18.8205 21.4194C18.6483 21.2471 18.4438 21.1104 18.2187 21.0172C17.9936 20.9239 17.7524 20.8759 17.5087 20.8759C17.2651 20.8759 17.0239 20.9239 16.7988 21.0172C16.5737 21.1104 16.3692 21.2471 16.1969 21.4194C16.0247 21.5916 15.8881 21.7962 15.7949 22.0213C15.7017 22.2464 15.6537 22.4876 15.6537 22.7313Z" fill="#8CB4FF"/>
</svg>
