<svg width="46" height="45" viewBox="0 0 46 45" fill="none" xmlns="http://www.w3.org/2000/svg">
<path d="M40.7476 2.28797H13.6806C11.486 2.28797 9.68895 4.06262 9.68895 6.23408V19.6125L4.90665 21.9782V3.2503H2.78815V41.749H4.90665V23.0215L9.68895 25.3872V38.7656C9.68895 40.937 11.486 42.7117 13.6806 42.7117H40.7476C42.9422 42.7117 44.7373 40.937 44.7373 38.7656V6.23408C44.7353 4.06262 42.9422 2.28797 40.7476 2.28797ZM41.8147 37.9707H12.6076V14.8712H41.8147V37.9707Z" fill="#4CAF50"/>
<path d="M38.1897 20.4886H15.2133V22.5774H38.1897V20.4886Z" fill="#4CAF50"/>
<path d="M38.1897 26.755H15.2133V28.8438H38.1897V26.755Z" fill="#4CAF50"/>
<path d="M38.1897 33.021H15.2133V35.1098H38.1897V33.021Z" fill="#4CAF50"/>
</svg>
