<svg width="40" height="41" viewBox="0 0 40 41" fill="none" xmlns="http://www.w3.org/2000/svg">
<rect x="39" y="39.0227" width="38" height="38" rx="19" transform="rotate(-180 39 39.0227)" stroke="#0C0B0B" stroke-width="2"/>
<path d="M19.773 14.6893L19.773 13.4822L18.9195 14.3358L15.5091 17.7462L15.8626 18.0997L15.5091 17.7462C15.4205 17.8347 15.277 17.8347 15.1884 17.7462C15.0999 17.6577 15.0999 17.514 15.1884 17.4255L19.8394 12.7745C19.928 12.686 20.0715 12.686 20.1601 12.7745L20.5136 12.421L20.1601 12.7745L24.8109 17.4253C24.8554 17.4698 24.8774 17.5271 24.8774 17.5857C24.8774 17.6444 24.8554 17.7016 24.811 17.746C24.7225 17.8346 24.579 17.8346 24.4904 17.746L24.4904 17.746L21.08 14.3358L20.2265 13.4822L20.2265 14.6893L20.2265 27.1106C20.2265 27.2357 20.1249 27.3373 19.9997 27.3373C19.8746 27.3373 19.773 27.2357 19.773 27.1106L19.773 14.6893Z" fill="#0C0B0B" stroke="#0C0B0B"/>
</svg>
