<svg width="28" height="28" viewBox="0 0 28 28" fill="none" xmlns="http://www.w3.org/2000/svg">
<g clip-path="url(#clip0_126_2036)">
<path d="M14 28C21.732 28 28 21.732 28 14C28 6.26801 21.732 0 14 0C6.26801 0 0 6.26801 0 14C0 21.732 6.26801 28 14 28Z" fill="#36DB9F"/>
<path d="M13.2567 20.9513C13.6913 21.3913 14.6592 21.2455 14.7635 20.5537C15.412 16.2596 18.6566 12.6368 21.112 9.22308C21.7928 8.2771 20.2274 7.37846 19.5554 8.31317C17.3116 11.4324 14.4835 14.7145 13.3772 18.4994C12.1128 17.2073 10.8434 15.9275 9.42534 14.792C8.52728 14.0726 7.24265 15.34 8.15039 16.0669C9.99795 17.5468 11.5946 19.2725 13.2567 20.9513Z" fill="white"/>
</g>
<defs>
<clipPath id="clip0_126_2036">
<rect width="28" height="28" fill="white"/>
</clipPath>
</defs>
</svg>
