<svg width="698" height="521" viewBox="0 0 698 521" fill="none" xmlns="http://www.w3.org/2000/svg">
<g clip-path="url(#clip0_226_766)">
<path d="M698 457.855H0V458.205H698V457.855Z" fill="#EBEBEB"/>
<path d="M628.061 480.353H581.825V480.703H628.061V480.353Z" fill="#EBEBEB"/>
<path d="M462.383 484.156H450.252V484.506H462.383V484.156Z" fill="#EBEBEB"/>
<path d="M580.429 467.377H553.64V467.727H580.429V467.377Z" fill="#EBEBEB"/>
<path d="M133.528 469.726H73.2344V470.076H133.528V469.726Z" fill="#EBEBEB"/>
<path d="M154.803 469.726H145.966V470.076H154.803V469.726Z" fill="#EBEBEB"/>
<path d="M314.309 475.627H183.532V475.977H314.309V475.627Z" fill="#EBEBEB"/>
<path d="M330.866 395.494H61.312C56.9146 395.494 53.3408 391.914 53.3408 387.51V7.98398C53.3408 3.57951 56.9146 0 61.312 0H330.88C335.277 0 338.851 3.57951 338.851 7.98398V387.51C338.837 391.914 335.263 395.494 330.866 395.494ZM61.312 0.349561C57.11 0.349561 53.6898 3.77526 53.6898 7.98398V387.51C53.6898 391.718 57.11 395.144 61.312 395.144H330.88C335.082 395.144 338.502 391.718 338.502 387.51V7.98398C338.502 3.77526 335.082 0.349561 330.88 0.349561H61.312Z" fill="#EBEBEB"/>
<path d="M632.821 395.494H363.253C358.856 395.494 355.282 391.914 355.282 387.51V7.98398C355.282 3.57951 358.856 0 363.253 0H632.821C637.218 0 640.792 3.57951 640.792 7.98398V387.51C640.792 391.914 637.218 395.494 632.821 395.494ZM363.253 0.349561C359.051 0.349561 355.631 3.77526 355.631 7.98398V387.51C355.631 391.718 359.051 395.144 363.253 395.144H632.821C637.023 395.144 640.443 391.718 640.443 387.51V7.98398C640.443 3.77526 637.023 0.349561 632.821 0.349561H363.253Z" fill="#EBEBEB"/>
<path d="M432.049 449.703H402.579L418.075 323.33C418.731 317.975 423.589 313.64 428.936 313.64H439.057H557.507L538.661 449.689H432.049V449.703Z" fill="#F5F5F5"/>
<path d="M525.497 449.703H554.967L570.462 323.33C571.118 317.975 567.321 313.64 561.975 313.64H551.854C546.507 313.64 541.649 317.975 540.993 323.33L525.497 449.703Z" fill="#F0F0F0"/>
<path d="M514.65 449.55L519.983 388.432C520.22 385.706 522.328 383.511 525.036 383.161L527.228 382.881C530.871 382.42 533.691 379.47 534.012 375.806L534.99 364.662C535.394 360.09 531.793 356.161 527.214 356.161H576.465C581.044 356.161 584.631 360.09 584.24 364.662L583.263 375.806C582.942 379.47 580.122 382.406 576.479 382.881L574.287 383.161C571.579 383.511 569.471 385.706 569.233 388.432L563.901 449.55C563.51 454.01 559.783 457.422 555.315 457.422H506.064C510.532 457.436 514.259 454.01 514.65 449.55Z" fill="#E6E6E6"/>
<path d="M379.127 373.136C378.289 363.544 370.262 356.175 360.644 356.175H384.473H403.515C413.133 356.175 421.16 363.544 421.998 373.136L426.228 421.585H383.356L379.127 373.136Z" fill="#E6E6E6"/>
<path d="M341.602 356.175H360.643C370.262 356.175 378.289 363.544 379.126 373.136L383.356 421.585H485.46L489.689 373.136C490.527 363.544 498.554 356.175 508.172 356.175H527.214C531.793 356.175 535.38 360.104 534.99 364.676L534.012 375.82C533.691 379.484 530.871 382.42 527.228 382.895L525.036 383.175C522.328 383.525 520.22 385.72 519.983 388.446L514.65 449.564C514.259 454.024 510.532 457.436 506.064 457.436H362.751C358.284 457.436 354.557 454.01 354.166 449.564L348.833 388.446C348.596 385.72 346.488 383.525 343.779 383.175L341.588 382.895C337.944 382.434 335.124 379.484 334.803 375.82L333.826 364.676C333.421 360.104 337.023 356.175 341.602 356.175Z" fill="#F0F0F0"/>
<path d="M129.144 106.812C129.144 106.812 127.511 96.0035 135.37 89.0821C143.244 82.1608 142.546 78.036 140.298 77.4907C138.05 76.9594 135.97 83.8807 132.522 85.7823C132.522 85.7823 132.411 75.9107 135.929 72.2752C139.446 68.6398 141.289 59.2716 137.939 59.1038C134.602 58.936 134.253 64.6688 133.555 68.7237C132.857 72.7926 129.144 78.4974 129.144 78.4974C129.144 78.4974 128.418 69.6605 126.143 66.0251C123.867 62.3897 129.926 54.0701 127.594 50.4347C125.263 46.7992 121.117 53.7205 121.452 61.5227C121.801 69.311 126.98 77.6305 125.78 85.7683C125.78 85.7683 123.49 80.0495 121.438 79.5321C119.386 79.0148 117.306 75.2395 115.924 73.8273C114.542 72.4291 112.811 77.281 115.924 81.7833C119.037 86.2857 126.994 98.3245 125.78 108.07L129.144 106.812Z" fill="#E6E6E6"/>
<path d="M133.849 101.904L136.432 118.096C137.227 123.101 133.374 127.618 128.321 127.618H125.571C120.517 127.618 116.664 123.087 117.46 118.096L120.042 101.904H133.849Z" fill="#E6E6E6"/>
<path d="M94.8823 131.019L276.977 131.019V121.651L94.8823 121.651V131.019Z" fill="#E0E0E0"/>
<path d="M260.566 121.643H268.593V87.1061H260.566V121.643Z" fill="#EBEBEB"/>
<path d="M221.781 121.643H229.808V87.1061H221.781V121.643Z" fill="#EBEBEB"/>
<path d="M171.873 120.283L179.783 121.649L185.638 87.6127L177.728 86.2475L171.873 120.283Z" fill="#EBEBEB"/>
<path d="M250.625 121.65H258.652V91.658H250.625V121.65Z" fill="#EBEBEB"/>
<path d="M232.188 121.65H240.215V91.658H232.188V121.65Z" fill="#EBEBEB"/>
<path d="M185.648 121.65H193.675V91.658H185.648V121.65Z" fill="#EBEBEB"/>
<path d="M204.744 119.907L212.58 121.651L219.075 92.3723L211.239 90.6285L204.744 119.907Z" fill="#EBEBEB"/>
<path d="M243.7 121.648H247.706V85.3911H243.7V121.648Z" fill="#EBEBEB"/>
<path d="M195.983 121.648H199.989V85.3911H195.983V121.648Z" fill="#EBEBEB"/>
<path d="M276.981 191.601H94.8867V200.97H276.981V191.601Z" fill="#E0E0E0"/>
<path d="M111.29 157.065H103.263V191.601H111.29V157.065Z" fill="#EBEBEB"/>
<path d="M150.085 157.065H142.058V191.601H150.085V157.065Z" fill="#EBEBEB"/>
<path d="M194.114 156.213L186.203 157.578L192.058 191.614L199.969 190.249L194.114 156.213Z" fill="#EBEBEB"/>
<path d="M121.229 161.609H113.202V191.601H121.229V161.609Z" fill="#EBEBEB"/>
<path d="M139.671 161.609H131.644V191.601H139.671V161.609Z" fill="#EBEBEB"/>
<path d="M186.213 161.609H178.186V191.601H186.213V161.609Z" fill="#EBEBEB"/>
<path d="M160.621 160.591L152.785 162.334L159.28 191.613L167.116 189.869L160.621 160.591Z" fill="#EBEBEB"/>
<path d="M128.168 155.345H124.161V191.601H128.168V155.345Z" fill="#EBEBEB"/>
<path d="M175.882 155.345H171.876V191.601H175.882V155.345Z" fill="#EBEBEB"/>
<path d="M259.503 164.266H220.415V191.294H259.503V164.266Z" fill="#EBEBEB"/>
<path d="M572.82 96.8424H416.203V270.337H572.82V96.8424Z" fill="#E0E0E0"/>
<path d="M577.818 96.8424H415.38V270.337H577.818V96.8424Z" fill="#F0F0F0"/>
<path d="M570.95 102.38H421.997V262.367H570.95V102.38Z" fill="white"/>
<path d="M570.95 102.38H566.637V262.367H570.95V102.38Z" fill="#E0E0E0"/>
<path d="M421.611 217.414V221.735H567.102V217.414H421.611Z" fill="#E0E0E0"/>
<path d="M570.95 210.184H419.68V217.427H570.95V210.184Z" fill="#F0F0F0"/>
<path d="M349 521C498.487 521 619.67 513.914 619.67 505.172C619.67 496.43 498.487 489.344 349 489.344C199.512 489.344 78.3291 496.43 78.3291 505.172C78.3291 513.914 199.512 521 349 521Z" fill="#F5F5F5"/>
<path d="M456.729 482.115C457.734 480.437 456.324 477.892 454.356 477.864C455.208 475.445 454.37 472.523 452.36 470.943C452.108 470.747 451.815 470.551 451.494 470.551C451.145 470.551 450.838 470.761 450.559 470.971C448.716 472.299 446.873 473.628 445.031 474.956C444.612 475.263 444.165 475.585 443.928 476.046C442.797 478.242 446.873 481.052 445.198 482.856C444.724 483.373 443.942 483.485 443.341 483.863C442.029 484.688 441.862 486.491 441.247 487.918C440.633 489.344 438.497 490.448 437.674 489.134C438.274 487.764 436.445 486.589 434.965 486.407C433.5 486.24 431.936 486.156 431.113 484.758C429.005 486.603 424.286 481.458 424.398 479.388C422.667 479.514 421.48 481.15 421.103 482.772C420.712 484.464 420.95 486.212 420.922 487.946C420.866 491.301 419.791 494.601 419.847 497.957C419.889 500.572 420.908 503.48 423.295 504.529C424.44 505.032 425.738 505.032 426.994 505.032C436.068 504.976 445.128 504.92 454.202 504.864C454.858 504.864 455.543 504.85 456.115 504.543C457.343 503.9 457.609 502.292 457.72 500.907C458.209 494.993 458.697 489.064 459.186 483.15C458.362 482.786 457.539 482.45 456.729 482.115Z" fill="#407BFF"/>
<path opacity="0.3" d="M456.729 482.115C457.734 480.437 456.324 477.892 454.356 477.864C455.208 475.445 454.37 472.523 452.36 470.943C452.108 470.747 451.815 470.551 451.494 470.551C451.145 470.551 450.838 470.761 450.559 470.971C448.716 472.299 446.873 473.628 445.031 474.956C444.612 475.263 444.165 475.585 443.928 476.046C442.797 478.242 446.873 481.052 445.198 482.856C444.724 483.373 443.942 483.485 443.341 483.863C442.029 484.688 441.862 486.491 441.247 487.918C440.633 489.344 438.497 490.448 437.674 489.134C438.274 487.764 436.445 486.589 434.965 486.407C433.5 486.24 431.936 486.156 431.113 484.758C429.005 486.603 424.286 481.458 424.398 479.388C422.667 479.514 421.48 481.15 421.103 482.772C420.712 484.464 420.95 486.212 420.922 487.946C420.866 491.301 419.791 494.601 419.847 497.957C419.889 500.572 420.908 503.48 423.295 504.529C424.44 505.032 425.738 505.032 426.994 505.032C436.068 504.976 445.128 504.92 454.202 504.864C454.858 504.864 455.543 504.85 456.115 504.543C457.343 503.9 457.609 502.292 457.72 500.907C458.209 494.993 458.697 489.064 459.186 483.15C458.362 482.786 457.539 482.45 456.729 482.115Z" fill="white"/>
<path d="M458.306 453.311H455.249H446.831H443.76H435.356H432.285H423.881H420.81H416.063L416.412 457.59L416.664 460.638L417.306 468.58L417.669 473.138L418.157 479.207L418.367 481.807L418.437 482.576L418.688 485.638L419.023 489.833L419.232 492.434L419.456 495.077L419.707 498.139L419.902 500.46L420.112 503.061L420.196 504.193H425.752H430.442H437.213H441.903H448.674H453.365H458.935L459.018 503.061L459.228 500.474L459.409 498.139L459.661 495.077L459.884 492.448L460.093 489.847L460.428 485.638L460.68 482.59L460.735 481.821L460.945 479.221L461.447 473.152L461.81 468.608L462.439 460.666L462.69 457.618L463.039 453.339H458.306V453.311ZM460.847 456.108L460.037 455.297H460.917L460.847 456.108ZM460.638 458.708L460.554 459.743L456.771 463.532L452.429 459.184L456.31 455.297H457.218L460.638 458.708ZM459.549 472.229L456.785 474.998L452.443 470.649L456.785 466.315L459.786 469.321L459.549 472.229ZM419.372 469.335L422.373 466.329L426.715 470.663L422.373 475.012L419.609 472.243L419.372 469.335ZM455.389 464.916L451.047 469.265L446.72 464.916L451.061 460.568L455.389 464.916ZM448.576 455.297H453.532L451.047 457.785L448.576 455.297ZM449.637 470.663L445.31 475.012L440.968 470.663L445.31 466.329L449.637 470.663ZM435.245 476.41L439.586 472.075L443.914 476.41L439.586 480.759L435.245 476.41ZM438.176 482.157L433.835 486.505L429.507 482.171L433.849 477.822L438.176 482.157ZM445.31 477.822L449.637 482.171L445.31 486.505L440.968 482.157L445.31 477.822ZM439.586 469.265L435.245 464.916L439.586 460.568L443.914 464.916L439.586 469.265ZM438.176 470.663L433.849 475.012L429.507 470.663L433.849 466.329L438.176 470.663ZM428.111 469.265L423.783 464.916L428.111 460.568L432.453 464.916L428.111 469.265ZM428.111 472.075L432.453 476.41L428.111 480.759L423.783 476.41L428.111 472.075ZM432.439 487.904L428.097 492.238L423.769 487.904L428.097 483.555L432.439 487.904ZM433.835 489.302L438.176 493.65L433.849 497.999L429.507 493.65L433.835 489.302ZM435.245 487.904L439.586 483.555L443.914 487.904L439.586 492.238L435.245 487.904ZM445.31 489.302L449.637 493.65L445.31 497.999L440.968 493.65L445.31 489.302ZM451.047 495.049L455.389 499.397L452.583 502.208H449.526L446.72 499.397L451.047 495.049ZM446.72 487.904L451.061 483.555L455.403 487.904L451.061 492.238L446.72 487.904ZM446.72 476.41L451.061 472.075L455.403 476.41L451.061 480.759L446.72 476.41ZM449.637 459.184L445.31 463.532L440.968 459.184L444.849 455.297H445.756L449.637 459.184ZM439.586 457.785L437.101 455.297H442.057L439.586 457.785ZM438.176 459.184L433.849 463.532L429.507 459.184L433.388 455.297H434.295L438.176 459.184ZM430.582 455.297L428.097 457.785L425.626 455.297H430.582ZM422.834 455.297L426.715 459.184L422.373 463.532L418.604 459.743L418.52 458.708L421.913 455.297H422.834ZM419.121 455.297L418.311 456.108L418.241 455.297H419.121ZM418.855 462.791L420.977 464.916L419.177 466.72L418.855 462.791ZM420.028 477.347L419.861 475.291L420.977 476.41L420.028 477.347ZM420.238 479.962L422.373 477.822L426.715 482.171L422.373 486.505L420.628 484.758L420.238 479.962ZM420.88 487.987L420.866 487.792L420.963 487.89L420.88 487.987ZM421.634 497.244L421.089 490.588L422.373 489.302L426.715 493.65L422.373 497.985L421.634 497.244ZM422.038 502.194L421.955 501.201L422.373 500.781L423.783 502.194H422.038ZM423.783 499.383L428.111 495.035L432.453 499.383L429.647 502.194H426.589L423.783 499.383ZM432.439 502.194L433.849 500.781L435.258 502.194H432.439ZM438.05 502.194L435.245 499.383L439.586 495.035L443.914 499.383L441.122 502.194H438.05ZM443.914 502.194L445.324 500.781L446.734 502.194H443.914ZM457.12 502.194H455.375L456.785 500.781L457.204 501.201L457.12 502.194ZM457.525 497.244L456.785 497.985L452.443 493.65L456.785 489.302L458.069 490.588L457.525 497.244ZM458.292 487.792L458.279 487.987L458.195 487.904L458.292 487.792ZM458.544 484.744L456.785 486.491L452.443 482.157L456.785 477.808L458.921 479.948L458.544 484.744ZM459.13 477.361L458.181 476.41L459.298 475.291L459.13 477.361ZM460.317 462.791L459.996 466.748L458.181 464.93L460.317 462.791Z" fill="#407BFF"/>
<g opacity="0.6">
<path d="M458.306 453.311H455.249H446.831H443.76H435.356H432.285H423.881H420.81H416.063L416.412 457.59L416.664 460.638L417.306 468.58L417.669 473.138L418.157 479.207L418.367 481.807L418.437 482.576L418.688 485.638L419.023 489.833L419.232 492.434L419.456 495.077L419.707 498.139L419.902 500.46L420.112 503.061L420.196 504.193H425.752H430.442H437.213H441.903H448.674H453.365H458.935L459.018 503.061L459.228 500.474L459.409 498.139L459.661 495.077L459.884 492.448L460.093 489.847L460.428 485.638L460.68 482.59L460.735 481.821L460.945 479.221L461.447 473.152L461.81 468.608L462.439 460.666L462.69 457.618L463.039 453.339H458.306V453.311ZM460.847 456.108L460.037 455.297H460.917L460.847 456.108ZM460.638 458.708L460.554 459.743L456.771 463.532L452.429 459.184L456.31 455.297H457.218L460.638 458.708ZM459.549 472.229L456.785 474.998L452.443 470.649L456.785 466.315L459.786 469.321L459.549 472.229ZM419.372 469.335L422.373 466.329L426.715 470.663L422.373 475.012L419.609 472.243L419.372 469.335ZM455.389 464.916L451.047 469.265L446.72 464.916L451.061 460.568L455.389 464.916ZM448.576 455.297H453.532L451.047 457.785L448.576 455.297ZM449.637 470.663L445.31 475.012L440.968 470.663L445.31 466.329L449.637 470.663ZM435.245 476.41L439.586 472.075L443.914 476.41L439.586 480.759L435.245 476.41ZM438.176 482.157L433.835 486.505L429.507 482.171L433.849 477.822L438.176 482.157ZM445.31 477.822L449.637 482.171L445.31 486.505L440.968 482.157L445.31 477.822ZM439.586 469.265L435.245 464.916L439.586 460.568L443.914 464.916L439.586 469.265ZM438.176 470.663L433.849 475.012L429.507 470.663L433.849 466.329L438.176 470.663ZM428.111 469.265L423.783 464.916L428.111 460.568L432.453 464.916L428.111 469.265ZM428.111 472.075L432.453 476.41L428.111 480.759L423.783 476.41L428.111 472.075ZM432.439 487.904L428.097 492.238L423.769 487.904L428.097 483.555L432.439 487.904ZM433.835 489.302L438.176 493.65L433.849 497.999L429.507 493.65L433.835 489.302ZM435.245 487.904L439.586 483.555L443.914 487.904L439.586 492.238L435.245 487.904ZM445.31 489.302L449.637 493.65L445.31 497.999L440.968 493.65L445.31 489.302ZM451.047 495.049L455.389 499.397L452.583 502.208H449.526L446.72 499.397L451.047 495.049ZM446.72 487.904L451.061 483.555L455.403 487.904L451.061 492.238L446.72 487.904ZM446.72 476.41L451.061 472.075L455.403 476.41L451.061 480.759L446.72 476.41ZM449.637 459.184L445.31 463.532L440.968 459.184L444.849 455.297H445.756L449.637 459.184ZM439.586 457.785L437.101 455.297H442.057L439.586 457.785ZM438.176 459.184L433.849 463.532L429.507 459.184L433.388 455.297H434.295L438.176 459.184ZM430.582 455.297L428.097 457.785L425.626 455.297H430.582ZM422.834 455.297L426.715 459.184L422.373 463.532L418.604 459.743L418.52 458.708L421.913 455.297H422.834ZM419.121 455.297L418.311 456.108L418.241 455.297H419.121ZM418.855 462.791L420.977 464.916L419.177 466.72L418.855 462.791ZM420.028 477.347L419.861 475.291L420.977 476.41L420.028 477.347ZM420.238 479.962L422.373 477.822L426.715 482.171L422.373 486.505L420.628 484.758L420.238 479.962ZM420.88 487.987L420.866 487.792L420.963 487.89L420.88 487.987ZM421.634 497.244L421.089 490.588L422.373 489.302L426.715 493.65L422.373 497.985L421.634 497.244ZM422.038 502.194L421.955 501.201L422.373 500.781L423.783 502.194H422.038ZM423.783 499.383L428.111 495.035L432.453 499.383L429.647 502.194H426.589L423.783 499.383ZM432.439 502.194L433.849 500.781L435.258 502.194H432.439ZM438.05 502.194L435.245 499.383L439.586 495.035L443.914 499.383L441.122 502.194H438.05ZM443.914 502.194L445.324 500.781L446.734 502.194H443.914ZM457.12 502.194H455.375L456.785 500.781L457.204 501.201L457.12 502.194ZM457.525 497.244L456.785 497.985L452.443 493.65L456.785 489.302L458.069 490.588L457.525 497.244ZM458.292 487.792L458.279 487.987L458.195 487.904L458.292 487.792ZM458.544 484.744L456.785 486.491L452.443 482.157L456.785 477.808L458.921 479.948L458.544 484.744ZM459.13 477.361L458.181 476.41L459.298 475.291L459.13 477.361ZM460.317 462.791L459.996 466.748L458.181 464.93L460.317 462.791Z" fill="white"/>
</g>
<path d="M415.687 457.072H463.472C464.742 457.072 465.761 456.038 465.761 454.779V453.842C465.761 452.57 464.728 451.549 463.472 451.549H415.687C414.417 451.549 413.397 452.584 413.397 453.842V454.779C413.397 456.038 414.417 457.072 415.687 457.072Z" fill="#407BFF"/>
<path d="M459.703 506.738H419.47C418.2 506.738 417.181 505.703 417.181 504.445V503.508C417.181 502.236 418.214 501.215 419.47 501.215H459.703C460.973 501.215 461.992 502.25 461.992 503.508V504.445C461.992 505.717 460.959 506.738 459.703 506.738Z" fill="#407BFF"/>
<path d="M599.47 315.682H253.179C249.996 315.682 247.413 313.095 247.413 309.907V59.6911C247.413 56.5031 249.996 53.9164 253.179 53.9164H599.484C602.667 53.9164 605.25 56.5031 605.25 59.6911V309.921C605.236 313.109 602.653 315.682 599.47 315.682Z" fill="#407BFF"/>
<path opacity="0.4" d="M605.236 68.0667H247.413V304.342H605.236V68.0667Z" fill="black"/>
<path d="M596.86 64.1656C598.719 64.1656 600.225 62.6569 600.225 60.7958C600.225 58.9347 598.719 57.426 596.86 57.426C595.002 57.426 593.496 58.9347 593.496 60.7958C593.496 62.6569 595.002 64.1656 596.86 64.1656Z" fill="white"/>
<path d="M585.511 64.1656C587.369 64.1656 588.875 62.6569 588.875 60.7958C588.875 58.9347 587.369 57.426 585.511 57.426C583.653 57.426 582.146 58.9347 582.146 60.7958C582.146 62.6569 583.653 64.1656 585.511 64.1656Z" fill="white"/>
<path d="M574.161 64.1656C576.019 64.1656 577.526 62.6569 577.526 60.7958C577.526 58.9347 576.019 57.426 574.161 57.426C572.303 57.426 570.797 58.9347 570.797 60.7958C570.797 62.6569 572.303 64.1656 574.161 64.1656Z" fill="white"/>
<path d="M365.012 190.86H248.739V292.904H365.012V190.86Z" fill="#263238"/>
<path d="M365.012 86.5514H248.739V188.595H365.012V86.5514Z" fill="#263238"/>
<path d="M483.952 86.5514H367.679V188.595H483.952V86.5514Z" fill="#407BFF"/>
<path d="M602.905 86.5514H486.632V188.595H602.905V86.5514Z" fill="white"/>
<path d="M483.952 190.86H367.679V292.904H483.952V190.86Z" fill="#263238"/>
<path d="M602.905 190.86H486.632V292.904H602.905V190.86Z" fill="#407BFF"/>
<path d="M582.983 188.609L585.622 166.335C586.32 160.393 582.453 154.814 576.617 153.513C546.436 146.788 528.428 153.443 528.428 153.443C520.638 166.153 515.85 178.234 512.918 188.595H582.983V188.609Z" fill="#263238"/>
<path d="M561.234 152.563C563.44 152.073 569.024 152.409 569.024 152.409C562.463 146.914 565.715 132.959 568.382 125.381L548.098 136.874C548.321 137.853 548.517 138.846 548.6 139.811C548.796 141.67 548.684 143.474 547.986 145.082C547.386 146.452 544.803 149.556 543.17 150.521L551.281 154.157L561.234 152.563Z" fill="#E4897B"/>
<path opacity="0.2" d="M563.691 132.68C562.882 141.992 552.886 144.551 547.986 145.082C548.684 143.474 548.796 141.67 548.601 139.811L563.691 132.68Z" fill="black"/>
<path d="M537.013 104.505C537.013 104.505 535.407 117.746 543.085 123.311C550.763 128.876 549.116 96.479 549.116 96.479L537.013 104.505Z" fill="#263238"/>
<path d="M566.776 132.47C566.399 133.253 565.938 134.05 565.394 134.819C561.918 139.811 556.417 141.377 551.42 140.216C551.043 140.118 550.68 140.034 550.331 139.908C547.05 138.874 544.077 136.651 542.192 133.435C542.122 133.323 542.053 133.211 541.997 133.099C541.745 132.652 541.522 132.19 541.299 131.715C540.88 130.736 540.503 129.687 540.168 128.569C537.39 119.564 537.711 104.533 546.045 99.3734C552.676 95.1926 563.16 96.5909 567.334 103.247C568.535 105.134 567.181 110.07 567.404 112.293C568.381 121.354 569.386 127.101 566.776 132.47Z" fill="#E4897B"/>
<path d="M552.313 117.858C552.509 118.683 552.132 119.438 551.587 119.536C551.029 119.634 550.485 119.019 550.345 118.194C550.191 117.369 550.54 116.6 551.071 116.516C551.601 116.418 552.16 117.005 552.313 117.858Z" fill="#263238"/>
<path d="M542.876 119.466C543.071 120.291 542.68 121.06 542.15 121.144C541.606 121.228 541.047 120.627 540.908 119.802C540.754 118.977 541.103 118.208 541.633 118.124C542.164 118.026 542.736 118.669 542.876 119.466Z" fill="#263238"/>
<path d="M545.948 119.368C545.389 122.095 544.454 124.724 543.184 127.198C544.482 127.828 546.004 127.856 547.316 127.268L545.948 119.368Z" fill="#DE5753"/>
<path d="M554.714 114.293C554.532 114.348 554.337 114.307 554.211 114.181C553.304 113.286 552.047 112.88 550.791 113.076C550.526 113.146 550.26 112.978 550.191 112.713C550.121 112.447 550.288 112.181 550.554 112.111C552.131 111.832 553.737 112.335 554.881 113.454C555.091 113.635 555.105 113.943 554.923 114.153C554.923 114.153 554.923 114.153 554.909 114.167C554.853 114.223 554.784 114.265 554.714 114.293Z" fill="#263238"/>
<path d="M538.269 116.907C538.185 116.963 538.088 116.991 537.99 116.977C537.725 116.907 537.571 116.628 537.641 116.376C537.641 116.376 537.641 116.376 537.641 116.362C538.06 114.81 539.19 113.552 540.698 113.006C540.963 112.922 541.229 113.076 541.312 113.342C541.382 113.607 541.242 113.873 540.977 113.957C539.805 114.432 538.925 115.425 538.604 116.656C538.534 116.768 538.409 116.865 538.269 116.907Z" fill="#263238"/>
<path d="M571.299 105.959C571.354 105.679 571.41 105.4 571.452 105.092C572.904 95.1786 558.344 89.3479 545.235 90.5784C539.526 91.1097 540.852 100.897 540.852 100.897C540.852 100.897 537.613 100.897 536.147 102.883C533.565 106.365 537.529 114.027 537.529 114.027C535.533 102.883 541.326 102.226 541.326 102.226C541.326 102.226 542.667 106.56 545.305 106.155C547.943 105.763 554.407 99.4293 557.618 100.198C560.242 100.828 561.457 102.575 562.001 104.155C562.141 105.596 561.736 107.427 559.879 109.511C557.129 112.601 561.778 119.2 565.003 121.214C565.003 121.214 564.891 119.536 566.343 119.76C567.795 119.983 568.451 128.681 566.231 133.127C566.231 133.127 569.903 128.89 571.131 119.536C571.829 114.195 571.871 109.497 571.299 105.959Z" fill="#263238"/>
<path d="M549.409 131.351C551.894 131.309 554.197 130.051 555.593 127.981C555.663 127.856 555.621 127.702 555.496 127.618C555.384 127.548 555.216 127.576 555.147 127.688L555.133 127.702C553.807 129.589 551.671 130.736 549.381 130.806C549.242 130.806 549.13 130.918 549.13 131.058C549.13 131.072 549.13 131.071 549.13 131.085C549.13 131.225 549.242 131.337 549.381 131.337C549.381 131.351 549.395 131.351 549.409 131.351Z" fill="#263238"/>
<path d="M573.281 119.969C572.541 122.486 570.838 124.612 568.535 125.87C565.478 127.52 563.202 124.961 563.397 121.675C563.607 118.753 565.422 114.293 568.8 114.041C572.192 113.775 574.147 116.865 573.281 119.969Z" fill="#E4897B"/>
<path opacity="0.1" d="M551.405 140.23C551.028 140.132 550.665 140.048 550.316 139.922C547.036 138.888 544.062 136.665 542.178 133.449C544.593 133.183 549.66 132.68 550.693 133.113C551.74 133.574 551.559 138.161 551.405 140.23Z" fill="black"/>
<path d="M536.092 188.609H542.89L550.289 161.288L557.018 154.143H545.25L547.986 161.022L536.092 188.609Z" fill="#407BFF"/>
<path d="M511.062 183.506L510.629 188.609H521.685C531.136 166.126 539.903 149.836 539.903 149.836L528.428 153.444C501.96 161.218 499.656 178.654 504.193 183.058C508.73 187.463 511.062 183.506 511.062 183.506Z" fill="#407BFF"/>
<path opacity="0.5" d="M511.062 183.506L510.629 188.609H521.685C531.136 166.126 539.903 149.836 539.903 149.836L528.428 153.444C501.96 161.218 499.656 178.654 504.193 183.058C508.73 187.463 511.062 183.506 511.062 183.506Z" fill="white"/>
<path d="M519.256 188.609H521.824C530.536 170.055 544.747 148.326 544.747 148.326C535.743 148.06 527.618 151.626 527.618 151.626L530.563 159.847L523.458 161.288L519.256 188.609Z" fill="#407BFF"/>
<path opacity="0.4" d="M519.256 188.609H521.824C530.536 170.055 544.747 148.326 544.747 148.326C535.743 148.06 527.618 151.626 527.618 151.626L530.563 159.847L523.458 161.288L519.256 188.609Z" fill="white"/>
<path opacity="0.2" d="M516.325 188.609C518.837 182.779 518.614 178.57 518.614 178.57L511.062 183.506L510.629 188.609H516.325Z" fill="black"/>
<path d="M541.02 150.983L546.45 146.075L551.294 152.688L566.65 146.075L570.503 152.311L555.622 159.694L550.68 154.94L545.249 158.379L541.02 150.983Z" fill="#263238"/>
<path opacity="0.2" d="M541.02 150.983L546.45 146.075L551.294 152.688L566.65 146.075L570.503 152.311L555.622 159.694L550.68 154.94L545.249 158.379L541.02 150.983Z" fill="white"/>
<path d="M523.514 167.412L539.903 149.836C539.903 149.836 543.212 149.906 545.641 147.613C548.07 145.32 551.378 135.154 550.569 134.511C549.773 133.854 539.987 133.043 539.066 134.19C538.13 135.336 534.096 145.599 534.096 145.599L516.534 159.358L523.514 167.412Z" fill="#E4897B"/>
<path d="M525.314 152.059L528.553 149.193L536.315 155.219L532.797 159.889L525.314 152.059Z" fill="#263238"/>
<path opacity="0.2" d="M525.314 152.059L528.553 149.193L536.315 155.219L532.797 159.889L525.314 152.059Z" fill="white"/>
<path d="M526.194 150.227L535.491 157.596C535.491 157.596 513.881 191.881 506.008 184.638C498.162 177.395 502.183 166.056 526.194 150.227Z" fill="#407BFF"/>
<path opacity="0.6" d="M526.194 150.227L535.491 157.596C535.491 157.596 513.881 191.881 506.008 184.638C498.162 177.395 502.183 166.056 526.194 150.227Z" fill="white"/>
<path d="M585.804 188.609L587.172 164.028C587.409 159.134 584.464 154.66 579.885 152.926L567.67 148.326C567.67 148.326 568.2 166.783 569.61 188.609H585.804Z" fill="#407BFF"/>
<path opacity="0.5" d="M585.804 188.609L587.172 164.028C587.409 159.134 584.464 154.66 579.885 152.926L567.67 148.326C567.67 148.326 568.2 166.783 569.61 188.609H585.804Z" fill="white"/>
<path d="M574.622 188.609L579.131 175.927L572.416 169.761L580.164 167.426C575.236 152.227 567.251 147.053 567.251 147.053C565.269 156.771 567.223 176.151 568.828 188.623H574.622V188.609Z" fill="#407BFF"/>
<path opacity="0.4" d="M574.622 188.609L579.131 175.927L572.416 169.761L580.164 167.426C575.236 152.227 567.251 147.053 567.251 147.053C565.269 156.771 567.223 176.151 568.828 188.623H574.622V188.609Z" fill="white"/>
<path d="M513.002 185.603C514.37 186.134 525.356 186.876 525.356 186.876L527.897 188.609H545.738L527.618 180.038C527.618 180.038 526.683 176.864 523.751 175.242C520.819 173.62 510.168 173.578 509.791 174.529C509.428 175.494 511.62 185.072 513.002 185.603Z" fill="#E4897B"/>
<path d="M540.14 188.609L541.787 185.645L535.003 182.667L532.602 188.609H540.14Z" fill="#263238"/>
<path opacity="0.2" d="M540.14 188.609L541.787 185.645L535.003 182.667L532.602 188.609H540.14Z" fill="white"/>
<path d="M577.036 188.609C585.133 175.927 590.829 160.477 584.212 156.002C584.212 156.002 579.13 154.548 558.149 186.666C558.149 186.666 555.831 191.616 538.577 183.855L536.329 188.609H577.036Z" fill="#407BFF"/>
<path opacity="0.6" d="M577.036 188.609C585.133 175.927 590.829 160.477 584.212 156.002C584.212 156.002 579.13 154.548 558.149 186.666C558.149 186.666 555.831 191.616 538.577 183.855L536.329 188.609H577.036Z" fill="white"/>
<path opacity="0.3" d="M483.952 190.86H367.679V292.904H483.952V190.86Z" fill="white"/>
<path d="M268.744 188.609C271.55 181.324 287.939 167.132 287.939 167.132V152.521C279.549 154.087 259.056 171.76 258.525 188.609H268.744Z" fill="#407BFF"/>
<path opacity="0.6" d="M268.744 188.609C270.07 185.142 274.468 180.122 278.712 175.801C283.416 171.047 287.939 167.132 287.939 167.132V152.521C279.549 154.073 259.042 171.76 258.525 188.609H268.744Z" fill="white"/>
<path opacity="0.2" d="M278.712 175.801C283.416 171.047 287.939 167.132 287.939 167.132V162.882C287.939 162.882 279.871 166.895 278.712 175.801Z" fill="black"/>
<path d="M347.018 188.609C349.098 175.717 351.15 165.077 352.099 160.281C352.406 158.743 351.443 157.233 349.908 156.897C346.906 156.24 343.821 155.681 340.694 155.205C325.003 152.772 308.474 152.325 298.186 152.339C291.89 152.353 287.939 152.521 287.939 152.521C285.063 162.84 283.346 175.676 282.369 188.609H347.018Z" fill="#407BFF"/>
<path opacity="0.7" d="M347.032 188.609C347.088 188.246 347.144 187.882 347.199 187.533C349.21 175.13 351.178 164.951 352.099 160.281C352.155 160.029 352.169 159.777 352.141 159.512C352.071 158.267 351.192 157.177 349.908 156.897C346.906 156.24 343.821 155.681 340.694 155.205C325.003 152.772 308.474 152.325 298.186 152.339C291.89 152.353 287.939 152.521 287.939 152.521C285.063 162.84 283.346 175.676 282.369 188.609H347.032Z" fill="white"/>
<path d="M310.638 168.936C328.828 170.866 340.945 155.373 340.945 155.373L340.708 155.191C325.017 152.758 308.488 152.311 298.2 152.325C298.2 152.339 293.565 167.132 310.638 168.936Z" fill="#407BFF"/>
<path d="M330.74 153.779C325.631 158.435 313.095 156.715 313.095 156.715C313.095 156.715 305.277 154.576 306.924 152.129C311.531 151.36 313.765 149.221 314.686 146.466C315.217 144.858 315.3 143.054 315.147 141.195C315.077 140.216 314.937 139.223 314.756 138.258L330.238 126.765C328.227 134.343 325.742 148.284 330.74 153.779Z" fill="#E4897B"/>
<path opacity="0.2" d="M326.678 134.064C326.064 143.376 318.428 145.935 314.687 146.466C315.217 144.858 315.301 143.054 315.147 141.195L326.678 134.064Z" fill="black"/>
<path d="M328.465 147.878L313.668 154.562L312.802 149.207L307.358 151.122C305.403 151.807 304.175 153.751 304.398 155.82L305.012 161.707L312.523 157.596L316.264 162.896L334.049 154.31L328.465 147.878Z" fill="#407BFF"/>
<path opacity="0.3" d="M328.465 147.878L313.668 154.562L312.802 149.207L307.358 151.122C305.403 151.807 304.175 153.751 304.398 155.82L305.012 161.707L312.523 157.596L316.264 162.896L334.049 154.31L328.465 147.878Z" fill="white"/>
<path d="M303.044 103.414C303.044 103.414 298.842 117.928 305.933 124.668C313.025 131.407 316.669 103.834 316.669 103.834L303.044 103.414Z" fill="#263238"/>
<path opacity="0.2" d="M303.044 103.414C303.044 103.414 298.842 117.928 305.933 124.668C313.025 131.407 316.669 103.834 316.669 103.834L303.044 103.414Z" fill="white"/>
<path d="M302.932 133.015C303.085 133.532 303.253 134.05 303.448 134.539C304.16 136.343 305.193 137.937 306.45 139.279C307.776 140.705 309.353 141.838 311.057 142.635C314.17 144.089 317.715 144.453 321.038 143.418C323.244 142.733 325.352 141.446 327.152 139.461C332.373 133.784 331.997 127.45 332.22 116.712C332.304 114.404 331.857 112.097 330.88 110.014C327.501 102.631 318.79 99.4152 311.447 102.799C301.131 107.455 300.265 123.451 302.932 133.015Z" fill="#E4897B"/>
<path d="M316.096 120.319C316.194 121.186 315.705 121.913 315.119 121.941C314.533 121.969 314.058 121.27 314.03 120.389C313.988 119.522 314.435 118.795 315.007 118.767C315.566 118.753 316.054 119.438 316.096 120.319Z" fill="#263238"/>
<path d="M306.226 120.697C306.324 121.563 305.821 122.291 305.249 122.319C304.676 122.346 304.188 121.647 304.16 120.766C304.118 119.9 304.565 119.172 305.137 119.144C305.696 119.13 306.198 119.872 306.226 120.697Z" fill="#263238"/>
<path d="M309.382 121.004C308.447 123.717 307.134 126.29 305.501 128.639C306.743 129.464 308.293 129.687 309.717 129.268L309.382 121.004Z" fill="#DE5753"/>
<path d="M302.415 116.614C302.583 116.698 302.792 116.684 302.946 116.586C304.007 115.831 305.361 115.621 306.603 116.012C306.869 116.124 307.162 115.998 307.274 115.747C307.385 115.481 307.26 115.187 307.008 115.076C305.459 114.53 303.728 114.782 302.388 115.733C302.15 115.887 302.08 116.194 302.234 116.432C302.234 116.432 302.234 116.432 302.234 116.446C302.276 116.516 302.346 116.572 302.415 116.614Z" fill="#263238"/>
<path d="M317.897 116.306C317.994 116.292 318.092 116.264 318.176 116.194C318.357 115.97 318.316 115.649 318.106 115.481C318.106 115.481 318.106 115.481 318.092 115.467C316.822 114.404 315.105 114.041 313.513 114.474C313.248 114.558 313.108 114.852 313.192 115.118C313.29 115.383 313.569 115.523 313.834 115.439C315.105 115.132 316.445 115.439 317.45 116.278C317.59 116.348 317.757 116.362 317.897 116.306Z" fill="#263238"/>
<path d="M323.872 103.624L323.244 108.35C324.78 109.189 325.701 110.951 324.975 112.81C323.412 116.782 325.603 122.976 328.633 125.465C328.633 125.465 328.744 123.745 330.196 124.164C331.648 124.584 331.159 133.56 328.284 137.825C328.284 137.825 332.611 133.994 335.124 124.584C337.455 115.887 337.804 108.616 336.045 105.232L323.872 103.624Z" fill="#263238"/>
<path d="M315.858 131.281C315.858 131.281 313.08 131.855 311.266 134.553" stroke="#263238" stroke-width="0.5" stroke-miterlimit="10" stroke-linecap="round" stroke-linejoin="round"/>
<path opacity="0.1" d="M306.464 139.265C307.79 140.691 309.368 141.824 311.071 142.621C314.184 144.075 317.73 144.439 321.052 143.404C320.27 142.579 318.749 141.558 315.859 140.747C312.69 139.839 309.158 139.447 306.464 139.265Z" fill="black"/>
<path opacity="0.2" d="M323.872 103.624L323.244 108.35C324.78 109.189 325.701 110.951 324.975 112.81C323.412 116.782 325.603 122.976 328.633 125.465C328.633 125.465 328.744 123.745 330.196 124.164C331.648 124.584 331.159 133.56 328.284 137.825C328.284 137.825 332.611 133.994 335.124 124.584C337.455 115.887 337.804 108.616 336.045 105.232L323.872 103.624Z" fill="white"/>
<path d="M336.771 107.399C336.771 107.399 337.93 101.191 328.172 96.3391C318.414 91.4732 307.706 97.0243 301.201 92.8575C294.682 88.6767 294.444 105.847 308.39 107.791C322.322 109.706 336.771 107.399 336.771 107.399Z" fill="#263238"/>
<path opacity="0.3" d="M336.771 107.399C336.771 107.399 337.93 101.191 328.172 96.3391C318.414 91.4732 307.706 97.0243 301.201 92.8575C294.682 88.6767 294.444 105.847 308.39 107.791C322.322 109.706 336.771 107.399 336.771 107.399Z" fill="white"/>
<path d="M337.245 125.325C336.143 127.8 334.118 129.729 331.592 130.708C328.241 131.98 326.259 129.044 326.915 125.716C327.529 122.766 329.986 118.445 333.476 118.641C336.98 118.837 338.558 122.277 337.245 125.325Z" fill="#E4897B"/>
<path d="M320.675 159.945L319.195 152.059C319.195 152.059 322.252 149.151 321.903 146.452C321.554 143.754 307.902 139.307 305.487 139.139C303.071 138.972 303.979 148.801 304.719 150.605C305.459 152.409 313.653 154.562 313.653 154.562L314.672 162.882L320.675 159.945Z" fill="#E4897B"/>
<path opacity="0.2" d="M345.189 188.609C345.887 188.26 346.572 187.896 347.2 187.533C349.21 175.13 351.178 164.951 352.1 160.281C352.155 160.029 352.169 159.778 352.142 159.512C343.319 168.503 329.568 183.562 331.229 188.609H345.189Z" fill="black"/>
<path d="M340.401 188.609C350.55 179.493 359.373 166.923 353.133 158.421C347.66 150.955 333.519 178.011 329.303 179.87C325.073 181.716 321.304 156.911 321.304 156.911L312.928 159.414C312.928 159.414 314.463 177.284 318.763 188.609H340.401Z" fill="#407BFF"/>
<path opacity="0.6" d="M340.401 188.609C350.55 179.493 359.373 166.923 353.133 158.421C347.66 150.955 333.519 178.011 329.303 179.87C325.073 181.716 321.304 156.911 321.304 156.911L312.928 159.414C312.928 159.414 314.463 177.284 318.763 188.609H340.401Z" fill="white"/>
<path d="M403.667 188.609C406.627 185.631 408.525 183.52 408.525 183.52L406.92 158.743C402.257 161.218 388.283 179.912 380.94 188.609H403.667Z" fill="#407BFF"/>
<path opacity="0.5" d="M403.667 188.609C406.627 185.631 408.525 183.52 408.525 183.52L406.92 158.743C402.257 161.218 388.283 179.912 380.94 188.609H403.667Z" fill="white"/>
<path opacity="0.2" d="M403.653 188.609C406.613 185.631 408.511 183.534 408.511 183.534L408.134 177.647L406.278 171.942C406.278 171.942 399.535 178.206 399.716 188.609H403.653Z" fill="black"/>
<path d="M452.597 188.609C453.281 186.148 454.049 183.52 454.943 180.681C455.808 177.927 456.744 174.962 457.819 171.76C458.614 169.342 459.48 166.769 460.429 164.056C454.747 162.252 448.982 160.84 443.105 159.861C436.92 158.757 430.652 158.1 424.37 157.89C416.26 157.82 406.92 158.743 406.92 158.743C406.92 158.743 405.594 159.064 404.757 167.678C404.352 172.04 403.947 178.738 403.919 188.595H452.597V188.609Z" fill="#407BFF"/>
<path opacity="0.5" d="M452.597 188.609C453.281 186.148 454.049 183.52 454.943 180.681C455.808 177.927 456.744 174.962 457.819 171.76C458.614 169.342 459.48 166.769 460.429 164.056C454.747 162.252 448.982 160.84 443.105 159.861C436.92 158.757 430.652 158.1 424.37 157.89C416.26 157.82 406.92 158.743 406.92 158.743C406.92 158.743 405.594 159.064 404.757 167.678C404.352 172.04 403.947 178.738 403.919 188.595H452.597V188.609Z" fill="white"/>
<path d="M426.659 188.609L438.106 168.083L424.872 175.494L417.194 165.86L420 188.609H426.659Z" fill="#263238"/>
<path d="M438.553 157.275C446.119 159.05 448.395 165.133 447.571 170.642L442.057 168.796C442.057 168.796 431.88 172.306 424.37 178.486C424.37 178.486 420.196 170.796 416.189 168.293L410.521 168.964C410.521 168.978 419.372 152.758 438.553 157.275Z" fill="#263238"/>
<path opacity="0.1" d="M438.553 157.275C446.119 159.05 448.395 165.133 447.571 170.642L442.057 168.796C442.057 168.796 431.88 172.306 424.37 178.486C424.37 178.486 420.196 170.796 416.189 168.293L410.521 168.964C410.521 168.978 419.372 152.758 438.553 157.275Z" fill="white"/>
<path d="M424.831 159.694C425.194 159.498 425.641 159.316 426.101 159.148C427.065 158.393 428.237 156.548 428.181 152.101C428.167 150.647 428.028 148.927 427.693 146.886L440.075 144.565C440.075 144.565 435.859 152.912 439.377 159.106C440.592 159.652 441.318 160.407 441.178 161.413C440.257 168.586 424.873 175.508 424.873 175.508C424.873 175.508 417.362 163.79 424.831 159.694Z" fill="#EEC1BB"/>
<path opacity="0.2" d="M427.692 146.872C428.013 148.927 428.153 150.633 428.181 152.087C436.543 152.087 440.075 144.551 440.075 144.551L427.692 146.872Z" fill="black"/>
<path d="M433.22 105.959C433.22 105.959 418.702 104.127 416.036 115.817C413.369 127.52 422.373 134.036 422.373 134.036L433.22 105.959Z" fill="#263238"/>
<path d="M434.533 112.209C423.77 111.622 419.986 117.201 418.604 128.261C416.859 142.09 419.4 152.115 433.011 149.892C451.494 146.858 452.402 113.188 434.533 112.209Z" fill="#EEC1BB"/>
<path d="M425.584 128.037C425.584 128.037 423.937 130.764 422.206 132.33C422.206 132.33 423.044 133.84 424.97 133.7L425.584 128.037Z" fill="#D4827D"/>
<path d="M432.229 127.52C432.159 128.401 432.578 129.156 433.165 129.198C433.751 129.24 434.281 128.569 434.351 127.674C434.421 126.793 434.002 126.038 433.416 125.996C432.83 125.954 432.299 126.625 432.229 127.52Z" fill="#263238"/>
<path d="M433.654 126.066L431.797 125.157C431.797 125.157 432.621 126.849 433.654 126.066Z" fill="#263238"/>
<path d="M421.257 126.471C421.187 127.352 421.606 128.107 422.192 128.149C422.778 128.191 423.309 127.52 423.379 126.625C423.448 125.744 423.03 124.989 422.443 124.947C421.871 124.905 421.326 125.59 421.257 126.471Z" fill="#263238"/>
<path d="M422.695 125.017L420.838 124.108C420.838 124.108 421.662 125.8 422.695 125.017Z" fill="#263238"/>
<path d="M432.731 120.081C432.731 120.081 435.775 119.858 437.31 121.969" stroke="#263238" stroke-width="0.6862" stroke-miterlimit="10" stroke-linecap="round" stroke-linejoin="round"/>
<path d="M424.942 119.2C424.942 119.2 423.085 118.39 420.601 119.858" stroke="#263238" stroke-width="0.6862" stroke-miterlimit="10" stroke-linecap="round" stroke-linejoin="round"/>
<path d="M445.296 131.016C445.296 131.016 440.745 121.885 441.889 115.09C441.889 115.09 421.047 105.19 418.799 126.821C418.799 126.821 417.766 107.455 436.291 108.042C454.788 108.63 453.253 135.728 443.257 143.278C443.257 143.278 448.115 136.72 445.296 131.016Z" fill="#263238"/>
<path d="M431.378 105.12C431.378 105.12 422.527 102.953 420.028 105.288C417.529 107.623 435.384 124.178 444.724 125.842C444.724 125.842 447.892 136.203 445.394 141.055C445.394 141.055 455.905 137.378 456.408 121.326C456.911 105.288 440.061 99.2755 431.378 105.12Z" fill="#263238"/>
<path d="M443.426 133.197C443.593 131.463 445.547 128.625 448.744 129.156C452.053 129.701 453.267 136.651 444.891 137.839C443.677 138.007 443.077 136.804 443.426 133.197Z" fill="#EEC1BB"/>
<path d="M448.074 111.482C448.074 111.482 451.746 102.128 461.587 102.785C471.429 103.456 472.937 118.837 467.758 130.205C462.579 141.572 466.083 145.25 466.083 145.25C466.083 145.25 460.568 144.579 460.568 134.385C460.568 134.385 460.066 137.727 460.233 140.901C460.233 140.901 456.562 135.714 460.066 125.856C463.57 115.998 452.388 120.501 452.388 120.501L448.074 111.482Z" fill="#263238"/>
<path d="M420.866 106.127C420.866 106.127 425.543 121.172 438.051 125.688" stroke="#263238" stroke-width="0.6862" stroke-miterlimit="10" stroke-linecap="round" stroke-linejoin="round"/>
<path d="M433.388 137.559C433.388 137.559 430.889 140.23 427.218 140.062" stroke="#263238" stroke-width="0.6862" stroke-miterlimit="10" stroke-linecap="round" stroke-linejoin="round"/>
<path d="M426.715 129.03C426.715 130.456 427.776 131.617 429.088 131.617C430.4 131.617 431.461 130.456 431.461 129.03C431.461 127.604 430.4 126.443 429.088 126.443C427.776 126.443 426.715 127.604 426.715 129.03Z" stroke="#263238" stroke-width="0.5" stroke-miterlimit="10" stroke-linecap="round" stroke-linejoin="round"/>
<path d="M418.283 128.611C418.283 130.037 419.344 131.197 420.656 131.197C421.969 131.197 423.03 130.037 423.03 128.611C423.03 127.184 421.969 126.024 420.656 126.024C419.344 126.024 418.283 127.184 418.283 128.611Z" stroke="#263238" stroke-width="0.5" stroke-miterlimit="10" stroke-linecap="round" stroke-linejoin="round"/>
<path d="M426.715 129.03C426.715 129.03 425.459 126.359 423.044 128.611" stroke="#263238" stroke-width="0.5" stroke-miterlimit="10" stroke-linecap="round" stroke-linejoin="round"/>
<path d="M431.462 129.03C431.462 129.03 444.808 128.611 446.399 128.694" stroke="#263238" stroke-width="0.5" stroke-miterlimit="10" stroke-linecap="round" stroke-linejoin="round"/>
<path d="M470.703 188.609C465.622 175.242 460.415 164.07 460.415 164.07C460.415 164.07 451.913 176.459 451.146 188.609H470.703Z" fill="#407BFF"/>
<path opacity="0.5" d="M470.703 188.609C465.622 175.242 460.415 164.07 460.415 164.07C460.415 164.07 451.913 176.459 451.146 188.609H470.703Z" fill="white"/>
<path d="M473.886 292.904C471.038 285.242 468.33 278.754 468.33 278.754L456.659 288.989C456.659 288.989 457.469 290.541 458.697 292.904H473.886Z" fill="#E4897B"/>
<path d="M391.48 292.904C394.258 289.535 396.227 287.032 396.227 287.032L384.835 277.552C384.835 277.552 379.293 286.179 374.687 292.89H391.48V292.904Z" fill="#E4897B"/>
<path d="M394.272 292.904L401.043 288.15L398.405 256.578C389.777 258.046 377.241 283.159 377.241 283.159L387.027 292.89H394.272V292.904Z" fill="#407BFF"/>
<path opacity="0.2" d="M387.041 292.904H394.272L399.13 289.493L401.043 288.15L398.418 256.578C389.791 258.046 377.255 283.173 377.255 283.173L385.882 291.758L387.041 292.904Z" fill="white"/>
<path d="M389.163 292.904L377.255 280.39L375.203 283.844L384.738 292.904H389.163Z" fill="#407BFF"/>
<path opacity="0.2" d="M394.273 292.904L399.131 289.493L396.827 275.804C396.827 275.804 387.809 281.509 385.883 291.744L387.041 292.904H394.273Z" fill="black"/>
<path d="M457.386 292.904C460.262 275.119 463.067 261.584 463.067 261.584C435.441 254.914 398.335 256.578 398.335 256.578C395.431 266.953 393.728 279.887 392.751 292.904H457.386Z" fill="#407BFF"/>
<path opacity="0.2" d="M457.386 292.904C457.582 291.66 457.791 290.429 457.987 289.241C460.639 273.301 463.068 261.584 463.068 261.584C435.441 254.914 398.35 256.578 398.35 256.578C395.446 266.953 393.743 279.887 392.766 292.904H457.386Z" fill="white"/>
<path opacity="0.2" d="M457.386 292.904C457.581 291.66 457.791 290.429 457.986 289.241L453.91 285.41C453.91 285.41 452.528 288.416 452.039 292.918H457.386V292.904Z" fill="black"/>
<path d="M414.082 292.904H418.465C419.177 283.984 420.252 275.007 421.858 269.092L429.592 262.744L423.505 260.773L417.977 261.08L419.471 268.421C419.471 268.435 416.762 279.733 414.082 292.904Z" fill="#263238"/>
<path d="M441.15 257.85C436.041 262.506 423.505 260.787 423.505 260.787C423.505 260.787 415.687 258.647 417.334 256.2C421.941 255.431 424.175 253.292 425.096 250.537C425.627 248.93 425.71 247.126 425.557 245.266C425.487 244.287 425.347 243.295 425.166 242.33L440.648 230.85C438.623 238.401 436.139 252.355 441.15 257.85Z" fill="#E4897B"/>
<path opacity="0.2" d="M437.074 238.121C436.459 247.433 428.823 249.992 425.082 250.524C425.613 248.916 425.696 247.112 425.543 245.252L437.074 238.121Z" fill="black"/>
<path d="M438.861 251.936L424.063 258.619L423.198 253.264L417.753 255.18C415.799 255.865 414.57 257.808 414.794 259.878L415.408 265.764L422.918 261.654L426.66 266.953L444.445 258.368L438.861 251.936Z" fill="#407BFF"/>
<path opacity="0.3" d="M438.861 251.936L424.063 258.619L423.198 253.264L417.753 255.18C415.799 255.865 414.57 257.808 414.794 259.878L415.408 265.764L422.918 261.654L426.66 266.953L444.445 258.368L438.861 251.936Z" fill="white"/>
<path d="M408.902 209.275C408.902 209.275 406.584 224.209 414.486 229.983C422.387 235.758 422.471 207.933 422.471 207.933L408.902 209.275Z" fill="#263238"/>
<path d="M437.45 241.924C433.597 247.447 427.315 248.874 421.884 247.126C418.394 246.007 415.24 243.574 413.299 240.079C413.034 239.617 412.81 239.142 412.587 238.638C408.72 229.494 407.534 213.526 417.18 207.569C424.034 203.277 433.094 205.36 437.38 212.24C438.609 214.183 439.348 216.406 439.558 218.713C440.717 229.396 441.903 235.618 437.45 241.924Z" fill="#E4897B"/>
<path d="M424.007 224.376C424.217 225.215 423.812 226.012 423.253 226.11C422.681 226.208 422.122 225.579 421.969 224.712C421.815 223.859 422.164 223.076 422.723 222.978C423.281 222.894 423.854 223.509 424.007 224.376Z" fill="#263238"/>
<path d="M414.277 226.012C414.486 226.851 414.081 227.648 413.523 227.746C412.964 227.844 412.392 227.215 412.238 226.348C412.085 225.495 412.434 224.712 412.992 224.614C413.551 224.53 414.137 225.187 414.277 226.012Z" fill="#263238"/>
<path d="M417.445 225.914C416.859 228.725 415.896 231.437 414.569 233.982C415.909 234.639 417.473 234.667 418.841 234.066L417.445 225.914Z" fill="#DE5753"/>
<path d="M409.977 222.447C410.159 222.517 410.354 222.475 410.508 222.349C411.457 221.468 412.783 221.077 414.067 221.314C414.333 221.384 414.626 221.23 414.696 220.965C414.765 220.699 414.612 220.405 414.347 220.335C412.727 220 411.052 220.461 409.851 221.58C409.642 221.762 409.6 222.083 409.782 222.293C409.782 222.293 409.782 222.293 409.796 222.307C409.824 222.363 409.893 222.419 409.977 222.447Z" fill="#263238"/>
<path d="M425.291 220.154C425.389 220.14 425.486 220.084 425.556 220C425.71 219.762 425.626 219.44 425.389 219.301C425.389 219.301 425.389 219.301 425.375 219.301C423.979 218.42 422.234 218.266 420.712 218.909C420.461 219.035 420.349 219.343 420.475 219.594C420.6 219.846 420.907 219.944 421.159 219.832C422.373 219.371 423.741 219.496 424.844 220.21C424.998 220.238 425.151 220.224 425.291 220.154Z" fill="#263238"/>
<path d="M429.591 206.814L429.577 211.582C431.21 212.226 432.355 213.848 431.853 215.791C430.806 219.93 433.779 225.789 437.102 227.872C437.102 227.872 436.99 226.152 438.484 226.376C439.977 226.614 440.633 235.576 438.33 240.163C438.33 240.163 442.127 235.8 443.425 226.152C444.626 217.231 444.04 209.974 441.862 206.842L429.591 206.814Z" fill="#263238"/>
<path d="M445.645 226.628C444.877 229.214 443.104 231.396 440.731 232.696C437.576 234.388 435.231 231.731 435.454 228.347C435.678 225.341 437.562 220.741 441.052 220.489C444.542 220.224 446.552 223.426 445.645 226.628Z" fill="#E4897B"/>
<path d="M419.944 236.681C420.824 237.883 421.927 240.246 421.927 240.246C422.164 240.191 422.387 240.121 422.625 240.051C425.752 239.128 426.896 237.674 427.217 236.331C427.385 235.604 427.315 234.891 427.176 234.346C427.022 233.703 426.771 233.283 426.771 233.283C425.403 234.765 422.569 235.842 421.019 236.345C420.363 236.569 419.944 236.681 419.944 236.681Z" fill="#263238"/>
<path d="M421.005 236.359L421.619 237.394C424.551 236.527 426.505 235.52 427.161 234.346C427.008 233.703 426.756 233.283 426.756 233.283C425.388 234.765 422.554 235.842 421.005 236.359Z" fill="white"/>
<path d="M422.625 240.051C425.752 239.128 426.897 237.674 427.218 236.331C426.171 236.681 424.942 237.226 423.951 238.037C423.197 238.653 422.82 239.38 422.625 240.051Z" fill="#DE5753"/>
<path d="M435.956 224.209L434.56 223.398C434.56 223.398 435.44 229.116 433.625 230.724C433.625 230.724 427.343 231.396 425.151 231.983C422.959 232.57 421.647 235.101 421.647 235.101C421.647 235.101 416.733 234.052 414.583 237.744C414.583 237.744 411.861 235.464 410.493 232.025C410.493 232.025 410.661 242.47 416.496 248.049C422.345 253.614 431.908 250.845 436.333 246.497C440.758 242.134 435.956 224.209 435.956 224.209ZM431.824 240.708C429.898 243.309 426.589 242.777 425.165 240.288L423.211 241.365C423.211 241.365 425.361 243.183 423.727 244.847C422.094 246.511 417.04 245.923 416.524 241.099C415.993 236.136 422.094 235.73 422.094 235.73C422.094 235.73 424.118 233.367 427.915 233.339C431.698 233.325 433.751 238.093 431.824 240.708Z" fill="#263238"/>
<path d="M429.577 211.582C429.577 211.582 405.845 219.692 408.581 203.668C408.581 203.668 421.382 196.118 432.55 198.229C443.718 200.341 442.839 211.932 442.839 211.932L429.577 211.582Z" fill="#263238"/>
<path d="M476.943 292.904C475.519 288.346 467.716 264.031 463.067 261.584C463.067 261.584 459.745 264.282 456.576 270.742C453.407 277.202 452.723 290.164 452.723 290.164L454.775 292.904H476.943Z" fill="#407BFF"/>
<path opacity="0.2" d="M476.943 292.904C475.519 288.346 467.716 264.031 463.067 261.584C463.067 261.584 459.745 264.282 456.576 270.742C453.407 277.202 452.723 290.164 452.723 290.164L454.775 292.904H476.943Z" fill="white"/>
<path opacity="0.6" d="M602.905 190.86H486.632V292.904H602.905V190.86Z" fill="white"/>
<path d="M515.808 292.904C520.205 288.64 523.262 285.242 523.262 285.242L521.657 260.465C516.45 263.234 499.656 286.179 493.43 292.904H515.808Z" fill="#263238"/>
<path opacity="0.3" d="M515.808 292.904C520.205 288.64 523.262 285.242 523.262 285.242L521.657 260.465C516.45 263.234 499.656 286.179 493.43 292.904H515.808Z" fill="white"/>
<path opacity="0.2" d="M515.808 292.904C520.205 288.64 523.276 285.256 523.276 285.256L522.899 279.369L521.043 273.665C521.043 273.665 513.183 280.963 514.663 292.904H515.808Z" fill="black"/>
<path d="M568.45 228.277C567.25 232.906 573.825 245.658 571.159 268.855C568.492 292.051 543.085 290.639 531.68 282.907C520.26 275.175 522.243 233.213 526.166 224.936C530.088 216.658 568.45 228.277 568.45 228.277Z" fill="#263238"/>
<path d="M566.65 292.904C567.502 289.73 568.493 286.263 569.694 282.404C570.559 279.649 571.508 276.685 572.569 273.483C573.365 271.064 574.231 268.491 575.18 265.778C569.498 263.975 563.733 262.562 557.855 261.584C551.671 260.479 545.403 259.822 539.121 259.612C531.01 259.542 521.671 260.465 521.671 260.465C521.671 260.465 520.345 260.787 519.507 269.4C519.061 274.126 518.628 281.621 518.67 292.904H566.65Z" fill="#263238"/>
<path opacity="0.3" d="M566.65 292.904C567.502 289.73 568.493 286.263 569.694 282.404C570.559 279.649 571.508 276.685 572.569 273.483C573.365 271.064 574.231 268.491 575.18 265.778C569.498 263.975 563.733 262.562 557.855 261.584C551.671 260.479 545.403 259.822 539.121 259.612C531.01 259.542 521.671 260.465 521.671 260.465C521.671 260.465 520.345 260.787 519.507 269.4C519.061 274.126 518.628 281.621 518.67 292.904H566.65Z" fill="white"/>
<path d="M546.603 258.424C551.601 258.717 559.614 258.675 564.807 266.701H555.315L560.494 273.021C560.494 273.021 543.867 276.992 538.66 287.913C538.66 287.913 531.22 274.965 527.157 271.959C527.157 271.959 531.052 267.96 535.589 265.792C535.589 265.792 531.708 264.045 527.157 263.29C527.157 263.29 539.833 258.018 546.603 258.424Z" fill="white"/>
<path d="M555.929 263.136C555.929 263.136 543.058 277.677 539.093 284.697C539.093 284.697 535.966 273.245 539.638 261.416L555.929 263.136Z" fill="#407BFF"/>
<path opacity="0.6" d="M555.929 263.136C555.929 263.136 543.058 277.677 539.093 284.697C539.093 284.697 535.966 273.245 539.638 261.416L555.929 263.136Z" fill="white"/>
<path d="M542.555 268.855C552.843 267.54 555.929 263.136 555.929 263.136C549.409 256.969 554.826 246.287 554.826 246.287L542.443 248.608C542.764 250.663 542.904 252.369 542.932 253.823C543.03 261.346 539.623 261.416 539.623 261.416C537.446 265.499 542.555 268.855 542.555 268.855Z" fill="#EEC1BB"/>
<path opacity="0.2" d="M542.443 248.594C542.764 250.649 542.904 252.355 542.932 253.809C551.294 253.809 554.826 246.273 554.826 246.273L542.443 248.594Z" fill="black"/>
<path d="M549.284 213.932C538.521 213.344 534.738 218.923 533.342 229.983C531.597 243.812 534.137 253.837 547.748 251.614C566.245 248.594 567.153 214.91 549.284 213.932Z" fill="#EEC1BB"/>
<path d="M540.335 229.76C540.335 229.76 538.688 232.486 536.957 234.052C536.957 234.052 537.795 235.562 539.721 235.423L540.335 229.76Z" fill="#D4827D"/>
<path d="M546.98 229.242C546.91 230.123 547.329 230.878 547.916 230.92C548.502 230.962 549.032 230.291 549.102 229.396C549.172 228.515 548.753 227.76 548.167 227.718C547.581 227.676 547.05 228.361 546.98 229.242Z" fill="#263238"/>
<path d="M548.405 227.788L546.548 226.879C546.548 226.879 547.371 228.571 548.405 227.788Z" fill="#263238"/>
<path d="M536.021 228.194C535.951 229.075 536.37 229.83 536.957 229.872C537.543 229.914 538.073 229.242 538.143 228.348C538.213 227.467 537.794 226.712 537.208 226.67C536.622 226.642 536.091 227.313 536.021 228.194Z" fill="#263238"/>
<path d="M537.446 226.74L535.589 225.831C535.589 225.845 536.412 227.537 537.446 226.74Z" fill="#263238"/>
<path d="M547.497 221.804C547.497 221.804 550.54 221.58 552.076 223.691" stroke="#263238" stroke-width="0.6862" stroke-miterlimit="10" stroke-linecap="round" stroke-linejoin="round"/>
<path d="M539.693 220.923C539.693 220.923 537.836 220.112 535.352 221.58" stroke="#263238" stroke-width="0.6862" stroke-miterlimit="10" stroke-linecap="round" stroke-linejoin="round"/>
<path d="M541.075 239.757C541.62 241.085 542.122 243.574 542.122 243.574C542.36 243.574 542.583 243.56 542.82 243.546C545.975 243.407 547.385 242.288 547.999 241.099C548.334 240.456 548.418 239.771 548.418 239.212C548.418 238.569 548.279 238.121 548.279 238.121C546.659 239.198 543.728 239.561 542.164 239.687C541.494 239.757 541.075 239.757 541.075 239.757Z" fill="#263238"/>
<path d="M542.15 239.701L542.485 240.82C545.445 240.68 547.525 240.177 548.404 239.226C548.404 238.583 548.265 238.135 548.265 238.135C546.646 239.212 543.714 239.575 542.15 239.701Z" fill="white"/>
<path d="M542.82 243.546C545.975 243.407 547.385 242.288 547.999 241.099C546.925 241.197 545.64 241.421 544.537 241.952C543.672 242.372 543.155 242.959 542.82 243.546Z" fill="#DE5753"/>
<path d="M560.061 232.738C560.061 232.738 555.51 223.607 556.655 216.812C556.655 216.812 535.813 206.912 533.565 228.543C533.565 228.543 532.532 209.178 551.057 209.765C569.554 210.352 568.018 237.45 558.023 245.001C558.009 245.001 562.867 238.457 560.061 232.738Z" fill="#263238"/>
<path d="M558.177 234.919C558.344 233.185 560.298 230.347 563.495 230.878C566.804 231.424 568.018 238.373 559.642 239.561C558.428 239.729 557.828 238.527 558.177 234.919Z" fill="#EEC1BB"/>
<path d="M553.778 215.735C553.778 215.735 552.075 229.033 560.06 241.099C566.119 250.258 559.153 258.284 559.153 258.284C559.153 258.284 573.518 253.32 567.25 232.906C567.25 232.906 574.007 214.659 560.717 209.751C560.717 209.751 560.647 204.186 548.627 205.248C536.622 206.311 526.933 216.616 525.105 229.76C523.262 242.903 530.116 257.571 530.116 257.571C530.116 257.571 522.843 210.981 553.778 215.735Z" fill="#263238"/>
<path d="M554.435 215.945C553.583 218.937 553.416 222.293 553.541 225.509C553.723 228.753 554.253 231.997 555.091 235.157C555.928 238.317 557.129 241.379 558.693 244.259C560.298 247.098 562.224 249.838 564.793 251.922C562.155 249.936 560.116 247.252 558.399 244.441C556.724 241.589 555.384 238.527 554.421 235.353C553.458 232.179 552.787 228.907 552.494 225.579C552.257 222.237 552.271 218.909 553.095 215.526L554.435 215.945Z" fill="#263238"/>
<path opacity="0.2" d="M566.649 292.904C566.831 292.233 567.012 291.562 567.208 290.863C565.91 286.305 564.569 289.87 564.569 289.87C564.569 289.87 564.304 290.975 564.095 292.904H566.649Z" fill="black"/>
<path d="M584.812 292.904C579.953 279.929 575.165 265.778 575.165 265.778C565.198 269.721 564.653 290.15 564.653 290.15C564.653 290.15 565.24 291.185 566.203 292.904H584.812Z" fill="#263238"/>
<path opacity="0.3" d="M584.812 292.904C579.953 279.929 575.165 265.778 575.165 265.778C565.198 269.721 564.653 290.15 564.653 290.15C564.653 290.15 565.24 291.185 566.203 292.904H584.812Z" fill="white"/>
<path opacity="0.5" d="M365.012 190.86H248.739V292.904H365.012V190.86Z" fill="white"/>
<path d="M308.474 207.458L296.804 219.161H294.389V207.458H308.474Z" fill="white"/>
<path d="M310.917 210.953V219.161H302.723L310.917 210.953Z" fill="white"/>
<path d="M316.808 218.028L312.383 216.63V210.17L316.808 208.772V218.028Z" fill="white"/>
<path d="M305.599 229.186C314.357 229.186 321.457 222.075 321.457 213.302C321.457 204.53 314.357 197.418 305.599 197.418C296.84 197.418 289.74 204.53 289.74 213.302C289.74 222.075 296.84 229.186 305.599 229.186Z" stroke="white" stroke-miterlimit="10"/>
<path d="M316.808 202.074L294.389 224.53" stroke="white" stroke-miterlimit="10"/>
<path d="M116.915 479.388L151.508 475.977V427.276H165.216V475.963L199.949 479.388C203.397 479.724 206.021 482.632 206.021 486.1V491.301H159.702H157.161H110.828V486.1C110.828 482.632 113.467 479.724 116.915 479.388Z" fill="#263238"/>
<path opacity="0.3" d="M116.915 479.388L151.508 475.977V427.276H165.216V475.963L199.949 479.388C203.397 479.724 206.021 482.632 206.021 486.1V491.301H159.702H157.161H110.828V486.1C110.828 482.632 113.467 479.724 116.915 479.388Z" fill="white"/>
<path d="M193.416 497.761C193.416 502.725 197.436 506.738 202.378 506.738C207.334 506.738 211.341 502.711 211.341 497.761C211.341 492.811 207.32 488.784 202.378 488.784C197.423 488.784 193.416 492.797 193.416 497.761Z" fill="#407BFF"/>
<path d="M123.462 497.761C123.462 502.725 119.441 506.738 114.499 506.738C109.544 506.738 105.537 502.711 105.537 497.761C105.537 492.811 109.558 488.784 114.499 488.784C119.441 488.784 123.462 492.797 123.462 497.761Z" fill="#407BFF"/>
<path d="M154.914 437.749H161.81C164.993 437.749 167.576 435.162 167.576 431.974V394.375H149.135V431.974C149.149 435.162 151.731 437.749 154.914 437.749Z" fill="#263238"/>
<path opacity="0.5" d="M154.914 437.749H161.81C164.993 437.749 167.576 435.162 167.576 431.974V394.375H149.135V431.974C149.149 435.162 151.731 437.749 154.914 437.749Z" fill="white"/>
<path d="M125.584 318.24C125.584 318.24 122.973 383.189 141.024 394.375H120.419C120.419 394.375 104.448 372.255 108.957 318.24H125.584Z" fill="#263238"/>
<path opacity="0.5" d="M125.584 318.24C125.584 318.24 122.973 383.189 141.024 394.375H120.419C120.419 394.375 104.448 372.255 108.957 318.24H125.584Z" fill="white"/>
<path d="M198.777 385.286H120.377C116.525 385.286 113.397 388.418 113.397 392.278V399.353H205.771V392.278C205.757 388.418 202.644 385.286 198.777 385.286Z" fill="#407BFF"/>
<path d="M206.803 392.32H112.35C110.8 392.32 109.544 393.578 109.544 395.13V396.528C109.544 398.08 110.8 399.339 112.35 399.339H206.803C208.353 399.339 209.609 398.08 209.609 396.528V395.13C209.609 393.578 208.353 392.32 206.803 392.32Z" fill="#407BFF"/>
<path opacity="0.6" d="M206.803 392.32H112.35C110.8 392.32 109.544 393.578 109.544 395.13V396.528C109.544 398.08 110.8 399.339 112.35 399.339H206.803C208.353 399.339 209.609 398.08 209.609 396.528V395.13C209.609 393.578 208.353 392.32 206.803 392.32Z" fill="white"/>
<path d="M106.752 331.44H134.072C145.31 331.44 154.426 322.309 154.426 311.054V303.825C154.426 292.569 145.31 283.438 134.072 283.438H106.752C95.5143 283.438 86.3984 292.569 86.3984 303.825V311.054C86.3984 322.309 95.5143 331.44 106.752 331.44Z" fill="#407BFF"/>
<path d="M193.542 273.455C197.241 274.979 218.223 301.783 218.782 307.432C219.452 314.27 212.528 315.584 204.975 313.808C197.423 312.032 203.133 304.608 203.133 304.608L191.504 288.304L193.542 273.455Z" fill="#263238"/>
<path d="M190.192 340.207H163.682C163.682 340.207 168.791 305.125 169.615 304.622C170.438 304.118 189.005 302.874 189.005 302.874V322.435L190.192 340.207Z" fill="#263238"/>
<path d="M159.954 263.933C160.917 263.723 171.038 259.542 176.538 263.779C182.039 268.016 188.237 282.124 178.367 287.242C168.511 292.359 155.933 289.688 154.426 281.984C152.918 274.28 159.954 263.933 159.954 263.933Z" fill="#263238"/>
<path d="M152.066 232.29C152.066 232.29 145.421 247.629 150.07 253.376C154.719 259.109 185.026 263.611 190.303 258.256C195.579 252.901 188.669 231.689 188.669 231.689L152.066 232.29Z" fill="#263238"/>
<path d="M271.257 457.813L263.356 459.729L259.363 448.809L255.733 438.867L264.724 435.036L268.186 447.089L271.257 457.813Z" fill="#E4897B"/>
<path opacity="0.2" d="M268.186 447.089L259.363 448.809L255.733 438.867L264.724 435.036L268.186 447.089Z" fill="black"/>
<path d="M267.39 441.314L256.432 445.397C256.432 445.397 227.213 372.227 221.211 371.975C215.208 371.723 154.077 399.87 138.749 384.252C123.421 368.647 145.575 331.035 145.575 331.035C145.575 331.035 182.43 325.763 185.208 334.097C185.752 335.705 186.339 338.865 186.771 341.577C187.19 344.122 187.483 346.261 187.483 346.261C187.483 346.261 187.497 346.261 187.511 346.247C188.656 345.954 225.65 336.404 240.224 346.261C255.036 356.315 267.39 441.314 267.39 441.314Z" fill="#263238"/>
<path opacity="0.2" d="M267.39 441.314L256.432 445.397C256.432 445.397 227.213 372.227 221.211 371.975C215.208 371.723 154.077 399.87 138.749 384.252C123.421 368.647 145.575 331.035 145.575 331.035C145.575 331.035 182.43 325.763 185.208 334.097C185.752 335.705 186.339 338.865 186.771 341.577C187.19 344.122 187.483 346.261 187.483 346.261C187.483 346.261 187.497 346.261 187.511 346.247C188.656 345.954 225.65 336.404 240.224 346.261C255.036 356.315 267.39 441.314 267.39 441.314Z" fill="white"/>
<path d="M204.403 489.022L196.529 487.009L198.051 475.711L199.447 465.336L209.177 466.203L206.65 478.298L204.403 489.022Z" fill="#E4897B"/>
<path opacity="0.2" d="M206.594 478.535L197.995 475.921L199.419 465.448L209.163 466.259L206.594 478.535Z" fill="black"/>
<path d="M251.922 441.342L267.864 435.903L268.548 442.461L256.459 446.739L251.922 441.342Z" fill="#263238"/>
<path d="M165.23 388.013C165.23 388.013 167.729 388.069 206.385 386.265C206.385 386.265 200.605 434.672 197.45 470.901L209.009 472.872C209.009 472.872 236.622 395.284 236.329 382.951C236.022 370.619 221.922 367.011 221.922 367.011C221.922 367.011 194.379 382.965 165.23 388.013Z" fill="#263238"/>
<path opacity="0.1" d="M165.23 388.013C165.23 388.013 167.729 388.069 206.385 386.265C206.385 386.265 200.605 434.672 197.45 470.901L209.009 472.872C209.009 472.872 236.622 395.284 236.329 382.951C236.022 370.619 221.922 367.011 221.922 367.011C221.922 367.011 194.379 382.965 165.23 388.013Z" fill="white"/>
<path d="M195.762 467.405L211.648 469.209L208.577 475.445L195.72 473.795L195.762 467.405Z" fill="#263238"/>
<path opacity="0.3" d="M187.483 346.289L165.929 350.792C165.929 350.792 177.837 344.206 186.771 341.605C187.204 344.15 187.483 346.289 187.483 346.289Z" fill="black"/>
<path d="M146.482 325.316L145.589 331.048L185.221 334.111L186.268 327.329L146.482 325.316Z" fill="#263238"/>
<path opacity="0.2" d="M146.482 325.316L145.589 331.048L185.221 334.111L186.268 327.329L146.482 325.316Z" fill="black"/>
<path d="M160.002 324.956L158.044 324.755L157.019 334.742L158.977 334.944L160.002 324.956Z" fill="#263238"/>
<path d="M176.997 327.301L168.318 326.743L167.895 333.342L176.574 333.901L176.997 327.301Z" fill="white"/>
<path d="M184.34 326.031L182.382 325.83L181.356 335.817L183.315 336.019L184.34 326.031Z" fill="#263238"/>
<path opacity="0.2" d="M160.002 324.956L158.044 324.755L157.019 334.742L158.977 334.944L160.002 324.956Z" fill="white"/>
<path opacity="0.2" d="M184.34 326.031L182.382 325.83L181.356 335.817L183.315 336.019L184.34 326.031Z" fill="white"/>
<path d="M190.945 272.588C190.945 272.588 181.662 266.086 168.944 265.429C156.227 264.772 144.808 271.791 144.808 271.791L146.497 325.316L186.283 327.329C186.269 327.329 198.819 291.618 190.945 272.588Z" fill="#407BFF"/>
<path d="M189.004 236.821C189.004 236.821 194.742 210.953 170.856 213.512C140.87 216.728 152.262 253.991 167.129 251.74C181.983 249.489 189.004 236.821 189.004 236.821Z" fill="#263238"/>
<path opacity="0.2" d="M184.076 271.455L184.788 282.725L176.161 274.979C176.161 274.979 175.589 280.6 173.592 289.87C173.592 289.87 173.034 283.648 169.544 275.888L161.391 284.207L156.059 271.469C156.045 271.455 172.378 259.598 184.076 271.455Z" fill="black"/>
<path d="M173.202 280.6L168.903 270.001L160.987 266.45C168.009 261.612 164.463 250.789 164.463 250.789L175.743 254.76C175.143 256.634 174.766 258.228 174.529 259.584C173.356 266.631 176.525 267.205 176.525 267.205L174.347 270.365L173.202 280.6Z" fill="#E4897B"/>
<path opacity="0.2" d="M175.757 254.76C175.156 256.634 174.779 258.228 174.542 259.584C169.139 257.417 164.463 250.775 164.463 250.775L175.757 254.76Z" fill="black"/>
<path d="M176.148 220.993C186.353 221.874 189.159 227.62 189.005 238.219C188.81 251.46 185.096 260.549 172.588 256.648C155.599 251.321 159.215 219.525 176.148 220.993Z" fill="#E4897B"/>
<path d="M182.458 237.073C182.458 237.073 183.644 239.869 185.068 241.561C185.068 241.561 184.077 242.875 182.276 242.484L182.458 237.073Z" fill="#DE5753"/>
<path d="M176.288 235.702C176.232 236.541 175.744 237.198 175.185 237.156C174.627 237.128 174.208 236.415 174.264 235.576C174.32 234.737 174.808 234.08 175.367 234.122C175.939 234.15 176.344 234.849 176.288 235.702Z" fill="#263238"/>
<path d="M175.144 234.136L177.014 233.535C177.014 233.535 176.009 235.017 175.144 234.136Z" fill="#263238"/>
<path d="M186.743 236.178C186.687 237.017 186.199 237.674 185.64 237.632C185.082 237.604 184.663 236.891 184.719 236.052C184.775 235.213 185.263 234.556 185.822 234.598C186.38 234.626 186.785 235.339 186.743 236.178Z" fill="#263238"/>
<path d="M185.584 234.612L187.455 234.01C187.455 234.01 186.45 235.493 185.584 234.612Z" fill="#263238"/>
<path d="M176.79 228.627C176.79 228.627 173.956 228.012 172.239 229.788" stroke="#263238" stroke-width="0.7247" stroke-miterlimit="10" stroke-linecap="round" stroke-linejoin="round"/>
<path d="M184.245 228.837C184.245 228.837 186.102 228.319 188.238 230.025" stroke="#263238" stroke-width="0.7247" stroke-miterlimit="10" stroke-linecap="round" stroke-linejoin="round"/>
<path d="M163.528 237.24C163.528 237.24 169.014 229.256 168.847 222.712C168.847 222.712 189.773 216.183 189.005 236.821C189.005 236.821 192.551 218.741 175.045 216.826C157.581 214.91 155.417 240.61 163.821 249.041C163.821 249.041 160.122 242.232 163.528 237.24Z" fill="#263238"/>
<path d="M165.008 239.547C165.077 237.898 163.626 234.961 160.54 235.045C157.344 235.115 155.292 241.491 163.011 243.728C164.128 244.036 164.854 242.987 165.008 239.547Z" fill="#E4897B"/>
<path d="M182.849 246.65C182.123 247.811 181.244 250.048 181.244 250.048C181.02 250.006 180.811 249.964 180.601 249.908C177.684 249.251 176.539 247.993 176.162 246.776C175.953 246.119 175.995 245.462 176.078 244.945C176.176 244.343 176.386 243.938 176.386 243.938C177.726 245.21 180.406 246.021 181.858 246.399C182.458 246.581 182.849 246.65 182.849 246.65Z" fill="#263238"/>
<path d="M181.858 246.413L181.355 247.406C178.605 246.79 176.748 245.979 176.078 244.945C176.176 244.343 176.385 243.938 176.385 243.938C177.725 245.224 180.406 246.035 181.858 246.413Z" fill="white"/>
<path d="M180.601 249.908C177.684 249.251 176.539 247.993 176.162 246.776C177.153 247.042 178.312 247.461 179.261 248.147C179.987 248.664 180.378 249.293 180.601 249.908Z" fill="#DE5753"/>
<path d="M175.869 221.734C175.869 221.734 170.313 238.191 159.773 237.059C149.219 235.94 167.353 216.057 167.353 216.057C167.353 216.057 185.152 211.023 192.872 220.923C200.592 230.822 188.991 236.807 188.991 236.807C188.991 236.807 190.764 223.859 175.869 221.734Z" fill="#263238"/>
<path d="M175.869 220.531C175.869 220.531 176.134 232.109 167.423 235.423" stroke="#263238" stroke-width="0.5" stroke-miterlimit="10" stroke-linecap="round" stroke-linejoin="round"/>
<path d="M164.044 262.311L168.902 270.001L162.816 280.6L158.404 266.995L164.044 262.311Z" fill="#407BFF"/>
<path d="M174.36 263.779V270.365L181.55 278.321L179.204 266.897L174.36 263.779Z" fill="#407BFF"/>
<path d="M284.337 473.18C283.137 472.621 281.839 472.299 280.526 472.215C280.526 472.215 275.961 469.531 271.438 459.086L266.357 459.058C264.598 459.072 263.035 460.19 262.448 461.854C262.364 462.078 262.323 462.316 262.309 462.553C262.364 463.784 262.49 465.014 262.699 466.217C263.16 470.02 265.673 478.2 265.673 478.2L266.538 477.976L264.975 470.384C264.458 467.797 267.167 470.3 268.423 472.9C269.679 475.501 271.606 478.116 277.218 476.844C283.751 475.305 286.376 474.355 284.337 473.18Z" fill="#263238"/>
<path d="M270.517 456.345C270.517 456.345 276.869 469.643 280.512 472.215C280.512 472.215 275.612 475.138 270.517 468.622C263.914 460.204 262.309 462.553 262.309 462.553C262.309 462.553 262.588 459.673 263.104 458.261C264.095 455.548 270.517 456.345 270.517 456.345Z" fill="#E4897B"/>
<path d="M214.412 504.878C213.379 504.053 212.206 503.424 210.936 503.033C210.936 503.033 207.139 499.341 205.226 488.113L200.299 486.883C198.581 486.477 196.809 487.204 195.845 488.673C195.706 488.868 195.608 489.092 195.538 489.33C195.301 490.532 195.133 491.763 195.05 492.993C194.589 496.796 195.105 505.34 195.105 505.34L195.999 505.326L196.278 497.579C196.39 494.951 198.428 498.013 199.028 500.837C199.628 503.662 200.885 506.668 206.636 506.752C213.351 506.794 216.129 506.514 214.412 504.878Z" fill="#263238"/>
<path d="M204.989 485.233C204.989 485.233 208.004 499.663 210.95 503.033C210.95 503.033 205.491 504.71 202.085 497.174C197.674 487.428 195.552 489.33 195.552 489.33C195.552 489.33 196.501 486.589 197.339 485.345C198.93 482.94 204.989 485.233 204.989 485.233Z" fill="#E4897B"/>
<path d="M157.12 266.366C157.12 266.366 169.503 303.209 152.067 345.045L135.119 342.836L145.603 319.024L143.3 271.148L157.12 266.366Z" fill="#263238"/>
<path d="M180.601 267.666C180.601 267.666 186.268 276.811 185.584 304.608L189.018 343.926L192.299 341.591L189.619 322.421C189.619 322.421 196.78 288.654 193.555 273.455L180.601 267.666Z" fill="#263238"/>
<path d="M176.538 263.779C176.538 263.779 186.157 268.841 191.07 275.762L187.483 279.076L192.285 286.123L185.57 304.608C185.584 304.608 181.941 269.917 176.538 263.779Z" fill="#263238"/>
<path opacity="0.2" d="M176.538 263.779C176.538 263.779 186.157 268.841 191.07 275.762L187.483 279.076L192.285 286.123L185.57 304.608C185.584 304.608 181.941 269.917 176.538 263.779Z" fill="white"/>
<path d="M159.954 263.933C159.954 263.933 164.365 289.171 160.987 306.593L150.433 282.641L156.478 276.825L148.423 271.064C148.423 271.05 153.197 265.932 159.954 263.933Z" fill="#263238"/>
<path opacity="0.2" d="M159.954 263.933C159.954 263.933 164.365 289.171 160.987 306.593L150.433 282.641L156.478 276.825L148.423 271.064C148.423 271.05 153.197 265.932 159.954 263.933Z" fill="white"/>
<path d="M172.448 308.285L186.729 309.278C186.729 309.278 188.726 307.95 190.471 307.53C192.216 307.111 202.365 305.992 204.207 306.719C206.036 307.446 207.711 313.445 207.544 314.703C207.376 315.961 192.02 316.367 191.546 316.409C191.057 316.451 189.312 314.815 189.312 314.815L172.462 314.647V308.285H172.448Z" fill="#E4897B"/>
<path d="M143.3 271.134C134.002 276.727 128.935 306.859 135.105 311.571C141.275 316.283 183.672 316.409 183.672 316.409L185.068 307.432C185.068 307.432 148.646 303.783 146.804 300.231C144.947 296.68 145.603 282.711 145.603 282.711L143.3 271.134Z" fill="#263238"/>
<path d="M307.734 506.738H315.091L328.311 322.421H318.553L307.734 506.738Z" fill="#263238"/>
<path opacity="0.7" d="M307.734 506.738H315.091L327.669 331.58L328.311 322.715H318.553L318.023 331.58L307.734 506.738Z" fill="white"/>
<path opacity="0.2" d="M318.022 331.132H327.669L328.311 322.715H318.553L318.022 331.132Z" fill="black"/>
<path d="M253.751 506.738H261.108L262.309 322.421H252.551L253.751 506.738Z" fill="#263238"/>
<path opacity="0.7" d="M252.536 322.715L252.732 352.456L253.737 506.738H261.108L262.113 352.456L262.308 322.715H252.536Z" fill="white"/>
<path opacity="0.2" d="M252.536 322.715L252.732 352.791H262.113L262.308 322.715H252.536Z" fill="black"/>
<path d="M175.645 506.738H183.001L196.222 322.421H186.464L175.645 506.738Z" fill="#263238"/>
<path opacity="0.7" d="M175.645 506.738H183.001L195.579 331.58L196.222 322.715H186.464L185.933 331.58L175.645 506.738Z" fill="white"/>
<path opacity="0.2" d="M185.933 331.132H195.579L196.221 322.715H186.463L185.933 331.132Z" fill="black"/>
<path d="M391.899 506.738H399.256L388.437 322.421H378.679L391.899 506.738Z" fill="#263238"/>
<path opacity="0.7" d="M378.679 322.715L379.321 331.58L391.899 506.738H399.242L388.967 331.58L388.437 322.715H378.679Z" fill="white"/>
<path opacity="0.2" d="M388.437 322.715H378.679L379.321 331.132H388.967L388.437 322.715Z" fill="black"/>
<path d="M181.745 327.036H393.155C394.817 327.036 396.171 325.679 396.171 324.015V317.807H178.716V324.015C178.716 325.679 180.07 327.036 181.745 327.036Z" fill="#407BFF"/>
<path opacity="0.6" d="M181.745 327.036H393.155C394.817 327.036 396.171 325.679 396.171 324.015V317.807H178.716V324.015C178.716 325.679 180.07 327.036 181.745 327.036Z" fill="white"/>
<path opacity="0.2" d="M178.724 322.422H396.179V317.808H178.724V322.422Z" fill="black"/>
<path d="M174.165 319.01H400.736C402.174 319.01 403.332 317.849 403.332 316.409C403.332 314.969 402.174 313.808 400.736 313.808H174.165C172.727 313.808 171.568 314.969 171.568 316.409C171.568 317.849 172.727 319.01 174.165 319.01Z" fill="#407BFF"/>
<path opacity="0.6" d="M174.165 319.01H400.736C402.174 319.01 403.332 317.849 403.332 316.409C403.332 314.969 402.174 313.808 400.736 313.808H174.165C172.727 313.808 171.568 314.969 171.568 316.409C171.568 317.849 172.727 319.01 174.165 319.01Z" fill="white"/>
<path d="M307.818 313.808L306.631 309.32H257.939L235.505 311.571L234.653 313.808H307.818Z" fill="#263238"/>
<path opacity="0.4" d="M257.938 309.32V313.808H307.818L306.631 309.32H257.938Z" fill="black"/>
<path d="M267.724 287.843C267.515 290.206 269.232 292.135 271.591 292.135H346.193C348.553 292.135 350.647 290.206 350.87 287.843L355.295 240.009C355.337 239.519 355.309 239.044 355.198 238.611C354.779 236.933 353.299 235.716 351.428 235.716H276.826C274.467 235.716 272.373 237.646 272.15 240.009L267.724 287.843Z" fill="#263238"/>
<path opacity="0.4" d="M271.842 292.135H346.179C348.539 292.135 350.633 290.206 350.856 287.843L355.281 240.009C355.323 239.519 355.295 239.044 355.184 238.611H280.847C278.487 238.611 276.407 240.54 276.17 242.903L271.745 290.737C271.703 291.241 271.745 291.716 271.842 292.135Z" fill="black"/>
<path d="M323.104 262.8H307.664L311.782 307.055L287.38 310.732V313.808H338.767V310.732L328.241 307.055L323.104 262.8Z" fill="#263238"/>
<path opacity="0.1" d="M307.664 262.8L319.097 313.109L328.241 312.829L323.104 262.8H307.664Z" fill="white"/>
<path d="M315.9 232.472H312.927V237.66H315.9V232.472Z" fill="#263238"/>
<path d="M312.927 232.263H309.34C309.34 232.263 308.823 231.396 308.823 229.913C308.823 228.361 309.34 227.564 309.34 227.564H312.927V232.263Z" fill="#263238"/>
<path d="M319.056 229.704C319.056 232.095 317.115 234.038 314.728 234.038C312.341 234.038 310.4 232.095 310.4 229.704C310.4 227.313 312.341 225.369 314.728 225.369C317.115 225.369 319.056 227.313 319.056 229.704Z" fill="#263238"/>
<path opacity="0.1" d="M319.056 229.704C319.056 232.095 317.115 234.038 314.728 234.038C312.341 234.038 310.4 232.095 310.4 229.704C310.4 227.313 312.341 225.369 314.728 225.369C317.115 225.369 319.056 227.313 319.056 229.704Z" fill="white"/>
<path d="M367.469 280.404V313.808H350.843C350.843 298.511 354.165 284.892 355.687 279.481C356.106 278.013 357.432 277.006 358.954 277.006H364.077C365.947 277.006 367.469 278.53 367.469 280.404Z" fill="#263238"/>
<path opacity="0.4" d="M367.47 280.404V313.808H359.149V281.635C359.149 279.076 361.215 277.006 363.77 277.006H364.077C365.948 277.006 367.47 278.53 367.47 280.404Z" fill="black"/>
<path d="M261.372 280.404V313.808H244.746C244.746 298.511 248.069 284.892 249.59 279.481C250.009 278.013 251.335 277.006 252.857 277.006H257.98C259.851 277.006 261.372 278.53 261.372 280.404Z" fill="#263238"/>
<path opacity="0.4" d="M261.373 280.404V313.808H253.053V281.635C253.053 279.076 255.119 277.006 257.673 277.006H257.981C259.851 277.006 261.373 278.53 261.373 280.404Z" fill="black"/>
</g>
<defs>
<clipPath id="clip0_226_766">
<rect width="698" height="521" fill="white"/>
</clipPath>
</defs>
</svg>
