<svg width="60" height="60" viewBox="0 0 60 60" fill="none" xmlns="http://www.w3.org/2000/svg">
<g clip-path="url(#clip0_3_15)">
<path d="M42 30C42 36.6273 36.6273 42 30 42C23.3726 42 18 36.6273 18 30C18 23.3726 23.3726 18 30 18C36.6273 18 42 23.3726 42 30ZM42 30V34.5C42 38.6421 45.3579 42 49.5 42C53.6421 42 57 38.6421 57 34.5V30C57 15.0883 44.9118 3 30 3C15.0883 3 3 15.0883 3 30C3 44.9118 15.0883 57 30 57H42" stroke="#3A86FF" stroke-width="5" stroke-linecap="round" stroke-linejoin="round"/>
</g>
<defs>
<clipPath id="clip0_3_15">
<rect width="60" height="60" fill="white"/>
</clipPath>
</defs>
</svg>
