<svg width="18" height="17" viewBox="0 0 18 17" fill="none" xmlns="http://www.w3.org/2000/svg">
<g clip-path="url(#clip0_1_403)">
<path d="M17.2753 9.09241C17.6833 8.68446 17.6833 8.02195 17.2753 7.614L13.0979 3.43658C12.69 3.02863 12.0275 3.02863 11.6195 3.43658C11.2115 3.84453 11.2115 4.50704 11.6195 4.91499L14.015 7.31048H1.91679C1.33913 7.31048 0.872437 7.77718 0.872437 8.35484C0.872437 8.9325 1.33913 9.39919 1.91679 9.39919H14.015L11.6195 11.7947C11.2115 12.2026 11.2115 12.8651 11.6195 13.2731C12.0275 13.681 12.69 13.681 13.0979 13.2731L17.2753 9.09568V9.09241Z" fill="#0F3557"/>
</g>
<defs>
<clipPath id="clip0_1_403">
<rect width="16.7097" height="16.7097" fill="white" transform="translate(0.872437)"/>
</clipPath>
</defs>
</svg>
