<svg width="23" height="24" viewBox="0 0 23 24" fill="none" xmlns="http://www.w3.org/2000/svg">
<g clip-path="url(#clip0_1_395)">
<path d="M0.23584 11.6196C0.23584 14.6584 1.39273 17.5728 3.452 19.7216C5.51127 21.8704 8.30424 23.0776 11.2165 23.0776C14.1287 23.0776 16.9217 21.8704 18.981 19.7216C21.0402 17.5728 22.1971 14.6584 22.1971 11.6196C22.1971 8.5807 21.0402 5.66629 18.981 3.51749C16.9217 1.36868 14.1287 0.161499 11.2165 0.161499C8.30424 0.161499 5.51127 1.36868 3.452 3.51749C1.39273 5.66629 0.23584 8.5807 0.23584 11.6196ZM12.2888 17.3934C11.8856 17.8141 11.2336 17.8141 10.8347 17.3934C10.4358 16.9726 10.4315 16.2923 10.8347 15.8761L13.8801 12.6982L6.06931 12.6938C5.49883 12.6938 5.03987 12.2148 5.03987 11.6196C5.03987 11.0243 5.49883 10.5454 6.06931 10.5454H13.8801L10.8347 7.36755C10.4315 6.94682 10.4315 6.2665 10.8347 5.85025C11.2379 5.434 11.8899 5.42952 12.2888 5.85025L17.0928 10.8587C17.496 11.2794 17.496 11.9597 17.0928 12.376L12.2888 17.3934Z" fill="#0F3557"/>
</g>
<defs>
<clipPath id="clip0_1_395">
<rect width="21.9613" height="22.9161" fill="white" transform="translate(0.23584 0.161499)"/>
</clipPath>
</defs>
</svg>
