<svg width="24" height="24" viewBox="0 0 24 24" fill="none" xmlns="http://www.w3.org/2000/svg">
<g clip-path="url(#clip0_1_397)">
<path d="M11.9999 23.0776C15.0388 23.0776 17.9532 21.8704 20.102 19.7216C22.2508 17.5728 23.458 14.6584 23.458 11.6196C23.458 8.5807 22.2508 5.66629 20.102 3.51749C17.9532 1.36868 15.0388 0.161499 11.9999 0.161499C8.96107 0.161499 6.04666 1.36868 3.89786 3.51749C1.74906 5.66629 0.54187 8.5807 0.54187 11.6196C0.54187 14.6584 1.74906 17.5728 3.89786 19.7216C6.04666 21.8704 8.96107 23.0776 11.9999 23.0776ZM10.5677 8.75505V14.4841C10.5677 15.2763 9.92764 15.9163 9.13542 15.9163C8.3432 15.9163 7.70316 15.2763 7.70316 14.4841V8.75505C7.70316 7.96283 8.3432 7.32279 9.13542 7.32279C9.92764 7.32279 10.5677 7.96283 10.5677 8.75505ZM16.2967 8.75505V14.4841C16.2967 15.2763 15.6567 15.9163 14.8645 15.9163C14.0722 15.9163 13.4322 15.2763 13.4322 14.4841V8.75505C13.4322 7.96283 14.0722 7.32279 14.8645 7.32279C15.6567 7.32279 16.2967 7.96283 16.2967 8.75505Z" fill="#0F3557" fill-opacity="0.501961"/>
</g>
<defs>
<clipPath id="clip0_1_397">
<rect width="22.9161" height="22.9161" fill="white" transform="translate(0.54187 0.161499)"/>
</clipPath>
</defs>
</svg>
