<svg width="23" height="24" viewBox="0 0 23 24" fill="none" xmlns="http://www.w3.org/2000/svg">
<g clip-path="url(#clip0_1_393)">
<path d="M22.7695 11.6196C22.7695 8.5807 21.6126 5.66629 19.5534 3.51749C17.4941 1.36868 14.7011 0.161499 11.7889 0.161499C8.87662 0.161499 6.08365 1.36868 4.02438 3.51749C1.96511 5.66629 0.808228 8.5807 0.808228 11.6196C0.808228 14.6584 1.96511 17.5728 4.02438 19.7216C6.08365 21.8704 8.87662 23.0776 11.7889 23.0776C14.7011 23.0776 17.4941 21.8704 19.5534 19.7216C21.6126 17.5728 22.7695 14.6584 22.7695 11.6196ZM10.7165 5.84577C11.1197 5.42505 11.7717 5.42505 12.1706 5.84577C12.5695 6.2665 12.5738 6.94682 12.1706 7.36307L9.12521 10.5409L16.9361 10.5454C17.5065 10.5454 17.9655 11.0243 17.9655 11.6196C17.9655 12.2148 17.5065 12.6938 16.9361 12.6938H9.12521L12.1706 15.8716C12.5738 16.2923 12.5738 16.9726 12.1706 17.3889C11.7674 17.8051 11.1154 17.8096 10.7165 17.3889L5.91251 12.3805C5.50932 11.9597 5.50932 11.2794 5.91251 10.8632L10.7165 5.84577Z" fill="#0F3557"/>
</g>
<defs>
<clipPath id="clip0_1_393">
<rect width="21.9613" height="22.9161" fill="white" transform="translate(0.808228 0.161499)"/>
</clipPath>
</defs>
</svg>
