<svg width="32" height="32" viewBox="0 0 32 32" fill="none" xmlns="http://www.w3.org/2000/svg">
<g clip-path="url(#clip0_1_239)">
<path d="M31.9889 15.9723C31.9889 16.9723 31.1556 17.7556 30.2111 17.7556H28.4333L28.4722 26.6556C28.4722 26.8056 28.4611 26.9556 28.4444 27.1056V28.0001C28.4444 29.2278 27.45 30.2223 26.2222 30.2223H25.3333C25.2722 30.2223 25.2111 30.2223 25.15 30.2167C25.0722 30.2223 24.9944 30.2223 24.9167 30.2223H23.1111H21.7778C20.55 30.2223 19.5556 29.2278 19.5556 28.0001V26.6667V23.1112C19.5556 22.1278 18.7611 21.3334 17.7778 21.3334H14.2222C13.2389 21.3334 12.4444 22.1278 12.4444 23.1112V26.6667V28.0001C12.4444 29.2278 11.45 30.2223 10.2222 30.2223H8.88889H7.11667C7.03333 30.2223 6.95 30.2167 6.86667 30.2112C6.8 30.2167 6.73333 30.2223 6.66667 30.2223H5.77778C4.55 30.2223 3.55556 29.2278 3.55556 28.0001V21.7778C3.55556 21.7278 3.55556 21.6723 3.56111 21.6223V17.7556H1.77778C0.777778 17.7556 0 16.9778 0 15.9723C0 15.4723 0.166667 15.0278 0.555556 14.6389L14.8 2.22228C15.1889 1.83339 15.6333 1.77783 16.0222 1.77783C16.4111 1.77783 16.8556 1.88894 17.1889 2.16672L31.3778 14.6389C31.8222 15.0278 32.0444 15.4723 31.9889 15.9723Z" fill="#0F3557"/>
</g>
<defs>
<clipPath id="clip0_1_239">
<rect width="32" height="32" fill="white"/>
</clipPath>
</defs>
</svg>
