<svg width="24" height="24" viewBox="0 0 24 24" fill="none" xmlns="http://www.w3.org/2000/svg">
<g clip-path="url(#clip0_1_251)">
<path d="M0 4.40024C0 3.07649 1.07625 2.00024 2.4 2.00024H9.6H11.4H12H21.6C22.9238 2.00024 24 3.07649 24 4.40024V14.0002C24 15.324 22.9238 16.4002 21.6 16.4002H12H11.4H9.6H2.4C1.07625 16.4002 0 15.324 0 14.0002V4.40024ZM12 4.40024V14.0002H21.6V4.40024H12ZM6.68625 6.19649C6.56625 5.92649 6.29625 5.75024 6 5.75024C5.70375 5.75024 5.43375 5.92649 5.31375 6.19649L2.91375 11.5965C2.745 11.9752 2.9175 12.4177 3.29625 12.5865C3.675 12.7552 4.1175 12.5827 4.28625 12.204L4.62 11.4502H7.38L7.71375 12.204C7.8825 12.5827 8.325 12.7515 8.70375 12.5865C9.0825 12.4215 9.25125 11.9752 9.08625 11.5965L6.68625 6.19649ZM6 8.34524L6.7125 9.95024H5.2875L6 8.34524ZM16.8 5.75024C17.2125 5.75024 17.55 6.08774 17.55 6.50024V6.65024H19.2H19.8C20.2125 6.65024 20.55 6.98774 20.55 7.40024C20.55 7.81274 20.2125 8.15024 19.8 8.15024H19.725L19.665 8.31899C19.3313 9.23399 18.825 10.0665 18.18 10.7715C18.2138 10.794 18.2475 10.8127 18.2812 10.8315L18.99 11.2552C19.3463 11.469 19.4587 11.9302 19.2488 12.2827C19.0387 12.6352 18.5737 12.7515 18.2213 12.5415L17.5125 12.1177C17.3438 12.0165 17.1825 11.9115 17.0212 11.799C16.6238 12.0802 16.2 12.324 15.7463 12.5265L15.6112 12.5865C15.2325 12.7552 14.79 12.5827 14.6213 12.204C14.4525 11.8252 14.625 11.3827 15.0038 11.214L15.1388 11.154C15.3788 11.0452 15.6113 10.9252 15.8325 10.7865L15.375 10.329C15.0825 10.0365 15.0825 9.56024 15.375 9.26774C15.6675 8.97524 16.1437 8.97524 16.4363 9.26774L16.9838 9.81524L17.0025 9.83399C17.4675 9.34274 17.8463 8.77274 18.12 8.14649H16.8H14.1C13.6875 8.14649 13.35 7.80899 13.35 7.39649C13.35 6.98399 13.6875 6.64649 14.1 6.64649H16.05V6.49649C16.05 6.08399 16.3875 5.74649 16.8 5.74649V5.75024Z" fill="white"/>
</g>
<defs>
<clipPath id="clip0_1_251">
<rect width="24" height="24" fill="white"/>
</clipPath>
</defs>
</svg>
