<svg width="24" height="24" viewBox="0 0 24 24" fill="none" xmlns="http://www.w3.org/2000/svg">
<g clip-path="url(#clip0_1_249)">
<path d="M0 12C0 8.8174 1.26428 5.76516 3.51472 3.51472C5.76516 1.26428 8.8174 0 12 0C15.1826 0 18.2348 1.26428 20.4853 3.51472C22.7357 5.76516 24 8.8174 24 12C24 15.1826 22.7357 18.2348 20.4853 20.4853C18.2348 22.7357 15.1826 24 12 24C8.8174 24 5.76516 22.7357 3.51472 20.4853C1.26428 18.2348 0 15.1826 0 12ZM7.57031 7.96406C6.99844 7.72031 6.3375 7.98281 6.09375 8.55469C5.85 9.12656 6.1125 9.7875 6.68438 10.0312L7.24219 10.2703C8.05313 10.6172 8.89219 10.875 9.75469 11.0344V13.3828C9.75469 13.5844 9.72188 13.7859 9.65625 13.9734L8.31094 18.0094C8.11406 18.6 8.43281 19.2375 9.02344 19.4344C9.61406 19.6313 10.2516 19.3125 10.4484 18.7219L11.5922 15.2906C11.6531 15.1125 11.8172 14.9906 12.0047 14.9906C12.1922 14.9906 12.3609 15.1125 12.4172 15.2906L13.5609 18.7219C13.7578 19.3125 14.3953 19.6313 14.9859 19.4344C15.5766 19.2375 15.8953 18.6 15.6984 18.0094L14.3531 13.9734C14.2875 13.7812 14.2547 13.5844 14.2547 13.3828V11.0391C15.1172 10.875 15.9563 10.6219 16.7672 10.275L17.325 10.0359C17.8969 9.79219 18.1594 9.13125 17.9156 8.55938C17.6719 7.9875 17.0109 7.725 16.4391 7.96875L15.8766 8.20312C14.6531 8.72812 13.3359 9 12 9C10.6641 9 9.35156 8.72812 8.12344 8.20312L7.56562 7.96406H7.57031ZM12 7.5C12.4973 7.5 12.9742 7.30246 13.3258 6.95083C13.6775 6.59919 13.875 6.12228 13.875 5.625C13.875 5.12772 13.6775 4.65081 13.3258 4.29917C12.9742 3.94754 12.4973 3.75 12 3.75C11.5027 3.75 11.0258 3.94754 10.6742 4.29917C10.3225 4.65081 10.125 5.12772 10.125 5.625C10.125 6.12228 10.3225 6.59919 10.6742 6.95083C11.0258 7.30246 11.5027 7.5 12 7.5Z" fill="white"/>
</g>
<defs>
<clipPath id="clip0_1_249">
<rect width="24" height="24" fill="white"/>
</clipPath>
</defs>
</svg>
