<svg width="22" height="22" viewBox="0 0 22 22" fill="none" xmlns="http://www.w3.org/2000/svg">
<circle cx="10.98" cy="10.98" r="10.98" fill="#0F3557" fill-opacity="0.25"/>
<path d="M7 8.30904C7 7.30623 7 6.80482 7.21967 6.4933C7.43934 6.18176 7.79289 6.18176 8.5 6.18176C9.20711 6.18176 9.56066 6.18176 9.78033 6.4933C10 6.80482 10 7.30623 10 8.30904V14.6909C10 15.6937 10 16.195 9.78033 16.5066C9.56066 16.8181 9.20711 16.8181 8.5 16.8181C7.79289 16.8181 7.43934 16.8181 7.21967 16.5066C7 16.195 7 15.6937 7 14.6909V8.30904Z" fill="#1C274C"/>
<path d="M12 8.30904C12 7.30623 12 6.80482 12.2197 6.4933C12.4394 6.18176 12.7929 6.18176 13.5 6.18176C14.2071 6.18176 14.5606 6.18176 14.7803 6.4933C15 6.80482 15 7.30623 15 8.30904V14.6909C15 15.6937 15 16.195 14.7803 16.5066C14.5606 16.8181 14.2071 16.8181 13.5 16.8181C12.7929 16.8181 12.4394 16.8181 12.2197 16.5066C12 16.195 12 15.6937 12 14.6909V8.30904Z" fill="#1C274C"/>
</svg>
