<svg width="103" height="103" viewBox="0 0 103 103" fill="none" xmlns="http://www.w3.org/2000/svg">
<path fill-rule="evenodd" clip-rule="evenodd" d="M74.2396 94.9423C65.57 92.7703 47.8219 86.6465 31.7318 70.5566C15.6419 54.4668 9.51831 36.7185 7.34617 28.049C6.09789 23.0667 8.34574 18.259 12.1572 15.5365L22.1493 8.39928C27.9957 4.22328 36.1289 5.64034 40.2185 11.5476L46.509 20.6341C49.1793 24.4912 48.2583 29.7777 44.4409 32.5044L39.425 36.0872C40.1841 38.991 42.5452 44.9543 49.9398 52.3488C57.3343 59.7434 63.2976 62.1042 66.2014 62.8634L69.784 57.8473C72.511 54.0303 77.7974 53.1089 81.6544 55.7792L90.7411 62.0699C96.6481 66.1598 98.0653 74.2925 93.889 80.1391L86.752 90.1314C84.0294 93.9428 79.2218 96.1908 74.2396 94.9423ZM37.8011 64.4874C52.4333 79.1194 68.5802 84.6758 76.3254 86.6165C77.4575 86.8997 78.8261 86.4598 79.7673 85.1423L86.9048 75.15C88.2966 73.2016 87.8245 70.4906 85.855 69.1271L76.7687 62.8364L72.9238 68.2194C71.3526 70.4193 68.4468 72.1446 65.0632 71.4146C60.8402 70.5034 53.0337 67.5812 43.8705 58.4181C34.7074 49.255 31.7851 41.4484 30.8739 37.2254C30.1439 33.8419 31.8694 30.936 34.0692 29.3647L39.452 25.5198L33.1613 16.4333C31.7981 14.4642 29.0871 13.9918 27.1383 15.3838L17.1462 22.5211C15.8285 23.4623 15.3885 24.8309 15.6722 25.9629C17.6128 33.7083 23.1692 49.8554 37.8011 64.4874Z" fill="white"/>
</svg>
