<svg width="14" height="14" viewBox="0 0 14 14" fill="none" xmlns="http://www.w3.org/2000/svg">
<path d="M9.71724 5.41704C10.5571 5.94193 10.977 6.20437 11.121 6.54043C11.2468 6.83385 11.2468 7.16606 11.121 7.45953C10.977 7.79553 10.5571 8.05797 9.71724 8.58292L5.77263 11.0483C4.84049 11.6309 4.37442 11.9222 3.9898 11.8912C3.65455 11.8643 3.34723 11.694 3.14669 11.424C2.91663 11.1142 2.91663 10.5646 2.91663 9.46538V4.53456C2.91663 3.43534 2.91663 2.88574 3.14669 2.57597C3.34723 2.30596 3.65455 2.13563 3.9898 2.10867C4.37442 2.07776 4.84049 2.36905 5.77263 2.95164L9.71724 5.41704Z" stroke="white" stroke-width="2" stroke-linejoin="round"/>
</svg>
