<svg width="19" height="18" viewBox="0 0 19 18" fill="none" xmlns="http://www.w3.org/2000/svg">
<g clip-path="url(#clip0_544_614)">
<path fill-rule="evenodd" clip-rule="evenodd" d="M16.2215 1.20311C16.5225 1.12346 16.7324 1.04514 16.9043 0.962894C17.1453 0.847616 17.345 0.709521 17.6607 0.47695C17.9259 0.281487 18.2658 0.264466 18.5456 0.432629C18.8255 0.600791 19 0.926972 19 1.28181C19 2.3242 18.8837 3.17856 18.6144 3.93043C18.3878 4.56286 18.0694 5.07653 17.6887 5.54405C17.5279 8.78726 16.6871 11.3342 15.4018 13.2638C14.0695 15.2637 12.297 16.5445 10.4285 17.2617C8.5655 17.9768 6.59704 18.1366 4.83356 17.8945C3.08165 17.6539 1.46223 17.0063 0.333472 16.026C0.02436 15.7576 -0.0842997 15.2904 0.0687335 14.8879C0.221769 14.4854 0.598184 14.2483 0.985852 14.3102C2.09646 14.4873 3.16554 14.2053 4.04463 13.8023C3.87158 13.6971 3.70841 13.5833 3.55675 13.4661C2.7557 12.8469 2.1094 12.0063 1.81851 11.3566C1.69812 11.0878 1.69688 10.7716 1.81515 10.5017C1.87615 10.3623 1.96537 10.2436 2.07368 10.1531C0.904092 9.07522 0.431874 7.58443 0.431874 6.58572C0.431874 6.28876 0.554406 6.00835 0.764028 5.82561C0.85217 5.74877 0.951574 5.69279 1.05636 5.65908C0.968838 5.37292 0.900922 5.0838 0.849156 4.8039C0.619628 3.56292 0.640001 2.16224 0.889479 1.04793C0.974849 0.666608 1.25893 0.381306 1.60754 0.326782C1.95614 0.272268 2.29949 0.459447 2.47539 0.79991C3.40597 2.601 5.12241 3.70191 6.71988 4.35405C7.47093 4.66065 8.1665 4.85603 8.68787 4.97615C8.8004 3.79908 9.09473 2.82837 9.5465 2.05739C10.1425 1.04021 10.9737 0.438386 11.8664 0.170037C13.406 -0.292753 15.1143 0.234494 16.2215 1.20311ZM8.41911 6.88331C7.82743 6.75063 7.01425 6.52776 6.12678 6.16548C4.95464 5.68698 3.59354 4.94085 2.45341 3.78511C2.47381 3.99779 2.50278 4.20866 2.54073 4.41382C2.73181 5.44695 3.08686 6.02556 3.40901 6.20541C3.80301 6.42539 3.9856 6.94122 3.83276 7.40256C3.62583 8.02717 3.08159 8.07837 2.58709 7.94037C2.98481 8.60616 3.69967 9.27002 4.89202 9.49191C5.30327 9.56848 5.60684 9.96213 5.61356 10.4276C5.62029 10.8931 5.32824 11.2975 4.91942 11.3888L4.16766 11.5567C4.28266 11.6682 4.40719 11.7777 4.53993 11.8803C5.14181 12.3456 5.74613 12.5463 6.26785 12.4007C6.6586 12.2916 7.06499 12.4986 7.24736 12.8996C7.42971 13.3006 7.33962 13.7891 7.0302 14.077C6.47409 14.5939 5.82463 15.0086 5.17372 15.3528C4.86815 15.5144 4.52666 15.674 4.15578 15.8144C4.44102 15.8823 4.73784 15.9381 5.04436 15.9802C6.57349 16.1902 8.27549 16.0486 9.86699 15.4378C11.4531 14.829 12.9191 13.7591 14.0159 12.1127C15.1111 10.4685 15.8754 8.19313 15.9779 5.10357C15.9859 4.86032 16.0761 4.62947 16.2302 4.45736C16.6185 4.02374 16.9395 3.52672 17.0973 2.93513C16.8211 3.0313 16.51 3.11454 16.1395 3.19364C15.8584 3.25364 15.569 3.15428 15.3666 2.92835C14.7064 2.19108 13.4005 1.70624 12.3154 2.03242C11.8047 2.18594 11.3405 2.51827 10.9919 3.1133C10.636 3.72082 10.3637 4.66724 10.3637 6.10358C10.3637 6.37647 10.2601 6.63658 10.0788 6.81943C9.64866 7.25289 8.92485 6.99669 8.41911 6.88331Z" fill="#0F0F0F"/>
</g>
<defs>
<clipPath id="clip0_544_614">
<rect width="19" height="18" fill="white"/>
</clipPath>
</defs>
</svg>
