<svg width="30" height="30" viewBox="0 0 30 30" fill="none" xmlns="http://www.w3.org/2000/svg">
<g clip-path="url(#clip0_365_730)">
<path d="M22.4993 6.4908C22.4993 6.92939 22.9382 7.36799 23.5519 7.36799C24.4287 7.36799 24.6918 7.01711 24.6918 6.4908C24.6918 6.40309 24.6918 6.40309 24.6918 6.31576C24.6045 6.0526 24.341 5.87717 24.0786 5.70173C23.9905 5.70173 23.8154 5.61401 23.6404 5.61401C23.0256 5.61441 22.4993 5.96489 22.4993 6.4908Z" fill="white"/>
<path d="M24.3418 3.596C24.2533 3.06969 23.9028 2.6311 23.4646 2.6311C23.0256 2.6311 22.7624 3.06969 22.8509 3.596C22.9394 4.12231 23.2891 4.5609 23.7277 4.5609C24.0786 4.5609 24.4291 4.12231 24.3418 3.596Z" fill="white"/>
<path d="M20.3944 10.1749L21.8856 8.68371C22.7624 9.38545 23.8162 9.82404 24.9561 9.82404C27.675 9.82404 29.8684 7.6307 29.8684 4.91183C29.8676 2.19256 27.675 0 24.9557 0C22.2373 0 20.0435 2.19295 20.0435 4.91222C20.0435 6.14027 20.4817 7.1925 21.1839 7.98235L19.6923 9.47395C19.9554 9.73672 20.2186 10.0003 20.3944 10.1749ZM25.7452 3.3329H26.7097V2.36839H27.0606V3.33329H28.0259V3.68416H27.0606V4.64945H26.7097V3.68377H25.7452V3.3329ZM23.5523 4.99954C23.5523 4.91183 23.5523 4.82411 23.6408 4.73639C23.5523 4.73639 23.5523 4.73639 23.4657 4.73639C22.7636 4.73639 22.2373 4.21008 22.2373 3.59605C22.2373 2.98203 22.9386 2.45572 23.6408 2.45572H25.2189L24.868 2.71887H24.3417C24.6926 2.80698 24.868 3.24557 24.868 3.68377C24.868 4.03464 24.6926 4.2978 24.429 4.56095C24.1659 4.73639 24.0782 4.82411 24.0782 4.99954C24.0782 5.17498 24.3417 5.43813 24.5168 5.52585C24.955 5.78901 25.0431 6.13988 25.0431 6.57847C25.0431 7.19211 24.5168 7.71881 23.4645 7.71881C22.5877 7.71881 21.7979 7.36793 21.7979 6.75391C21.7979 6.13988 22.4992 5.61357 23.3764 5.61357C23.4645 5.61357 23.5515 5.61357 23.6396 5.61357C23.6396 5.35081 23.5523 5.17537 23.5523 4.99954Z" fill="white"/>
<path d="M24.9558 20.1752C23.8158 20.1752 22.6755 20.6134 21.8852 21.3156L20.3944 19.824C20.2186 20.0871 19.9554 20.2618 19.7804 20.4372L21.272 21.9288C20.5702 22.8052 20.1317 23.859 20.1317 24.9993C20.1317 27.7182 22.3254 29.9116 25.0443 29.9116C27.7627 29.9116 29.9569 27.7182 29.9569 24.9993C29.8676 22.2801 27.675 20.1752 24.9558 20.1752ZM23.5523 27.2804H22.5874V24.2099H23.5523V27.2804ZM23.1137 23.7721C22.7628 23.7721 22.5 23.5085 22.5 23.245C22.5 22.9818 22.7632 22.7187 23.1137 22.7187C23.4642 22.7187 23.7273 22.9818 23.7273 23.245C23.6396 23.5962 23.4646 23.7721 23.1137 23.7721ZM27.4996 27.2804H26.3593V25.7019C26.3593 25.2637 26.1842 25.0001 25.8326 25.0001C25.5694 25.0001 25.3944 25.1756 25.3062 25.351C25.3062 25.4399 25.3062 25.5268 25.3062 25.6145V27.2816H24.2536C24.2536 27.2816 24.2536 24.4746 24.2536 24.2111H25.3062V24.6496C25.3944 24.4746 25.7452 24.1233 26.2715 24.1233C26.9729 24.1233 27.4996 24.5615 27.4996 25.5268V27.2804Z" fill="white"/>
<path d="M9.51738 19.8247L8.02618 21.3163C7.14899 20.6142 6.09638 20.176 4.95604 20.176C2.23678 20.176 0.0438232 22.3697 0.0438232 25.0878C0.0438232 27.8071 2.23678 30.0004 4.95604 30.0004C7.67491 30.0004 9.86826 27.8071 9.86826 25.0878C9.86826 23.9475 9.42967 22.8075 8.72792 22.0177L10.2191 20.5261C9.95598 20.2625 9.69282 19.999 9.51738 19.8247ZM7.06167 24.2979C7.06167 25.7892 5.92133 27.4554 3.90381 27.4554C3.29018 27.4554 2.67576 27.28 2.23717 26.9283C2.32489 26.9283 2.41261 26.9283 2.50032 26.9283C3.02663 26.9283 3.46522 26.7533 3.90381 26.4901C3.46522 26.4901 3.02663 26.1392 2.8512 25.7003C2.93891 25.7003 3.02624 25.7003 3.02624 25.7003C3.11435 25.7003 3.20168 25.7003 3.28979 25.7003C2.76309 25.6118 2.4126 25.1739 2.4126 24.6476C2.58804 24.7357 2.76348 24.8227 2.93891 24.8227C2.67576 24.6476 2.4126 24.2964 2.4126 23.9455C2.4126 23.7708 2.50032 23.5946 2.58804 23.4192C3.11435 24.1213 3.90342 24.5595 4.86832 24.5595C4.86832 24.471 4.86832 24.3845 4.86832 24.2964C4.86832 23.6823 5.39502 23.156 6.00866 23.156C6.35953 23.156 6.62269 23.3311 6.79851 23.5069C7.06167 23.4188 7.32482 23.3315 7.50026 23.2438C7.41215 23.5069 7.23671 23.682 6.97356 23.857C7.23671 23.857 7.41215 23.7689 7.58758 23.682C7.41215 23.9451 7.23671 24.1202 7.06128 24.2083C7.06167 24.2098 7.06167 24.2098 7.06167 24.2979Z" fill="white"/>
<path d="M4.95604 9.82446C6.09638 9.82446 7.23632 9.38587 8.02618 8.68412L9.51738 10.1753C9.69282 9.91218 9.95597 9.73713 10.1314 9.5617L8.63981 8.07049C9.34156 7.19331 9.78015 6.14069 9.78015 5.00035C9.78015 2.28109 7.58719 0.0881348 4.86793 0.0881348C2.14906 0.0881348 0.0438232 2.28109 0.0438232 5.00035C0.0438232 7.63111 2.23678 9.82446 4.95604 9.82446ZM3.8157 4.12239H4.34201V3.59608C4.34201 2.89433 4.60517 2.45574 5.48235 2.45574H6.18409V3.33292H5.7455C5.39463 3.33292 5.39463 3.42064 5.39463 3.6838V4.12239H6.18409L6.09638 4.99957H5.30613V7.45568H4.25351V4.99957H3.72759V4.12239H3.8157Z" fill="white"/>
<path d="M19.4299 17.4556C19.3414 17.2809 19.1663 17.192 19.079 17.192C18.2896 16.9289 17.5882 16.7542 16.7987 16.4907C16.711 16.4907 16.5356 16.3156 16.5356 15.9643C16.5356 15.7885 16.5356 15.7008 16.3605 15.7008C16.272 15.7008 16.3605 15.7008 16.272 15.6131C16.1847 15.2622 16.1847 15.0864 16.1847 14.9991C16.1847 14.9117 16.272 14.9109 16.272 14.8236C16.5356 14.4728 16.6229 13.9468 16.6229 13.771C16.6229 13.771 16.711 13.771 16.711 13.6829C16.7987 13.5075 16.7987 13.5075 16.7987 13.2439C16.8872 13.0693 16.8872 12.8061 16.711 12.8061C16.6229 12.8938 16.6229 12.8061 16.6229 12.6307V11.5781C16.6229 11.2272 16.3594 10.9644 16.1847 10.8767C15.9208 10.7009 15.8338 10.6132 15.7457 10.6132C15.6576 10.5254 15.6576 10.4377 15.7457 10.35C15.8334 10.2627 15.9208 10.2627 15.9208 10.1746C15.9208 10.1746 15.9208 10.1746 15.8327 10.1746C15.7446 10.1746 15.219 10.2631 14.9559 10.35C14.5173 10.4377 14.0787 10.6132 13.7274 10.8767C13.4643 11.0517 13.2888 11.3149 13.2888 11.6666C13.2888 11.8412 13.2888 12.3679 13.2888 12.7192C13.2888 12.8077 13.2888 12.8946 13.2011 12.8077C12.938 12.8077 13.1134 13.1585 13.1134 13.2455C13.1134 13.4209 13.2011 13.509 13.2884 13.6845C13.2884 13.7726 13.3766 13.7726 13.3766 13.7726C13.4643 14.0357 13.552 14.562 13.7274 14.8252C13.7274 14.8252 13.8155 14.9133 13.8155 15.0006C13.8155 15.1761 13.8155 15.4392 13.7274 15.6147C13.7274 15.6147 13.7274 15.7028 13.6397 15.7028C13.4643 15.7028 13.4643 15.7905 13.4643 15.9659C13.4643 16.2291 13.2888 16.4926 13.2011 16.4926C12.7625 16.6673 11.4471 17.1063 11.0082 17.194C10.745 17.2825 10.6573 17.3694 10.5696 17.4571L10.131 18.5097C11.885 18.5097 12.7625 19.5624 14.6046 19.9132H15.4818C17.3239 19.6501 18.6393 18.5097 19.8677 18.5097L19.4299 17.4556Z" fill="white"/>
</g>
<defs>
<clipPath id="clip0_365_730">
<rect width="30" height="30" fill="white"/>
</clipPath>
</defs>
</svg>
