<svg width="9" height="19" viewBox="0 0 9 19" fill="none" xmlns="http://www.w3.org/2000/svg">
<g clip-path="url(#clip0_544_612)">
<path d="M8.98067 6.63054L8.61115 8.43554C8.49039 9.02989 7.90955 9.49539 7.28886 9.49539H6.03782V17.8126C6.03782 18.4681 5.53004 19.0001 4.85984 19.0001H3.03702C2.36682 19.0001 1.8216 18.467 1.8216 17.812V9.49539H1.2142C0.543996 9.49539 -0.0012207 8.96279 -0.0012207 8.30729V6.52545C-0.0012207 5.87054 0.543996 5.33736 1.2142 5.33736H1.8216V3.56442C1.8216 1.61276 3.43733 0.0244824 5.43042 0.00785742C5.4431 0.00726367 5.45397 0.000732422 5.46725 0.000732422H7.89808C8.23318 0.000732422 8.45296 0.266139 8.45296 0.593889V3.56264C8.45296 3.89098 8.23318 4.15876 7.89808 4.15876H6.07465L6.07405 5.33736H7.89687C8.23862 5.33736 8.55379 5.47926 8.76028 5.72626C8.96738 5.97267 9.04769 6.30279 8.98067 6.63054ZM5.48959 6.52545C5.48114 6.52604 5.47449 6.5302 5.46604 6.5302C5.13034 6.52961 4.85803 6.26361 4.85863 5.93586V5.9317L4.85984 3.56442C4.85984 3.23608 5.13154 2.97067 5.46725 2.97067H7.29007V1.18883H5.4908C5.48053 1.18883 5.47208 1.19417 5.46121 1.19417C4.12443 1.19417 3.03702 2.25758 3.03702 3.56442V5.94061C3.03702 6.26895 2.76471 6.53495 2.42901 6.53495C2.41271 6.53495 2.39882 6.52664 2.38252 6.52545H1.2142V8.30729H2.42901C2.76471 8.30729 3.03702 8.57329 3.03702 8.90164C3.03702 8.93251 3.02374 8.95864 3.01891 8.98833V17.8126L4.85984 17.812V8.90758C4.85984 8.9052 4.85863 8.90164 4.85863 8.90164C4.85863 8.57329 5.13034 8.30729 5.46604 8.30729H7.28886C7.33294 8.30729 7.41143 8.24495 7.41928 8.20339L7.76283 6.52545H5.48959Z" fill="black"/>
</g>
<defs>
<clipPath id="clip0_544_612">
<rect width="9" height="19" fill="white"/>
</clipPath>
</defs>
</svg>
