<svg width="49" height="49" viewBox="0 0 49 49" fill="none" xmlns="http://www.w3.org/2000/svg">
<circle cx="24.5" cy="24.5" r="23.5" fill="white" stroke="#0F3557" stroke-width="2"/>
<g clip-path="url(#clip0_1_212)">
<path d="M25 25.375C26.641 25.375 28.2148 24.7231 29.3752 23.5627C30.5356 22.4023 31.1875 20.8285 31.1875 19.1875C31.1875 17.5465 30.5356 15.9727 29.3752 14.8123C28.2148 13.6519 26.641 13 25 13C23.359 13 21.7852 13.6519 20.6248 14.8123C19.4644 15.9727 18.8125 17.5465 18.8125 19.1875C18.8125 20.8285 19.4644 22.4023 20.6248 23.5627C21.7852 24.7231 23.359 25.375 25 25.375ZM20.9309 26.75C17.1023 26.75 14 29.8523 14 33.6809C14 34.4113 14.593 35 15.3191 35H34.6809C35.4113 35 36 34.407 36 33.6809C36 29.8523 32.8977 26.75 29.0691 26.75H20.9309Z" fill="#0F3557"/>
</g>
<defs>
<clipPath id="clip0_1_212">
<rect width="22" height="22" fill="white" transform="translate(14 13)"/>
</clipPath>
</defs>
</svg>
